<?xml version="1.0" encoding="UTF-8" standalone="no"?>
<svg xmlns:xlink="http://www.w3.org/1999/xlink" height="49.85px" width="46.95px" xmlns="http://www.w3.org/2000/svg">
  <g transform="matrix(1.0, 0.0, 0.0, 1.0, 23.35, 16.5)">
    <path d="M-12.8 7.2 Q-13.9 7.6 -14.9 8.4 -15.45 8.85 -15.7 9.8 L-15.8 10.15 -15.95 11.35 -16.0 12.0 -16.0 12.1 -15.8 13.5 -15.25 14.75 -13.65 17.6 -12.55 19.95 Q-12.1 21.4 -12.1 22.95 L-12.35 25.0 -13.25 28.5 -13.45 29.1 Q-15.1 33.35 -17.5 33.35 -19.15 33.35 -20.1 32.25 -20.85 31.4 -20.8 30.45 -20.8 29.3 -19.4 26.5 L-19.25 26.25 Q-18.0 23.6 -18.0 23.0 -18.0 21.45 -18.85 19.95 L-20.7 17.3 -22.6 14.45 Q-23.4 12.9 -23.35 11.25 L-23.35 10.85 -23.3 10.35 -23.25 9.9 -23.2 9.55 -23.15 9.15 Q-22.7 6.85 -21.5 4.8 -18.3 -0.9 -11.7 -0.9 L-11.6 -0.9 -11.6 -0.8 -11.6 -0.65 -11.6 -0.55 -11.65 -0.15 -11.7 -0.1 -11.7 0.05 -11.75 0.1 -11.75 0.15 -11.8 0.15 -11.8 0.3 -11.85 0.45 -11.9 0.55 -11.95 0.85 -11.95 1.05 -12.0 1.1 -12.0 1.15 -12.05 1.65 -12.05 2.05 -12.1 2.4 -12.2 2.65 -12.2 2.7 -12.2 2.95 -12.2 3.1 -12.2 3.15 -12.25 3.4 -12.25 3.55 -12.35 3.9 -12.35 4.2 -12.4 4.25 -12.4 4.3 -12.55 4.8 -12.6 5.4 -12.7 5.7 -12.7 5.85 -12.75 5.9 -12.75 5.95 -12.75 6.4 -12.75 6.75 -12.8 6.8 -12.8 6.85 -12.8 7.15 -12.8 7.2" fill="#613030" fill-rule="evenodd" stroke="none"/>
    <path d="M-11.6 -0.8 L-11.55 -0.9 -11.5 -0.9 -11.45 -1.1 -11.4 -1.15 -11.5 -1.1 Q-10.15 -4.3 -7.5 -6.95 -4.5 -9.95 -0.8 -11.25 L-0.8 -11.8 Q-0.85 -13.75 1.0 -15.15 2.85 -16.5 5.5 -16.5 8.1 -16.5 9.95 -15.15 11.8 -13.75 11.8 -11.8 L11.75 -11.2 Q15.35 -9.9 18.3 -6.95 23.6 -1.6 23.6 5.95 23.6 13.5 18.3 18.85 12.95 24.15 5.4 24.2 -2.15 24.15 -7.5 18.85 -12.4 13.95 -12.8 7.2 L-12.8 7.15 -12.8 6.85 -12.8 6.8 -12.75 6.75 -12.75 6.4 -12.75 5.95 -12.75 5.9 -12.7 5.85 -12.7 5.7 -12.6 5.4 -12.55 4.8 -12.4 4.3 -12.4 4.25 -12.35 4.2 -12.35 3.9 -12.25 3.55 -12.25 3.4 -12.2 3.15 -12.2 3.1 -12.2 2.95 -12.2 2.7 -12.2 2.65 -12.1 2.4 -12.05 2.05 -12.05 1.65 -12.0 1.15 -12.0 1.1 -11.95 1.05 -11.95 0.85 -11.9 0.55 -11.85 0.45 -11.8 0.3 -11.8 0.15 -11.75 0.15 -11.75 0.1 -11.7 0.05 -11.7 -0.1 -11.65 -0.15 -11.6 -0.55 -11.6 -0.65 -11.6 -0.8" fill="#ffff00" fill-rule="evenodd" stroke="none"/>
  </g>
</svg>
