<?xml version="1.0" encoding="UTF-8" standalone="no"?>
<svg xmlns:xlink="http://www.w3.org/1999/xlink" height="81.65px" width="33.75px" xmlns="http://www.w3.org/2000/svg">
  <g transform="matrix(1.0, 0.0, 0.0, 1.0, -329.0, -144.6)">
    <path d="M362.75 185.15 Q362.85 189.3 361.2 193.45 360.0 196.45 358.1 199.25 L356.45 201.4 353.25 205.85 345.7 215.4 341.2 220.35 336.9 224.4 Q332.2 228.0 330.35 224.65 329.45 223.0 336.3 213.05 L341.15 206.4 343.35 203.45 347.15 197.35 Q350.35 192.3 350.75 187.3 351.1 183.05 349.35 178.65 348.0 175.2 345.1 171.05 L342.5 167.55 339.95 164.25 335.15 158.0 331.0 152.6 Q329.25 149.9 329.05 148.1 328.8 146.1 330.6 145.0 332.35 143.8 336.05 146.35 339.4 148.65 343.9 153.65 348.0 158.2 352.4 164.2 356.6 169.95 359.85 175.35 362.6 180.05 362.75 185.15" fill="#993300" fill-rule="evenodd" stroke="none"/>
    <path d="M360.4 193.95 Q360.2 195.1 359.65 195.7 L358.45 196.5 357.25 197.0 Q356.6 197.4 356.35 198.05 355.7 199.55 354.4 200.1 L350.8 200.3 Q348.85 200.05 347.55 200.95 L346.6 201.85 345.8 202.85 Q345.1 203.7 344.1 206.8 L343.25 209.8 Q342.9 209.6 342.85 208.6 342.8 207.65 343.05 206.35 343.6 203.25 345.0 201.2 346.25 199.3 348.6 198.6 L352.25 198.45 Q353.6 198.7 354.4 197.1 L354.7 195.95 Q354.8 195.35 354.5 195.2 353.95 194.95 353.85 193.85 353.75 192.65 354.35 190.9 354.9 189.4 353.15 190.05 L351.95 190.65 351.35 191.05 Q352.05 190.45 351.55 185.35 L351.1 181.95 350.85 180.45 Q352.0 181.15 352.4 184.45 L352.6 187.6 Q354.0 186.65 355.35 187.3 L356.45 188.25 356.75 186.85 356.8 185.55 355.95 182.2 Q355.1 178.95 354.95 179.15 354.8 179.4 354.5 182.8 L354.25 186.25 Q352.75 184.85 353.4 179.8 L354.0 176.4 354.4 174.95 354.1 175.05 353.05 174.35 Q351.7 173.1 353.85 171.2 354.15 170.95 354.0 170.45 L353.65 169.65 353.4 168.9 Q353.45 168.6 354.0 168.45 355.05 168.25 355.5 170.1 L355.7 171.95 Q356.45 172.2 357.1 173.35 L357.7 174.45 356.7 173.3 Q356.55 173.05 356.2 173.05 L355.6 173.25 Q355.35 173.45 355.45 173.65 355.5 173.85 356.05 174.0 357.1 174.2 358.0 175.85 L358.55 177.0 Q358.15 176.15 357.15 175.4 356.8 175.1 356.3 174.95 L355.95 174.75 Q358.9 179.95 360.0 186.0 360.95 190.8 360.4 193.95" fill="#000000" fill-rule="evenodd" stroke="none"/>
    <path d="M354.75 172.75 Q355.05 172.8 355.0 173.1 354.95 173.45 354.65 173.35 354.35 173.35 354.4 173.0 354.45 172.7 354.75 172.75" fill="#ffffff" fill-rule="evenodd" stroke="none"/>
    <path d="M355.0 171.9 Q355.3 171.9 355.25 172.25 355.2 172.55 354.9 172.5 354.6 172.45 354.65 172.15 354.7 171.85 355.0 171.9" fill="#ffffff" fill-rule="evenodd" stroke="none"/>
    <path d="M343.65 153.55 L345.8 156.0 334.05 156.45 332.75 154.85 343.65 153.55" fill="#ff6600" fill-rule="evenodd" stroke="none"/>
    <path d="M335.2 158.15 L347.4 157.8 348.8 159.5 336.4 159.6 335.2 158.15" fill="#ff6600" fill-rule="evenodd" stroke="none"/>
    <path d="M347.1 213.65 L337.1 212.25 338.2 210.6 348.55 211.95 347.1 213.65" fill="#ff6600" fill-rule="evenodd" stroke="none"/>
    <path d="M343.85 217.55 L334.85 215.35 336.05 213.7 345.55 215.6 343.85 217.55" fill="#ff6600" fill-rule="evenodd" stroke="none"/>
  </g>
</svg>
