<?xml version="1.0" encoding="UTF-8" standalone="no"?>
<svg xmlns:xlink="http://www.w3.org/1999/xlink" height="27.6px" width="319.35px" xmlns="http://www.w3.org/2000/svg">
  <g transform="matrix(1.0, 0.0, 0.0, 1.0, 0.0, 0.0)">
    <path d="M313.0 0.0 Q314.45 0.0 315.6 0.45 316.4 0.75 316.7 1.65 L316.5 2.85 316.7 4.45 316.95 6.1 316.7 7.4 Q316.45 8.25 315.8 8.45 L313.85 8.45 313.85 9.2 Q314.05 9.45 315.1 9.8 316.15 10.1 316.6 10.9 317.35 12.4 317.9 14.55 L318.75 18.45 319.1 20.8 319.35 23.25 Q319.35 25.0 318.5 26.3 317.1 27.2 314.9 27.45 L311.3 27.45 309.45 27.6 303.4 26.85 302.4 26.4 Q301.85 26.15 301.7 25.45 301.05 22.6 301.05 19.7 301.05 18.25 301.2 16.85 301.3 16.45 301.9 15.7 L304.45 16.05 306.6 16.5 306.6 16.3 Q306.45 15.85 305.6 15.65 L304.15 15.25 Q301.6 14.8 300.9 13.1 L300.7 11.8 300.95 10.15 301.15 8.45 Q301.35 5.9 302.1 0.85 L302.7 0.4 306.45 0.2 308.2 0.4 310.65 0.2 313.0 0.0 M314.7 4.6 L314.55 3.25 314.2 2.2 311.65 2.2 307.05 2.3 305.35 2.45 304.15 2.65 Q303.65 4.25 303.35 7.35 L302.9 12.3 303.05 12.6 304.9 13.35 307.45 14.2 Q308.5 14.8 308.65 16.4 L308.5 17.8 Q308.4 18.55 307.65 19.05 L305.15 18.4 304.25 18.3 303.6 18.1 303.55 18.1 Q303.2 19.2 303.2 20.75 303.2 21.9 303.55 24.55 303.75 24.85 304.6 24.95 L306.25 25.25 308.9 25.35 311.7 25.5 316.15 24.9 Q316.9 24.65 317.05 23.95 L317.25 22.3 Q316.95 17.65 315.3 12.2 315.15 11.9 314.5 11.8 313.35 11.6 313.0 11.3 311.95 10.75 311.7 9.3 L311.4 6.8 Q311.95 6.2 312.6 6.2 L313.35 6.25 314.0 6.35 314.35 6.3 314.6 5.75 314.7 4.6" fill="url(#gradient0)" fill-rule="evenodd" stroke="none"/>
    <path d="M314.7 4.6 L314.6 5.75 314.35 6.3 314.0 6.35 313.35 6.25 312.6 6.2 Q311.95 6.2 311.4 6.8 L311.7 9.3 Q311.95 10.75 313.0 11.3 313.35 11.6 314.5 11.8 315.15 11.9 315.3 12.2 316.95 17.65 317.25 22.3 L317.05 23.95 Q316.9 24.65 316.15 24.9 L311.7 25.5 308.9 25.35 306.25 25.25 304.6 24.95 Q303.75 24.85 303.55 24.55 303.2 21.9 303.2 20.75 303.2 19.2 303.55 18.1 L303.6 18.1 304.25 18.3 305.15 18.4 307.65 19.05 Q308.4 18.55 308.5 17.8 L308.65 16.4 Q308.5 14.8 307.45 14.2 L304.9 13.35 303.05 12.6 302.9 12.3 303.35 7.35 Q303.65 4.25 304.15 2.65 L305.35 2.45 307.05 2.3 311.65 2.2 314.2 2.2 314.55 3.25 314.7 4.6" fill="url(#gradient1)" fill-rule="evenodd" stroke="none"/>
    <path d="M294.55 4.25 L295.25 4.6 295.35 5.6 295.25 6.3 291.95 6.25 288.4 6.4 Q287.75 7.05 287.65 8.1 L287.65 9.7 287.85 10.55 Q287.95 11.3 288.75 11.5 L290.1 11.35 Q291.85 11.35 293.65 12.35 294.3 13.3 294.15 14.45 L294.05 14.5 291.25 14.7 290.7 15.4 290.7 18.8 Q291.05 19.75 292.35 19.7 L293.8 19.8 295.0 19.95 296.15 20.1 Q296.5 20.25 296.4 20.85 296.4 23.4 295.8 23.95 L294.45 23.85 293.2 23.95 289.6 23.8 289.1 23.8 283.6 23.35 Q283.35 23.15 283.25 22.45 L283.2 21.2 283.15 19.7 283.25 16.4 283.4 13.3 283.4 11.8 Q283.2 9.25 283.8 5.1 L283.95 4.95 287.7 4.2 291.7 3.8 293.4 3.9 294.55 4.25" fill="url(#gradient2)" fill-rule="evenodd" stroke="none"/>
    <path d="M294.55 4.25 L293.4 3.9 291.7 3.8 287.7 4.2 283.95 4.95 283.8 5.1 Q283.2 9.25 283.4 11.8 L283.4 13.3 283.25 16.4 283.15 19.7 283.2 21.2 283.25 22.45 Q283.35 23.15 283.6 23.35 L289.1 23.8 289.6 23.8 293.2 23.95 294.45 23.85 295.8 23.95 Q296.4 23.4 296.4 20.85 296.5 20.25 296.15 20.1 L295.0 19.95 293.8 19.8 292.35 19.7 Q291.05 19.75 290.7 18.8 L290.7 15.4 291.25 14.7 294.05 14.5 294.15 14.45 Q294.3 13.3 293.65 12.35 291.85 11.35 290.1 11.35 L288.75 11.5 Q287.95 11.3 287.85 10.55 L287.65 9.7 287.65 8.1 Q287.75 7.05 288.4 6.4 L291.95 6.25 295.25 6.3 295.35 5.6 295.25 4.6 294.55 4.25 M297.4 5.65 L297.3 7.4 296.5 8.35 293.0 8.35 289.9 8.75 289.8 8.95 290.45 9.1 291.6 9.25 293.6 9.7 Q295.0 10.25 295.55 11.3 295.9 12.3 296.25 15.75 295.8 16.75 294.35 16.8 292.95 16.8 292.7 17.15 L293.05 17.4 294.7 17.45 296.35 17.45 Q298.45 18.55 298.45 22.0 L298.1 24.15 Q297.9 25.4 296.9 26.0 L289.7 26.05 282.45 25.75 Q281.65 25.2 281.45 24.15 L281.3 22.65 Q281.15 21.45 281.15 20.05 L281.3 16.25 281.4 12.55 281.3 9.55 281.5 6.55 281.75 3.6 Q282.0 2.7 282.75 2.6 L284.15 2.45 Q289.1 1.3 293.6 1.55 L295.75 2.15 Q296.95 2.65 297.4 3.65 L297.4 5.65" fill="url(#gradient3)" fill-rule="evenodd" stroke="none"/>
    <path d="M269.6 3.8 L270.1 2.55 Q270.35 1.75 271.1 1.45 272.45 1.35 274.25 1.95 L276.8 2.7 Q277.6 3.15 277.7 4.15 L277.85 5.6 Q277.65 8.05 278.05 10.15 278.05 14.1 278.4 17.65 L278.2 21.0 Q278.05 22.85 278.25 24.4 277.85 25.1 277.4 25.1 276.0 25.15 274.5 24.15 L272.35 22.7 271.25 22.85 269.5 25.15 268.6 25.3 Q267.4 25.3 265.85 23.75 L263.95 22.3 263.85 22.25 263.8 22.3 263.8 25.55 263.15 26.1 Q260.15 26.0 254.55 26.2 L253.4 25.35 253.2 23.6 253.05 20.6 Q253.0 18.8 253.25 17.6 L253.05 13.35 253.2 8.65 253.3 3.9 Q253.95 3.35 254.9 3.35 L256.1 3.35 264.65 2.5 267.0 3.0 269.4 5.3 269.4 4.95 269.6 3.8 M275.85 22.9 L275.95 20.4 276.1 17.65 275.75 10.95 Q275.5 6.95 275.6 4.4 L275.4 4.2 273.3 3.45 272.4 3.45 Q271.65 4.8 271.3 6.4 L271.1 7.4 Q271.0 8.2 270.15 8.3 L268.75 7.45 266.8 5.6 Q265.85 4.5 265.0 4.5 L264.5 4.6 258.3 5.25 256.75 5.3 Q255.95 5.35 255.65 5.65 255.25 7.4 255.2 9.75 L255.2 15.05 255.2 21.15 255.4 22.85 Q255.45 23.85 255.65 24.15 L258.45 24.4 261.25 24.55 261.3 24.45 Q261.35 22.05 261.85 20.4 262.1 19.75 263.1 19.65 264.15 19.95 265.95 21.6 266.75 22.7 267.15 22.65 267.85 23.2 268.15 23.2 L270.5 21.0 Q271.2 20.05 272.45 20.45 273.3 21.25 275.65 22.85 L275.85 23.0 275.85 22.9" fill="url(#gradient4)" fill-rule="evenodd" stroke="none"/>
    <path d="M275.65 22.85 Q273.3 21.25 272.45 20.45 271.2 20.05 270.5 21.0 L268.15 23.2 Q267.85 23.2 267.15 22.65 266.75 22.7 265.95 21.6 264.15 19.95 263.1 19.65 262.1 19.75 261.85 20.4 261.35 22.05 261.3 24.45 L261.25 24.55 258.45 24.4 255.65 24.15 Q255.45 23.85 255.4 22.85 L255.2 21.15 255.2 15.05 255.2 9.75 Q255.25 7.4 255.65 5.65 255.95 5.35 256.75 5.3 L258.3 5.25 264.5 4.6 265.0 4.5 Q265.85 4.5 266.8 5.6 L268.75 7.45 270.15 8.3 Q271.0 8.2 271.1 7.4 L271.3 6.4 Q271.65 4.8 272.4 3.45 L273.3 3.45 275.4 4.2 275.6 4.4 Q275.5 6.95 275.75 10.95 L276.1 17.65 275.95 20.4 275.85 22.9 275.65 22.85" fill="url(#gradient5)" fill-rule="evenodd" stroke="none"/>
    <path d="M249.95 5.35 L250.15 7.5 249.7 21.4 249.5 22.9 Q249.25 23.65 248.55 24.1 L242.35 24.55 Q241.9 24.6 241.45 23.8 241.15 22.1 241.35 18.95 L240.8 18.85 239.65 19.05 Q239.5 19.15 239.6 19.7 239.2 21.95 239.6 22.15 240.0 23.45 239.05 24.15 L237.75 24.3 236.0 24.15 234.3 24.0 232.25 24.0 230.9 24.55 230.8 20.85 Q230.9 19.0 230.4 17.9 230.5 16.5 230.2 14.6 229.6 11.8 229.6 10.7 L229.2 8.6 228.85 6.45 Q228.85 5.55 230.1 4.75 L232.35 4.1 243.9 3.1 247.85 3.3 248.9 3.35 Q249.8 4.05 249.95 5.35 M248.3 7.2 Q248.05 5.85 247.8 5.45 L244.6 5.25 241.35 5.15 237.95 5.4 233.9 5.95 Q231.7 6.4 230.5 7.15 230.4 7.9 230.8 8.95 L230.95 10.9 231.25 12.85 231.1 13.7 Q231.8 15.3 231.6 16.55 232.0 17.6 232.15 21.8 L232.5 21.85 233.05 21.95 234.05 21.85 235.6 22.0 237.2 22.1 237.9 22.1 238.05 22.0 237.6 19.4 Q237.25 17.6 238.05 16.75 L240.15 16.6 242.25 16.5 Q243.25 16.95 243.4 17.8 L243.3 22.4 243.35 22.4 244.5 22.3 245.9 22.1 247.25 21.95 Q247.85 21.9 247.95 21.6 L248.15 14.95 248.3 7.2" fill="url(#gradient6)" fill-rule="evenodd" stroke="none"/>
    <path d="M248.3 7.2 L248.15 14.95 247.95 21.6 Q247.85 21.9 247.25 21.95 L245.9 22.1 244.5 22.3 243.35 22.4 243.3 22.4 243.4 17.8 Q243.25 16.95 242.25 16.5 L240.15 16.6 238.05 16.75 Q237.25 17.6 237.6 19.4 L238.05 22.0 237.9 22.1 237.2 22.1 235.6 22.0 234.05 21.85 233.05 21.95 232.5 21.85 232.15 21.8 Q232.0 17.6 231.6 16.55 231.8 15.3 231.1 13.7 L231.25 12.85 230.95 10.9 230.8 8.95 Q230.4 7.9 230.5 7.15 231.7 6.4 233.9 5.95 L237.95 5.4 241.35 5.15 244.6 5.25 247.8 5.45 Q248.05 5.85 248.3 7.2 M237.5 12.1 L237.6 12.2 237.0 12.75 Q236.8 14.05 237.6 14.35 L241.4 15.05 242.05 14.25 242.25 9.0 241.45 8.25 237.25 7.85 Q236.7 8.25 236.65 8.65 236.85 11.15 237.5 12.1" fill="url(#gradient7)" fill-rule="evenodd" stroke="none"/>
    <path d="M237.5 12.1 Q236.85 11.15 236.65 8.65 236.7 8.25 237.25 7.85 L241.45 8.25 242.25 9.0 242.05 14.25 241.4 15.05 237.6 14.35 Q236.8 14.05 237.0 12.75 L237.6 12.2 237.5 12.1 M240.35 10.5 L238.8 10.4 Q238.8 10.8 239.95 12.45 240.3 12.75 240.55 12.65 L240.55 10.7 240.35 10.5" fill="url(#gradient8)" fill-rule="evenodd" stroke="none"/>
    <path d="M221.6 1.7 Q222.25 1.9 222.6 2.7 L222.6 10.6 Q222.15 11.45 221.1 11.45 L220.45 11.45 219.8 11.45 219.1 11.55 217.05 11.95 Q216.1 12.3 215.7 13.0 215.65 13.4 215.95 14.05 L216.45 14.95 216.95 15.45 217.1 14.95 217.35 14.35 217.6 13.5 Q217.7 12.55 218.45 12.3 L221.75 12.7 Q223.55 13.05 224.75 14.0 225.65 15.45 226.0 17.65 L226.45 21.65 Q225.95 23.05 224.75 24.15 223.6 25.25 222.25 25.6 L219.0 26.05 Q214.2 26.05 211.6 22.85 206.95 18.75 206.7 13.3 206.7 12.2 207.1 11.0 L207.95 8.85 Q211.05 3.65 215.75 2.55 216.35 2.3 217.65 1.95 L220.2 1.55 221.6 1.7 M220.45 8.9 L220.4 3.55 220.05 3.55 215.9 4.45 Q213.75 5.15 212.6 6.0 208.9 10.25 208.85 13.9 209.35 17.9 211.85 20.75 L214.15 22.5 Q215.4 23.3 216.7 23.3 L218.8 23.65 Q221.35 23.65 223.45 21.95 224.2 21.5 224.2 20.4 L224.1 19.45 224.0 18.5 223.8 16.85 Q223.7 16.0 223.4 15.65 L222.15 15.25 220.8 14.95 219.6 14.8 218.9 16.05 218.65 17.2 Q218.5 18.1 217.85 18.5 L217.4 18.6 Q217.0 18.6 216.9 18.35 L215.9 17.55 Q213.3 15.1 213.65 11.95 213.65 11.45 214.95 10.1 L219.3 8.85 220.05 8.9 220.45 9.0 220.45 8.9" fill="url(#gradient9)" fill-rule="evenodd" stroke="none"/>
    <path d="M220.05 8.9 L219.3 8.85 214.95 10.1 Q213.65 11.45 213.65 11.95 213.3 15.1 215.9 17.55 L216.9 18.35 Q217.0 18.6 217.4 18.6 L217.85 18.5 Q218.5 18.1 218.65 17.2 L218.9 16.05 219.6 14.8 220.8 14.95 222.15 15.25 223.4 15.65 Q223.7 16.0 223.8 16.85 L224.0 18.5 224.1 19.45 224.2 20.4 Q224.2 21.5 223.45 21.95 221.35 23.65 218.8 23.65 L216.7 23.3 Q215.4 23.3 214.15 22.5 L211.85 20.75 Q209.35 17.9 208.85 13.9 208.9 10.25 212.6 6.0 213.75 5.15 215.9 4.45 L220.05 3.55 220.4 3.55 220.45 8.9 220.05 8.9" fill="url(#gradient10)" fill-rule="evenodd" stroke="none"/>
    <path d="M191.5 3.65 L191.5 5.65 191.4 7.4 190.6 8.35 187.1 8.35 184.0 8.75 183.9 8.95 184.55 9.1 185.7 9.25 187.7 9.7 Q189.1 10.25 189.65 11.3 190.0 12.3 190.35 15.75 189.9 16.75 188.45 16.8 187.05 16.8 186.8 17.15 186.7 17.3 187.15 17.4 L188.8 17.45 190.45 17.45 Q192.55 18.55 192.55 22.0 L192.2 24.15 Q192.0 25.4 191.0 26.0 L183.8 26.05 176.55 25.75 Q175.75 25.2 175.55 24.15 L175.4 22.65 Q175.25 21.45 175.25 20.05 L175.4 16.25 175.5 12.55 175.4 9.55 175.6 6.55 175.85 3.6 Q176.1 2.7 176.85 2.6 L178.25 2.45 Q183.2 1.3 187.7 1.55 L189.85 2.15 Q191.05 2.65 191.5 3.65 M189.35 4.6 L188.65 4.25 187.5 3.9 185.8 3.8 181.8 4.2 178.05 4.95 177.9 5.1 Q177.3 9.25 177.5 11.8 L177.5 13.3 177.35 16.4 177.25 19.7 177.3 21.2 177.35 22.45 Q177.45 23.15 177.7 23.35 L183.2 23.8 183.7 23.8 187.3 23.95 188.55 23.85 189.9 23.95 Q190.5 23.4 190.5 20.85 190.6 20.25 190.25 20.1 L189.1 19.95 187.9 19.8 186.45 19.7 Q185.15 19.75 184.8 18.8 L184.8 15.4 185.35 14.7 188.15 14.5 188.25 14.45 Q188.4 13.3 187.75 12.35 185.95 11.35 184.2 11.35 L182.85 11.5 Q182.05 11.3 181.95 10.55 L181.75 9.7 181.75 8.1 Q181.85 7.05 182.5 6.4 L186.05 6.25 189.35 6.3 189.45 5.6 189.35 4.6" fill="url(#gradient11)" fill-rule="evenodd" stroke="none"/>
    <path d="M189.35 4.6 L189.45 5.6 189.35 6.3 186.05 6.25 182.5 6.4 Q181.85 7.05 181.75 8.1 L181.75 9.7 181.95 10.55 Q182.05 11.3 182.85 11.5 L184.2 11.35 Q185.95 11.35 187.75 12.35 188.4 13.3 188.25 14.45 L188.15 14.5 185.35 14.7 184.8 15.4 184.8 18.8 Q185.15 19.75 186.45 19.7 L187.9 19.8 189.1 19.95 190.25 20.1 Q190.6 20.25 190.5 20.85 190.5 23.4 189.9 23.95 L188.55 23.85 187.3 23.95 183.7 23.8 183.2 23.8 177.7 23.35 Q177.45 23.15 177.35 22.45 L177.3 21.2 177.25 19.7 177.35 16.4 177.5 13.3 177.5 11.8 Q177.3 9.25 177.9 5.1 L178.05 4.95 181.8 4.2 185.8 3.8 187.5 3.9 188.65 4.25 189.35 4.6" fill="url(#gradient12)" fill-rule="evenodd" stroke="none"/>
    <path d="M170.85 4.1 Q172.85 7.65 172.85 11.75 L172.8 13.25 Q172.7 14.1 171.9 14.45 L170.3 15.05 Q169.2 15.15 167.75 15.75 L165.3 16.7 165.35 16.75 167.8 18.9 170.2 21.5 170.2 22.4 167.8 24.7 Q166.4 24.9 165.05 23.65 L163.35 22.3 163.4 24.8 162.85 25.25 159.5 25.45 156.4 25.6 154.35 26.05 152.05 26.3 Q151.2 25.65 151.05 24.5 L150.85 22.75 150.65 17.0 150.45 11.3 150.6 8.6 150.75 5.9 150.6 3.5 Q151.9 2.55 153.7 2.15 L156.9 1.55 162.35 1.3 165.65 1.75 168.5 2.15 Q170.2 2.7 170.85 4.1 M169.6 6.15 Q169.2 4.95 168.8 4.5 164.7 3.4 162.35 3.4 L160.75 3.5 154.8 4.15 153.7 4.55 153.0 5.05 152.8 12.05 153.0 18.1 153.2 23.9 153.2 23.95 158.65 23.35 160.0 23.3 161.2 23.2 161.3 22.4 161.1 21.05 160.95 19.7 Q161.05 19.25 161.45 19.05 L162.4 19.1 166.4 22.4 166.75 22.4 167.35 21.9 167.7 21.45 165.8 19.6 163.65 17.8 162.7 16.85 Q162.2 16.3 162.3 15.5 L163.15 14.8 164.05 14.55 Q165.1 13.9 167.1 13.45 L170.2 12.6 170.4 12.35 170.6 10.45 170.3 7.85 169.6 6.15" fill="url(#gradient13)" fill-rule="evenodd" stroke="none"/>
    <path d="M169.6 6.15 L170.3 7.85 170.6 10.45 170.4 12.35 170.2 12.6 167.1 13.45 Q165.1 13.9 164.05 14.55 L163.15 14.8 162.3 15.5 Q162.2 16.3 162.7 16.85 L163.65 17.8 165.8 19.6 167.7 21.45 167.35 21.9 166.75 22.4 166.4 22.4 162.4 19.1 161.45 19.05 Q161.05 19.25 160.95 19.7 L161.1 21.05 161.3 22.4 161.2 23.2 160.0 23.3 158.65 23.35 153.2 23.95 153.2 23.9 153.0 18.1 152.8 12.05 153.0 5.05 153.7 4.55 154.8 4.15 160.75 3.5 162.35 3.4 Q164.7 3.4 168.8 4.5 169.2 4.95 169.6 6.15 M159.95 5.5 Q159.6 4.45 158.1 4.45 L157.1 4.55 Q156.55 4.6 156.15 4.9 155.45 6.0 155.45 7.65 L155.55 9.95 157.15 14.45 Q157.95 15.3 158.85 15.35 160.55 15.5 161.1 14.5 L160.8 13.2 Q160.5 12.45 160.55 12.0 L159.95 5.5" fill="url(#gradient14)" fill-rule="evenodd" stroke="none"/>
    <path d="M159.95 5.5 L160.55 12.0 Q160.5 12.45 160.8 13.2 L161.1 14.5 Q160.55 15.5 158.85 15.35 157.95 15.3 157.15 14.45 L155.55 9.95 155.45 7.65 Q155.45 6.0 156.15 4.9 156.55 4.6 157.1 4.55 L158.1 4.45 Q159.6 4.45 159.95 5.5 M157.65 8.8 Q157.65 10.7 158.4 12.25 L158.1 7.05 157.95 6.9 157.9 6.9 Q157.65 7.75 157.65 8.8 M158.4 12.25 L158.45 12.9 158.65 12.7 158.4 12.25" fill="url(#gradient15)" fill-rule="evenodd" stroke="none"/>
    <path d="M147.75 8.4 L147.7 10.3 147.35 13.25 Q146.95 15.15 146.9 16.1 L145.85 21.45 Q144.95 24.45 142.65 26.1 L138.7 25.65 135.2 24.95 Q133.15 24.35 132.05 22.95 131.5 19.15 131.45 8.7 L131.65 6.6 131.8 4.6 131.8 3.25 Q133.15 2.15 135.2 1.9 L138.75 1.5 141.8 1.55 144.35 2.2 Q146.0 2.65 146.95 3.45 147.8 4.75 147.8 7.05 L147.75 8.4 M144.55 4.3 L142.0 3.65 140.1 3.5 Q133.25 3.5 133.25 5.55 L133.25 6.05 133.25 6.5 Q133.25 7.15 132.35 7.8 132.7 7.9 133.05 14.45 133.0 19.15 133.45 21.95 133.9 22.5 134.9 22.85 L136.9 23.3 139.65 23.8 142.0 24.1 143.55 22.45 Q144.45 20.7 144.95 17.85 L145.65 12.85 146.1 8.0 145.85 5.1 145.3 4.7 144.55 4.3" fill="url(#gradient16)" fill-rule="evenodd" stroke="none"/>
    <path d="M141.25 5.0 Q140.0 4.65 139.6 5.6 140.0 8.8 139.85 13.45 140.05 14.85 140.7 15.15 142.35 15.35 143.1 14.55 143.65 13.3 143.65 11.95 L143.25 8.95 142.6 6.1 Q142.45 5.5 141.25 5.0 M144.55 4.3 L145.3 4.7 145.85 5.1 146.1 8.0 145.65 12.85 144.95 17.85 Q144.45 20.7 143.55 22.45 L142.0 24.1 139.65 23.8 136.9 23.3 134.9 22.85 Q133.9 22.5 133.45 21.95 133.0 19.15 133.05 14.45 132.7 7.9 132.35 7.8 133.25 7.15 133.25 6.5 L133.25 6.05 133.25 5.55 Q133.25 3.5 140.1 3.5 L142.0 3.65 144.55 4.3" fill="url(#gradient17)" fill-rule="evenodd" stroke="none"/>
    <path d="M141.25 5.0 Q142.45 5.5 142.6 6.1 L143.25 8.95 143.65 11.95 Q143.65 13.3 143.1 14.55 142.35 15.35 140.7 15.15 140.05 14.85 139.85 13.45 140.0 8.8 139.6 5.6 140.0 4.65 141.25 5.0 M141.75 9.7 L141.45 8.5 141.45 9.95 140.8 12.7 141.65 13.05 141.7 13.05 142.0 11.55 141.75 9.7 M141.45 8.5 L141.55 7.4 Q141.15 7.4 141.25 7.65 L141.45 8.5" fill="url(#gradient18)" fill-rule="evenodd" stroke="none"/>
    <path d="M128.15 5.6 Q127.95 8.05 128.35 10.15 128.35 14.1 128.7 17.65 L128.5 21.0 Q128.35 22.85 128.55 24.4 L127.7 25.1 Q126.3 25.15 124.8 24.15 L122.65 22.7 121.55 22.85 119.8 25.15 118.9 25.3 Q117.7 25.3 116.15 23.75 L114.25 22.3 114.15 22.25 114.1 22.3 114.1 25.55 113.45 26.1 Q110.45 26.0 104.85 26.2 L103.7 25.35 103.5 23.6 103.35 20.6 Q103.3 18.8 103.55 17.6 L103.35 13.35 103.5 8.65 103.6 3.9 Q104.25 3.35 105.2 3.35 L106.4 3.35 114.95 2.5 117.3 3.0 119.7 5.3 119.7 4.95 119.9 3.8 120.4 2.55 Q120.65 1.75 121.4 1.45 122.75 1.35 124.55 1.95 L127.1 2.7 Q127.9 3.15 128.0 4.15 L128.15 5.6 M126.15 22.9 L126.25 20.4 126.4 17.65 126.05 10.95 Q125.8 6.95 125.9 4.4 L125.7 4.2 123.6 3.45 122.7 3.45 Q121.95 4.8 121.6 6.4 L121.4 7.4 Q121.3 8.2 120.45 8.3 119.6 8.1 119.05 7.45 L117.1 5.6 Q116.15 4.5 115.3 4.5 L114.8 4.6 108.6 5.25 107.05 5.3 Q106.25 5.35 105.95 5.65 105.55 7.4 105.5 9.75 L105.5 15.05 105.5 21.15 105.7 22.85 Q105.75 23.85 105.95 24.15 L108.75 24.4 111.55 24.55 111.6 24.45 Q111.65 22.05 112.15 20.4 112.4 19.75 113.4 19.65 114.45 19.95 116.25 21.6 117.05 22.7 117.45 22.65 118.15 23.2 118.45 23.2 L120.8 21.0 Q121.5 20.05 122.75 20.45 123.6 21.25 125.95 22.85 L126.15 23.0 126.15 22.9" fill="url(#gradient19)" fill-rule="evenodd" stroke="none"/>
    <path d="M125.95 22.85 Q123.6 21.25 122.75 20.45 121.5 20.05 120.8 21.0 L118.45 23.2 Q118.15 23.2 117.45 22.65 117.05 22.7 116.25 21.6 114.45 19.95 113.4 19.65 112.4 19.75 112.15 20.4 111.65 22.05 111.6 24.45 L111.55 24.55 108.75 24.4 105.95 24.15 Q105.75 23.85 105.7 22.85 L105.5 21.15 105.5 15.05 105.5 9.75 Q105.55 7.4 105.95 5.65 106.25 5.35 107.05 5.3 L108.6 5.25 114.8 4.6 115.3 4.5 Q116.15 4.5 117.1 5.6 L119.05 7.45 Q119.6 8.1 120.45 8.3 121.3 8.2 121.4 7.4 L121.6 6.4 Q121.95 4.8 122.7 3.45 L123.6 3.45 125.7 4.2 125.9 4.4 Q125.8 6.95 126.05 10.95 L126.4 17.65 126.25 20.4 126.15 22.9 125.95 22.85" fill="url(#gradient20)" fill-rule="evenodd" stroke="none"/>
    <path d="M89.6 4.7 Q89.25 5.25 89.25 5.55 L87.65 8.25 86.05 10.7 82.65 15.35 Q81.8 16.2 80.8 17.85 L79.1 20.4 76.35 24.95 75.7 26.05 Q75.2 26.95 74.4 26.95 L73.9 26.9 72.15 26.2 70.3 25.5 68.0 24.45 66.05 23.1 66.1 22.3 70.9 15.75 Q71.75 15.25 72.95 13.45 71.85 11.95 66.75 2.35 66.45 1.35 67.5 1.0 L78.1 0.5 Q79.1 0.35 79.9 1.55 L81.3 4.4 81.7 3.85 Q82.25 3.1 82.65 2.9 L84.1 1.7 Q85.15 0.7 86.1 0.75 L88.25 1.95 89.9 3.45 Q90.0 4.15 89.6 4.7 M68.8 22.7 L73.3 24.6 73.95 24.55 Q76.85 20.95 80.85 13.9 L84.55 9.15 Q86.8 5.9 87.45 3.85 L86.8 3.35 86.25 3.1 Q84.0 4.2 81.7 7.5 80.3 7.6 79.65 6.65 L79.1 5.1 78.55 3.6 78.05 2.75 76.45 2.7 72.95 2.85 69.45 3.0 69.4 3.0 69.4 3.05 Q71.0 6.6 74.4 11.85 L74.95 12.85 Q75.25 13.45 75.2 14.2 L73.15 16.85 Q71.95 17.9 70.75 19.6 L68.7 22.6 68.65 22.65 68.8 22.7" fill="url(#gradient21)" fill-rule="evenodd" stroke="none"/>
    <path d="M69.45 3.0 L72.95 2.85 76.45 2.7 78.05 2.75 78.55 3.6 79.1 5.1 79.65 6.65 Q80.3 7.6 81.7 7.5 84.0 4.2 86.25 3.1 L86.8 3.35 87.45 3.85 Q86.8 5.9 84.55 9.15 L80.85 13.9 Q76.85 20.95 73.95 24.55 L73.3 24.6 68.8 22.7 68.7 22.6 70.75 19.6 Q71.95 17.9 73.15 16.85 L75.2 14.2 Q75.25 13.45 74.95 12.85 L74.4 11.85 Q71.0 6.6 69.4 3.05 L69.45 3.0" fill="url(#gradient22)" fill-rule="evenodd" stroke="none"/>
    <path d="M57.6 5.25 L60.8 5.45 61.3 7.2 61.15 14.95 60.95 21.6 Q60.85 21.9 60.25 21.95 L58.9 22.1 57.5 22.3 56.35 22.4 56.3 22.4 56.4 17.8 Q56.25 16.95 55.25 16.5 L53.15 16.6 51.05 16.75 Q50.25 17.6 50.6 19.4 L51.05 22.0 50.9 22.1 50.2 22.1 48.6 22.0 47.05 21.85 46.05 21.95 45.5 21.85 45.15 21.8 Q45.0 17.6 44.6 16.55 44.8 15.3 44.1 13.7 L44.25 12.85 43.95 10.9 43.8 8.95 Q43.4 7.9 43.5 7.15 44.7 6.4 46.9 5.95 L50.95 5.4 54.35 5.15 57.6 5.25 M50.5 12.1 L50.6 12.2 50.0 12.75 Q49.8 14.05 50.6 14.35 L54.4 15.05 55.05 14.25 55.25 9.0 54.45 8.25 50.25 7.85 Q49.7 8.25 49.65 8.65 49.85 11.15 50.5 12.1" fill="url(#gradient23)" fill-rule="evenodd" stroke="none"/>
    <path d="M57.6 5.25 L54.35 5.15 50.95 5.4 46.9 5.95 Q44.7 6.4 43.5 7.15 43.4 7.9 43.8 8.95 L43.95 10.9 44.25 12.85 44.1 13.7 Q44.8 15.3 44.6 16.55 45.0 17.6 45.15 21.8 L45.5 21.85 46.05 21.95 47.05 21.85 48.6 22.0 50.2 22.1 50.9 22.1 51.05 22.0 50.6 19.4 Q50.25 17.6 51.05 16.75 L53.15 16.6 55.25 16.5 Q56.25 16.95 56.4 17.8 L56.3 22.4 56.35 22.4 57.5 22.3 58.9 22.1 60.25 21.95 Q60.85 21.9 60.95 21.6 L61.15 14.95 61.3 7.2 60.8 5.45 57.6 5.25 M62.95 5.35 L63.15 7.5 62.7 21.4 62.5 22.9 Q62.25 23.65 61.55 24.1 L55.35 24.55 Q54.9 24.6 54.45 23.8 54.15 22.1 54.35 18.95 L53.8 18.85 52.65 19.05 Q52.5 19.15 52.6 19.7 52.2 21.95 52.6 22.15 53.0 23.45 52.05 24.15 L50.75 24.3 49.0 24.15 47.3 24.0 45.25 24.0 43.9 24.55 43.8 20.85 Q43.9 19.0 43.4 17.9 43.5 16.5 43.2 14.6 42.6 11.8 42.6 10.7 L42.2 8.6 41.85 6.45 Q41.85 5.55 43.1 4.75 L45.35 4.1 56.9 3.1 60.85 3.3 61.9 3.35 Q62.8 4.05 62.95 5.35" fill="url(#gradient24)" fill-rule="evenodd" stroke="none"/>
    <path d="M53.35 10.5 L51.8 10.4 Q51.8 10.8 52.95 12.45 53.3 12.75 53.55 12.65 L53.55 10.7 53.35 10.5 M50.5 12.1 Q49.85 11.15 49.65 8.65 49.7 8.25 50.25 7.85 L54.45 8.25 55.25 9.0 55.05 14.25 54.4 15.05 50.6 14.35 Q49.8 14.05 50.0 12.75 L50.6 12.2 50.5 12.1" fill="url(#gradient25)" fill-rule="evenodd" stroke="none"/>
    <path d="M28.7 5.95 L28.95 9.35 29.25 11.3 29.85 13.05 30.1 13.25 39.35 13.35 Q39.9 13.7 40.05 14.75 39.85 20.85 39.4 23.9 39.35 24.55 38.45 24.75 32.85 24.55 24.7 25.05 L21.65 25.2 Q20.85 25.05 20.7 24.15 L20.8 19.65 20.9 15.35 20.8 12.8 20.7 10.25 21.1 6.85 21.35 3.55 Q21.5 2.75 22.15 2.65 L23.35 2.55 24.55 2.45 25.85 2.4 27.7 2.8 Q28.5 4.0 28.7 5.95 M26.35 5.1 L25.4 5.05 24.4 5.0 Q23.5 5.0 23.15 5.35 22.3 9.55 22.45 12.4 22.8 18.55 22.45 22.35 L22.65 22.4 23.1 22.45 Q24.5 22.3 27.6 22.4 L31.8 22.25 34.95 22.15 37.7 22.2 37.85 22.1 38.15 19.2 Q38.8 16.1 38.35 16.1 L38.1 16.05 Q35.2 15.85 29.3 15.9 L28.6 15.4 Q27.65 13.45 27.25 10.5 L26.7 5.4 26.35 5.1" fill="url(#gradient26)" fill-rule="evenodd" stroke="none"/>
    <path d="M26.35 5.1 L26.7 5.4 27.25 10.5 Q27.65 13.45 28.6 15.4 L29.3 15.9 Q35.2 15.85 38.1 16.05 L38.35 16.1 Q38.8 16.1 38.15 19.2 L37.85 22.1 37.7 22.2 34.95 22.15 31.8 22.25 27.6 22.4 Q24.5 22.3 23.1 22.45 L22.65 22.4 22.45 22.35 Q22.8 18.55 22.45 12.4 22.3 9.55 23.15 5.35 23.5 5.0 24.4 5.0 L25.4 5.05 26.35 5.1" fill="url(#gradient27)" fill-rule="evenodd" stroke="none"/>
    <path d="M16.35 4.7 Q17.15 5.2 17.35 5.8 L17.8 7.7 17.7 8.4 16.75 10.1 15.3 11.7 13.9 12.85 12.15 13.7 Q11.8 14.2 11.8 14.75 L12.0 15.9 12.2 16.95 12.8 22.5 8.45 23.3 3.8 23.75 Q3.35 23.9 3.2 23.1 1.9 17.2 1.9 10.0 1.9 7.65 2.05 5.6 2.4 5.3 3.8 4.8 L4.1 4.7 Q5.3 4.3 5.8 3.8 L12.45 3.45 14.75 3.9 16.35 4.7 M8.6 8.9 L7.95 6.85 Q6.8 5.05 4.3 5.3 3.4 5.5 3.55 6.35 3.9 7.55 4.05 10.35 4.15 13.15 4.75 14.5 5.1 15.15 5.8 15.15 L6.8 14.95 7.8 14.7 8.65 13.55 8.9 12.6 9.1 11.25 Q9.1 10.35 8.6 8.9" fill="url(#gradient28)" fill-rule="evenodd" stroke="none"/>
    <path d="M16.35 4.7 L14.75 3.9 12.45 3.45 5.8 3.8 Q5.3 4.3 4.1 4.7 L3.8 4.8 Q2.4 5.3 2.05 5.6 1.9 7.65 1.9 10.0 1.9 17.2 3.2 23.1 3.35 23.9 3.8 23.75 L8.45 23.3 12.8 22.5 12.2 16.95 12.0 15.9 11.8 14.75 Q11.8 14.2 12.15 13.7 L13.9 12.85 15.3 11.7 16.75 10.1 17.7 8.4 17.8 7.7 17.35 5.8 Q17.15 5.2 16.35 4.7 M17.85 3.55 Q19.7 5.75 19.7 9.0 18.95 13.0 14.1 15.7 L14.0 15.85 14.1 18.45 Q14.15 19.95 14.5 21.05 14.4 21.65 14.6 22.75 L14.7 24.6 14.1 25.0 Q12.15 25.7 8.7 25.85 L3.25 26.25 Q2.05 26.4 1.8 25.35 -0.15 15.75 0.0 7.55 L0.0 3.8 Q0.55 3.25 1.35 2.95 L2.45 2.4 Q5.6 1.1 11.95 1.35 L14.65 1.85 Q16.1 2.2 16.95 2.9 L17.85 3.55 M12.8 22.5 L12.8 22.6 12.8 22.5" fill="url(#gradient29)" fill-rule="evenodd" stroke="none"/>
    <path d="M5.8 7.85 L5.95 10.65 Q6.05 12.2 6.4 12.65 L6.65 12.55 Q7.2 11.85 7.2 10.65 7.2 9.3 6.65 8.35 L5.8 7.85 M8.6 8.9 Q9.1 10.35 9.1 11.25 L8.9 12.6 8.65 13.55 7.8 14.7 6.8 14.95 5.8 15.15 Q5.1 15.15 4.75 14.5 4.15 13.15 4.05 10.35 3.9 7.55 3.55 6.35 3.4 5.5 4.3 5.3 6.8 5.05 7.95 6.85 L8.6 8.9" fill="#ffffff" fill-rule="evenodd" stroke="none"/>
  </g>
  <defs>
    <radialGradient cx="0" cy="0" gradientTransform="matrix(0.0345, 0.0, 0.0, 0.0345, 303.05, 2.85)" gradientUnits="userSpaceOnUse" id="gradient0" r="819.2" spreadMethod="pad">
      <stop offset="0.0" stop-color="#ffffff"/>
      <stop offset="0.396078431372549" stop-color="#e9f7ff"/>
      <stop offset="1.0" stop-color="#0099ff"/>
      <stop offset="1.0" stop-color="#ff66cc"/>
    </radialGradient>
    <linearGradient gradientTransform="matrix(0.0, -0.0142, 0.0088, 0.0, 310.05, 13.85)" gradientUnits="userSpaceOnUse" id="gradient1" spreadMethod="pad" x1="-819.2" x2="819.2">
      <stop offset="0.0" stop-color="#ffffff"/>
      <stop offset="0.396078431372549" stop-color="#e9f7ff"/>
      <stop offset="1.0" stop-color="#0099ff"/>
      <stop offset="1.0" stop-color="#ff66cc"/>
    </linearGradient>
    <linearGradient gradientTransform="matrix(0.0, -0.0123, 0.0081, 0.0, 289.75, 13.9)" gradientUnits="userSpaceOnUse" id="gradient2" spreadMethod="pad" x1="-819.2" x2="819.2">
      <stop offset="0.0" stop-color="#ffffff"/>
      <stop offset="0.396078431372549" stop-color="#e9f7ff"/>
      <stop offset="1.0" stop-color="#0099ff"/>
      <stop offset="1.0" stop-color="#ff66cc"/>
    </linearGradient>
    <radialGradient cx="0" cy="0" gradientTransform="matrix(0.0325, 0.0, 0.0, 0.0325, 283.8, 3.95)" gradientUnits="userSpaceOnUse" id="gradient3" r="819.2" spreadMethod="pad">
      <stop offset="0.0" stop-color="#ffffff"/>
      <stop offset="0.396078431372549" stop-color="#e9f7ff"/>
      <stop offset="1.0" stop-color="#0099ff"/>
      <stop offset="1.0" stop-color="#ff66cc"/>
    </radialGradient>
    <radialGradient cx="0" cy="0" gradientTransform="matrix(0.0388, 0.0, 0.0, 0.0388, 253.8, 4.55)" gradientUnits="userSpaceOnUse" id="gradient4" r="819.2" spreadMethod="pad">
      <stop offset="0.0" stop-color="#ffffff"/>
      <stop offset="0.396078431372549" stop-color="#e9f7ff"/>
      <stop offset="1.0" stop-color="#0099ff"/>
      <stop offset="1.0" stop-color="#ff66cc"/>
    </radialGradient>
    <linearGradient gradientTransform="matrix(0.0, -0.0129, 0.0128, 0.0, 265.65, 14.0)" gradientUnits="userSpaceOnUse" id="gradient5" spreadMethod="pad" x1="-819.2" x2="819.2">
      <stop offset="0.0" stop-color="#ffffff"/>
      <stop offset="0.396078431372549" stop-color="#e9f7ff"/>
      <stop offset="1.0" stop-color="#0099ff"/>
      <stop offset="1.0" stop-color="#ff66cc"/>
    </linearGradient>
    <radialGradient cx="0" cy="0" gradientTransform="matrix(0.0321, 0.0, 0.0, 0.0321, 230.0, 6.2)" gradientUnits="userSpaceOnUse" id="gradient6" r="819.2" spreadMethod="pad">
      <stop offset="0.0" stop-color="#ffffff"/>
      <stop offset="0.396078431372549" stop-color="#e9f7ff"/>
      <stop offset="1.0" stop-color="#0099ff"/>
      <stop offset="1.0" stop-color="#ff66cc"/>
    </radialGradient>
    <linearGradient gradientTransform="matrix(0.0, -0.0105, 0.0109, 0.0, 239.4, 13.8)" gradientUnits="userSpaceOnUse" id="gradient7" spreadMethod="pad" x1="-819.2" x2="819.2">
      <stop offset="0.0" stop-color="#ffffff"/>
      <stop offset="0.396078431372549" stop-color="#e9f7ff"/>
      <stop offset="1.0" stop-color="#0099ff"/>
      <stop offset="1.0" stop-color="#ff66cc"/>
    </linearGradient>
    <radialGradient cx="0" cy="0" gradientTransform="matrix(0.0071, 0.0, 0.0, 0.0071, 238.5, 10.2)" gradientUnits="userSpaceOnUse" id="gradient8" r="819.2" spreadMethod="pad">
      <stop offset="0.0" stop-color="#ffffff"/>
      <stop offset="0.396078431372549" stop-color="#e9f7ff"/>
      <stop offset="1.0" stop-color="#0099ff"/>
      <stop offset="1.0" stop-color="#ff66cc"/>
    </radialGradient>
    <radialGradient cx="0" cy="0" gradientTransform="matrix(0.0287, 0.0, 0.0, 0.0287, 212.45, 5.1)" gradientUnits="userSpaceOnUse" id="gradient9" r="819.2" spreadMethod="pad">
      <stop offset="0.0" stop-color="#ffffff"/>
      <stop offset="0.396078431372549" stop-color="#e9f7ff"/>
      <stop offset="1.0" stop-color="#0099ff"/>
      <stop offset="1.0" stop-color="#ff66cc"/>
    </radialGradient>
    <linearGradient gradientTransform="matrix(0.0, -0.0123, 0.0094, 0.0, 216.5, 13.6)" gradientUnits="userSpaceOnUse" id="gradient10" spreadMethod="pad" x1="-819.2" x2="819.2">
      <stop offset="0.0" stop-color="#ffffff"/>
      <stop offset="0.396078431372549" stop-color="#e9f7ff"/>
      <stop offset="1.0" stop-color="#0099ff"/>
      <stop offset="1.0" stop-color="#ff66cc"/>
    </linearGradient>
    <radialGradient cx="0" cy="0" gradientTransform="matrix(0.0331, 0.0, 0.0, 0.0331, 177.9, 3.4)" gradientUnits="userSpaceOnUse" id="gradient11" r="819.2" spreadMethod="pad">
      <stop offset="0.0" stop-color="#ffffff"/>
      <stop offset="0.396078431372549" stop-color="#e9f7ff"/>
      <stop offset="1.0" stop-color="#0099ff"/>
      <stop offset="1.0" stop-color="#ff66cc"/>
    </radialGradient>
    <linearGradient gradientTransform="matrix(0.0, -0.0123, 0.0081, 0.0, 183.85, 13.9)" gradientUnits="userSpaceOnUse" id="gradient12" spreadMethod="pad" x1="-819.2" x2="819.2">
      <stop offset="0.0" stop-color="#ffffff"/>
      <stop offset="0.396078431372549" stop-color="#e9f7ff"/>
      <stop offset="1.0" stop-color="#0099ff"/>
      <stop offset="1.0" stop-color="#ff66cc"/>
    </linearGradient>
    <radialGradient cx="0" cy="0" gradientTransform="matrix(0.0319, 0.0, 0.0, 0.0319, 151.85, 3.95)" gradientUnits="userSpaceOnUse" id="gradient13" r="819.2" spreadMethod="pad">
      <stop offset="0.0" stop-color="#ffffff"/>
      <stop offset="0.396078431372549" stop-color="#e9f7ff"/>
      <stop offset="1.0" stop-color="#0099ff"/>
      <stop offset="1.0" stop-color="#ff66cc"/>
    </radialGradient>
    <linearGradient gradientTransform="matrix(0.0, -0.0125, 0.0109, 0.0, 161.7, 13.7)" gradientUnits="userSpaceOnUse" id="gradient14" spreadMethod="pad" x1="-819.2" x2="819.2">
      <stop offset="0.0" stop-color="#ffffff"/>
      <stop offset="0.396078431372549" stop-color="#e9f7ff"/>
      <stop offset="1.0" stop-color="#0099ff"/>
      <stop offset="1.0" stop-color="#ff66cc"/>
    </linearGradient>
    <radialGradient cx="0" cy="0" gradientTransform="matrix(0.0104, 0.0, 0.0, 0.0104, 156.35, 7.9)" gradientUnits="userSpaceOnUse" id="gradient15" r="819.2" spreadMethod="pad">
      <stop offset="0.0" stop-color="#ffffff"/>
      <stop offset="0.396078431372549" stop-color="#e9f7ff"/>
      <stop offset="1.0" stop-color="#0099ff"/>
      <stop offset="1.0" stop-color="#ff66cc"/>
    </radialGradient>
    <radialGradient cx="0" cy="0" gradientTransform="matrix(0.0284, 0.0, 0.0, 0.0284, 132.6, 5.1)" gradientUnits="userSpaceOnUse" id="gradient16" r="819.2" spreadMethod="pad">
      <stop offset="0.0" stop-color="#ffffff"/>
      <stop offset="0.396078431372549" stop-color="#e9f7ff"/>
      <stop offset="1.0" stop-color="#0099ff"/>
      <stop offset="1.0" stop-color="#ff66cc"/>
    </radialGradient>
    <linearGradient gradientTransform="matrix(0.0, -0.0126, 0.0084, 0.0, 139.2, 13.8)" gradientUnits="userSpaceOnUse" id="gradient17" spreadMethod="pad" x1="-819.2" x2="819.2">
      <stop offset="0.0" stop-color="#ffffff"/>
      <stop offset="0.396078431372549" stop-color="#e9f7ff"/>
      <stop offset="1.0" stop-color="#0099ff"/>
      <stop offset="1.0" stop-color="#ff66cc"/>
    </linearGradient>
    <radialGradient cx="0" cy="0" gradientTransform="matrix(0.0103, 0.0, 0.0, 0.0103, 140.5, 6.8)" gradientUnits="userSpaceOnUse" id="gradient18" r="819.2" spreadMethod="pad">
      <stop offset="0.0" stop-color="#ffffff"/>
      <stop offset="0.396078431372549" stop-color="#e9f7ff"/>
      <stop offset="1.0" stop-color="#0099ff"/>
      <stop offset="1.0" stop-color="#ff66cc"/>
    </radialGradient>
    <radialGradient cx="0" cy="0" gradientTransform="matrix(0.0372, 0.0, 0.0, 0.0372, 104.85, 5.65)" gradientUnits="userSpaceOnUse" id="gradient19" r="819.2" spreadMethod="pad">
      <stop offset="0.0" stop-color="#ffffff"/>
      <stop offset="0.396078431372549" stop-color="#e9f7ff"/>
      <stop offset="1.0" stop-color="#0099ff"/>
      <stop offset="1.0" stop-color="#ff66cc"/>
    </radialGradient>
    <linearGradient gradientTransform="matrix(0.0, -0.0129, 0.0128, 0.0, 115.95, 14.0)" gradientUnits="userSpaceOnUse" id="gradient20" spreadMethod="pad" x1="-819.2" x2="819.2">
      <stop offset="0.0" stop-color="#ffffff"/>
      <stop offset="0.396078431372549" stop-color="#e9f7ff"/>
      <stop offset="1.0" stop-color="#0099ff"/>
      <stop offset="1.0" stop-color="#ff66cc"/>
    </linearGradient>
    <radialGradient cx="0" cy="0" gradientTransform="matrix(0.0319, 0.0, 0.0, 0.0319, 68.6, 1.7)" gradientUnits="userSpaceOnUse" id="gradient21" r="819.2" spreadMethod="pad">
      <stop offset="0.0" stop-color="#ffffff"/>
      <stop offset="0.396078431372549" stop-color="#e9f7ff"/>
      <stop offset="1.0" stop-color="#0099ff"/>
      <stop offset="1.0" stop-color="#ff66cc"/>
    </radialGradient>
    <linearGradient gradientTransform="matrix(0.0, -0.0134, 0.0114, 0.0, 78.05, 13.7)" gradientUnits="userSpaceOnUse" id="gradient22" spreadMethod="pad" x1="-819.2" x2="819.2">
      <stop offset="0.0" stop-color="#ffffff"/>
      <stop offset="0.396078431372549" stop-color="#e9f7ff"/>
      <stop offset="1.0" stop-color="#0099ff"/>
      <stop offset="1.0" stop-color="#ff66cc"/>
    </linearGradient>
    <linearGradient gradientTransform="matrix(0.0, -0.0105, 0.0109, 0.0, 52.4, 13.8)" gradientUnits="userSpaceOnUse" id="gradient23" spreadMethod="pad" x1="-819.2" x2="819.2">
      <stop offset="0.0" stop-color="#ffffff"/>
      <stop offset="0.396078431372549" stop-color="#e9f7ff"/>
      <stop offset="1.0" stop-color="#0099ff"/>
      <stop offset="1.0" stop-color="#ff66cc"/>
    </linearGradient>
    <radialGradient cx="0" cy="0" gradientTransform="matrix(0.032, 0.0, 0.0, 0.032, 42.55, 6.8)" gradientUnits="userSpaceOnUse" id="gradient24" r="819.2" spreadMethod="pad">
      <stop offset="0.0" stop-color="#ffffff"/>
      <stop offset="0.396078431372549" stop-color="#e9f7ff"/>
      <stop offset="1.0" stop-color="#0099ff"/>
      <stop offset="1.0" stop-color="#ff66cc"/>
    </radialGradient>
    <radialGradient cx="0" cy="0" gradientTransform="matrix(0.009, 0.0, 0.0, 0.009, 50.45, 9.05)" gradientUnits="userSpaceOnUse" id="gradient25" r="819.2" spreadMethod="pad">
      <stop offset="0.0" stop-color="#ffffff"/>
      <stop offset="0.396078431372549" stop-color="#e9f7ff"/>
      <stop offset="1.0" stop-color="#0099ff"/>
      <stop offset="1.0" stop-color="#ff66cc"/>
    </radialGradient>
    <radialGradient cx="0" cy="0" gradientTransform="matrix(0.031, 0.0, 0.0, 0.031, 23.3, 4.55)" gradientUnits="userSpaceOnUse" id="gradient26" r="819.2" spreadMethod="pad">
      <stop offset="0.0" stop-color="#ffffff"/>
      <stop offset="0.396078431372549" stop-color="#e9f7ff"/>
      <stop offset="1.0" stop-color="#0099ff"/>
      <stop offset="1.0" stop-color="#ff66cc"/>
    </radialGradient>
    <linearGradient gradientTransform="matrix(0.0, -0.0107, 0.0098, 0.0, 30.5, 13.75)" gradientUnits="userSpaceOnUse" id="gradient27" spreadMethod="pad" x1="-819.2" x2="819.2">
      <stop offset="0.0" stop-color="#ffffff"/>
      <stop offset="0.396078431372549" stop-color="#e9f7ff"/>
      <stop offset="1.0" stop-color="#0099ff"/>
      <stop offset="1.0" stop-color="#ff66cc"/>
    </linearGradient>
    <linearGradient gradientTransform="matrix(0.0, -0.0124, 0.0097, 0.0, 9.85, 13.6)" gradientUnits="userSpaceOnUse" id="gradient28" spreadMethod="pad" x1="-819.2" x2="819.2">
      <stop offset="0.0" stop-color="#ffffff"/>
      <stop offset="0.396078431372549" stop-color="#e9f7ff"/>
      <stop offset="1.0" stop-color="#0099ff"/>
      <stop offset="1.0" stop-color="#ff66cc"/>
    </linearGradient>
    <radialGradient cx="0" cy="0" gradientTransform="matrix(0.0306, 0.0, 0.0, 0.0306, 1.2, 3.95)" gradientUnits="userSpaceOnUse" id="gradient29" r="819.2" spreadMethod="pad">
      <stop offset="0.0" stop-color="#ffffff"/>
      <stop offset="0.396078431372549" stop-color="#e9f7ff"/>
      <stop offset="1.0" stop-color="#0099ff"/>
      <stop offset="1.0" stop-color="#ff66cc"/>
    </radialGradient>
  </defs>
</svg>
