<?xml version="1.0" encoding="UTF-8" standalone="no"?>
<svg xmlns:xlink="http://www.w3.org/1999/xlink" height="28.65px" width="322.1px" xmlns="http://www.w3.org/2000/svg">
  <g transform="matrix(1.0, 0.0, 0.0, 1.0, 1.5, 0.0)">
    <path d="M302.2 0.8 L302.7 0.4 306.45 0.2 308.2 0.4 310.65 0.2 313.0 0.0 Q314.45 0.0 315.6 0.45 315.95 0.55 316.2 0.8 L302.2 0.8" fill="url(#gradient0)" fill-rule="evenodd" stroke="none"/>
    <path d="M71.95 0.8 L78.1 0.5 Q78.7 0.4 79.25 0.8 L71.95 0.8 M85.6 0.8 L86.1 0.75 86.2 0.8 85.6 0.8" fill="url(#gradient1)" fill-rule="evenodd" stroke="none"/>
    <path d="M316.2 0.8 L320.1 0.8 320.1 28.15 -1.0 28.15 -1.0 0.8 71.95 0.8 79.25 0.8 85.6 0.8 86.2 0.8 302.2 0.8 316.2 0.8" fill="url(#gradient2)" fill-rule="evenodd" stroke="none"/>
    <path d="M316.2 0.8 L320.1 0.8 320.1 28.15 -1.0 28.15 -1.0 0.8 71.95 0.8 79.25 0.8 85.6 0.8 86.2 0.8 302.2 0.8 316.2 0.8 Z" fill="none" stroke="#ffffff" stroke-linecap="round" stroke-linejoin="round" stroke-width="1.0"/>
  </g>
  <defs>
    <radialGradient cx="0" cy="0" gradientTransform="matrix(0.0345, 0.0, 0.0, 0.0345, 303.05, 2.85)" gradientUnits="userSpaceOnUse" id="gradient0" r="819.2" spreadMethod="pad">
      <stop offset="0.0" stop-color="#ffffff"/>
      <stop offset="0.396078431372549" stop-color="#e9f7ff"/>
      <stop offset="1.0" stop-color="#0099ff"/>
      <stop offset="1.0" stop-color="#ff66cc"/>
    </radialGradient>
    <radialGradient cx="0" cy="0" gradientTransform="matrix(0.0319, 0.0, 0.0, 0.0319, 68.6, 1.7)" gradientUnits="userSpaceOnUse" id="gradient1" r="819.2" spreadMethod="pad">
      <stop offset="0.0" stop-color="#ffffff"/>
      <stop offset="0.396078431372549" stop-color="#e9f7ff"/>
      <stop offset="1.0" stop-color="#0099ff"/>
      <stop offset="1.0" stop-color="#ff66cc"/>
    </radialGradient>
    <linearGradient gradientTransform="matrix(0.196, 0.0, 0.0, 0.0167, 159.55, 14.45)" gradientUnits="userSpaceOnUse" id="gradient2" spreadMethod="pad" x1="-819.2" x2="819.2">
      <stop offset="0.0" stop-color="#0099ff"/>
      <stop offset="0.7294117647058823" stop-color="#e9f7ff"/>
      <stop offset="1.0" stop-color="#ffffff"/>
    </linearGradient>
  </defs>
</svg>
