<?xml version="1.0" encoding="UTF-8" standalone="no"?>
<svg xmlns:xlink="http://www.w3.org/1999/xlink" height="31.6px" width="228.5px" xmlns="http://www.w3.org/2000/svg">
  <g transform="matrix(1.0, 0.0, 0.0, 1.0, 15.55, 0.0)">
    <path d="M208.4 3.9 L197.8 3.9 197.8 3.8 Q199.9 2.0 202.9 1.65 L204.9 2.05 206.85 2.8 Q207.7 3.05 208.4 3.9" fill="url(#gradient0)" fill-rule="evenodd" stroke="none"/>
    <path d="M195.05 3.9 Q196.35 2.1 197.9 1.65 199.2 1.1 200.2 0.7 202.05 0.0 203.35 0.0 L204.7 0.15 208.2 1.5 Q209.95 2.45 210.9 3.9 L208.4 3.9 Q207.7 3.05 206.85 2.8 L204.9 2.05 202.9 1.65 Q199.9 2.0 197.8 3.8 L197.8 3.9 195.05 3.9" fill="url(#gradient1)" fill-rule="evenodd" stroke="none"/>
    <path d="M59.5 3.9 L65.65 3.6 Q66.25 3.5 66.8 3.9 L59.5 3.9 M73.15 3.9 L73.65 3.85 73.75 3.9 73.15 3.9" fill="url(#gradient2)" fill-rule="evenodd" stroke="none"/>
    <path d="M210.9 3.9 L212.45 3.9 212.45 31.1 -15.05 31.1 -15.05 3.9 59.5 3.9 66.8 3.9 73.15 3.9 73.75 3.9 195.05 3.9 197.8 3.9 208.4 3.9 210.9 3.9" fill="url(#gradient3)" fill-rule="evenodd" stroke="none"/>
    <path d="M210.9 3.9 L212.45 3.9 212.45 31.1 -15.05 31.1 -15.05 3.9 59.5 3.9 66.8 3.9 73.15 3.9 73.75 3.9 195.05 3.9 197.8 3.9 208.4 3.9 210.9 3.9 Z" fill="none" stroke="#ffffff" stroke-linecap="round" stroke-linejoin="round" stroke-width="1.0"/>
  </g>
  <defs>
    <linearGradient gradientTransform="matrix(0.0, -0.0109, 0.0082, 0.0, 203.2, 10.6)" gradientUnits="userSpaceOnUse" id="gradient0" spreadMethod="pad" x1="-819.2" x2="819.2">
      <stop offset="0.0" stop-color="#ffffff"/>
      <stop offset="0.396078431372549" stop-color="#e9f7ff"/>
      <stop offset="1.0" stop-color="#0099ff"/>
      <stop offset="1.0" stop-color="#ff66cc"/>
    </linearGradient>
    <radialGradient cx="0" cy="0" gradientTransform="matrix(0.0249, 0.0, 0.0, 0.0249, 196.0, 4.2)" gradientUnits="userSpaceOnUse" id="gradient1" r="819.2" spreadMethod="pad">
      <stop offset="0.0" stop-color="#ffffff"/>
      <stop offset="0.396078431372549" stop-color="#e9f7ff"/>
      <stop offset="1.0" stop-color="#0099ff"/>
      <stop offset="1.0" stop-color="#ff66cc"/>
    </radialGradient>
    <radialGradient cx="0" cy="0" gradientTransform="matrix(0.0314, 0.0, 0.0, 0.0314, 55.9, 5.25)" gradientUnits="userSpaceOnUse" id="gradient2" r="819.2" spreadMethod="pad">
      <stop offset="0.0" stop-color="#ffffff"/>
      <stop offset="0.28627450980392155" stop-color="#f8fdff"/>
      <stop offset="1.0" stop-color="#0099ff"/>
      <stop offset="1.0" stop-color="#ff66cc"/>
    </radialGradient>
    <linearGradient gradientTransform="matrix(0.1389, 0.0, 0.0, 0.0166, 98.7, 17.5)" gradientUnits="userSpaceOnUse" id="gradient3" spreadMethod="pad" x1="-819.2" x2="819.2">
      <stop offset="0.0" stop-color="#0099ff"/>
      <stop offset="0.6039215686274509" stop-color="#e9f7ff"/>
      <stop offset="1.0" stop-color="#ffffff"/>
    </linearGradient>
  </defs>
</svg>
