<?xml version="1.0" encoding="UTF-8" standalone="no"?>
<svg xmlns:xlink="http://www.w3.org/1999/xlink" height="81.7px" width="91.0px" xmlns="http://www.w3.org/2000/svg">
  <g transform="matrix(1.0, 0.0, 0.0, 1.0, 0.0, 0.0)">
    <path d="M86.05 23.4 Q82.95 27.55 80.55 29.3 L77.0 31.5 91.0 31.5 91.0 60.55 0.0 60.55 0.0 27.65 Q1.35 21.2 5.65 17.9 10.0 14.6 13.9 13.8 L19.6 12.95 44.1 12.95 44.1 0.0 68.95 0.0 68.95 12.95 91.0 12.95 Q89.2 19.25 86.05 23.4 M88.2 14.35 L68.95 14.35 68.95 19.95 66.15 19.95 66.15 1.4 46.9 1.4 46.9 59.15 66.15 59.15 66.15 37.45 68.95 37.45 68.95 59.15 88.2 59.15 88.2 32.9 68.95 32.9 68.95 31.5 72.5 31.5 Q73.3 31.5 76.6 29.6 79.9 27.65 83.25 23.85 86.6 20.0 88.2 14.35 M90.0 61.95 L80.9 61.95 79.05 62.25 Q77.85 62.55 76.45 63.8 75.05 65.05 74.65 67.4 L74.65 69.8 82.85 69.8 82.85 73.45 81.8 73.45 81.8 71.9 74.65 71.9 74.65 77.45 90.0 77.45 90.0 68.4 81.8 68.4 81.8 65.1 82.85 65.1 82.85 67.9 90.0 67.9 90.0 61.95 M81.8 70.35 L66.5 70.35 66.5 71.4 81.8 71.4 81.8 70.35 M91.0 77.95 L17.35 77.95 17.35 81.7 8.15 81.7 8.15 77.95 0.0 77.95 0.0 66.45 Q0.35 64.75 1.45 63.75 2.5 62.65 3.7 62.2 4.9 61.75 5.85 61.6 L7.25 61.5 17.35 61.5 17.35 64.2 17.75 63.75 Q18.8 62.65 20.05 62.2 L22.15 61.6 23.6 61.5 33.7 61.5 33.7 64.25 Q34.15 63.65 34.75 63.2 36.35 62.1 37.8 61.8 L39.95 61.5 58.35 61.5 58.35 64.05 58.65 63.75 Q59.65 62.7 60.8 62.2 62.0 61.75 63.0 61.6 L64.55 61.5 74.65 61.5 74.65 64.25 Q75.1 63.65 75.7 63.2 77.3 62.1 78.75 61.8 L80.9 61.5 91.0 61.5 91.0 77.95 M14.65 15.25 Q11.3 16.1 7.6 19.6 3.85 23.1 2.8 30.1 L2.8 59.15 22.05 59.15 22.05 25.9 24.85 25.9 24.85 59.15 44.1 59.15 44.1 14.35 19.6 14.35 14.65 15.25 M22.5 62.15 L20.6 62.7 Q19.55 63.15 18.6 64.3 17.65 65.4 17.35 67.3 L17.35 77.45 32.65 77.45 32.65 61.95 23.6 61.95 22.5 62.15 M24.5 73.45 L24.5 66.0 25.55 66.0 25.55 73.45 24.5 73.45 M35.5 63.8 Q34.1 65.05 33.7 67.4 L33.7 77.45 40.8 77.45 40.8 66.0 41.9 66.0 41.9 77.45 49.1 77.45 49.1 66.0 50.15 66.0 50.15 77.45 57.3 77.45 57.3 61.95 39.95 61.95 38.1 62.25 Q36.85 62.55 35.5 63.8 M9.2 66.0 L9.2 73.45 8.15 73.45 8.15 66.0 9.2 66.0 M6.15 62.15 Q5.3 62.25 4.25 62.7 3.25 63.15 2.25 64.3 1.3 65.4 1.0 67.3 L1.0 77.45 9.2 77.45 9.2 81.15 16.35 81.15 16.35 61.95 7.25 61.95 6.15 62.15 M66.5 67.8 L65.45 67.8 65.45 65.1 66.5 65.1 66.5 67.8 M62.4 62.3 Q61.1 62.65 59.9 63.8 58.75 64.85 58.35 66.95 L58.35 77.45 73.65 77.45 73.65 71.9 66.5 71.9 66.5 73.45 65.45 73.45 65.45 69.8 73.65 69.8 73.65 61.95 64.55 61.95 62.4 62.3" fill="#000000" fill-rule="evenodd" stroke="none"/>
    <path d="M90.0 61.95 L90.0 67.9 82.85 67.9 82.85 65.1 81.8 65.1 81.8 68.4 90.0 68.4 90.0 77.45 74.65 77.45 74.65 71.9 81.8 71.9 81.8 73.45 82.85 73.45 82.85 69.8 74.65 69.8 74.65 67.4 Q75.05 65.05 76.45 63.8 77.85 62.55 79.05 62.25 L80.9 61.95 90.0 61.95 M88.2 14.35 Q86.6 20.0 83.25 23.85 79.9 27.65 76.6 29.6 73.3 31.5 72.5 31.5 L68.95 31.5 68.95 32.9 88.2 32.9 88.2 59.15 68.95 59.15 68.95 37.45 66.15 37.45 66.15 59.15 46.9 59.15 46.9 1.4 66.15 1.4 66.15 19.95 68.95 19.95 68.95 14.35 88.2 14.35 M62.4 62.3 L64.55 61.95 73.65 61.95 73.65 69.8 65.45 69.8 65.45 73.45 66.5 73.45 66.5 71.9 73.65 71.9 73.65 77.45 58.35 77.45 58.35 66.95 Q58.75 64.85 59.9 63.8 61.1 62.65 62.4 62.3 M66.5 67.8 L66.5 65.1 65.45 65.1 65.45 67.8 66.5 67.8 M6.15 62.15 L7.25 61.95 16.35 61.95 16.35 81.15 9.2 81.15 9.2 77.45 1.0 77.45 1.0 67.3 Q1.3 65.4 2.25 64.3 3.25 63.15 4.25 62.7 5.3 62.25 6.15 62.15 M9.2 66.0 L8.15 66.0 8.15 73.45 9.2 73.45 9.2 66.0 M35.5 63.8 Q36.85 62.55 38.1 62.25 L39.95 61.95 57.3 61.95 57.3 77.45 50.15 77.45 50.15 66.0 49.1 66.0 49.1 77.45 41.9 77.45 41.9 66.0 40.8 66.0 40.8 77.45 33.7 77.45 33.7 67.4 Q34.1 65.05 35.5 63.8 M24.5 73.45 L25.55 73.45 25.55 66.0 24.5 66.0 24.5 73.45 M22.5 62.15 L23.6 61.95 32.65 61.95 32.65 77.45 17.35 77.45 17.35 67.3 Q17.65 65.4 18.6 64.3 19.55 63.15 20.6 62.7 L22.5 62.15 M14.65 15.25 L19.6 14.35 44.1 14.35 44.1 59.15 24.85 59.15 24.85 25.9 22.05 25.9 22.05 59.15 2.8 59.15 2.8 30.1 Q3.85 23.1 7.6 19.6 11.3 16.1 14.65 15.25" fill="#ffffff" fill-rule="evenodd" stroke="none"/>
  </g>
</svg>
