<?xml version="1.0" encoding="UTF-8" standalone="no"?>
<svg xmlns:xlink="http://www.w3.org/1999/xlink" height="20.0px" width="20.0px" xmlns="http://www.w3.org/2000/svg">
  <g transform="matrix(1.0, 0.0, 0.0, 1.0, 9.9, 9.65)">
    <path d="M6.8 -6.4 Q4.0 -9.2 0.05 -9.2 -3.9 -9.2 -6.65 -6.4 -9.45 -3.65 -9.45 0.3 -9.45 4.25 -6.65 7.05 -3.9 9.8 0.05 9.8 4.0 9.8 6.8 7.05 9.55 4.25 9.55 0.3 9.55 -3.65 6.8 -6.4 M7.2 -6.75 Q10.1 -3.8 10.1 0.35 10.1 4.45 7.2 7.4 4.25 10.35 0.1 10.35 -4.05 10.35 -6.95 7.4 -9.9 4.45 -9.9 0.35 -9.9 -3.8 -6.95 -6.75 -4.05 -9.7 0.1 -9.65 4.25 -9.7 7.2 -6.75" fill="url(#gradient0)" fill-rule="evenodd" stroke="none"/>
    <path d="M6.8 -6.4 Q9.55 -3.65 9.55 0.3 9.55 4.25 6.8 7.05 4.0 9.8 0.05 9.8 -3.9 9.8 -6.65 7.05 -9.45 4.25 -9.45 0.3 -9.45 -3.65 -6.65 -6.4 -3.9 -9.2 0.05 -9.2 4.0 -9.2 6.8 -6.4" fill="url(#gradient1)" fill-rule="evenodd" stroke="none"/>
  </g>
  <defs>
    <linearGradient gradientTransform="matrix(0.0071, 0.0071, -0.0086, 0.0086, 0.6, 0.8)" gradientUnits="userSpaceOnUse" id="gradient0" spreadMethod="pad" x1="-819.2" x2="819.2">
      <stop offset="0.0" stop-color="#999999"/>
      <stop offset="1.0" stop-color="#ffffff"/>
    </linearGradient>
    <linearGradient gradientTransform="matrix(-0.011, -0.011, 0.0082, -0.0082, -2.95, -2.7)" gradientUnits="userSpaceOnUse" id="gradient1" spreadMethod="pad" x1="-819.2" x2="819.2">
      <stop offset="0.0" stop-color="#709170"/>
      <stop offset="1.0" stop-color="#ffffff"/>
    </linearGradient>
  </defs>
</svg>
