<?xml version="1.0" encoding="UTF-8" standalone="no"?>
<svg xmlns:xlink="http://www.w3.org/1999/xlink" height="20.3px" width="58.0px" xmlns="http://www.w3.org/2000/svg">
  <g transform="matrix(1.0, 0.0, 0.0, 1.0, 9.9, 9.8)">
    <path d="M0.2 9.8 L0.2 10.35 0.1 10.35 Q-4.05 10.35 -6.95 7.4 -9.9 4.45 -9.9 0.35 -9.9 -3.8 -6.95 -6.75 -4.6 -9.15 -1.4 -9.55 L-0.8 -9.65 -0.4 -9.65 -0.4 -9.2 -0.8 -9.15 -1.4 -9.1 Q-4.4 -8.65 -6.65 -6.4 -9.45 -3.65 -9.45 0.3 -9.45 4.25 -6.65 7.05 -3.9 9.8 0.05 9.8 L0.2 9.8" fill="url(#gradient0)" fill-rule="evenodd" stroke="none"/>
    <path d="M38.2 -9.65 Q42.3 -9.65 45.2 -6.75 48.1 -3.8 48.1 0.35 48.1 4.45 45.2 7.4 42.3 10.3 38.2 10.35 L38.2 9.8 Q42.05 9.75 44.8 7.05 47.55 4.25 47.55 0.3 47.55 -3.65 44.8 -6.4 42.05 -9.15 38.2 -9.2 L38.2 -9.65" fill="url(#gradient1)" fill-rule="evenodd" stroke="none"/>
    <path d="M-0.45 -9.15 L38.15 -9.15" fill="none" stroke="#a0a0a0" stroke-linecap="square" stroke-linejoin="round" stroke-width="1.0"/>
    <path d="M-0.2 9.85 L38.4 9.85" fill="none" stroke="#f7f7f7" stroke-linecap="square" stroke-linejoin="round" stroke-width="1.0"/>
    <path d="M0.0 -9.25 L38.4 -9.25 38.4 -9.2 Q42.1 -9.05 44.8 -6.4 47.55 -3.65 47.55 0.3 47.55 4.25 44.8 7.05 42.1 9.7 38.4 9.8 L0.0 9.8 Q-3.9 9.8 -6.65 7.05 -9.45 4.25 -9.45 0.3 -9.45 -3.65 -6.65 -6.4 -4.05 -9.05 -0.4 -9.2 L0.0 -9.2 0.0 -9.25" fill="url(#gradient2)" fill-rule="evenodd" stroke="none"/>
  </g>
  <defs>
    <linearGradient gradientTransform="matrix(0.0071, 0.0071, -0.0086, 0.0086, 0.6, 0.8)" gradientUnits="userSpaceOnUse" id="gradient0" spreadMethod="pad" x1="-819.2" x2="819.2">
      <stop offset="0.0" stop-color="#999999"/>
      <stop offset="1.0" stop-color="#ffffff"/>
    </linearGradient>
    <linearGradient gradientTransform="matrix(0.0071, 0.0071, -0.0086, 0.0086, 38.6, 0.8)" gradientUnits="userSpaceOnUse" id="gradient1" spreadMethod="pad" x1="-819.2" x2="819.2">
      <stop offset="0.0" stop-color="#999999"/>
      <stop offset="1.0" stop-color="#ffffff"/>
    </linearGradient>
    <radialGradient cx="0" cy="0" gradientTransform="matrix(0.0646, 0.0, 0.0, 0.0646, -4.9, -5.95)" gradientUnits="userSpaceOnUse" id="gradient2" r="819.2" spreadMethod="pad">
      <stop offset="0.0" stop-color="#f9faf9"/>
      <stop offset="0.5725490196078431" stop-color="#809d80"/>
      <stop offset="1.0" stop-color="#709170"/>
    </radialGradient>
  </defs>
</svg>
