<?xml version="1.0" encoding="UTF-8" standalone="no"?>
<svg xmlns:xlink="http://www.w3.org/1999/xlink" height="42.45px" width="39.95px" xmlns="http://www.w3.org/2000/svg">
  <g transform="matrix(1.0, 0.0, 0.0, 1.0, 22.15, 19.75)">
    <path d="M7.75 -15.75 L7.7 -15.2 Q10.75 -14.1 13.25 -11.6 17.8 -7.05 17.8 -0.6 17.8 5.8 13.25 10.35 8.7 14.9 2.3 14.9 -4.15 14.9 -8.7 10.35 -12.85 6.2 -13.2 0.45 -14.15 0.8 -14.95 1.5 -15.8 2.15 -15.9 4.0 -16.0 5.8 -15.3 6.9 L-13.95 9.3 -13.0 11.3 Q-12.6 12.5 -12.6 13.85 L-12.8 15.6 -13.6 18.6 Q-15.0 22.7 -17.2 22.7 -18.6 22.7 -19.4 21.75 -20.0 21.05 -20.0 20.25 -20.05 19.25 -18.8 16.85 -17.6 14.45 -17.6 13.9 -17.6 12.6 -18.35 11.3 L-19.95 9.05 -21.55 6.65 Q-22.25 5.15 -22.15 3.55 -22.0 0.8 -20.6 -1.6 -17.85 -6.45 -12.25 -6.45 L-12.15 -6.45 Q-11.0 -9.3 -8.7 -11.6 -6.15 -14.15 -2.95 -15.25 L-3.0 -15.75 Q-3.0 -17.4 -1.45 -18.55 0.15 -19.75 2.4 -19.75 4.6 -19.75 6.2 -18.55 7.75 -17.4 7.75 -15.75" fill="#613030" fill-rule="evenodd" stroke="none"/>
  </g>
</svg>
