<?xml version="1.0" encoding="UTF-8" standalone="no"?>
<svg xmlns:xlink="http://www.w3.org/1999/xlink" height="29.95px" width="30.0px" xmlns="http://www.w3.org/2000/svg">
  <g transform="matrix(1.0, 0.0, 0.0, 1.0, 15.0, 13.0)">
    <path d="M8.7 -4.25 Q10.2 -2.1 10.45 0.6 L10.7 0.7 14.95 2.0 Q15.2 2.15 14.05 2.55 L11.35 3.3 10.35 3.55 Q9.95 6.0 8.45 8.0 L9.6 9.75 11.7 12.85 12.8 14.65 Q12.9 15.0 11.55 14.15 L8.35 11.95 6.05 10.35 Q4.05 11.75 1.6 12.15 L1.5 12.55 0.75 15.2 0.15 16.8 Q-0.2 17.25 -0.6 16.15 L-1.35 13.35 -1.65 12.15 Q-4.15 11.75 -6.1 10.35 L-7.65 11.35 -10.75 13.5 -12.5 14.65 Q-12.95 14.85 -12.1 13.45 L-9.95 10.2 -8.45 8.05 Q-10.2 5.85 -10.5 3.1 L-14.6 2.0 Q-15.5 1.7 -14.45 1.35 L-11.65 0.7 -10.55 0.45 Q-10.25 -2.35 -8.55 -4.55 L-9.25 -5.65 -12.5 -10.7 Q-12.7 -11.15 -11.3 -10.25 L-8.05 -8.1 -6.25 -6.9 Q-3.85 -8.65 -0.85 -8.85 L0.15 -12.8 Q0.3 -13.35 0.65 -12.25 L1.35 -9.5 1.5 -8.8 Q4.3 -8.4 6.55 -6.6 L7.8 -7.4 12.8 -10.7 Q13.2 -10.9 12.3 -9.5 L10.1 -6.3 8.7 -4.25" fill="url(#gradient0)" fill-rule="evenodd" stroke="none"/>
  </g>
  <defs>
    <radialGradient cx="0" cy="0" gradientTransform="matrix(0.0278, 0.0, 0.0, 0.0278, -3.45, -1.15)" gradientUnits="userSpaceOnUse" id="gradient0" r="819.2" spreadMethod="pad">
      <stop offset="0.0" stop-color="#ffffff"/>
      <stop offset="0.4" stop-color="#000000"/>
      <stop offset="1.0" stop-color="#000000"/>
      <stop offset="1.0" stop-color="#ff66cc"/>
    </radialGradient>
  </defs>
</svg>
