<?xml version="1.0" encoding="UTF-8" standalone="no"?>
<svg xmlns:xlink="http://www.w3.org/1999/xlink" height="929.0px" width="891.6px" xmlns="http://www.w3.org/2000/svg">
  <g transform="matrix(1.0, 0.0, 0.0, 1.0, -482.05, 47.35)">
    <path d="M541.5 165.45 Q552.0 151.0 564.15 141.6 618.7 41.45 708.05 29.3 L710.3 29.0 Q754.0 -13.95 811.25 -21.75 L831.1 -23.3 Q865.95 -35.45 904.4 -40.7 1069.25 -63.1 1204.4 54.85 1339.6 172.8 1365.35 362.5 1391.1 552.15 1292.25 701.85 1193.45 851.6 1028.6 874.0 983.7 880.1 941.0 875.8 L933.3 877.0 Q873.25 885.2 817.35 852.15 739.5 861.55 669.3 799.4 638.8 793.45 609.45 763.7 590.75 744.75 572.5 716.15 L569.7 711.7 567.6 709.75 M560.1 695.4 Q533.95 648.65 517.0 591.15 508.75 563.4 502.7 533.15 497.9 509.1 494.4 483.5 491.55 462.35 489.85 442.05 484.85 382.45 489.9 329.7 491.8 309.45 495.2 290.2 499.95 263.3 507.6 238.4 511.05 227.2 514.85 217.05 511.6 219.65 508.6 223.25 M555.75 157.95 Q559.8 149.5 564.15 141.6 575.15 133.0 587.55 128.6 595.35 125.85 603.65 124.7 623.25 122.05 642.35 128.95 L650.85 116.65 644.85 129.85 642.35 128.95 640.7 131.4 Q624.85 155.45 612.2 180.55 594.4 215.7 583.0 252.95 589.5 263.95 596.0 277.85 599.85 286.1 603.5 294.8 608.5 241.6 622.35 193.0 630.8 163.25 642.55 135.25 L644.85 129.85 Q686.8 146.3 726.55 208.65 785.65 301.3 804.65 441.35 823.7 581.4 791.45 686.4 770.9 753.5 737.4 781.3 L734.55 783.6 728.55 778.45 Q706.85 759.55 688.0 738.75 659.85 707.8 638.0 672.75 627.4 708.9 609.95 719.15 606.65 721.05 603.1 722.1 587.1 698.2 573.75 672.0 553.95 633.0 540.0 588.8 523.15 535.45 514.85 474.4 508.05 424.25 508.2 377.55 508.35 321.45 518.5 270.35 524.6 239.45 534.4 210.35 L529.55 210.6 Q521.65 211.7 514.85 217.05 526.5 186.1 541.5 165.45 M673.25 75.6 Q690.35 48.65 710.3 29.0 L735.8 27.8 Q779.5 -5.35 831.1 -23.3 929.0 -25.5 1015.7 84.55 1096.05 186.45 1126.65 334.45 1131.95 360.2 1135.8 387.35 L1136.4 391.75 Q1161.7 577.9 1102.0 720.05 1044.45 857.15 941.0 875.8 887.35 870.35 837.2 848.55 828.65 850.6 819.8 851.8 L817.35 852.15 Q795.55 839.2 774.35 820.05 762.75 809.55 751.3 797.15 L734.55 783.6 Q716.7 797.2 695.4 800.1 L690.9 800.6 Q680.05 801.45 669.3 799.4 657.0 788.5 644.95 775.4 636.15 765.85 627.5 755.15 614.6 739.25 603.1 722.1 L599.15 722.9 Q584.5 724.9 569.7 711.7 564.75 703.7 560.1 695.4 M685.05 74.25 Q708.95 48.15 735.8 27.8 823.05 30.4 900.35 125.95 989.85 236.55 1013.0 406.75 1036.1 576.95 979.35 707.4 927.5 826.6 837.2 848.55 809.15 836.3 782.2 819.0 766.55 808.9 751.3 797.15 744.3 789.55 737.4 781.3 L728.85 770.75 Q710.7 747.75 695.1 722.35 667.35 677.2 647.65 624.65 L645.25 640.35 Q642.15 658.55 638.0 672.75 621.5 646.25 608.55 617.4 586.85 569.1 575.2 514.3 570.65 493.05 567.65 470.8 565.15 452.35 563.85 434.35 559.3 372.9 568.4 315.85 573.55 283.7 583.0 252.95 571.0 232.5 559.1 221.9 551.2 214.8 543.35 212.1 538.85 210.5 534.4 210.35 540.7 191.65 548.5 173.7 552.0 165.6 555.75 157.95 M673.25 75.6 Q661.35 94.35 650.85 116.65 667.1 93.8 685.05 74.25 M606.4 449.8 Q596.6 367.95 603.5 294.8 631.35 361.75 644.15 455.9 657.15 551.75 647.65 624.65 622.1 556.65 610.0 476.2 L608.15 463.5 606.4 449.8" fill="none" stroke="#ffffff" stroke-linecap="round" stroke-linejoin="round" stroke-width="6.0"/>
    <path d="M609.45 763.7 Q588.45 747.55 567.6 709.75 L560.1 695.4 559.85 694.9 Q544.9 664.8 533.05 629.55 L527.8 618.45 Q522.0 605.5 517.0 591.15 499.95 542.8 491.25 478.55 479.95 395.25 489.2 333.95 L489.9 329.7 Q491.2 321.65 492.8 314.7 493.75 302.2 495.2 290.2 497.3 273.1 500.4 257.0 504.0 238.4 508.6 223.25 521.3 181.1 541.5 165.45 548.2 160.25 555.75 157.95 558.85 157.0 562.15 156.55 L568.85 156.2 Q577.65 141.0 587.55 128.6 623.4 83.65 673.25 75.6 L676.55 75.1 685.05 74.25 Q716.05 72.05 745.6 85.0 792.7 105.55 836.25 164.45 896.55 245.95 921.8 362.25 927.35 387.85 931.25 415.15 L931.85 419.6 Q952.8 573.8 907.8 690.95 880.2 762.75 837.6 794.9 812.5 813.8 782.2 819.0 L777.7 819.65 774.35 820.05 Q731.3 824.8 690.9 800.6 672.75 789.7 655.15 773.0 650.8 774.6 646.15 775.25 L644.95 775.4 Q627.15 777.3 609.45 763.7 M502.7 533.15 Q496.05 512.35 492.55 486.55 489.3 462.6 489.85 442.05 490.2 426.65 492.75 413.15 489.3 360.6 492.8 314.7 501.55 276.35 518.5 270.35 520.35 269.65 522.35 269.4 524.65 269.1 527.0 269.35 533.35 239.7 543.35 212.1 544.8 207.9 546.4 203.8 556.6 177.3 568.85 156.2 590.6 156.8 612.2 180.55 617.25 186.1 622.35 193.0 634.7 209.75 647.05 234.15 L648.45 236.9 Q690.25 321.1 707.9 445.5 L708.75 451.7 Q726.2 580.25 707.9 674.8 L707.1 679.0 Q702.0 703.85 695.1 722.35 691.75 731.3 688.0 738.75 674.35 765.75 655.15 773.0 636.25 755.0 617.95 730.3 L609.95 719.15 Q594.15 696.25 581.0 670.85 L577.0 671.8 573.75 672.0 Q553.85 671.3 533.05 629.55 522.15 597.15 513.85 560.4 507.45 548.05 502.7 533.15 M540.0 588.8 Q526.9 585.2 514.5 561.65 L513.85 560.4 Q505.3 522.55 499.55 480.1 494.85 445.4 492.75 413.15 L493.7 408.35 Q498.65 385.7 508.2 377.55 511.65 374.5 515.75 373.45 515.15 422.1 522.35 475.15 530.65 536.4 547.45 589.25 555.9 587.95 561.9 578.9 547.7 530.0 539.55 470.15 532.8 420.5 532.1 377.05 541.45 383.6 550.45 400.65 558.35 415.6 563.85 434.35 569.3 453.1 572.4 475.75 575.15 496.25 575.2 514.3 575.2 535.95 571.25 553.95 567.7 570.05 561.9 578.9 572.95 616.85 587.65 648.2 L593.6 660.25 Q588.0 668.3 581.0 670.85 561.35 632.9 547.45 589.25 L547.15 589.3 540.0 588.8 M559.1 221.9 Q561.25 218.55 563.55 215.8 M540.35 275.25 Q533.6 270.05 527.0 269.35 516.4 318.6 515.75 373.45 L517.8 373.05 Q525.05 372.05 532.1 377.05 531.3 327.35 538.4 285.7 539.3 280.3 540.35 275.25 547.45 239.95 559.1 221.9 M568.4 315.85 L571.6 322.75 Q594.95 374.95 606.4 449.8 L608.25 462.65 610.0 476.2 Q618.8 551.0 610.25 607.25 L608.55 617.4 Q603.05 646.65 593.6 660.25 608.15 688.45 622.55 702.3 M568.4 315.85 Q554.15 286.0 540.35 275.25" fill="none" stroke="#ffffff" stroke-linecap="round" stroke-linejoin="round" stroke-width="6.0"/>
    <path d="M689.65 146.25 L689.25 147.95 688.9 147.0 689.55 146.35 689.65 146.25 M718.05 623.25 L718.15 623.75 718.65 625.3 719.15 626.1 722.05 627.8 722.95 628.25 722.95 629.8 723.2 631.2 723.5 632.1 725.5 633.65 729.45 636.1 729.35 636.5 729.45 637.95 Q729.55 638.75 729.8 639.55 L730.15 640.35 732.3 642.1 Q733.1 642.75 734.1 643.1 736.85 644.25 738.9 646.3 L738.95 647.05 739.05 647.85 Q739.15 649.1 739.7 650.1 L740.8 651.85 Q746.15 654.3 750.45 657.95 755.65 662.35 761.75 663.35 L761.65 664.05 761.55 664.75 761.75 665.55 Q761.85 666.3 762.25 667.05 L762.75 667.9 763.55 668.8 764.4 669.65 Q767.55 672.95 772.0 673.5 L772.1 674.25 772.2 674.95 772.4 675.75 Q772.65 676.95 773.05 678.0 L773.5 678.9 Q774.0 679.35 774.65 679.5 781.7 681.1 788.0 684.15 L788.65 685.75 788.75 686.5 Q788.85 687.75 789.35 688.85 L790.1 690.4 791.2 691.25 792.95 692.3 Q795.9 693.7 797.9 696.15 L798.2 697.0 798.6 697.75 799.65 700.15 800.55 701.8 Q802.2 703.65 804.4 704.7 L805.8 705.35 Q809.4 706.6 812.1 708.5 L812.65 710.0 Q813.9 712.65 815.6 715.05 L816.25 715.8 Q818.7 718.35 821.55 720.45 822.0 721.55 822.05 722.8 L822.3 725.75 822.4 726.55 Q823.0 728.65 824.1 730.45 823.9 731.6 824.35 732.65 825.0 734.9 824.95 737.25 824.85 739.8 824.3 742.25 L824.05 743.75 Q823.95 745.7 822.9 747.15 L821.3 748.4 820.6 748.95 819.95 749.5 815.95 751.8 815.35 752.45 814.7 753.0 813.65 753.6 811.4 754.0 809.65 754.45 Q806.35 755.45 803.25 756.95 L801.6 756.85 798.85 755.6 797.9 755.3 789.0 752.95 Q787.8 751.05 785.5 750.6 L782.65 750.35 Q778.35 750.2 774.15 751.25 L773.85 750.45 773.45 749.05 773.0 748.1 772.3 747.35 Q768.3 743.9 762.95 743.9 L763.0 743.45 762.95 742.7 762.85 741.9 Q762.75 740.7 762.15 739.65 L761.65 738.75 760.75 738.0 Q759.8 737.5 758.75 737.35 L752.3 736.35 751.25 734.0 750.85 733.25 Q748.65 729.8 744.6 728.65 L741.4 728.5 738.85 727.85 738.9 726.4 738.8 724.9 738.75 724.2 738.1 723.35 Q733.3 718.5 726.1 718.25 L725.45 717.85 Q723.15 716.2 720.45 715.35 714.6 713.45 708.8 712.25 L707.1 710.05 706.15 709.1 Q703.45 706.55 700.65 705.65 L700.55 704.9 700.4 704.15 Q699.25 701.7 697.3 699.6 L689.75 691.45 Q686.45 688.0 682.2 686.75 L682.05 685.95 681.7 685.2 681.2 684.35 680.25 683.55 Q679.55 683.05 678.8 682.7 L677.6 682.2 Q674.55 681.25 672.6 680.1 L672.75 678.7 672.75 677.95 672.6 677.2 671.35 675.7 Q669.05 673.55 666.05 672.55 L664.65 672.65 662.85 672.75 661.95 672.35 661.85 671.65 661.5 670.8 660.95 669.95 Q659.5 669.05 657.9 668.5 L655.2 668.35 Q652.2 668.85 651.4 667.05 651.1 665.2 649.7 663.9 649.1 663.35 648.4 663.1 643.8 661.25 642.05 659.0 642.3 656.75 640.5 655.1 L639.55 654.1 Q636.9 651.35 633.4 650.85 633.35 647.95 631.45 645.65 630.2 644.2 628.5 643.5 624.3 641.9 620.7 639.8 L619.5 638.15 618.7 637.3 616.65 636.45 613.6 635.4 613.5 634.7 613.1 633.85 612.6 633.0 611.7 632.2 610.25 631.35 609.35 630.9 Q606.85 629.5 604.9 628.15 L604.9 627.7 604.5 626.15 603.95 624.65 603.45 623.8 602.5 623.1 Q598.5 621.5 594.55 620.2 594.1 619.15 593.95 618.05 593.35 614.85 591.3 612.35 L590.0 610.5 Q588.7 608.3 586.95 606.4 L584.85 605.55 583.45 605.55 583.05 605.6 582.0 604.45 Q580.75 603.15 579.95 601.65 L579.5 600.15 579.1 599.35 578.5 598.5 577.65 597.85 572.85 596.0 572.45 595.5 571.6 594.6 570.35 593.65 569.8 592.1 569.35 591.25 568.65 590.35 567.25 589.3 566.55 588.5 566.4 587.8 Q565.9 585.75 564.95 583.85 563.75 581.55 561.45 580.3 L561.05 579.5 560.5 578.65 559.7 577.75 557.65 576.95 556.15 576.75 555.75 576.55 555.05 575.8 554.3 574.8 550.0 573.15 549.75 572.8 549.15 572.0 546.75 569.25 545.05 567.55 544.6 566.05 Q544.15 564.7 543.3 563.6 L541.9 561.9 540.35 561.05 540.15 560.8 539.95 560.35 539.35 559.5 538.55 558.55 Q535.75 557.65 533.25 556.2 530.45 554.45 529.4 552.05 530.1 550.8 530.35 549.25 530.65 547.85 530.45 546.35 530.35 545.0 529.4 544.0 528.0 543.1 526.45 542.35 L525.1 541.8 524.25 541.1 521.95 539.2 521.05 538.35 520.45 536.0 519.55 533.6 518.8 532.1 518.9 531.3 519.0 530.65 519.15 529.95 519.05 529.15 518.35 527.6 517.0 525.2 515.3 522.6 514.95 521.2 513.45 518.2 511.85 514.65 512.25 513.25 512.45 511.85 512.5 510.4 512.45 509.65 Q511.6 507.95 510.05 506.9 L508.55 505.75 508.4 505.0 508.25 504.2 508.2 503.5 507.25 501.8 506.9 501.0 506.55 500.25 507.05 497.4 507.2 495.2 Q507.05 493.85 506.15 492.8 L503.15 490.7 502.5 489.95 501.9 489.1 501.35 488.3 500.95 487.5 501.2 485.3 501.1 484.7 501.2 484.6 501.6 483.2 502.35 479.65 Q502.5 478.55 502.2 477.4 L501.65 476.55 501.3 475.8 501.15 475.05 501.2 474.4 Q501.0 471.45 501.55 468.55 502.0 466.3 501.6 464.15 L501.25 463.3 500.85 462.45 500.85 461.8 501.1 459.65 501.5 457.5 501.75 456.8 502.9 455.5 503.45 454.9 503.85 454.25 Q505.25 449.05 504.4 443.8 503.65 439.5 503.85 435.1 506.85 432.35 507.4 428.45 507.9 425.3 507.35 422.5 L508.05 421.85 508.5 421.25 508.8 420.55 Q509.55 417.7 509.35 414.85 L509.0 410.3 509.65 408.95 Q510.35 407.65 510.35 406.2 L510.2 404.65 509.85 403.85 509.3 403.0 508.65 402.15 Q511.0 399.45 511.9 396.1 512.6 393.45 511.7 390.95 L512.65 389.65 Q513.9 388.15 514.65 386.35 L515.5 384.3 516.4 383.75 Q518.9 382.0 519.95 379.15 520.55 377.4 520.05 375.5 L520.7 374.15 Q521.4 372.85 521.6 371.4 L521.75 369.95 Q524.05 366.7 526.6 363.75 528.75 361.3 529.05 357.95 L528.9 357.25 528.65 356.45 528.7 355.7 529.05 355.1 Q530.75 353.0 530.95 350.3 L531.05 346.65 532.05 345.35 Q533.8 343.25 534.15 340.5 534.35 338.65 534.0 336.9 L534.25 336.15 Q535.2 333.8 535.6 331.2 L535.6 330.95 Q538.25 328.9 539.7 325.75 541.0 323.1 541.3 320.2 L541.9 319.6 Q543.6 317.4 544.15 314.85 544.5 313.4 544.5 311.95 L545.6 311.45 547.25 310.2 547.85 309.65 549.05 307.7 Q549.7 306.7 549.8 305.55 L549.95 304.85 551.15 303.65 552.55 302.35 553.2 301.8 Q554.95 299.25 554.8 296.3 554.65 294.1 555.3 292.6 557.55 290.3 558.7 287.25 559.3 285.55 559.35 283.75 559.9 283.1 560.6 282.55 L561.95 281.25 562.55 280.65 562.95 280.0 Q564.05 278.05 563.95 275.8 563.85 274.6 564.55 273.6 L565.75 272.4 566.3 271.75 566.7 271.05 567.1 268.9 Q567.2 268.25 567.45 267.55 L567.7 266.85 Q569.65 265.55 571.7 264.5 L573.45 263.45 573.85 262.85 Q575.0 261.25 575.75 259.45 576.2 258.35 576.95 257.45 L577.65 256.9 578.4 256.3 578.8 255.6 Q580.0 253.65 579.55 251.35 579.25 249.85 579.8 248.4 L580.4 247.75 581.0 247.2 581.3 246.5 Q582.25 244.5 582.3 242.3 L582.5 240.05 Q584.95 237.35 586.6 234.15 588.05 231.35 586.8 228.35 L588.6 227.15 590.05 225.95 590.55 225.3 590.7 223.9 590.75 220.85 590.8 219.45 Q592.4 217.7 594.55 216.5 595.75 215.85 596.35 214.6 597.0 209.8 600.4 206.25 601.85 204.75 602.25 203.1 L604.6 201.15 605.3 199.8 606.5 196.35 606.95 194.9 608.15 193.7 608.65 193.0 609.1 192.35 609.35 191.0 609.45 187.95 Q609.4 187.3 609.65 186.6 612.65 184.9 615.25 182.4 617.3 180.5 617.8 177.7 L618.4 177.15 Q620.65 175.2 622.0 172.55 622.9 170.95 622.8 169.1 L623.65 168.55 626.3 166.7 627.0 166.15 627.85 164.1 628.25 161.95 628.35 161.25 630.0 160.0 631.4 158.8 631.8 158.2 632.05 156.05 632.05 154.55 632.1 153.85 632.7 153.2 633.3 152.55 633.95 151.95 635.0 151.4 Q636.45 150.7 637.65 149.55 L638.15 149.0 638.4 148.3 638.65 147.65 639.15 146.95 Q641.6 146.25 643.65 144.75 L644.95 143.6 645.2 142.95 645.55 141.5 645.7 140.75 645.8 140.1 Q647.75 138.45 648.85 136.15 L649.8 134.15 Q652.0 133.95 653.75 132.65 L654.55 132.1 654.9 131.4 655.35 130.75 655.95 130.1 657.2 129.5 658.8 128.35 659.5 127.8 Q670.4 125.55 681.15 127.2 680.85 128.25 681.1 129.15 L681.5 130.75 681.6 131.45 Q681.55 132.6 681.0 133.6 L680.05 135.65 Q679.85 135.95 679.8 136.3 L679.9 137.1 680.0 137.85 680.15 138.55 680.55 139.35 681.1 140.35 681.2 140.95 680.25 142.35 Q679.0 144.5 679.15 147.15 679.3 149.95 680.35 152.55 L680.1 153.25 678.7 155.95 677.8 157.25 677.7 158.0 677.7 159.4 677.65 160.15 677.6 160.9 Q675.75 162.7 674.25 164.75 673.65 165.7 673.4 166.75 673.45 168.0 673.85 169.1 L674.3 170.65 674.3 171.35 673.3 172.65 Q671.6 174.65 671.55 177.5 L671.6 181.15 671.15 181.75 Q669.4 183.9 669.25 186.55 669.15 188.1 669.6 189.65 L669.2 191.0 Q668.85 192.8 668.9 194.65 L668.95 196.1 668.2 196.8 Q666.5 198.85 665.55 201.45 664.9 203.2 665.4 205.05 L663.9 207.05 663.2 208.3 663.0 209.0 663.25 210.5 663.6 212.1 663.8 212.8 663.4 213.5 663.1 214.2 662.95 214.85 663.15 216.35 663.45 218.0 663.45 218.7 662.25 219.9 661.05 221.15 660.2 221.75 Q658.8 222.25 657.45 222.8 L656.5 223.35 656.1 224.0 655.6 224.65 655.15 225.3 655.05 225.95 654.85 226.15 654.05 227.5 653.8 228.2 653.65 228.85 Q653.7 229.65 653.9 230.4 L654.0 231.2 653.85 231.9 652.55 233.1 Q651.4 234.2 650.7 235.75 L650.2 237.15 650.45 238.6 650.75 239.45 650.9 240.15 649.45 241.4 648.65 242.05 647.95 242.6 647.3 244.0 647.0 244.65 646.8 245.3 647.0 246.85 647.05 247.6 647.0 248.3 645.75 249.55 Q644.55 250.7 643.9 252.15 L643.4 253.6 643.7 255.0 643.75 255.85 643.55 256.5 642.95 257.15 640.85 259.75 640.05 261.05 640.05 262.5 639.9 263.2 639.6 263.9 638.35 265.1 Q637.15 266.25 637.0 267.8 L636.9 269.3 Q636.15 269.9 635.8 270.7 L631.2 280.65 Q627.95 287.9 626.85 295.45 L626.05 296.05 Q624.25 297.35 623.15 299.25 622.8 299.85 622.6 300.55 L622.75 302.05 622.85 302.85 622.8 303.55 Q620.7 305.85 620.45 308.95 620.35 310.9 620.85 312.75 618.85 315.2 617.7 318.2 616.9 320.25 617.45 322.45 L616.4 323.0 Q615.5 323.55 614.7 324.2 L614.1 324.8 613.7 325.45 Q612.2 327.75 612.85 330.55 613.15 332.15 614.0 333.55 L613.15 334.25 Q611.75 335.3 610.65 336.75 L609.8 338.0 609.8 340.15 609.95 341.75 609.95 342.4 Q607.9 344.1 606.2 346.25 605.3 347.4 604.9 348.9 L605.3 351.15 605.6 352.7 605.6 353.4 Q603.6 355.55 602.35 358.05 L598.75 365.1 Q594.4 372.6 596.1 380.35 593.6 384.0 592.0 387.9 590.6 391.25 588.7 394.2 584.45 400.6 586.3 408.1 L585.2 410.05 584.3 411.4 583.95 412.1 583.45 414.15 Q583.1 415.65 583.3 417.1 583.45 418.35 584.1 419.5 L584.9 420.35 585.65 421.25 586.1 422.0 Q586.0 423.15 585.45 424.1 583.0 428.6 584.45 433.45 L586.7 440.5 586.5 441.15 585.55 443.2 Q584.85 444.55 584.7 446.05 L584.35 448.15 584.55 448.9 585.6 452.1 586.1 453.65 Q585.55 454.6 585.25 455.65 584.55 458.55 584.65 461.4 584.75 464.35 586.2 466.85 585.55 468.15 585.3 469.6 L584.9 473.3 Q584.8 475.25 585.65 477.05 L587.55 478.85 589.45 480.65 589.0 482.75 Q588.75 484.7 589.35 486.65 590.05 488.7 591.35 490.55 592.85 492.05 594.8 492.8 L596.2 493.4 596.8 495.35 597.6 498.45 Q598.15 500.25 599.15 501.75 L602.75 504.35 603.0 504.85 603.1 506.35 603.5 509.3 Q603.85 510.85 604.95 511.85 L606.5 512.75 Q609.0 513.95 610.65 515.8 L610.85 517.3 Q611.2 518.9 611.9 520.5 L613.3 522.85 616.2 525.1 617.5 526.55 617.7 528.1 Q617.85 529.65 618.45 531.1 L619.15 532.7 Q620.35 533.6 621.65 534.0 624.6 535.1 625.4 537.3 L625.0 539.4 Q625.0 541.0 625.6 542.55 L626.7 545.55 627.25 546.4 628.0 547.35 628.4 548.05 628.3 549.55 628.25 550.25 628.15 550.95 628.6 552.5 628.85 553.25 629.3 554.1 631.25 555.9 633.55 557.85 634.0 559.4 634.2 560.1 634.7 560.9 635.85 561.75 637.6 562.7 637.6 562.6 637.6 562.65 Q638.3 564.85 639.55 566.7 L640.65 567.45 Q643.2 568.75 645.9 569.55 L646.1 570.25 646.6 571.1 647.8 571.9 Q650.6 573.15 652.95 574.0 L653.15 575.5 653.5 576.95 653.7 577.75 654.65 578.55 Q659.6 582.05 664.7 583.4 L664.85 584.2 665.0 584.9 665.65 587.15 666.15 588.1 Q671.35 591.4 677.45 591.8 L677.4 592.25 677.45 593.75 677.9 595.3 678.2 596.1 679.9 597.85 681.0 598.65 686.5 601.75 686.6 603.2 687.0 604.7 687.55 605.6 688.65 606.4 Q689.5 606.95 690.45 607.1 L696.15 608.1 696.55 608.85 697.3 609.8 698.85 610.8 Q699.65 611.3 700.5 611.45 704.35 612.3 706.85 613.95 708.0 616.0 709.9 617.4 710.45 617.85 711.05 618.0 L712.6 618.45 715.75 621.2 718.05 623.25" fill="#ffff00" fill-rule="evenodd" stroke="none"/>
    <path d="M689.25 147.95 Q690.25 150.45 690.35 153.1 690.45 156.15 688.6 158.7 L688.2 159.3 688.65 160.9 Q689.05 162.4 688.5 163.8 L687.85 165.2 687.25 165.75 685.6 167.0 684.2 168.2 Q684.4 169.35 684.25 170.45 L683.75 174.8 683.65 175.45 683.25 176.1 682.7 176.8 681.7 178.05 Q682.1 179.85 682.15 181.85 682.1 184.65 679.95 186.55 679.05 187.45 679.55 188.8 680.35 191.05 679.25 193.0 L678.9 193.75 Q678.7 194.8 679.05 195.95 679.6 198.2 679.2 200.4 L679.1 201.15 678.65 201.7 678.1 202.35 677.55 203.05 677.45 203.75 677.4 204.45 677.2 205.95 677.1 206.6 676.65 207.25 676.2 207.95 675.55 208.55 675.5 210.05 Q675.4 211.9 674.5 213.55 L673.7 214.85 Q674.7 219.3 672.0 223.25 669.25 227.3 665.3 230.3 L664.65 230.5 Q665.25 232.6 664.55 234.75 L664.2 235.4 662.45 237.3 661.2 238.6 660.95 242.2 Q660.2 245.55 657.45 247.45 L657.0 249.6 Q656.55 251.8 655.1 253.65 L654.5 254.3 654.3 257.25 Q654.25 260.1 651.9 261.9 L651.9 262.6 652.1 263.45 652.3 264.15 652.15 264.95 652.0 265.6 651.55 266.95 651.1 267.6 648.4 269.4 647.35 269.9 Q647.15 270.25 647.1 270.6 646.95 271.35 646.95 272.05 646.85 273.2 646.35 274.15 L645.85 274.75 644.3 276.0 643.45 276.55 Q642.65 281.3 640.6 285.8 L636.6 294.45 Q637.0 295.95 636.6 297.45 635.8 300.0 634.05 302.1 L633.4 302.75 633.35 303.4 633.3 304.2 633.15 305.6 633.05 306.3 632.65 307.0 631.5 308.3 630.5 309.55 Q630.45 311.15 631.0 312.7 631.75 314.9 631.4 317.05 L631.3 317.75 630.8 318.45 629.4 319.65 627.75 320.8 627.9 321.65 627.95 323.1 627.75 325.2 626.8 326.6 Q625.6 328.45 623.85 329.8 L623.4 330.35 623.8 331.1 624.35 332.0 624.9 332.8 625.05 333.6 625.05 334.35 624.85 335.75 624.75 336.45 623.75 337.75 621.15 340.2 620.3 340.85 Q620.0 341.95 620.2 343.0 620.7 345.3 619.65 347.35 L619.3 348.05 618.65 348.6 616.95 349.75 615.9 350.35 Q615.1 358.45 610.85 365.95 607.65 371.65 605.15 377.85 L605.25 378.6 605.25 380.05 Q605.2 381.2 604.65 382.2 L604.55 382.3 Q604.85 383.5 604.45 384.9 603.85 387.15 602.4 388.95 L600.7 390.8 Q599.9 393.2 599.35 395.7 598.75 398.65 597.0 401.2 L595.75 403.15 Q596.15 405.4 596.2 407.65 596.35 409.95 595.5 412.0 L593.95 414.6 Q593.8 414.95 593.9 415.25 L594.4 416.2 595.1 417.0 Q595.9 419.2 595.8 421.5 L595.3 425.8 Q594.95 427.65 593.85 429.3 593.7 430.7 594.2 432.2 L595.35 435.35 596.5 437.8 Q596.95 439.65 596.6 441.5 596.35 443.0 595.75 444.3 L594.65 447.0 595.85 452.45 Q596.45 455.4 594.9 458.1 594.35 459.1 594.3 460.2 594.5 461.0 594.85 461.65 L596.85 465.05 596.75 466.55 Q596.7 468.0 595.8 469.3 595.15 470.25 595.0 471.4 595.8 472.85 597.2 473.9 598.95 475.3 599.75 477.35 L599.7 478.8 599.2 481.6 598.8 483.05 601.45 484.7 604.25 486.45 Q605.2 487.55 605.55 488.85 L606.1 491.95 606.4 494.2 611.35 498.85 Q612.4 499.85 612.95 501.2 L613.05 502.0 613.0 503.45 612.7 505.3 Q615.85 506.75 618.45 509.0 620.15 510.4 621.0 512.45 L621.05 513.25 621.0 513.95 620.7 515.4 625.15 520.0 Q626.3 521.0 626.85 522.3 L626.95 523.05 627.1 523.9 627.25 525.35 633.45 531.1 635.4 533.4 635.5 534.9 635.15 537.8 Q634.95 538.9 635.25 539.95 L636.05 540.85 637.85 542.7 638.55 543.5 638.6 544.25 Q638.85 545.35 638.6 546.45 L638.1 548.6 639.9 549.65 Q641.75 550.25 642.9 551.85 643.55 552.6 643.75 553.5 L644.25 553.75 645.15 554.45 645.6 555.35 646.15 556.85 646.65 558.4 Q650.0 560.3 654.7 561.3 L655.45 562.25 656.7 563.9 658.95 565.0 660.9 567.6 661.65 569.15 661.95 570.0 662.45 571.55 Q666.6 572.85 671.05 575.1 671.8 575.5 672.35 576.1 L673.05 576.8 673.5 577.65 673.9 579.1 674.2 579.9 Q678.3 582.35 684.35 583.2 685.95 584.65 686.55 586.55 L686.85 587.35 687.05 588.1 Q687.6 589.4 687.4 590.85 L688.35 591.2 693.25 592.6 694.05 593.6 Q695.0 594.65 695.6 596.0 L695.95 596.8 696.3 597.6 700.65 598.8 Q702.25 599.3 703.7 600.15 L704.2 600.95 704.6 601.75 704.7 602.5 Q706.85 603.75 710.0 603.5 L711.35 603.7 Q713.7 604.45 715.4 606.1 L715.85 607.05 716.35 608.5 716.45 609.7 717.3 610.15 720.5 611.7 Q721.7 611.9 722.75 612.35 L725.75 613.85 726.25 614.7 726.8 616.2 727.25 617.8 Q727.2 618.15 727.3 618.2 L731.45 620.25 Q732.6 621.4 733.4 622.8 L734.2 624.35 734.45 625.2 734.95 626.75 737.75 630.25 738.2 630.95 738.7 631.85 Q739.55 633.25 739.65 634.9 L745.5 638.8 746.15 639.5 748.4 643.55 748.5 644.35 748.6 645.05 754.1 648.4 755.4 649.35 756.9 650.95 Q763.95 652.1 770.55 655.3 772.2 656.1 773.1 657.75 L773.15 658.5 773.1 660.0 772.85 661.4 772.6 662.05 Q774.6 664.0 778.85 666.35 L779.5 667.0 Q780.55 668.5 781.15 670.2 785.4 672.75 790.45 674.35 794.0 675.55 796.05 678.75 797.55 680.95 798.2 683.5 800.75 686.0 803.9 688.3 L804.9 689.2 Q806.6 691.35 807.65 694.0 L807.95 694.8 808.35 695.5 809.55 696.55 Q814.7 697.6 818.9 700.65 820.1 702.15 820.8 703.9 L821.05 704.7 821.3 705.45 822.8 708.7 Q824.15 710.6 826.3 711.5 L827.4 712.0 Q828.2 712.35 828.9 712.85 829.45 713.2 829.8 713.65 831.0 715.3 831.15 717.5 L831.15 718.25 831.75 722.05 832.2 725.1 Q833.85 727.5 834.25 730.45 834.8 734.2 834.4 737.95 L833.3 748.05 Q833.15 750.35 832.05 752.25 827.9 755.7 823.45 758.7 814.05 764.75 802.5 766.7 L800.25 766.9 Q797.35 765.55 794.3 765.2 788.05 764.65 783.45 760.95 L782.85 760.4 Q779.05 759.2 775.15 760.9 L771.8 761.7 Q768.5 761.9 766.05 759.65 L765.55 758.75 764.9 756.5 764.75 755.75 764.65 755.0 764.4 754.4 Q763.75 754.0 762.95 753.75 L761.95 753.75 759.5 753.8 Q756.65 752.95 754.6 751.0 L753.75 750.1 753.5 749.3 753.25 747.8 Q753.15 747.25 753.2 746.55 749.55 746.85 746.35 745.2 745.75 744.9 745.25 744.45 L744.3 742.75 Q743.65 741.7 743.35 740.45 L743.15 739.65 742.8 738.85 Q739.1 738.5 735.45 737.45 L734.55 737.15 Q732.6 736.45 731.2 735.05 L730.4 733.4 729.65 731.2 729.35 730.3 729.25 729.6 Q721.85 726.65 714.0 724.0 708.85 722.35 704.0 720.1 701.35 718.9 699.75 716.25 697.0 715.8 694.75 713.9 L693.8 713.0 692.9 712.1 692.1 711.25 691.75 710.4 691.3 708.9 691.2 708.15 688.05 703.85 687.35 703.15 Q685.35 701.1 683.65 698.8 L682.9 697.9 Q678.45 696.75 674.6 693.9 L673.7 693.05 673.4 692.3 673.05 691.45 672.9 690.95 Q668.5 690.5 665.1 687.85 L664.6 687.0 663.45 684.65 663.15 683.8 662.95 683.3 Q658.6 682.35 654.5 680.0 L653.4 679.15 652.55 678.3 650.9 677.95 649.65 678.2 647.45 678.35 645.65 677.45 644.55 676.65 643.65 674.95 Q643.0 673.85 642.75 672.65 L642.5 671.85 642.35 671.1 Q638.0 670.55 634.35 667.95 633.5 666.85 633.1 665.5 L632.6 663.95 632.35 663.15 631.9 661.1 Q630.65 660.35 628.5 659.7 626.95 659.15 625.45 658.25 L624.8 656.65 Q624.25 655.6 624.1 654.4 L623.95 653.6 623.65 652.05 Q621.6 650.8 618.9 649.85 617.6 649.4 616.4 649.1 614.1 648.5 612.9 646.5 L612.0 646.2 609.05 646.1 Q606.8 645.35 605.35 643.5 L603.7 641.7 603.25 640.8 602.65 639.25 602.55 638.55 599.9 637.25 596.95 635.6 596.4 634.65 595.95 633.2 595.65 631.7 595.5 631.15 Q591.65 630.25 588.3 627.7 L587.3 626.7 584.75 624.15 584.5 623.3 584.3 621.8 584.25 620.35 584.3 619.65 Q583.15 617.4 581.5 615.35 L581.0 614.65 580.7 614.25 579.45 614.2 579.4 614.3 Q576.2 612.85 573.8 610.2 572.2 608.5 571.0 606.45 L570.3 606.2 569.55 606.2 568.1 606.15 566.35 605.3 565.2 604.45 564.7 603.6 564.5 602.85 564.2 602.1 563.1 601.2 562.1 600.2 561.55 599.35 561.35 598.65 561.0 597.8 Q560.3 597.15 559.4 596.65 557.65 595.7 556.25 594.3 L555.8 593.4 555.5 592.75 555.25 591.9 555.15 591.2 555.25 590.45 555.35 589.7 554.95 589.0 553.95 588.0 553.35 587.4 550.4 586.25 Q548.85 585.55 547.45 584.65 L546.9 583.8 546.65 583.3 546.45 583.05 543.35 581.75 Q542.75 581.5 542.2 581.05 L541.75 580.15 541.45 579.4 541.05 577.9 540.85 577.35 539.1 576.65 536.15 575.05 535.65 574.2 535.2 572.65 535.1 571.2 535.05 570.7 532.7 568.45 532.05 567.7 Q527.6 564.25 522.9 559.95 519.35 556.7 518.9 551.9 L519.1 551.2 519.4 550.55 519.35 549.9 518.45 548.9 517.4 547.95 514.05 546.5 Q512.55 545.75 511.15 544.85 L510.6 544.0 510.35 543.35 510.15 542.5 510.0 541.8 510.1 541.05 510.25 540.35 510.6 539.65 510.95 539.0 510.3 537.55 Q509.6 536.3 509.25 535.0 L508.6 532.7 508.75 532.0 508.9 531.25 508.6 530.7 507.25 529.5 506.15 528.6 505.65 527.7 505.4 526.95 505.15 526.15 505.0 525.45 505.15 524.75 505.25 524.0 505.25 523.35 505.0 522.5 504.4 521.75 503.45 520.75 502.55 519.9 Q502.2 519.1 502.0 518.2 501.7 517.5 501.8 516.75 L501.9 515.3 502.05 514.65 501.9 514.1 499.1 511.85 498.0 510.2 Q497.4 509.15 497.35 507.9 497.4 506.8 497.9 505.8 L497.1 504.95 496.05 504.0 495.6 503.15 495.15 501.6 495.05 500.15 494.95 499.6 493.9 498.4 493.0 497.55 492.7 496.8 492.35 495.25 492.3 493.75 492.35 493.05 Q491.25 491.65 491.1 489.9 490.85 488.05 491.05 486.25 L490.95 483.25 491.15 482.55 491.4 481.9 491.75 481.25 491.9 480.9 Q491.0 479.55 490.5 477.95 489.75 475.75 491.05 473.8 L495.25 470.7 Q491.4 472.75 491.35 472.35 491.05 471.25 491.15 470.15 491.3 469.0 491.85 468.05 492.1 466.6 490.9 465.3 489.5 463.8 489.8 461.8 L489.95 461.05 490.3 460.45 490.85 459.75 491.3 459.1 491.8 455.55 Q492.15 452.8 493.95 450.8 L494.55 450.15 494.1 444.85 Q493.7 441.6 493.95 438.25 L493.8 437.55 493.25 435.9 492.85 433.65 Q492.95 432.55 493.65 431.6 L496.45 428.4 497.05 427.8 497.0 427.2 496.45 426.15 496.0 425.4 Q495.5 423.55 495.75 421.65 496.05 418.85 498.3 416.95 498.6 416.7 499.1 416.4 L499.15 415.9 498.4 414.8 497.5 413.9 497.3 413.1 497.1 412.35 496.9 410.9 Q497.1 410.15 497.45 409.55 498.2 408.05 499.35 406.9 L499.85 406.25 Q497.95 403.85 498.45 400.8 499.1 397.25 501.9 394.85 501.3 392.3 501.75 389.7 502.45 386.15 505.15 383.65 L505.3 382.95 505.6 382.25 505.5 381.55 505.4 380.75 505.25 380.0 505.4 379.35 505.75 378.6 506.5 377.3 507.1 376.7 507.95 376.05 Q508.1 374.9 508.7 373.95 509.65 372.25 510.9 370.7 L511.45 370.1 511.35 369.3 511.3 368.55 511.5 367.15 514.7 362.45 Q516.4 359.8 518.4 357.35 518.7 353.0 520.05 348.7 L521.65 343.95 Q522.6 341.45 524.3 339.3 524.0 336.7 524.7 334.3 L526.8 328.0 527.15 327.3 527.4 327.0 527.5 326.6 527.6 325.9 527.95 325.25 529.0 323.95 530.75 322.0 531.45 318.55 Q532.05 315.5 534.25 313.15 534.3 311.6 534.6 310.2 535.1 307.6 536.8 305.45 L537.25 304.8 538.05 304.3 539.15 303.7 540.25 303.15 540.5 302.4 541.25 300.45 542.3 298.35 542.95 297.75 543.7 297.1 545.15 295.9 544.9 295.15 544.65 294.35 544.25 292.8 Q544.35 291.3 545.1 290.0 546.45 287.5 548.5 285.5 L549.05 284.85 549.2 284.15 549.25 283.45 549.15 281.9 Q549.5 280.5 550.45 279.3 L553.95 275.45 554.35 274.05 554.9 271.2 555.2 269.8 555.55 269.15 556.6 267.8 557.7 266.6 557.85 265.85 558.25 263.7 558.6 261.55 559.0 260.9 559.55 260.2 559.95 259.65 562.1 258.6 565.8 256.95 567.15 255.0 Q567.95 253.15 569.1 251.65 L569.55 251.0 569.35 250.3 568.8 248.65 568.15 246.35 568.3 245.65 568.4 244.9 568.8 244.3 569.35 243.6 569.75 242.9 570.6 242.4 571.65 241.8 572.5 241.25 Q572.5 239.8 572.85 238.4 573.35 235.75 575.05 233.6 L575.45 232.95 575.5 232.25 575.4 231.5 575.0 229.95 Q575.35 227.8 576.15 225.8 577.45 222.6 580.35 220.55 580.95 217.7 582.35 215.2 584.1 212.0 587.1 210.05 587.95 206.7 590.2 204.0 L592.45 201.0 592.05 199.9 592.2 199.15 592.3 198.45 592.75 197.8 593.3 197.15 593.65 196.5 594.5 195.95 595.55 195.35 596.65 194.8 596.95 194.15 597.1 193.45 597.4 192.0 597.5 191.3 597.9 190.65 598.45 190.0 599.45 188.7 Q599.3 187.95 599.4 187.2 599.5 185.75 599.75 184.35 L600.0 182.9 Q601.0 181.15 602.55 179.75 604.95 177.65 607.85 176.2 L608.2 174.8 Q608.55 173.25 609.65 172.05 L610.7 170.85 Q610.3 169.35 610.65 167.9 611.3 165.3 613.0 163.1 L613.4 162.5 614.25 162.0 Q616.1 161.0 618.2 160.45 L618.65 159.75 619.05 158.35 619.45 156.2 619.85 155.6 620.4 154.95 621.65 153.65 Q622.3 150.7 624.15 148.2 626.3 145.3 629.25 143.3 L629.5 142.6 Q629.75 141.9 630.25 141.3 L631.4 139.95 632.5 139.4 633.55 138.85 634.35 138.2 634.5 137.6 634.6 136.85 634.95 136.2 635.35 135.55 635.7 134.85 636.4 134.3 638.2 133.15 Q638.8 132.8 639.25 132.6 L639.45 131.9 Q639.45 130.75 639.9 129.75 L640.9 127.7 Q642.65 126.2 645.0 125.6 647.0 125.15 648.2 123.8 L649.3 122.75 Q650.85 121.6 652.6 120.95 L653.25 120.3 653.8 119.7 654.4 119.1 Q666.05 115.55 678.3 116.95 L679.65 116.4 680.2 116.05 681.0 116.0 682.4 115.95 Q686.7 118.25 689.85 122.15 L691.4 124.65 691.45 129.0 Q691.7 131.55 691.05 134.15 L690.7 135.55 690.85 136.25 691.4 137.2 691.75 137.9 Q692.1 139.8 691.85 141.65 691.35 144.3 689.65 146.25 L689.55 146.35 688.9 147.0 689.25 147.95 M712.6 618.45 L711.05 618.0 Q710.45 617.85 709.9 617.4 708.0 616.0 706.85 613.95 704.35 612.3 700.5 611.45 699.65 611.3 698.85 610.8 L697.3 609.8 696.55 608.85 696.15 608.1 690.45 607.1 Q689.5 606.95 688.65 606.4 L687.55 605.6 687.0 604.7 686.6 603.2 686.5 601.75 681.0 598.65 679.9 597.85 678.2 596.1 677.9 595.3 677.45 593.75 677.4 592.25 677.45 591.8 Q671.35 591.4 666.15 588.1 L665.65 587.15 665.0 584.9 664.85 584.2 664.7 583.4 Q659.6 582.05 654.65 578.55 L653.7 577.75 653.5 576.95 653.15 575.5 652.95 574.0 Q650.6 573.15 647.8 571.9 L646.6 571.1 646.1 570.25 645.9 569.55 Q643.2 568.75 640.65 567.45 L639.55 566.7 Q638.3 564.85 637.6 562.65 L637.6 562.6 637.6 562.7 635.85 561.75 634.7 560.9 634.2 560.1 634.0 559.4 633.55 557.85 631.25 555.9 629.3 554.1 628.85 553.25 628.6 552.5 628.15 550.95 628.25 550.25 628.3 549.55 628.4 548.05 628.0 547.35 627.25 546.4 626.7 545.55 625.6 542.55 Q625.0 541.0 625.0 539.4 L625.4 537.3 Q624.6 535.1 621.65 534.0 620.35 533.6 619.15 532.7 L618.45 531.1 Q617.85 529.65 617.7 528.1 L617.5 526.55 616.2 525.1 613.3 522.85 611.9 520.5 Q611.2 518.9 610.85 517.3 L610.65 515.8 Q609.0 513.95 606.5 512.75 L604.95 511.85 Q603.85 510.85 603.5 509.3 L603.1 506.35 603.0 504.85 602.75 504.35 599.15 501.75 Q598.15 500.25 597.6 498.45 L596.8 495.35 596.2 493.4 594.8 492.8 Q592.85 492.05 591.35 490.55 590.05 488.7 589.35 486.65 588.75 484.7 589.0 482.75 L589.45 480.65 587.55 478.85 585.65 477.05 Q584.8 475.25 584.9 473.3 L585.3 469.6 Q585.55 468.15 586.2 466.85 584.75 464.35 584.65 461.4 584.55 458.55 585.25 455.65 585.55 454.6 586.1 453.65 L585.6 452.1 584.55 448.9 584.35 448.15 584.7 446.05 Q584.85 444.55 585.55 443.2 L586.5 441.15 586.7 440.5 584.45 433.45 Q583.0 428.6 585.45 424.1 586.0 423.15 586.1 422.0 L585.65 421.25 584.9 420.35 584.1 419.5 Q583.45 418.35 583.3 417.1 583.1 415.65 583.45 414.15 L583.95 412.1 584.3 411.4 585.2 410.05 586.3 408.1 Q584.45 400.6 588.7 394.2 590.6 391.25 592.0 387.9 593.6 384.0 596.1 380.35 594.4 372.6 598.75 365.1 L602.35 358.05 Q603.6 355.55 605.6 353.4 L605.6 352.7 605.3 351.15 604.9 348.9 Q605.3 347.4 606.2 346.25 607.9 344.1 609.95 342.4 L609.95 341.75 609.8 340.15 609.8 338.0 610.65 336.75 Q611.75 335.3 613.15 334.25 L614.0 333.55 Q613.15 332.15 612.85 330.55 612.2 327.75 613.7 325.45 L614.1 324.8 614.7 324.2 Q615.5 323.55 616.4 323.0 L617.45 322.45 Q616.9 320.25 617.7 318.2 618.85 315.2 620.85 312.75 620.35 310.9 620.45 308.95 620.7 305.85 622.8 303.55 L622.85 302.85 622.75 302.05 622.6 300.55 Q622.8 299.85 623.15 299.25 624.25 297.35 626.05 296.05 L626.85 295.45 Q627.95 287.9 631.2 280.65 L635.8 270.7 Q636.15 269.9 636.9 269.3 L637.0 267.8 Q637.15 266.25 638.35 265.1 L639.6 263.9 639.9 263.2 640.05 262.5 640.05 261.05 640.85 259.75 642.95 257.15 643.55 256.5 643.75 255.85 643.7 255.0 643.4 253.6 643.9 252.15 Q644.55 250.7 645.75 249.55 L647.0 248.3 647.05 247.6 647.0 246.85 646.8 245.3 647.0 244.65 647.3 244.0 647.95 242.6 648.65 242.05 649.45 241.4 650.9 240.15 650.75 239.45 650.45 238.6 650.2 237.15 650.7 235.75 Q651.4 234.2 652.55 233.1 L653.85 231.9 654.0 231.2 653.9 230.4 Q653.7 229.65 653.65 228.85 L653.8 228.2 654.05 227.5 654.85 226.15 655.05 225.95 655.15 225.3 655.6 224.65 656.1 224.0 656.5 223.35 657.45 222.8 Q658.8 222.25 660.2 221.75 L661.05 221.15 662.25 219.9 663.45 218.7 663.45 218.0 663.15 216.35 662.95 214.85 663.1 214.2 663.4 213.5 663.8 212.8 663.6 212.1 663.25 210.5 663.0 209.0 663.2 208.3 663.9 207.05 665.4 205.05 Q664.9 203.2 665.55 201.45 666.5 198.85 668.2 196.8 L668.95 196.1 668.9 194.65 Q668.85 192.8 669.2 191.0 L669.6 189.65 Q669.15 188.1 669.25 186.55 669.4 183.9 671.15 181.75 L671.6 181.15 671.55 177.5 Q671.6 174.65 673.3 172.65 L674.3 171.35 674.3 170.65 673.85 169.1 Q673.45 168.0 673.4 166.75 673.65 165.7 674.25 164.75 675.75 162.7 677.6 160.9 L677.65 160.15 677.7 159.4 677.7 158.0 677.8 157.25 678.7 155.95 680.1 153.25 680.35 152.55 Q679.3 149.95 679.15 147.15 679.0 144.5 680.25 142.35 L681.2 140.95 681.1 140.35 680.55 139.35 680.15 138.55 680.0 137.85 679.9 137.1 679.8 136.3 Q679.85 135.95 680.05 135.65 L681.0 133.6 Q681.55 132.6 681.6 131.45 L681.5 130.75 681.1 129.15 Q680.85 128.25 681.15 127.2 670.4 125.55 659.5 127.8 L658.8 128.35 657.2 129.5 655.95 130.1 655.35 130.75 654.9 131.4 654.55 132.1 653.75 132.65 Q652.0 133.95 649.8 134.15 L648.85 136.15 Q647.75 138.45 645.8 140.1 L645.7 140.75 645.55 141.5 645.2 142.95 644.95 143.6 643.65 144.75 Q641.6 146.25 639.15 146.95 L638.65 147.65 638.4 148.3 638.15 149.0 637.65 149.55 Q636.45 150.7 635.0 151.4 L633.95 151.95 633.3 152.55 632.7 153.2 632.1 153.85 632.05 154.55 632.05 156.05 631.8 158.2 631.4 158.8 630.0 160.0 628.35 161.25 628.25 161.95 627.85 164.1 627.0 166.15 626.3 166.7 623.65 168.55 622.8 169.1 Q622.9 170.95 622.0 172.55 620.65 175.2 618.4 177.15 L617.8 177.7 Q617.3 180.5 615.25 182.4 612.65 184.9 609.65 186.6 609.4 187.3 609.45 187.95 L609.35 191.0 609.1 192.35 608.65 193.0 608.15 193.7 606.95 194.9 606.5 196.35 605.3 199.8 604.6 201.15 602.25 203.1 Q601.85 204.75 600.4 206.25 597.0 209.8 596.35 214.6 595.75 215.85 594.55 216.5 592.4 217.7 590.8 219.45 L590.75 220.85 590.7 223.9 590.55 225.3 590.05 225.95 588.6 227.15 586.8 228.35 Q588.05 231.35 586.6 234.15 584.95 237.35 582.5 240.05 L582.3 242.3 Q582.25 244.5 581.3 246.5 L581.0 247.2 580.4 247.75 579.8 248.4 Q579.25 249.85 579.55 251.35 580.0 253.65 578.8 255.6 L578.4 256.3 577.65 256.9 576.95 257.45 Q576.2 258.35 575.75 259.45 575.0 261.25 573.85 262.85 L573.45 263.45 571.7 264.5 Q569.65 265.55 567.7 266.85 L567.45 267.55 Q567.2 268.25 567.1 268.9 L566.7 271.05 566.3 271.75 565.75 272.4 564.55 273.6 Q563.85 274.6 563.95 275.8 564.05 278.05 562.95 280.0 L562.55 280.65 561.95 281.25 560.6 282.55 Q559.9 283.1 559.35 283.75 559.3 285.55 558.7 287.25 557.55 290.3 555.3 292.6 554.65 294.1 554.8 296.3 554.95 299.25 553.2 301.8 L552.55 302.35 551.15 303.65 549.95 304.85 549.8 305.55 Q549.7 306.7 549.05 307.7 L547.85 309.65 547.25 310.2 545.6 311.45 544.5 311.95 Q544.5 313.4 544.15 314.85 543.6 317.4 541.9 319.6 L541.3 320.2 Q541.0 323.1 539.7 325.75 538.25 328.9 535.6 330.95 L535.6 331.2 Q535.2 333.8 534.25 336.15 L534.0 336.9 Q534.35 338.65 534.15 340.5 533.8 343.25 532.05 345.35 L531.05 346.65 530.95 350.3 Q530.75 353.0 529.05 355.1 L528.7 355.7 528.65 356.45 528.9 357.25 529.05 357.95 Q528.75 361.3 526.6 363.75 524.05 366.7 521.75 369.95 L521.6 371.4 Q521.4 372.85 520.7 374.15 L520.05 375.5 Q520.55 377.4 519.95 379.15 518.9 382.0 516.4 383.75 L515.5 384.3 514.65 386.35 Q513.9 388.15 512.65 389.65 L511.7 390.95 Q512.6 393.45 511.9 396.1 511.0 399.45 508.65 402.15 L509.3 403.0 509.85 403.85 510.2 404.65 510.35 406.2 Q510.35 407.65 509.65 408.95 L509.0 410.3 509.35 414.85 Q509.55 417.7 508.8 420.55 L508.5 421.25 508.05 421.85 507.35 422.5 Q507.9 425.3 507.4 428.45 506.85 432.35 503.85 435.1 503.65 439.5 504.4 443.8 505.25 449.05 503.85 454.25 L503.45 454.9 502.9 455.5 501.75 456.8 501.5 457.5 501.1 459.65 500.85 461.8 500.85 462.45 501.25 463.3 501.6 464.15 Q502.0 466.3 501.55 468.55 501.0 471.45 501.2 474.4 L501.15 475.05 501.3 475.8 501.65 476.55 502.2 477.4 Q502.5 478.55 502.35 479.65 L501.6 483.2 501.2 484.6 501.1 484.7 501.2 485.3 500.95 487.5 501.35 488.3 501.9 489.1 502.5 489.95 503.15 490.7 506.15 492.8 Q507.05 493.85 507.2 495.2 L507.05 497.4 506.55 500.25 506.9 501.0 507.25 501.8 508.2 503.5 508.25 504.2 508.4 505.0 508.55 505.75 510.05 506.9 Q511.6 507.95 512.45 509.65 L512.5 510.4 512.45 511.85 512.25 513.25 511.85 514.65 513.45 518.2 514.95 521.2 515.3 522.6 517.0 525.2 518.35 527.6 519.05 529.15 519.15 529.95 519.0 530.65 518.9 531.3 518.8 532.1 519.55 533.6 520.45 536.0 521.05 538.35 521.95 539.2 524.25 541.1 525.1 541.8 526.45 542.35 Q528.0 543.1 529.4 544.0 530.35 545.0 530.45 546.35 530.65 547.85 530.35 549.25 530.1 550.8 529.4 552.05 530.45 554.45 533.25 556.2 535.75 557.65 538.55 558.55 L539.35 559.5 539.95 560.35 540.15 560.8 540.35 561.05 541.9 561.9 543.3 563.6 Q544.15 564.7 544.6 566.05 L545.05 567.55 546.75 569.25 549.15 572.0 549.75 572.8 550.0 573.15 554.3 574.8 555.05 575.8 555.75 576.55 556.15 576.75 557.65 576.95 559.7 577.75 560.5 578.65 561.05 579.5 561.45 580.3 Q563.75 581.55 564.95 583.85 565.9 585.75 566.4 587.8 L566.55 588.5 567.25 589.3 568.65 590.35 569.35 591.25 569.8 592.1 570.35 593.65 571.6 594.6 572.45 595.5 572.85 596.0 577.65 597.85 578.5 598.5 579.1 599.35 579.5 600.15 579.95 601.65 Q580.75 603.15 582.0 604.45 L583.05 605.6 583.45 605.55 584.85 605.55 586.95 606.4 Q588.7 608.3 590.0 610.5 L591.3 612.35 Q593.35 614.85 593.95 618.05 594.1 619.15 594.55 620.2 598.5 621.5 602.5 623.1 L603.45 623.8 603.95 624.65 604.5 626.15 604.9 627.7 604.9 628.15 Q606.85 629.5 609.35 630.9 L610.25 631.35 611.7 632.2 612.6 633.0 613.1 633.85 613.5 634.7 613.6 635.4 616.65 636.45 618.7 637.3 619.5 638.15 620.7 639.8 Q624.3 641.9 628.5 643.5 630.2 644.2 631.45 645.65 633.35 647.95 633.4 650.85 636.9 651.35 639.55 654.1 L640.5 655.1 Q642.3 656.75 642.05 659.0 643.8 661.25 648.4 663.1 649.1 663.35 649.7 663.9 651.1 665.2 651.4 667.05 652.2 668.85 655.2 668.35 L657.9 668.5 Q659.5 669.05 660.95 669.95 L661.5 670.8 661.85 671.65 661.95 672.35 662.85 672.75 664.65 672.65 666.05 672.55 Q669.05 673.55 671.35 675.7 L672.6 677.2 672.75 677.95 672.75 678.7 672.6 680.1 Q674.55 681.25 677.6 682.2 L678.8 682.7 Q679.55 683.05 680.25 683.55 L681.2 684.35 681.7 685.2 682.05 685.95 682.2 686.75 Q686.45 688.0 689.75 691.45 L697.3 699.6 Q699.25 701.7 700.4 704.15 L700.55 704.9 700.65 705.65 Q703.45 706.55 706.15 709.1 L707.1 710.05 708.8 712.25 Q714.6 713.45 720.45 715.35 723.15 716.2 725.45 717.85 L726.1 718.25 Q733.3 718.5 738.1 723.35 L738.75 724.2 738.8 724.9 738.9 726.4 738.85 727.85 741.4 728.5 744.6 728.65 Q748.65 729.8 750.85 733.25 L751.25 734.0 752.3 736.35 758.75 737.35 Q759.8 737.5 760.75 738.0 L761.65 738.75 762.15 739.65 Q762.75 740.7 762.85 741.9 L762.95 742.7 763.0 743.45 762.95 743.9 Q768.3 743.9 772.3 747.35 L773.0 748.1 773.45 749.05 773.85 750.45 774.15 751.25 Q778.35 750.2 782.65 750.35 L785.5 750.6 Q787.8 751.05 789.0 752.95 L797.9 755.3 798.85 755.6 801.6 756.85 803.25 756.95 Q806.35 755.45 809.65 754.45 L811.4 754.0 813.65 753.6 814.7 753.0 815.35 752.45 815.95 751.8 819.95 749.5 820.6 748.95 821.3 748.4 822.9 747.15 Q823.95 745.7 824.05 743.75 L824.3 742.25 Q824.85 739.8 824.95 737.25 825.0 734.9 824.35 732.65 823.9 731.6 824.1 730.45 823.0 728.65 822.4 726.55 L822.3 725.75 822.05 722.8 Q822.0 721.55 821.55 720.45 818.7 718.35 816.25 715.8 L815.6 715.05 Q813.9 712.65 812.65 710.0 L812.1 708.5 Q809.4 706.6 805.8 705.35 L804.4 704.7 Q802.2 703.65 800.55 701.8 L799.65 700.15 798.6 697.75 798.2 697.0 797.9 696.15 Q795.9 693.7 792.95 692.3 L791.2 691.25 790.1 690.4 789.35 688.85 Q788.85 687.75 788.75 686.5 L788.65 685.75 788.0 684.15 Q781.7 681.1 774.65 679.5 774.0 679.35 773.5 678.9 L773.05 678.0 Q772.65 676.95 772.4 675.75 L772.2 674.95 772.1 674.25 772.0 673.5 Q767.55 672.95 764.4 669.65 L763.55 668.8 762.75 667.9 762.25 667.05 Q761.85 666.3 761.75 665.55 L761.55 664.75 761.65 664.05 761.75 663.35 Q755.65 662.35 750.45 657.95 746.15 654.3 740.8 651.85 L739.7 650.1 Q739.15 649.1 739.05 647.85 L738.95 647.05 738.9 646.3 Q736.85 644.25 734.1 643.1 733.1 642.75 732.3 642.1 L730.15 640.35 729.8 639.55 Q729.55 638.75 729.45 637.95 L729.35 636.5 729.45 636.1 725.5 633.65 723.5 632.1 723.2 631.2 722.95 629.8 722.95 628.25 722.05 627.8 719.15 626.1 718.65 625.3 718.15 623.75 718.05 623.25 717.9 622.25 Q716.0 619.7 712.6 618.45" fill="#ffffff" fill-rule="evenodd" stroke="none"/>
  </g>
</svg>
