<?xml version="1.0" encoding="UTF-8" standalone="no"?>
<svg xmlns:xlink="http://www.w3.org/1999/xlink" height="480.0px" width="640.0px" xmlns="http://www.w3.org/2000/svg">
  <g transform="matrix(1.0, 0.0, 0.0, 1.0, 0.0, 1.85)">
    <path d="M640.0 -1.85 L640.0 478.15 365.35 478.15 365.55 458.65 366.1 417.75 366.1 417.65 366.45 407.65 366.45 406.95 366.45 403.35 Q366.95 389.95 366.6 380.25 L366.1 367.5 366.1 367.2 366.05 366.8 366.05 365.8 365.55 354.45 365.55 354.3 Q364.65 334.7 351.25 328.85 349.5 327.9 347.75 327.3 335.5 322.8 315.75 323.6 L315.7 323.6 281.95 324.3 281.9 324.3 Q263.25 324.45 248.75 324.1 209.75 323.1 213.1 350.25 212.45 359.0 212.2 367.8 L212.25 367.6 Q211.95 374.45 211.95 381.35 211.95 385.5 212.6 389.55 L212.65 389.8 Q213.55 394.85 213.35 400.6 L213.3 400.65 Q213.05 407.45 213.25 415.2 L206.1 415.25 206.0 415.25 193.35 415.1 193.3 415.1 184.8 414.9 177.85 414.6 Q174.35 414.35 168.1 414.4 L167.95 414.4 153.8 413.65 153.9 413.7 Q142.1 412.7 133.05 413.15 L132.95 413.15 132.75 413.15 132.7 407.9 132.7 407.75 Q132.5 398.25 130.6 388.85 129.5 382.85 129.75 372.0 L129.8 368.75 130.35 346.75 130.35 346.7 Q130.6 336.85 131.0 333.4 L131.05 333.1 Q131.65 327.9 131.35 319.65 L131.35 319.7 131.3 317.4 169.45 316.95 169.7 316.95 172.7 316.85 173.0 316.85 Q181.5 316.4 189.95 316.4 L228.95 316.4 267.95 316.4 276.1 316.4 294.3 316.8 294.35 316.8 Q308.2 317.15 328.25 317.05 L328.3 317.05 Q347.7 316.9 368.5 317.4 L368.95 317.4 Q375.6 317.4 382.9 317.7 L383.0 317.7 399.5 316.9 399.75 316.85 408.0 315.85 408.15 315.85 Q418.85 314.9 426.15 309.7 L426.55 309.45 Q439.2 300.5 439.3 286.8 L439.3 286.55 Q439.45 282.7 439.9 277.75 L439.9 277.6 Q440.4 271.0 440.3 265.05 L440.3 265.0 439.7 226.2 439.7 226.15 Q439.65 219.65 438.75 213.7 437.55 206.0 435.65 201.7 L435.55 201.55 Q432.2 193.45 424.65 188.35 L424.55 188.3 Q419.45 184.7 411.8 182.85 406.7 181.6 401.8 181.05 L401.55 181.05 392.8 180.3 393.05 180.3 Q388.35 180.0 381.45 180.15 L364.45 180.75 351.5 181.65 345.05 182.25 338.55 182.25 308.4 181.5 Q308.95 161.95 308.95 142.4 L308.85 136.85 309.0 136.85 309.05 136.85 Q327.0 136.4 344.95 136.4 L383.95 136.4 395.5 136.8 395.4 136.8 Q421.75 140.0 429.85 111.45 L430.4 108.8 Q431.95 97.8 431.95 86.4 431.95 67.15 432.4 47.85 432.75 35.85 425.25 26.1 L425.25 26.05 Q420.3 18.45 407.6 14.35 L407.7 14.4 Q398.45 11.3 388.0 12.05 L388.15 12.05 375.35 13.0 Q366.65 13.4 357.95 13.4 L347.35 13.05 322.9 12.25 322.8 12.25 284.95 12.4 245.95 12.4 206.95 12.4 167.0 12.4 Q147.3 12.4 127.55 12.85 L127.4 12.85 Q115.95 13.2 109.05 18.15 L108.9 18.2 105.0 20.55 104.9 20.6 Q87.35 30.55 86.95 52.5 L86.6 70.3 85.65 76.5 85.45 78.4 Q84.85 88.4 85.35 96.3 86.4 114.35 98.1 121.0 106.2 127.4 120.0 127.4 130.6 127.4 141.2 127.85 L141.35 127.85 147.65 127.75 152.1 127.9 159.85 129.2 159.55 129.1 161.75 129.45 Q162.4 132.55 162.35 136.0 161.95 155.2 162.1 174.4 L162.1 174.55 161.6 210.8 Q159.3 211.75 156.85 212.85 L157.0 212.8 155.1 213.4 154.8 213.45 152.0 213.95 152.5 213.9 150.05 214.15 150.4 214.1 141.9 214.7 141.75 214.7 126.65 215.3 126.6 215.3 114.4 215.95 114.05 216.0 113.85 216.0 84.55 216.75 57.05 215.7 57.0 215.7 56.4 215.6 56.25 215.55 Q48.75 213.15 0.35 212.4 L0.0 212.4 0.0 -1.85 640.0 -1.85 M357.95 53.4 L377.9 52.95 378.8 52.9 390.65 51.95 390.8 51.95 392.3 51.95 Q391.95 69.15 391.95 86.4 391.95 91.55 391.55 96.55 L383.95 96.4 344.95 96.4 Q326.2 96.4 307.5 96.85 L306.5 96.9 302.35 97.15 302.2 97.15 Q280.1 96.6 273.45 111.8 267.55 121.95 268.6 134.35 L268.6 134.25 Q268.95 138.3 268.95 142.4 268.95 161.6 268.35 180.8 L268.35 180.9 268.05 188.6 Q267.5 194.3 269.5 201.55 273.65 217.15 289.55 220.25 L289.5 220.25 301.25 221.35 337.35 222.25 337.45 222.25 Q343.45 222.45 347.45 222.2 L347.5 222.15 356.1 221.4 366.15 220.7 382.5 220.15 Q387.25 220.0 390.5 220.2 L390.75 220.25 397.05 220.75 397.3 220.8 399.4 221.1 399.7 226.6 399.7 226.65 400.3 265.75 400.3 265.8 400.05 274.35 400.05 274.15 399.85 276.45 393.0 277.45 393.2 277.4 384.3 277.7 384.45 277.75 Q376.6 277.4 369.45 277.4 348.05 276.9 328.05 277.05 L328.0 277.05 Q308.75 277.15 295.45 276.8 L276.1 276.4 267.95 276.4 228.95 276.4 189.95 276.4 Q180.5 276.4 171.0 276.9 L171.35 276.85 168.55 276.95 130.0 277.4 Q121.25 277.4 114.6 277.55 111.95 277.6 109.35 278.4 89.05 283.5 90.65 306.1 L91.35 321.1 91.4 321.2 Q91.55 325.6 91.3 328.45 90.7 332.9 90.35 345.55 L89.8 367.95 89.8 368.35 89.75 370.65 89.75 370.9 Q89.4 387.7 91.4 396.85 92.55 402.6 92.7 408.4 L92.75 421.95 Q92.6 438.45 97.9 441.85 L98.1 442.1 Q100.25 448.5 116.25 451.9 L116.4 451.9 Q123.75 453.5 134.55 453.1 L134.7 453.1 150.65 453.55 150.75 453.55 168.1 454.4 168.3 454.4 175.15 454.5 183.5 454.9 183.75 454.9 192.3 455.1 205.75 455.25 205.8 455.25 Q220.75 455.35 227.55 453.8 L227.75 453.75 Q240.05 451.0 244.5 445.8 L244.55 445.75 244.6 445.7 Q254.55 437.6 253.55 422.4 253.0 411.3 253.3 402.05 L253.3 402.1 Q253.65 392.0 252.1 383.1 L252.1 383.05 Q251.95 382.2 251.95 381.35 L252.2 369.15 252.2 368.95 252.4 364.2 Q265.75 364.45 282.25 364.3 L282.3 364.3 Q301.65 364.1 317.2 363.55 L317.25 363.55 Q321.95 363.35 325.9 363.65 L326.05 367.35 326.15 369.55 326.15 369.2 326.65 381.75 Q326.95 390.45 326.5 402.6 L326.45 403.35 326.45 406.95 326.1 416.25 326.15 416.2 Q326.0 418.8 325.55 458.2 L325.35 477.95 325.35 478.0 325.35 478.15 0.0 478.15 0.0 252.4 46.1 254.25 45.95 254.2 53.0 255.5 85.45 256.75 85.5 256.75 115.6 255.95 116.6 255.9 127.4 255.3 144.25 254.6 144.1 254.65 153.55 254.0 153.9 253.95 157.6 253.55 158.1 253.5 163.05 252.6 162.7 252.65 Q167.95 251.6 172.85 249.55 L173.0 249.45 180.05 246.5 182.6 245.3 Q202.15 234.3 201.5 217.45 L201.5 216.7 202.1 174.4 202.1 174.25 Q201.95 155.55 202.35 136.85 L202.35 136.8 Q202.55 126.2 199.8 116.9 L198.75 114.1 194.6 105.8 194.5 105.65 Q191.35 100.4 186.45 96.85 183.95 93.9 168.7 90.2 L168.1 90.05 Q160.5 88.4 155.65 88.05 150.2 87.55 145.8 87.8 L142.7 87.85 142.85 87.9 Q134.0 87.5 125.15 87.45 L125.35 81.65 126.25 75.75 126.3 75.45 126.4 74.4 126.55 72.15 Q126.95 62.7 126.95 54.05 L128.95 52.85 Q148.0 52.4 167.0 52.4 L206.95 52.4 245.95 52.4 284.95 52.4 323.05 52.25 323.1 52.25 344.6 52.95 344.65 52.95 357.95 53.4" fill="url(#gradient0)" fill-rule="evenodd" stroke="none"/>
    <path d="M393.55 50.45 L393.6 50.5 393.55 50.45 M403.65 276.65 L403.85 276.5 403.9 276.5 403.65 276.65" fill="url(#gradient1)" fill-rule="evenodd" stroke="none"/>
  </g>
  <defs>
    <linearGradient gradientTransform="matrix(0.0, 0.293, -0.3906, 0.0, 320.0, 238.15)" gradientUnits="userSpaceOnUse" id="gradient0" spreadMethod="pad" x1="-819.2" x2="819.2">
      <stop offset="0.0" stop-color="#3894ff"/>
      <stop offset="1.0" stop-color="#d2f7ff"/>
    </linearGradient>
    <linearGradient gradientTransform="matrix(0.3103, 0.3619, -0.3699, 0.3172, 320.0, 238.15)" gradientUnits="userSpaceOnUse" id="gradient1" spreadMethod="pad" x1="-819.2" x2="819.2">
      <stop offset="0.00784313725490196" stop-color="#0066ff"/>
      <stop offset="1.0" stop-color="#00ccff"/>
    </linearGradient>
  </defs>
</svg>
