<?xml version="1.0" encoding="UTF-8" standalone="no"?>
<svg xmlns:xlink="http://www.w3.org/1999/xlink" height="475.05px" width="446.8px" xmlns="http://www.w3.org/2000/svg">
  <g transform="matrix(1.0, 0.0, 0.0, 1.0, 3.5, -7.95)">
    <path d="M425.6 22.85 L425.7 23.05 425.75 23.25 426.0 23.5 426.2 23.7 426.25 23.9 426.35 24.15 426.5 24.35 426.6 24.6 426.7 24.8 427.15 25.45 427.5 25.85 427.55 26.1 427.6 26.3 427.65 26.5 427.7 26.75 427.7 26.8 427.8 27.0 427.9 27.2 428.35 27.85 428.7 28.25 428.75 28.5 428.8 28.7 428.85 28.9 428.9 29.15 428.95 29.35 429.2 30.0 429.35 30.4 429.4 30.4 429.65 30.65 429.75 30.85 429.9 31.05 430.1 31.3 430.3 31.5 430.4 31.75 430.45 31.95 430.6 32.15 430.8 32.4 430.9 32.6 431.0 32.8 431.1 33.05 431.25 33.25 431.3 33.45 431.35 33.7 431.5 33.9 431.6 34.15 431.6 34.2 431.7 34.35 431.75 34.45 431.8 34.55 432.0 34.8 432.1 35.0 432.2 35.2 432.3 35.45 432.45 35.65 432.5 35.85 432.55 36.1 432.7 36.3 432.8 36.55 432.9 36.75 432.95 36.95 433.05 37.2 433.1 37.6 433.1 37.85 433.2 38.05 433.5 38.7 433.7 40.2 Q433.6 41.25 433.9 42.15 L434.55 44.35 434.65 44.6 434.75 45.05 434.75 45.3 434.85 46.1 434.9 46.1 435.65 46.55 435.85 47.0 435.95 47.45 435.8 48.3 435.65 48.5 435.4 48.75 435.4 48.95 435.4 49.2 435.4 49.4 Q435.95 50.85 435.7 52.5 435.4 54.4 435.4 56.35 L435.3 56.55 435.2 56.8 435.1 57.0 435.1 57.65 435.05 58.5 434.75 59.15 434.75 59.4 434.75 59.6 434.65 59.8 434.5 60.05 434.5 62.45 433.95 65.7 434.05 69.6 Q434.15 71.95 433.65 74.15 L433.7 76.1 Q433.8 77.55 433.4 78.9 L433.3 79.15 433.15 82.2 433.05 85.2 433.1 85.2 433.4 85.4 Q433.9 87.15 434.0 89.05 L434.0 91.25 433.7 92.1 433.7 95.8 433.7 99.05 433.6 99.3 433.5 99.5 433.4 99.7 Q433.4 100.15 433.55 100.6 L433.7 101.9 433.6 102.1 433.5 102.35 433.4 102.55 433.45 103.2 433.25 104.25 433.1 104.5 433.05 105.55 Q432.9 106.35 432.9 107.1 432.6 107.6 432.6 108.2 432.65 109.0 432.25 109.7 L432.15 110.8 431.65 112.3 431.65 112.55 431.65 112.75 431.65 112.95 431.6 113.2 431.35 113.6 431.1 114.05 430.7 115.6 Q430.45 116.45 429.85 117.1 L429.45 118.0 Q429.0 118.55 429.05 119.25 L428.95 119.5 428.85 119.7 428.85 119.9 428.8 120.35 428.7 120.8 428.55 121.0 428.35 121.25 428.2 121.45 428.1 121.65 428.05 121.85 427.95 122.1 427.75 122.3 427.6 122.5 427.6 122.75 427.55 122.95 426.95 123.8 426.25 124.7 426.15 124.9 426.1 125.15 425.3 126.2 424.8 127.3 424.1 127.9 423.5 128.6 423.4 128.8 423.35 129.05 422.25 130.3 421.45 131.2 421.4 131.45 421.3 131.65 420.7 132.1 419.95 132.75 419.8 132.95 419.7 133.15 419.6 133.4 417.25 134.9 416.9 135.1 416.65 135.35 416.55 135.55 416.4 135.75 Q404.55 141.45 391.45 139.05 L391.05 139.2 391.0 139.25 390.7 139.3 389.7 139.4 387.45 139.35 Q376.6 138.9 365.75 139.45 360.3 139.7 354.9 139.35 337.35 138.15 320.1 139.5 L317.5 139.45 Q314.5 139.05 311.7 139.95 L311.65 140.4 311.65 140.6 311.65 140.85 311.65 141.05 311.65 141.25 311.65 141.5 311.65 141.7 311.65 141.9 311.65 142.15 311.65 142.35 311.65 142.55 311.65 142.8 311.65 143.0 311.65 143.25 311.6 143.45 311.55 143.65 311.25 144.3 311.25 144.55 311.25 144.75 311.25 144.95 311.25 145.2 311.25 145.4 311.25 145.6 311.2 145.85 311.05 146.05 311.0 146.25 311.0 146.5 311.0 146.7 311.0 146.9 311.0 147.15 310.95 147.35 310.9 147.55 310.85 147.8 311.05 148.0 311.35 148.25 311.5 148.45 311.55 148.65 311.6 148.9 311.65 149.0 311.85 149.4 311.8 149.6 311.75 149.85 311.7 150.05 311.55 150.25 311.25 150.5 Q311.25 152.75 311.5 155.0 311.7 157.05 311.55 159.15 L312.05 160.45 312.15 162.2 312.05 162.4 311.95 162.65 311.85 162.85 312.0 167.2 Q312.15 169.25 311.85 171.1 311.95 172.15 311.6 173.05 311.15 174.2 311.25 175.45 L311.15 175.65 311.05 175.9 310.95 176.1 310.95 176.35 310.95 176.75 310.95 177.2 310.9 177.4 310.75 177.65 310.7 177.85 310.75 178.1 310.8 178.25 310.85 178.5 Q322.0 180.55 333.6 179.2 339.1 178.55 344.1 180.3 L344.2 180.15 344.5 180.0 379.65 178.35 383.35 177.9 Q391.85 177.7 400.15 179.75 L404.7 180.55 409.0 181.1 409.6 181.3 411.1 181.45 413.65 181.85 414.55 182.1 414.8 182.35 414.95 182.45 415.45 182.55 418.9 183.15 421.5 183.85 421.75 184.05 422.0 184.3 422.2 184.5 422.9 184.75 423.3 184.9 423.7 185.15 424.45 185.6 424.65 185.8 424.8 185.9 425.3 186.05 425.8 186.15 426.1 186.4 426.3 186.6 426.95 186.85 Q427.7 187.2 428.1 187.85 428.3 187.7 428.5 187.7 L429.0 187.9 429.3 188.1 429.4 188.3 429.5 188.5 429.6 188.75 429.55 188.95 429.5 189.15 429.45 189.4 429.6 189.8 429.8 190.15 430.2 190.3 430.5 190.5 430.6 190.7 430.7 190.9 430.8 191.15 430.75 191.35 430.7 191.55 430.65 191.75 431.55 192.65 432.35 193.5 432.45 193.95 432.75 194.85 432.75 195.05 432.8 195.1 432.85 195.1 433.0 195.2 433.9 195.7 435.75 197.95 436.75 199.15 437.3 200.8 437.95 201.55 438.8 204.4 439.45 207.0 441.45 215.25 Q442.35 219.25 442.05 223.5 L442.2 223.7 442.3 224.15 442.35 224.6 Q442.8 225.6 442.75 226.75 L442.65 228.9 442.75 229.15 442.85 229.35 442.95 229.6 442.95 232.85 442.95 236.1 442.95 236.3 442.85 236.5 442.75 236.75 442.65 236.95 Q441.7 244.05 442.4 251.25 443.0 258.1 442.35 264.95 L442.25 265.2 442.15 265.4 442.05 265.6 442.05 270.6 442.05 275.4 442.05 275.85 442.15 276.05 442.25 276.25 442.35 276.5 442.2 277.25 442.35 277.35 Q443.45 281.65 443.25 286.05 443.15 289.1 442.05 291.9 L442.05 292.15 441.95 292.55 441.75 293.0 441.75 293.2 441.75 293.45 441.75 293.9 441.2 294.95 Q440.9 295.6 440.9 296.25 L440.7 296.7 440.1 297.55 440.0 297.8 439.95 298.0 439.8 298.45 439.6 298.65 439.35 298.85 439.15 299.1 439.15 299.3 439.1 299.5 439.0 299.75 437.35 302.1 436.35 303.65 435.0 304.95 434.4 305.8 434.15 305.95 434.0 306.0 433.5 306.2 432.65 307.05 431.7 307.7 431.55 307.95 431.45 308.15 431.35 308.35 429.2 309.8 428.5 310.3 428.15 310.95 Q427.8 311.35 427.6 311.85 L426.85 312.3 426.4 312.6 425.25 312.95 424.55 313.15 Q418.7 316.2 411.95 317.0 L410.85 317.25 409.7 317.55 409.4 317.75 409.2 317.9 407.95 318.25 407.4 318.4 407.1 318.65 406.9 318.8 Q400.3 320.85 393.8 320.0 L393.5 320.0 392.1 320.0 391.35 319.8 Q369.85 320.0 348.35 319.1 343.45 318.9 338.55 319.05 L337.95 319.1 328.2 319.1 Q318.6 319.1 309.0 319.55 L303.5 319.55 269.35 318.55 255.35 318.35 247.75 317.65 247.35 317.7 244.75 317.9 242.45 318.15 242.0 318.35 241.65 318.55 241.1 318.75 240.45 318.95 240.15 318.9 239.95 318.85 239.85 318.85 239.45 318.8 226.2 319.85 Q218.9 320.35 211.4 319.6 L200.2 319.0 176.55 319.85 169.0 320.5 Q156.2 321.05 143.4 320.45 L133.8 320.2 134.45 324.1 Q134.95 326.35 134.75 328.4 L134.75 329.5 134.75 331.0 134.65 331.2 134.55 331.45 134.45 331.65 134.3 333.4 Q134.05 334.35 134.15 335.35 L134.05 335.55 133.95 335.8 133.85 336.0 133.85 337.3 133.85 339.05 133.8 339.25 133.65 339.5 133.55 339.7 133.6 341.45 133.45 343.4 133.65 355.1 Q133.7 359.2 133.3 363.15 L133.2 363.35 133.1 363.6 133.0 363.8 132.9 364.45 132.7 365.55 132.7 365.75 132.6 365.95 132.5 366.2 132.4 366.4 132.55 372.9 Q132.6 375.5 132.15 377.9 L132.25 388.75 Q132.35 392.65 133.0 396.35 134.7 401.2 134.95 406.35 L135.0 408.75 135.35 408.65 139.1 408.8 141.2 409.3 148.3 410.25 155.9 411.0 Q166.15 410.3 176.25 412.1 L180.2 412.7 Q196.55 414.65 212.65 412.3 L212.65 411.9 212.65 411.7 212.65 410.3 212.65 410.05 212.65 409.1 212.65 409.0 212.65 408.75 212.65 408.1 212.65 407.7 212.65 407.55 212.65 407.45 212.65 406.9 212.65 406.8 212.65 406.6 212.65 406.5 212.65 406.4 212.65 406.25 212.65 406.15 212.65 405.6 212.65 405.4 212.65 405.2 212.65 404.95 212.65 403.75 212.65 402.55 212.65 401.4 212.65 400.2 212.75 400.0 212.85 399.75 212.95 399.55 212.95 398.65 212.95 398.45 212.95 397.05 212.95 396.85 212.95 395.85 212.95 395.75 212.95 395.65 212.95 395.5 212.95 394.85 212.95 394.55 212.95 394.45 212.95 394.2 212.95 393.65 212.95 393.55 212.95 393.35 212.95 393.25 212.95 393.15 212.95 393.0 212.95 392.9 212.95 392.35 212.95 392.15 212.95 391.95 212.95 391.7 212.95 390.75 212.95 389.55 212.95 389.0 212.85 388.8 212.75 388.55 212.65 388.35 212.65 387.5 212.65 387.25 212.65 387.15 212.65 386.3 212.65 386.05 212.8 384.3 Q212.65 383.85 212.65 383.35 L212.65 383.15 212.65 382.7 212.65 382.25 212.65 382.15 212.65 382.05 212.65 381.95 212.65 381.85 212.65 381.5 212.65 381.2 212.65 380.95 212.65 380.85 212.65 380.75 212.65 380.65 212.65 380.55 212.65 380.0 212.65 379.75 212.65 379.55 212.65 379.35 212.65 378.8 212.65 377.7 212.55 377.5 212.45 377.25 212.35 377.05 212.35 376.85 212.35 376.65 212.35 376.4 212.35 376.2 212.35 376.0 212.35 375.9 212.35 375.85 212.35 375.65 212.35 375.45 212.35 375.2 212.35 375.0 212.35 374.8 212.4 374.45 212.35 374.25 212.3 374.05 212.15 373.8 212.1 373.6 212.1 373.15 212.1 372.95 212.1 372.7 212.1 372.5 212.1 372.4 212.1 371.95 212.1 371.75 212.1 371.5 212.1 371.3 212.1 371.0 212.1 370.1 212.1 369.8 212.1 368.9 212.15 368.7 212.3 368.45 212.35 368.25 212.35 368.05 212.35 367.85 212.35 367.6 212.35 367.5 212.35 367.4 212.35 367.3 212.3 367.1 212.15 366.85 212.1 366.65 212.1 366.2 212.1 366.0 212.1 365.75 212.1 365.55 212.1 365.45 212.1 365.0 212.1 364.8 212.1 364.55 212.1 364.35 212.1 362.95 212.1 362.75 212.1 362.5 212.1 362.3 212.1 361.75 212.1 361.65 212.1 361.55 212.1 361.45 212.1 361.3 212.1 361.2 212.1 361.1 212.1 360.45 212.1 360.25 212.1 360.0 212.15 359.8 212.3 359.55 212.35 359.45 Q212.0 358.3 212.1 357.1 L212.1 357.0 212.1 355.9 212.1 355.65 212.1 355.55 212.1 355.45 212.1 355.35 212.1 355.25 212.1 355.0 212.1 354.35 212.1 354.15 212.15 353.95 212.3 353.7 212.35 353.5 212.35 353.05 212.35 352.85 212.35 352.65 212.35 352.4 212.35 351.45 212.35 351.0 212.35 350.25 212.35 349.8 212.4 349.6 212.45 349.35 212.55 349.15 212.65 348.95 212.65 348.5 212.65 348.3 212.65 348.05 212.65 347.85 212.65 346.9 212.65 346.45 212.65 346.25 212.65 346.0 212.65 345.8 212.65 345.7 212.65 345.6 212.55 345.35 212.45 345.15 212.35 344.9 212.35 344.5 212.35 344.25 212.35 344.05 212.35 343.85 212.35 343.7 212.35 343.3 212.35 343.05 212.35 342.85 212.35 342.65 212.35 341.65 212.35 341.25 212.35 341.0 212.35 340.8 212.35 340.6 212.35 340.45 212.35 340.35 212.35 340.05 212.35 339.8 212.35 339.6 212.35 339.4 212.35 339.15 212.45 338.95 212.55 338.7 212.65 338.5 212.65 338.3 212.65 338.1 212.65 337.85 212.65 337.65 212.75 337.45 212.9 337.2 213.0 337.0 213.1 336.75 213.15 336.55 213.55 335.45 213.6 335.25 213.9 334.8 214.1 334.4 214.25 334.15 Q215.2 332.7 216.6 331.6 L217.0 331.35 218.15 330.7 218.25 330.5 218.45 330.25 218.75 330.05 219.05 329.85 219.1 329.65 219.3 329.4 219.6 329.2 219.95 328.95 220.25 328.75 220.6 328.5 221.0 328.3 221.3 327.85 221.45 327.65 221.55 327.45 221.75 327.2 Q223.0 325.6 224.9 324.9 225.15 324.7 225.4 324.6 L226.05 324.3 226.4 324.2 Q229.15 323.1 232.05 322.8 234.35 321.9 236.9 321.95 L280.65 322.1 287.85 321.95 306.05 321.55 306.05 321.5 311.55 321.7 321.7 322.25 321.8 322.15 322.1 322.0 323.95 321.6 324.6 321.45 324.6 321.4 Q329.9 321.65 335.05 322.9 L340.45 323.75 341.7 324.15 345.1 324.85 350.3 325.95 350.55 326.2 351.5 326.9 352.4 327.5 353.2 328.35 353.55 328.55 354.35 328.85 354.65 329.1 355.3 329.5 355.8 329.75 356.35 329.95 356.65 330.2 357.0 330.6 357.2 330.85 357.5 331.2 358.05 331.9 359.35 332.5 360.25 333.15 361.65 334.75 361.8 334.95 361.85 335.15 361.95 335.6 362.05 335.85 362.15 336.05 362.2 336.25 362.25 336.4 362.85 337.15 363.0 337.35 363.05 337.55 363.15 338.0 363.25 338.25 363.35 338.45 363.4 338.65 363.6 339.3 363.65 339.5 363.85 339.75 364.0 339.95 364.1 340.15 364.15 340.4 364.2 340.6 364.3 340.85 364.5 341.05 364.65 341.25 364.7 341.5 364.85 341.9 364.95 342.15 365.05 342.55 365.3 343.25 365.4 343.85 365.5 344.1 365.65 344.5 365.7 344.75 365.75 344.95 365.85 345.2 365.95 345.4 365.95 345.6 365.95 345.8 365.95 346.05 365.95 346.25 366.1 346.5 366.25 346.9 366.25 347.1 366.25 347.35 366.25 347.55 366.25 348.0 366.4 348.2 366.45 348.45 366.5 348.65 366.55 348.85 366.55 349.1 366.7 349.3 366.9 349.5 367.2 350.15 Q367.65 350.75 367.65 351.45 L367.7 353.2 367.7 353.4 367.7 354.95 367.7 356.05 367.8 356.25 368.0 356.65 368.1 356.9 368.2 357.1 368.25 357.35 368.25 357.75 368.35 357.95 368.5 358.2 368.55 358.35 368.85 358.55 368.95 358.75 369.15 359.4 369.1 359.85 Q369.6 362.7 369.65 365.7 L369.75 368.75 Q369.75 369.35 369.4 369.8 369.8 373.45 369.6 377.0 L369.1 382.0 369.05 382.2 368.9 382.4 368.85 382.65 368.8 382.85 368.75 383.25 368.55 383.7 368.55 384.15 368.45 385.0 368.25 385.45 368.25 386.55 368.25 388.05 368.25 388.3 368.5 388.95 368.55 390.0 368.55 390.25 368.7 390.7 368.85 391.55 368.85 391.75 Q369.3 393.0 369.2 394.35 L369.1 396.75 369.05 396.95 368.9 397.2 368.85 397.4 368.85 402.0 Q368.75 403.8 368.25 405.45 L368.35 408.25 Q368.45 409.65 367.95 410.85 368.4 411.55 368.3 412.4 L368.25 414.1 368.15 414.35 368.05 414.55 367.95 414.75 367.95 417.15 367.95 419.35 368.25 419.55 368.4 419.75 368.5 420.0 368.55 420.4 368.45 420.6 368.2 421.05 368.1 421.15 368.15 421.45 368.3 422.3 368.25 422.5 368.2 422.7 368.05 422.95 368.0 423.15 368.5 427.3 368.85 430.75 Q369.45 433.0 369.05 435.35 L368.55 439.0 368.5 439.2 368.35 439.45 368.25 439.65 368.25 440.55 368.25 441.85 368.25 442.05 Q368.75 443.05 368.65 444.25 L368.55 446.4 368.65 446.6 368.75 446.85 368.85 447.05 368.85 447.5 368.85 448.35 368.85 448.55 368.75 448.8 368.65 449.0 368.55 449.2 368.55 450.1 368.55 451.4 368.55 451.6 368.65 451.8 368.75 452.05 368.85 452.25 368.85 452.5 368.85 452.7 368.85 452.9 368.75 453.1 368.65 453.35 368.55 453.55 368.65 457.9 Q368.75 459.85 368.25 461.6 L368.25 464.0 368.25 466.4 Q368.75 468.15 368.65 470.05 L368.55 473.3 368.65 473.55 368.75 473.75 368.85 474.0 368.85 474.2 368.85 474.4 368.7 474.85 368.85 476.35 368.85 478.3 368.75 478.55 368.5 478.95 368.25 479.2 367.95 479.35 367.5 479.55 367.0 479.35 366.7 479.2 366.45 478.75 366.45 478.35 366.3 478.35 365.8 478.15 365.5 478.0 365.25 477.55 Q365.15 477.1 365.35 476.7 L365.4 476.65 365.25 476.35 Q365.15 475.9 365.35 475.5 L365.5 475.25 365.5 475.15 365.5 474.95 365.4 474.75 365.3 474.5 365.2 474.3 365.2 473.1 365.2 469.95 365.2 468.75 365.2 466.25 Q364.7 464.5 364.7 462.55 L364.75 462.0 364.7 461.35 Q364.7 459.65 365.2 458.1 L365.2 456.15 365.15 454.95 365.15 453.75 365.3 450.95 365.1 449.1 365.15 448.3 365.1 447.9 Q365.05 447.0 365.3 446.1 L365.15 444.35 365.15 444.15 365.15 443.15 365.2 441.95 Q364.8 440.6 364.9 439.2 364.8 438.4 364.95 437.5 L365.2 434.65 365.3 434.45 365.4 434.2 365.5 434.0 365.7 431.85 365.8 431.1 365.75 430.65 365.55 430.0 365.5 428.9 365.5 428.7 365.4 428.5 365.3 428.25 365.2 428.05 364.75 423.45 Q364.6 422.55 364.7 421.65 L364.7 420.45 364.6 420.4 Q364.2 420.05 364.25 419.5 L364.3 418.75 364.25 418.3 364.3 417.0 364.4 416.8 364.5 416.55 364.6 416.4 364.5 414.95 364.55 414.05 364.5 413.75 Q364.45 412.4 364.9 411.15 L364.9 411.05 364.8 410.85 364.7 410.6 364.6 410.4 364.6 410.15 364.6 409.75 364.6 409.2 364.6 409.1 364.6 408.95 364.6 408.55 364.6 407.9 364.7 407.7 364.8 407.45 364.85 407.4 364.8 404.65 Q364.75 403.2 364.85 401.8 364.95 399.75 365.45 397.9 L365.45 397.6 365.45 396.4 365.45 395.6 365.45 394.4 365.55 394.2 365.65 394.0 365.75 393.75 365.75 393.45 365.75 392.25 365.75 391.7 365.65 391.5 365.55 391.25 365.45 391.05 365.45 390.85 365.45 390.65 365.45 390.2 365.25 389.75 365.15 388.9 365.15 388.45 365.1 388.25 364.95 388.0 364.9 387.8 364.95 386.7 364.9 386.6 Q364.9 384.75 365.05 382.95 L365.45 379.65 365.55 379.45 365.65 379.2 365.75 379.0 365.75 378.35 Q365.7 377.8 365.9 377.3 L366.05 377.1 365.95 376.1 366.0 375.25 365.95 374.9 Q365.9 373.8 366.3 372.85 L366.15 369.05 366.05 364.25 366.05 359.8 Q365.75 359.4 365.75 358.9 L365.75 358.85 365.5 358.65 365.3 358.45 365.2 358.25 365.2 358.0 365.2 357.8 365.05 357.55 364.9 357.15 364.8 356.95 364.7 356.5 364.45 355.8 364.3 355.6 364.35 354.95 364.3 354.45 364.3 354.3 364.3 353.1 364.3 352.8 364.3 351.95 364.3 351.7 364.3 351.6 364.3 350.85 364.3 350.75 364.3 350.65 364.2 350.4 363.95 350.0 363.8 349.75 363.65 349.55 363.5 349.35 363.25 348.9 363.2 348.65 363.15 348.45 363.15 348.25 363.15 348.0 363.05 347.8 362.9 347.35 362.9 347.15 362.9 346.95 362.9 346.7 362.9 346.3 362.75 346.05 362.6 345.65 362.6 345.4 362.6 345.2 362.6 345.0 362.5 344.75 362.4 344.55 362.3 344.35 362.3 344.1 362.15 343.45 361.9 342.85 361.55 341.75 361.2 341.05 361.15 340.85 361.05 340.45 360.95 340.2 360.85 340.0 360.8 339.75 360.55 339.55 360.35 339.35 360.3 339.1 360.15 338.7 360.0 338.25 359.75 337.6 359.65 337.2 359.25 336.9 358.0 336.2 357.55 336.0 356.85 335.2 356.65 334.95 356.35 334.8 355.75 334.1 Q355.15 333.65 354.4 333.35 L352.7 332.3 352.5 332.05 352.2 331.65 352.2 331.6 351.5 331.1 351.35 331.0 350.95 330.75 350.7 330.55 346.75 329.95 341.35 328.3 334.75 327.8 333.9 327.45 333.55 327.35 332.45 327.2 331.95 327.05 331.25 326.7 330.15 326.6 327.9 326.15 327.7 326.05 326.15 326.3 324.3 326.55 323.8 326.65 323.5 326.6 323.1 326.5 Q301.25 325.95 279.4 326.95 L270.5 327.1 268.75 327.05 Q252.4 326.05 236.0 326.9 L234.25 327.1 233.15 327.5 231.65 327.7 230.95 327.85 Q228.45 328.55 226.1 329.6 L226.0 329.85 225.85 330.05 225.55 330.25 225.15 330.5 224.95 330.7 224.65 331.15 224.5 331.35 224.35 331.55 224.15 331.8 222.2 333.3 222.05 333.55 221.9 333.75 221.6 333.95 221.3 334.2 221.15 334.4 221.0 334.6 220.75 334.8 220.4 335.05 220.1 335.25 219.8 335.5 219.05 335.7 218.65 336.15 218.4 336.35 218.2 336.55 218.0 336.8 216.95 338.3 216.9 338.75 216.8 338.95 216.7 339.2 216.6 339.4 Q216.1 340.3 216.05 341.35 L215.85 342.0 215.75 342.2 215.75 343.1 215.75 343.3 Q215.6 344.65 215.95 345.9 L216.0 346.15 216.05 347.2 216.05 347.45 216.05 347.85 216.05 348.5 216.05 348.75 216.05 349.4 216.05 349.6 216.05 349.8 216.05 350.05 215.95 351.75 215.75 352.4 215.75 353.3 215.75 353.5 215.75 356.1 215.7 356.3 Q215.5 356.85 215.45 357.4 L215.45 357.65 215.45 358.05 215.45 358.7 215.45 358.95 215.6 359.6 215.65 359.8 215.7 360.05 215.75 360.25 215.8 362.0 215.45 363.05 215.45 363.95 215.4 366.75 215.6 367.65 215.7 368.05 215.75 368.25 215.75 369.35 215.75 370.25 215.75 370.65 215.75 370.9 Q215.35 374.0 215.65 377.2 L216.3 387.15 216.25 387.4 216.1 387.6 216.05 387.8 216.1 388.65 Q216.45 390.05 216.35 391.5 L216.3 392.4 216.3 392.8 216.3 393.05 216.3 394.1 216.3 395.0 216.3 395.4 216.3 395.65 216.15 402.15 Q215.85 407.2 216.05 412.35 L216.05 412.55 216.25 412.8 216.4 413.0 216.5 413.25 216.6 413.45 216.6 413.65 216.55 413.9 216.45 414.1 216.3 414.3 216.1 414.55 215.95 414.75 215.85 414.95 215.75 415.2 215.45 415.35 215.45 415.5 215.4 415.7 Q211.7 417.65 207.15 417.95 190.8 419.0 174.7 416.55 L160.05 415.7 Q156.7 416.05 153.35 415.55 L141.8 413.95 141.55 413.75 141.4 413.6 140.9 413.5 134.8 413.8 134.5 413.8 134.3 413.75 133.95 413.8 133.45 413.65 133.15 413.45 132.95 412.6 132.75 412.6 132.25 412.45 131.95 412.25 Q131.45 410.65 131.55 408.8 L131.55 407.6 131.65 405.75 Q131.3 405.25 131.3 404.65 L131.35 403.85 131.3 403.45 131.35 403.1 Q131.0 402.6 131.05 402.05 L131.05 401.15 131.05 400.85 131.05 400.55 130.9 400.1 130.75 399.25 130.8 398.8 130.1 397.05 Q129.7 396.2 129.6 395.3 L129.55 395.1 129.4 394.9 129.35 394.65 129.35 393.8 129.35 393.5 129.35 393.45 129.35 392.6 129.35 392.5 129.25 392.3 129.15 392.05 129.05 391.85 129.05 390.65 129.05 388.15 129.05 386.95 129.05 384.9 128.95 384.7 128.85 384.45 128.75 384.25 128.75 383.05 128.75 379.9 128.75 378.7 128.75 376.2 128.75 375.0 128.85 374.8 128.95 374.55 129.05 374.35 129.05 371.7 128.95 369.05 128.95 367.85 128.95 367.6 Q128.9 365.15 129.35 362.85 129.3 362.3 129.4 361.75 L129.9 360.25 130.2 356.35 130.2 355.45 130.2 352.75 Q129.9 350.9 129.95 349.0 L130.05 346.35 130.2 343.4 129.85 342.55 129.95 341.8 129.85 341.35 Q129.8 340.65 130.2 340.05 L130.2 339.75 130.2 338.55 130.2 337.75 130.2 336.55 130.3 336.35 130.4 336.15 130.5 336.0 130.45 335.6 Q130.4 335.15 130.5 334.7 L130.45 334.4 Q130.35 333.45 130.75 332.6 L130.75 331.95 Q130.7 331.05 130.8 330.25 130.9 329.1 131.35 328.1 L131.35 327.0 131.35 326.7 131.35 325.85 131.35 325.5 131.35 324.75 131.35 324.65 131.35 323.55 131.35 323.0 131.0 322.15 130.5 320.85 130.4 318.9 130.4 318.7 130.3 318.6 130.25 318.4 130.2 317.95 130.2 317.75 130.25 317.5 130.35 317.45 130.3 317.4 130.25 317.2 130.2 316.75 130.2 316.55 130.25 316.3 130.5 316.15 130.65 316.05 130.85 315.7 131.05 315.6 131.2 315.5 131.6 315.45 132.05 315.6 132.35 315.8 132.35 315.9 134.75 315.85 Q138.25 315.6 141.75 315.7 165.9 316.65 190.05 314.45 L192.05 314.05 Q201.15 314.1 210.2 314.45 L220.9 315.45 222.15 315.25 224.75 314.9 238.85 314.3 241.0 313.65 243.85 313.2 246.4 313.05 247.05 312.9 252.3 313.25 255.3 314.0 Q281.4 313.95 307.55 314.7 L313.3 314.65 Q322.25 314.25 331.05 314.35 338.95 314.45 346.9 314.15 353.25 313.9 359.7 314.5 L369.15 315.25 370.05 315.45 389.6 315.35 389.7 315.3 389.85 315.25 390.2 315.15 391.75 315.35 392.3 315.35 393.0 315.5 Q399.05 315.9 405.05 314.15 L405.25 313.95 405.55 313.75 405.9 313.7 406.75 313.55 407.0 313.35 407.3 313.2 Q414.2 311.4 420.95 309.2 L424.3 308.1 Q427.2 305.1 430.5 302.4 L431.65 301.6 431.8 301.4 431.85 301.15 432.1 301.0 432.45 300.75 432.75 300.35 433.4 299.65 433.45 299.45 433.55 299.2 435.2 297.3 435.8 295.95 435.9 295.75 436.3 295.3 436.5 295.1 436.6 294.85 436.65 294.65 436.8 294.25 436.95 294.0 437.15 293.8 437.35 293.55 437.7 292.5 Q437.85 291.65 438.3 290.95 L438.35 290.75 438.4 290.3 438.4 289.9 438.55 289.45 438.85 288.55 438.95 288.35 439.05 287.5 439.55 286.25 439.45 284.8 439.45 283.75 439.45 283.6 Q439.4 282.65 439.6 281.8 L439.55 281.45 439.5 281.45 439.0 281.25 438.7 281.05 Q438.3 280.65 438.3 280.0 L438.4 279.35 438.3 278.8 Q438.3 278.05 438.7 277.5 L438.65 272.55 438.6 270.85 438.6 269.0 Q438.55 265.6 439.0 262.3 L438.9 261.55 438.95 260.7 438.9 260.35 Q438.85 259.3 439.25 258.35 L439.25 257.2 439.25 256.0 439.3 255.4 439.25 254.8 439.25 254.6 439.2 254.35 439.05 254.15 439.0 253.95 439.0 252.85 439.0 252.75 439.0 251.65 439.0 251.5 439.0 250.9 Q438.5 247.1 438.55 243.2 L438.55 243.05 438.55 242.45 438.55 241.85 Q438.55 237.5 439.55 233.4 L439.55 232.0 439.55 230.8 439.55 229.4 439.55 229.15 439.5 228.95 439.35 228.75 439.25 228.5 439.35 227.55 439.25 227.3 439.4 225.75 439.0 222.8 Q438.7 221.45 438.7 220.05 L438.7 219.15 438.7 218.85 438.7 217.25 438.6 217.0 438.5 216.8 438.4 216.6 438.4 216.35 438.4 215.9 438.4 215.4 438.4 215.25 438.25 214.85 437.9 213.95 437.85 213.75 437.85 213.55 437.85 213.3 437.85 212.9 437.1 211.2 Q436.8 210.35 436.95 209.4 L436.85 209.2 436.75 208.95 436.65 208.75 436.65 208.55 436.7 208.1 436.7 207.6 436.65 207.55 436.65 207.45 436.6 207.25 436.45 207.05 436.25 206.8 436.2 206.6 436.1 206.15 436.1 205.7 435.7 204.85 Q435.45 204.2 435.5 203.55 L434.7 201.6 Q434.35 200.7 433.55 200.05 L433.5 199.9 433.35 199.8 432.5 199.3 431.95 198.5 431.3 198.1 Q430.8 197.55 430.55 196.8 L429.95 195.3 Q428.7 194.3 428.1 193.0 L428.0 192.95 427.7 192.8 427.55 192.55 427.35 192.15 427.05 191.5 426.8 191.15 426.65 191.05 425.5 190.35 423.55 189.35 Q423.05 189.1 422.55 189.0 L422.25 188.8 421.95 188.55 421.55 188.3 421.3 188.1 420.15 187.95 417.25 187.35 415.3 186.95 415.0 186.75 414.7 186.55 414.45 186.4 414.3 186.35 410.6 185.95 409.3 185.45 Q400.05 184.9 390.85 183.3 L384.0 183.0 346.95 184.65 346.65 184.85 346.4 185.0 346.05 185.1 345.55 184.9 345.25 184.7 345.05 184.5 345.0 184.4 342.35 184.35 342.1 184.15 341.95 184.0 Q327.7 184.2 313.45 183.45 L311.1 183.2 310.1 182.15 310.0 182.05 309.9 182.0 308.9 180.95 307.95 179.85 307.9 179.6 307.8 179.4 307.6 178.95 307.6 178.75 307.6 178.55 307.5 178.3 307.4 178.1 307.3 177.9 307.3 177.2 307.3 176.7 307.3 176.15 307.3 176.0 307.3 175.9 307.3 174.95 307.3 174.7 307.4 174.5 307.5 174.3 307.6 174.05 307.6 173.85 307.6 173.4 307.6 173.0 307.7 172.75 307.8 172.55 307.9 172.35 307.95 171.25 308.35 169.75 308.45 169.5 308.45 169.1 308.5 168.4 308.45 168.3 308.35 164.2 308.35 163.0 Q308.25 161.4 308.6 160.0 L308.3 158.1 308.2 155.4 308.2 155.3 Q307.7 153.55 307.8 151.6 L307.8 150.4 307.9 148.15 307.85 148.1 307.6 147.9 307.4 147.65 307.35 147.45 307.3 147.25 307.3 147.0 307.3 146.8 307.3 146.6 307.3 146.35 307.35 146.2 307.3 146.05 307.3 145.8 307.3 145.6 307.3 145.4 307.3 145.15 307.35 144.95 307.4 144.75 307.5 144.55 307.6 144.3 307.6 144.1 307.6 143.85 307.6 143.65 307.6 143.45 307.65 143.2 307.7 143.0 307.75 142.8 307.9 142.55 307.9 142.35 307.9 142.15 307.9 141.9 307.9 141.7 307.9 141.5 307.95 141.25 308.05 141.05 308.2 140.8 308.25 140.6 308.25 140.5 308.25 140.3 308.25 140.15 308.25 140.05 308.25 139.95 308.25 139.85 308.25 139.75 308.25 139.65 308.25 139.3 308.25 139.2 308.25 139.1 308.25 139.0 308.25 138.85 308.25 138.75 308.25 138.65 308.25 138.55 308.25 138.45 308.25 138.35 308.25 138.1 308.25 137.8 308.25 137.55 308.25 137.35 308.25 137.15 308.25 136.9 308.35 136.25 Q308.7 135.7 309.35 135.5 L311.45 134.9 316.8 134.6 325.5 134.85 335.6 133.9 354.05 134.7 Q363.35 135.2 372.65 134.65 377.55 134.4 382.5 134.8 L388.35 134.55 388.5 134.4 388.8 134.25 389.4 134.35 390.3 134.15 390.6 134.2 391.1 134.35 391.4 134.55 391.5 134.7 Q400.2 135.9 408.85 133.45 L409.05 133.25 409.25 133.0 409.5 132.85 Q415.35 131.5 419.25 126.8 L419.3 126.55 419.4 126.35 420.35 125.3 421.0 124.2 421.2 123.95 421.5 123.75 421.7 123.55 421.85 123.3 421.9 123.1 422.0 122.85 423.15 121.15 424.15 119.85 Q424.25 119.25 424.5 118.75 424.8 118.0 425.4 117.45 L425.65 115.9 Q425.75 115.05 426.4 114.4 L427.1 112.65 427.7 110.95 427.8 110.75 428.0 110.5 428.15 110.3 428.25 110.05 428.3 109.65 428.3 109.2 428.4 109.0 428.5 108.75 428.6 108.55 428.55 108.35 428.65 107.7 428.85 107.25 428.85 107.0 428.85 106.8 428.85 106.6 428.95 106.4 429.05 106.15 429.15 105.95 429.15 105.7 429.15 105.3 429.15 104.85 429.25 104.65 429.4 104.4 429.5 104.2 429.6 103.1 429.75 101.4 429.8 101.15 429.95 100.95 430.05 100.8 430.05 100.55 430.0 100.05 430.05 99.35 430.0 98.9 Q429.95 98.45 430.05 98.05 L430.0 97.7 Q429.9 96.85 430.3 96.15 L430.3 93.65 430.3 92.45 430.3 90.4 430.3 89.2 430.4 89.05 430.3 88.9 430.2 86.5 430.2 86.05 430.0 85.9 Q429.5 83.9 429.6 81.7 L429.6 81.55 429.6 80.35 430.0 75.6 430.35 74.75 430.3 72.9 430.3 72.45 430.3 72.4 430.3 71.7 430.3 71.25 430.35 71.05 430.5 70.8 430.55 70.6 430.55 68.3 430.55 67.1 430.55 63.75 430.55 62.55 430.65 62.35 430.75 62.1 430.8 62.05 430.8 60.65 430.8 58.85 Q431.0 56.9 431.75 55.15 L431.75 55.05 431.75 54.95 431.75 54.75 431.75 54.5 431.75 54.3 431.75 53.85 431.8 53.65 431.95 53.45 432.0 53.4 431.95 52.7 431.95 51.7 431.95 51.6 431.95 51.5 Q431.9 50.2 432.15 48.9 L432.1 48.75 432.0 47.9 432.0 47.15 432.0 47.0 431.9 46.85 431.75 46.6 431.5 46.4 431.4 45.95 431.35 45.5 431.45 45.1 431.35 44.95 431.25 44.75 431.2 44.5 431.15 44.3 431.1 44.1 430.95 43.45 430.95 43.0 430.9 42.8 430.7 42.55 430.6 42.35 430.6 42.15 430.6 41.9 430.6 41.7 430.5 41.45 430.4 41.25 430.35 41.05 430.3 40.8 430.3 40.6 430.3 39.95 430.3 39.65 430.3 39.6 430.3 39.5 430.3 39.4 430.3 39.1 430.3 38.85 430.25 38.65 430.1 38.45 430.05 38.2 430.0 38.0 429.95 37.8 429.75 37.35 429.75 37.15 429.75 36.9 429.75 36.7 429.6 36.45 429.5 36.25 429.4 36.05 429.25 35.85 429.2 35.6 429.15 35.4 429.05 35.2 428.95 34.95 428.85 34.75 428.3 33.9 427.7 33.2 427.3 32.8 427.2 32.55 427.1 32.35 427.0 32.15 426.9 31.95 426.75 31.7 426.65 31.5 426.55 31.25 426.55 31.05 426.45 30.85 426.35 30.6 426.25 30.4 425.9 29.95 425.75 29.75 425.7 29.55 425.7 29.3 425.7 29.1 425.7 28.9 425.55 28.65 425.5 28.45 425.45 28.25 425.35 28.05 425.2 27.8 425.0 27.55 424.9 27.35 424.75 27.15 424.15 26.1 423.6 25.2 423.15 24.55 423.1 24.3 423.05 24.15 423.0 24.1 422.9 24.0 422.75 23.85 422.75 23.8 Q422.05 23.65 421.55 23.2 L419.8 21.65 Q418.35 20.4 416.6 19.5 L415.4 18.65 414.75 18.45 414.45 18.2 414.3 18.05 414.15 18.0 413.65 17.8 413.3 17.65 413.0 17.5 412.35 17.4 411.85 17.25 411.55 17.15 409.75 16.8 408.35 16.4 408.1 16.2 407.95 16.05 404.6 15.45 Q394.8 13.55 384.85 14.8 L384.55 14.8 384.05 14.65 383.8 14.5 369.8 15.8 Q358.8 17.2 348.1 15.2 L337.9 14.5 337.4 14.55 336.9 14.4 336.6 14.2 336.5 14.1 316.85 12.75 316.25 12.75 Q291.0 14.6 265.8 14.25 L265.75 14.25 265.55 14.4 263.65 14.75 259.15 14.3 257.25 13.75 254.95 13.9 254.35 14.05 254.05 14.0 253.55 13.9 253.25 13.75 250.15 13.8 226.05 15.15 207.45 14.1 206.65 13.9 206.6 13.85 187.85 13.2 170.95 13.75 Q158.7 14.7 146.4 14.35 L144.7 14.15 131.7 13.6 131.65 13.6 130.95 13.9 130.8 13.95 123.5 14.85 123.2 14.8 122.7 14.7 117.0 16.7 116.6 16.85 Q113.45 17.65 110.7 19.5 L109.95 19.85 Q106.7 22.3 103.75 25.2 L100.05 28.3 99.85 28.5 99.65 28.75 99.55 28.95 99.45 29.15 97.7 31.1 Q97.2 31.8 96.85 32.65 L96.55 32.85 96.2 33.1 95.6 34.15 94.75 35.45 94.65 35.9 94.15 36.75 93.95 37.0 93.9 37.2 93.85 37.4 93.7 37.85 93.25 38.3 92.75 38.95 92.65 39.15 92.6 39.35 92.55 39.6 92.35 39.8 92.15 40.05 92.0 40.85 91.3 42.0 90.9 43.3 90.35 44.8 90.05 45.25 89.65 46.1 89.55 46.3 89.5 46.75 89.3 47.65 89.25 48.05 89.2 48.25 89.05 48.5 89.0 48.7 89.0 49.35 89.0 50.45 89.0 50.65 88.9 50.9 88.8 51.1 88.7 51.3 88.7 53.9 88.7 55.65 88.7 56.55 88.7 56.75 88.6 56.95 88.6 57.0 88.85 57.5 Q89.1 58.15 89.0 58.9 L89.35 60.2 89.0 61.7 89.0 62.8 89.0 64.3 89.0 64.55 88.9 64.75 88.8 64.95 88.7 65.2 88.7 65.4 88.7 65.85 88.7 66.25 89.0 67.15 89.0 68.45 89.0 68.65 88.85 69.1 88.5 69.95 88.4 70.15 88.35 73.65 Q88.3 75.2 87.85 76.7 L87.85 77.75 87.85 79.3 87.75 79.5 87.65 79.75 87.55 79.95 87.0 93.65 Q86.7 98.3 86.7 102.95 L86.75 103.2 86.9 103.4 86.95 103.6 86.95 103.85 86.95 104.05 86.95 104.5 87.1 104.7 87.25 105.15 87.25 105.55 87.6 106.2 Q87.9 106.7 87.85 107.3 L88.1 107.85 88.4 108.15 88.9 108.8 88.95 109.05 88.95 109.55 89.2 110.15 89.6 110.55 90.1 111.2 90.15 111.45 90.2 111.75 90.45 112.3 92.45 114.4 93.65 115.75 93.75 116.0 93.8 116.2 94.5 116.8 95.45 117.65 95.9 117.8 96.15 118.05 96.3 118.25 96.4 118.45 Q106.15 124.7 117.9 125.25 122.4 125.45 127.0 125.15 L131.3 124.85 Q133.85 124.65 136.4 124.85 L136.7 124.95 137.1 125.45 137.2 125.6 137.8 125.8 148.9 125.55 152.1 125.75 156.4 126.25 156.7 126.45 156.85 126.6 159.4 126.9 159.85 127.15 160.15 127.3 160.35 127.5 161.3 127.95 161.85 128.6 162.0 128.8 162.4 129.25 162.65 129.5 162.85 129.7 162.9 129.9 163.0 130.15 163.05 130.35 163.05 130.55 163.05 130.8 163.35 131.35 163.6 131.65 163.85 131.9 164.05 132.1 164.1 132.3 164.2 132.55 164.25 132.75 164.25 132.95 164.25 133.2 164.55 133.85 164.55 134.05 164.55 134.5 164.55 134.7 164.55 135.35 164.55 135.8 164.55 136.0 164.65 136.2 164.75 136.45 164.85 136.65 164.85 137.3 164.85 137.55 164.85 137.95 164.85 138.2 164.8 139.25 165.0 140.15 165.15 140.8 165.15 141.0 165.05 141.2 164.95 141.45 164.85 141.65 164.85 142.3 164.85 142.55 164.85 142.95 164.85 143.2 164.85 144.25 164.85 145.15 164.85 145.8 164.85 146.0 164.75 146.2 164.65 146.45 164.55 146.65 164.55 147.3 164.55 147.5 164.55 147.95 164.55 148.15 164.45 149.25 164.3 149.9 164.25 150.55 164.45 151.0 164.55 151.2 164.55 151.45 164.55 151.85 164.55 152.1 164.55 152.3 164.8 152.95 164.85 153.15 164.85 153.6 164.85 153.8 Q164.8 154.4 165.0 154.9 L165.15 155.75 165.15 156.65 165.15 157.1 165.45 157.7 165.45 157.95 165.6 159.9 165.75 163.35 165.7 168.8 165.6 169.0 165.5 169.25 165.5 169.9 165.5 170.1 165.5 170.55 165.5 170.75 165.5 171.85 165.5 172.5 165.5 173.15 165.4 173.35 165.25 173.6 165.15 173.8 165.15 174.45 165.15 174.65 165.15 175.1 165.15 175.3 165.1 175.95 164.95 176.4 164.85 176.6 164.85 177.25 164.85 177.5 164.7 178.8 Q164.55 179.65 164.55 180.55 L164.55 184.2 164.55 185.5 164.65 185.75 164.75 185.95 164.85 186.15 164.85 187.5 164.85 191.8 164.95 204.4 164.85 206.35 164.65 207.2 164.6 207.25 164.55 207.3 164.55 208.15 164.35 209.45 164.25 209.7 Q164.25 211.75 163.0 213.3 162.05 214.5 160.75 215.35 L156.85 216.15 146.05 217.1 142.25 217.25 112.15 218.3 Q93.7 219.85 75.65 219.0 L75.6 219.1 75.3 219.5 75.1 219.7 74.95 219.75 74.6 219.8 74.1 219.65 73.8 219.45 73.75 219.4 64.75 218.6 64.25 218.55 51.2 217.05 13.6 215.3 Q7.15 215.25 0.8 215.35 L-0.9 215.5 -1.2 215.45 -1.7 215.3 -2.0 215.1 -2.2 214.9 -2.3 214.7 -2.3 214.45 -2.3 214.3 -2.4 214.25 -2.9 214.1 -3.2 213.9 -3.4 213.7 -3.5 213.5 -3.5 213.25 -3.5 213.05 -3.45 212.85 -3.35 212.6 -3.3 212.6 -3.4 212.5 -3.5 212.3 -3.5 212.05 -3.5 211.85 -3.45 211.65 -3.35 211.4 -2.75 211.0 -2.35 210.8 -1.85 210.65 -0.1 210.45 0.45 210.35 0.5 210.35 12.85 210.9 36.05 211.55 57.75 213.15 73.0 214.75 73.7 214.4 74.05 214.45 Q96.55 215.4 118.9 213.45 L133.3 212.7 155.7 211.4 Q157.8 211.2 159.65 210.2 L159.85 209.95 160.25 209.35 160.45 209.1 160.55 208.85 160.6 208.45 160.6 208.0 160.65 207.8 160.8 207.55 160.9 207.35 161.05 205.85 161.15 203.9 161.35 203.55 161.45 200.7 161.45 199.5 161.45 188.5 161.45 187.3 161.45 185.7 161.2 185.05 161.2 184.85 161.2 183.85 161.2 183.65 161.2 183.55 161.2 182.35 161.2 181.8 161.2 180.6 161.2 178.1 161.2 176.9 161.2 176.8 161.2 175.6 161.25 175.4 161.4 175.15 161.45 174.95 161.45 174.5 161.45 174.3 161.45 174.05 161.5 173.65 161.55 173.45 161.75 173.0 161.75 172.9 161.75 172.65 161.75 172.35 161.75 172.25 161.75 171.95 161.75 171.7 161.75 171.45 161.75 171.05 161.85 170.4 162.1 170.15 162.1 170.05 162.1 169.5 162.1 169.1 162.1 169.0 162.1 168.85 162.1 168.1 162.1 167.8 162.1 167.45 162.1 166.9 162.1 166.25 162.2 166.05 162.35 165.8 162.35 165.15 162.35 164.95 162.35 164.4 162.35 163.8 162.3 162.45 162.15 157.9 162.1 157.45 161.85 156.8 161.8 156.6 161.75 156.15 161.75 155.95 161.75 155.3 161.75 155.0 161.75 154.95 161.75 154.85 161.75 154.75 161.75 154.65 161.75 154.45 161.55 154.0 161.5 153.75 161.45 153.55 161.45 153.1 161.45 152.9 161.45 152.45 161.4 152.25 161.25 152.05 161.2 151.8 161.2 151.6 161.2 151.4 161.2 151.15 161.2 150.95 161.2 150.75 161.1 150.55 161.0 150.3 160.9 150.1 160.9 149.45 160.9 149.2 160.9 148.9 160.9 148.8 160.9 148.55 160.9 148.25 160.9 148.15 160.9 148.0 160.9 147.6 160.9 147.35 160.9 146.95 161.2 146.3 161.2 146.2 161.2 145.95 161.2 145.65 161.2 145.5 161.2 145.4 161.2 145.0 161.2 144.85 161.2 144.75 161.2 144.65 161.2 144.3 161.2 143.65 161.2 143.45 161.25 143.25 161.4 143.0 161.45 142.8 161.45 142.15 161.45 142.05 161.45 141.95 161.45 140.85 161.45 139.35 161.45 138.8 161.45 137.6 161.45 136.2 161.4 136.0 161.25 135.75 161.2 135.55 161.2 134.9 161.2 134.65 161.2 134.35 161.2 134.25 161.2 134.0 161.2 133.7 161.2 133.6 161.2 133.35 160.95 132.9 160.9 132.7 160.85 132.5 160.7 132.1 160.55 132.0 159.85 131.6 159.7 131.55 156.9 131.1 156.6 130.85 156.45 130.75 154.85 130.6 153.65 130.35 152.9 130.15 149.85 130.05 Q144.25 130.45 138.65 130.2 137.75 130.15 136.9 129.7 L136.75 129.45 136.7 129.35 Q127.55 130.1 118.35 129.65 108.8 129.15 100.0 125.2 L99.8 124.95 99.65 124.75 Q97.2 123.45 95.1 121.7 L94.15 121.05 93.6 120.45 93.35 120.1 92.95 119.85 92.4 119.25 91.95 118.55 91.85 118.45 91.75 118.25 91.7 118.05 91.55 117.95 91.15 117.65 90.85 117.45 90.65 117.25 90.55 117.05 90.45 116.8 90.35 116.7 90.05 116.4 89.15 115.5 89.1 115.3 89.05 115.1 87.65 113.4 86.35 111.85 86.25 111.4 86.25 110.75 86.3 110.5 86.2 110.3 85.75 109.2 85.55 109.0 85.35 108.8 85.1 108.55 85.05 108.35 85.05 108.15 85.0 107.9 84.8 107.7 84.6 107.5 84.55 107.25 84.5 107.05 84.45 106.6 84.3 106.15 84.0 105.3 83.9 105.1 83.9 104.9 83.9 104.65 83.9 104.45 83.75 104.2 83.6 103.6 83.6 103.15 83.5 102.95 83.4 102.7 83.3 102.5 83.3 101.3 83.3 95.75 83.3 94.55 83.3 90.75 83.3 89.55 83.4 89.35 83.5 89.1 83.6 88.9 83.6 88.35 83.6 87.15 83.6 86.4 83.6 85.2 83.7 85.0 83.8 84.8 83.85 84.7 83.9 84.15 83.85 83.7 Q83.8 83.0 84.05 82.4 L84.2 82.2 84.2 80.55 84.2 77.95 84.2 76.75 84.25 76.55 84.4 76.3 84.45 76.25 84.4 76.0 84.45 75.3 84.4 74.8 Q84.35 73.85 84.75 73.05 L84.75 72.6 Q84.7 72.15 84.9 71.75 L85.05 71.55 85.05 70.55 85.05 69.35 85.05 68.4 85.05 67.2 85.2 66.75 85.45 66.1 85.4 66.0 85.35 65.8 85.35 64.7 85.35 64.6 85.35 63.5 85.35 63.2 85.35 62.0 85.4 61.75 85.55 61.55 85.65 61.4 85.6 61.0 85.65 60.4 85.6 59.8 Q85.6 59.15 85.75 58.55 L85.65 58.2 85.25 57.8 85.1 57.55 85.0 56.7 85.05 56.05 85.0 55.5 85.05 54.4 85.05 54.2 85.1 54.0 85.25 53.75 85.3 53.55 85.3 52.15 85.3 50.95 85.3 50.4 85.3 49.55 85.3 49.3 85.3 49.2 85.3 48.35 85.3 48.1 85.4 47.9 85.55 47.7 85.6 47.5 85.6 47.45 85.6 46.95 85.6 46.8 85.6 46.7 85.6 45.75 85.6 45.5 85.7 45.3 85.8 45.05 85.9 44.85 85.9 44.65 85.9 44.45 86.0 44.2 86.1 44.0 86.2 43.8 86.25 43.35 86.5 42.5 86.55 42.25 86.65 42.05 86.85 41.8 87.0 41.6 87.05 41.4 87.05 41.15 87.6 40.1 88.0 38.8 88.1 38.6 88.4 38.1 88.7 37.7 88.8 37.25 89.15 36.4 89.3 36.2 89.35 35.95 89.4 35.75 89.45 35.55 89.8 35.1 90.45 34.45 90.5 34.2 90.55 34.0 90.6 33.8 90.75 33.6 91.15 33.15 91.35 32.9 Q91.55 32.0 92.1 31.25 L92.9 29.65 95.65 26.45 97.2 24.45 97.4 24.25 97.7 24.05 98.15 23.8 98.3 23.55 98.45 23.35 98.55 23.15 101.7 20.4 102.9 19.0 103.2 18.85 104.05 18.35 104.2 18.15 104.35 17.95 Q107.1 15.95 110.05 14.35 L111.1 13.6 111.25 13.55 111.75 13.4 Q113.0 12.55 114.45 12.3 L115.8 11.95 Q116.85 11.2 118.15 11.0 L119.55 10.75 Q123.7 9.4 128.3 9.25 L130.05 8.65 130.4 8.55 130.9 8.7 131.15 8.9 Q137.25 8.0 143.45 9.6 L146.65 10.0 Q164.5 10.35 181.95 8.25 L195.5 8.4 203.05 9.2 203.8 9.4 205.75 9.5 206.25 9.65 206.55 9.85 206.6 9.95 222.15 10.05 224.25 10.35 224.8 10.5 249.15 9.1 258.35 9.4 263.5 10.05 315.65 8.0 322.95 8.45 327.6 8.85 Q328.75 8.85 329.7 9.4 332.25 9.0 334.65 9.4 L335.75 9.8 335.9 9.7 354.1 11.05 364.55 11.35 371.8 11.0 377.3 9.9 Q379.9 9.55 382.5 9.8 L383.75 10.15 386.9 9.75 387.4 9.65 Q398.2 8.75 408.35 11.65 411.65 12.55 414.65 14.25 L419.25 16.7 419.4 16.9 419.45 17.1 419.55 17.35 419.9 17.55 420.25 17.75 420.55 18.0 420.75 18.2 420.95 18.4 421.35 18.85 421.65 19.05 422.15 19.2 422.65 19.35 422.95 19.55 423.2 19.8 423.4 20.0 423.6 20.2 423.8 20.45 424.15 20.9 424.5 21.1 424.75 21.3 424.9 21.55 424.95 21.75 425.05 21.95 425.1 22.2 425.2 22.4 425.4 22.6 425.6 22.85 M391.25 49.35 L391.75 49.1 391.75 49.05 392.25 49.25 392.55 49.4 392.8 50.05 392.85 51.15 392.85 51.35 392.9 51.55 392.95 51.5 392.95 51.45 393.45 51.65 393.75 51.8 394.0 52.45 394.05 53.55 394.05 53.75 Q394.5 54.9 394.4 56.15 L394.35 58.35 Q395.1 59.25 395.0 60.5 L394.9 62.45 Q395.35 65.85 395.1 69.4 L394.9 74.4 394.8 74.6 394.7 74.85 394.7 75.5 394.35 76.55 Q393.65 82.15 394.6 87.7 L394.9 91.55 394.7 95.25 394.6 95.45 394.45 95.7 394.35 95.9 394.3 96.1 394.25 96.35 394.05 96.75 394.05 97.4 393.9 98.5 393.75 98.7 393.45 98.9 392.95 99.1 392.45 98.9 392.15 98.7 392.0 98.45 Q381.05 98.65 370.0 98.3 L366.3 98.45 346.0 99.5 Q336.15 99.25 326.35 99.4 L319.05 98.7 314.2 98.0 Q307.95 97.55 301.75 98.05 L301.5 98.3 301.25 98.4 300.9 98.5 300.7 98.4 298.1 98.65 292.75 99.5 292.0 99.85 291.45 100.0 291.2 100.2 291.0 100.4 Q288.25 101.2 285.65 102.65 L285.2 103.0 285.05 103.05 284.5 103.2 283.75 103.85 282.95 104.3 282.25 105.2 Q281.85 105.6 281.3 105.8 L281.1 106.05 281.0 106.25 280.95 106.45 280.7 106.65 280.15 107.1 279.95 107.35 279.7 107.75 279.5 108.2 279.2 108.4 278.85 108.65 277.8 110.15 276.8 111.45 276.05 112.95 Q275.6 113.55 275.3 114.25 L275.15 114.5 275.1 114.7 275.05 114.95 275.0 115.15 274.85 115.35 274.7 115.55 274.5 115.8 274.4 116.25 274.15 116.9 274.0 117.1 273.8 117.75 273.35 118.85 273.35 119.05 273.25 119.5 273.05 119.9 273.05 120.15 273.05 120.35 272.9 120.8 272.75 121.0 272.55 121.25 272.35 122.1 271.9 123.4 271.9 123.6 271.9 124.05 271.9 124.5 271.8 124.7 271.7 124.95 271.6 125.15 271.6 125.35 271.5 125.8 271.3 126.2 Q271.2 127.25 271.5 128.2 L271.65 129.25 271.6 130.15 271.6 130.35 271.6 130.45 271.65 130.55 271.95 131.0 272.1 131.2 272.15 131.45 272.1 132.1 271.95 132.5 271.65 132.7 271.4 132.85 Q271.85 139.85 271.7 146.8 L271.35 156.35 Q272.35 163.15 271.65 170.05 L271.3 174.4 Q271.15 176.65 270.45 178.7 L270.55 182.6 Q270.65 184.35 270.15 185.9 L270.0 189.35 269.55 192.2 269.65 192.6 269.85 193.5 269.85 193.9 269.95 194.1 270.05 194.35 270.15 194.55 270.15 194.8 270.15 195.2 270.15 195.65 Q270.8 197.45 270.9 199.35 L271.0 202.4 271.05 202.45 Q272.3 204.0 273.35 205.7 L274.35 207.6 274.55 208.1 274.6 208.2 275.35 209.65 275.55 209.75 276.0 210.35 276.6 211.25 277.0 211.5 277.1 211.7 277.25 211.95 277.35 212.15 283.55 216.2 283.7 216.1 285.15 216.15 285.65 216.25 285.9 216.5 286.65 217.15 287.0 217.55 287.45 217.75 287.75 217.95 287.9 218.15 Q299.55 221.1 311.85 219.8 323.4 218.6 334.95 220.2 L341.65 220.45 Q348.85 219.95 356.05 220.15 L363.75 219.65 363.75 219.6 363.8 219.35 363.95 219.15 364.15 218.95 364.45 218.8 364.8 218.7 365.45 218.55 365.95 218.5 368.65 218.25 369.15 218.2 369.15 218.15 387.3 218.8 397.9 218.85 397.95 218.85 398.05 218.8 398.4 218.75 398.4 218.7 398.9 218.85 399.4 219.65 399.55 219.75 399.6 219.95 399.65 220.05 400.3 221.5 400.6 222.05 400.75 222.15 400.8 222.35 400.85 222.45 Q402.15 224.95 402.0 228.0 401.85 230.4 402.1 232.8 L402.35 233.45 402.4 234.5 402.4 234.75 Q402.9 235.85 402.95 237.1 L403.0 239.75 Q403.5 242.7 403.35 245.8 L403.3 250.8 403.2 251.0 403.1 251.25 403.0 251.45 403.1 259.5 Q403.2 262.6 402.7 265.55 L402.85 269.7 403.0 273.6 403.1 273.85 403.2 274.05 403.3 274.45 403.2 274.7 403.05 274.9 402.7 275.25 402.55 275.35 402.4 275.4 402.15 276.05 401.7 277.1 401.6 277.3 401.4 277.55 401.05 278.2 400.9 278.4 399.0 279.15 Q394.75 280.05 390.6 278.95 389.9 278.75 389.25 278.4 365.2 278.5 341.15 279.35 326.3 279.85 311.55 279.1 L293.95 278.4 281.5 277.85 Q274.45 277.4 267.35 277.85 L264.45 277.85 256.35 277.6 243.95 278.1 243.8 278.15 239.6 278.95 236.95 279.05 221.3 277.9 220.45 277.7 207.7 278.45 205.4 278.5 Q188.95 279.1 172.7 278.1 L168.45 278.25 Q149.45 280.4 130.45 279.3 126.8 279.1 123.25 279.45 L119.15 279.0 119.1 279.0 109.25 279.9 108.8 280.1 107.95 280.4 107.7 280.6 105.65 281.9 Q105.4 282.0 105.2 282.2 L105.05 282.25 104.7 282.35 104.1 282.5 Q102.0 283.7 100.15 285.35 L99.0 286.35 Q97.85 287.4 97.15 288.8 L97.0 289.0 96.65 289.2 96.45 289.45 96.15 289.85 95.7 290.3 95.65 290.55 95.1 291.85 94.25 292.9 94.2 293.15 94.1 293.55 93.6 294.45 93.6 294.65 93.45 295.35 93.05 296.15 93.05 296.4 93.05 296.6 93.05 296.8 92.95 297.05 92.85 297.25 92.75 297.45 92.65 298.35 Q92.35 299.3 92.45 300.3 L92.45 300.75 92.45 301.15 92.2 302.05 92.15 305.05 92.25 306.6 Q92.6 308.3 92.55 310.05 L92.45 313.1 Q93.25 314.4 93.1 315.95 L93.05 316.8 93.1 318.3 93.35 321.6 93.4 321.8 93.55 322.0 93.6 322.25 93.6 322.45 93.65 322.55 93.9 322.65 94.2 322.85 Q94.45 323.1 94.5 323.5 94.55 324.1 94.2 324.55 L94.2 324.8 94.2 325.0 94.2 325.2 94.2 325.45 94.15 325.65 94.0 325.9 93.95 326.1 94.0 334.75 Q93.95 337.85 94.2 340.85 L94.15 341.05 94.0 341.3 93.95 341.5 93.7 349.75 93.05 355.6 Q93.05 358.25 93.3 360.8 93.45 363.1 93.05 365.2 92.85 368.7 93.05 372.15 93.25 374.8 92.75 377.35 92.6 382.05 92.85 386.7 L93.05 393.2 Q93.55 394.95 93.4 396.9 93.25 398.55 93.65 400.15 L93.85 400.6 93.95 401.45 93.95 401.9 Q94.3 402.35 94.3 402.95 L94.5 404.7 94.6 404.9 94.7 405.15 94.8 405.35 94.95 407.95 95.1 410.55 Q95.6 414.3 95.45 418.15 95.35 420.9 95.65 423.6 L95.55 423.8 95.45 424.05 95.35 424.25 95.5 427.1 95.65 429.9 95.75 430.1 95.85 430.35 95.95 430.55 Q95.85 432.0 96.25 433.35 L96.8 435.95 96.95 436.2 97.2 436.4 97.5 437.5 98.2 439.0 98.25 439.25 98.3 439.45 98.45 439.9 98.55 440.1 98.65 440.75 99.15 441.85 99.1 442.05 99.05 442.25 99.05 442.35 101.6 444.0 102.35 444.7 Q103.95 445.3 105.35 446.3 L105.6 446.5 108.35 447.3 Q109.7 448.45 111.3 449.0 L112.1 449.35 Q125.8 449.25 139.4 451.0 143.85 451.55 148.35 451.2 163.7 449.95 178.7 452.9 L178.8 452.75 Q179.6 452.25 180.5 452.3 L203.95 453.1 215.55 452.6 221.55 452.0 226.35 451.55 226.35 451.5 Q235.0 449.5 242.5 444.55 L242.7 444.35 242.85 444.15 242.9 443.9 244.75 442.5 245.6 441.95 246.3 441.05 247.35 440.2 248.45 438.75 Q249.05 437.95 249.3 436.95 L250.45 435.05 251.4 432.85 251.45 432.6 251.5 432.4 251.65 431.95 251.75 431.8 251.7 431.0 251.7 429.8 Q251.55 428.4 252.05 427.2 L252.05 425.8 252.05 424.6 252.05 422.75 Q251.65 422.15 251.7 421.45 L251.75 420.8 251.7 420.25 251.75 419.05 Q251.35 418.35 251.45 417.55 L251.5 417.25 251.45 416.35 251.65 415.1 251.55 414.9 251.45 414.7 251.45 413.5 251.45 413.4 251.45 413.25 251.45 412.2 Q251.45 411.2 251.7 410.25 L251.75 410.05 251.85 409.85 251.9 409.7 Q251.75 408.95 251.75 408.2 L251.75 407.75 251.8 407.7 251.75 407.0 251.75 406.55 251.85 406.35 251.95 406.1 252.05 405.9 252.1 405.25 252.3 404.4 252.35 403.95 252.4 403.75 252.55 403.5 252.6 403.3 252.6 403.0 252.6 401.8 252.6 400.8 252.6 400.6 252.6 399.6 252.6 399.4 252.7 399.2 252.8 398.95 252.9 398.8 252.8 397.55 252.6 394.75 252.7 394.6 252.65 393.9 252.6 393.85 252.6 393.55 252.6 392.8 252.6 392.65 252.6 391.6 252.6 391.25 252.6 391.05 252.55 390.85 252.4 390.6 252.35 390.4 252.35 389.2 252.3 386.1 252.2 383.0 252.2 381.8 252.2 381.5 252.2 380.6 252.1 380.4 252.05 380.2 252.05 380.0 252.05 379.75 251.95 379.55 251.85 379.35 251.75 379.1 251.6 378.0 251.45 376.5 251.35 376.3 251.25 376.05 251.15 375.85 251.15 375.65 251.15 375.45 251.15 375.0 Q250.85 373.5 250.95 371.95 L251.0 369.85 251.15 368.05 Q250.85 367.65 250.85 367.2 250.8 366.75 250.9 366.4 L250.85 366.0 Q250.75 365.25 251.15 364.65 L251.15 364.45 251.2 364.0 251.25 363.6 251.4 363.4 251.45 363.05 Q251.85 361.9 252.85 361.75 L253.1 361.8 253.65 361.9 254.4 362.55 254.45 362.6 Q258.7 360.9 263.55 361.35 267.65 361.7 271.65 361.2 L278.0 360.55 292.75 361.2 297.4 361.0 300.0 361.2 320.85 360.35 321.9 360.45 325.65 360.9 Q326.05 360.95 326.35 361.15 L326.6 361.2 327.1 361.35 327.4 361.55 327.55 361.75 327.6 361.95 327.65 362.2 327.7 362.4 327.45 362.8 327.45 362.85 327.55 362.95 327.6 363.15 327.65 363.4 327.7 363.6 327.8 363.6 328.3 363.75 328.6 363.95 328.75 364.15 328.8 364.35 328.85 364.6 328.9 364.8 328.65 365.2 328.35 365.9 328.25 366.1 328.25 366.55 328.25 367.2 328.25 367.6 328.4 367.85 328.5 368.05 328.65 371.1 328.6 374.35 Q328.1 376.15 328.05 378.05 L328.0 381.3 327.95 381.5 327.8 381.75 327.75 381.95 327.75 384.8 327.75 387.6 327.8 387.8 327.95 388.05 328.0 388.25 328.0 389.55 328.0 391.3 328.15 391.5 328.25 391.75 Q328.0 398.0 328.0 404.3 328.0 408.7 328.25 413.0 L328.5 413.65 328.6 414.95 328.6 415.2 328.5 415.4 328.4 415.6 328.25 415.85 328.15 417.35 327.75 419.3 327.65 419.95 Q327.4 420.5 327.45 421.05 L327.45 421.25 327.35 421.45 327.25 421.7 327.15 421.9 327.3 423.65 Q327.55 424.6 327.45 425.6 327.9 426.5 327.8 427.55 L327.8 428.1 328.05 428.2 328.15 428.45 328.25 428.65 328.3 428.85 328.3 429.1 328.25 429.3 328.1 429.5 327.75 429.95 327.65 430.15 327.6 430.35 327.45 430.6 Q328.1 436.1 328.05 441.65 L328.05 450.15 328.25 450.8 328.3 452.1 328.3 452.55 328.25 452.75 328.1 452.95 328.05 453.2 328.05 453.4 328.0 453.6 327.95 454.05 327.9 454.25 328.25 462.3 328.3 468.8 328.25 469.05 328.1 469.25 328.05 469.45 328.05 469.7 328.05 469.9 328.05 470.35 328.05 470.55 327.95 470.75 327.85 471.0 327.75 471.2 327.75 471.4 327.75 471.65 327.75 472.05 327.75 472.5 327.65 472.7 327.55 472.95 327.45 473.15 327.4 473.6 327.2 474.45 327.15 474.9 327.05 475.1 326.95 475.35 326.85 475.55 326.85 475.75 326.85 476.0 326.7 476.65 326.6 476.85 326.65 478.6 Q326.75 479.85 326.3 481.0 L326.3 481.2 326.3 481.4 326.3 481.85 326.3 482.05 326.2 482.25 326.05 482.5 325.7 482.85 325.55 482.9 325.2 483.0 324.7 482.8 324.4 482.65 324.2 482.2 324.15 481.75 324.0 481.8 323.5 481.6 323.2 481.45 323.0 481.0 322.9 479.9 322.9 479.25 322.95 479.2 322.9 478.7 322.9 478.05 323.0 477.85 323.1 477.65 323.2 477.4 323.2 477.3 323.2 476.1 323.2 475.35 323.2 474.95 323.2 474.15 323.2 473.75 323.3 473.5 323.4 473.3 323.5 473.1 323.5 472.85 323.5 472.65 323.65 472.2 323.8 472.0 323.85 471.55 324.0 470.7 324.1 470.05 324.15 469.85 324.3 469.6 324.35 469.4 324.35 468.95 324.45 468.1 324.65 467.65 324.65 467.2 324.75 466.35 324.95 465.9 324.95 464.95 324.95 463.75 324.95 461.9 Q324.45 460.15 324.55 458.2 L324.55 457.0 324.65 454.1 324.45 453.65 Q324.25 453.1 324.45 452.55 L324.5 452.5 324.45 452.45 Q324.25 451.9 324.45 451.35 L324.65 450.95 324.65 450.7 324.65 450.5 324.65 450.25 324.65 450.05 324.75 449.85 324.85 449.65 324.85 449.6 Q324.5 446.2 324.55 442.75 L324.55 440.7 324.6 439.3 324.65 434.95 324.1 432.15 324.05 429.95 Q324.0 428.85 324.1 427.7 L324.15 427.5 324.3 427.3 324.3 427.25 324.3 427.2 324.25 426.4 324.35 425.6 324.1 425.0 324.05 423.9 324.05 423.45 324.0 423.25 323.85 423.0 323.8 422.8 323.8 421.75 323.8 420.55 323.8 420.3 323.8 420.2 323.8 419.0 323.8 418.8 323.85 418.6 324.0 418.35 324.05 418.15 324.1 417.7 324.3 416.85 324.35 416.4 324.45 416.2 324.55 415.95 324.65 415.75 324.7 414.25 Q324.7 413.45 324.95 412.7 324.75 409.7 324.7 406.7 L324.6 400.9 324.6 398.8 324.8 391.0 324.75 390.9 324.65 390.65 324.65 389.6 324.65 389.45 324.65 388.4 324.65 388.05 324.65 387.85 324.55 387.65 324.45 387.4 324.35 387.2 324.35 386.0 324.35 383.5 324.35 382.3 324.35 380.05 324.35 378.85 324.45 378.6 324.55 378.4 324.65 378.2 324.8 375.15 324.9 374.0 324.85 373.3 324.9 373.25 324.85 372.1 324.95 371.9 325.1 371.65 325.25 371.45 325.25 370.25 325.25 369.05 325.15 367.65 Q324.65 366.5 324.7 365.2 319.85 364.65 315.0 365.1 L300.6 365.75 287.35 365.4 Q278.45 365.05 269.65 365.75 L257.65 366.8 256.2 367.05 256.05 367.3 256.0 367.4 256.0 367.55 256.0 368.45 256.0 369.1 256.1 369.3 256.2 369.5 256.3 369.75 Q256.4 376.0 256.0 382.15 255.7 386.45 255.7 390.8 L255.8 391.0 255.9 391.25 256.0 391.45 256.0 392.55 256.0 394.05 256.0 394.25 256.1 394.5 256.2 394.7 256.3 394.9 256.3 395.35 256.2 396.0 256.0 396.45 Q256.35 397.6 256.3 398.85 L256.3 401.85 256.2 402.1 256.1 402.3 256.0 402.5 256.05 404.25 Q256.15 405.65 255.7 406.85 L255.6 407.75 255.25 409.0 255.1 409.45 Q255.05 410.15 255.3 410.75 255.6 411.75 255.25 412.7 L255.1 412.95 Q254.9 415.55 255.0 418.15 L255.1 422.7 Q255.6 425.9 255.3 429.2 255.0 432.0 255.1 434.9 L255.05 435.1 254.95 435.3 254.8 435.75 254.75 435.95 254.6 436.2 254.45 436.4 254.3 436.6 253.75 438.4 252.45 440.5 252.3 440.95 252.0 441.65 251.85 442.05 251.55 442.45 250.9 443.1 250.7 443.35 250.65 443.55 250.55 443.8 250.1 444.2 249.4 444.65 249.25 444.9 249.15 445.1 249.05 445.3 248.75 445.55 248.55 445.75 248.15 446.15 Q245.3 448.55 242.2 450.55 L241.35 451.1 240.8 451.25 240.3 451.45 240.05 451.65 239.85 451.9 239.55 452.1 237.95 452.75 237.45 453.05 Q236.25 453.35 235.2 454.1 L234.45 454.55 229.1 455.7 229.0 455.8 Q211.0 458.8 192.7 457.25 L187.2 456.95 181.9 456.8 181.4 457.05 181.15 457.15 180.8 457.25 180.55 457.2 180.15 457.1 Q174.25 456.85 168.4 455.65 165.25 455.0 161.95 455.6 L160.65 455.75 Q147.5 456.6 134.5 455.25 L111.7 453.65 111.45 453.4 111.3 453.25 Q110.1 452.9 109.15 452.15 L108.7 451.8 105.95 451.0 105.1 450.4 104.35 449.8 Q102.15 449.05 100.35 447.5 L99.5 446.8 99.0 446.7 98.05 445.8 97.4 445.15 96.85 444.6 96.2 443.95 96.15 443.75 96.05 443.5 95.95 443.35 95.6 443.1 Q95.1 442.55 94.95 441.75 L94.95 440.4 94.95 439.1 94.9 438.9 94.4 437.8 94.3 437.4 94.05 436.7 93.95 436.3 93.8 436.1 93.6 435.85 93.5 435.65 93.45 435.4 93.45 435.0 93.45 434.75 93.35 434.55 93.2 434.35 93.0 434.1 92.95 433.9 92.9 433.7 92.85 433.25 92.85 433.05 92.8 432.8 92.65 432.6 92.6 432.4 92.6 431.5 92.6 431.2 92.6 430.3 92.6 430.2 92.6 430.0 Q92.15 429.2 92.2 428.25 L92.25 427.8 92.2 427.05 92.3 426.25 92.2 426.1 92.1 425.85 92.0 425.65 91.95 423.9 Q91.9 423.4 92.0 422.95 L91.95 422.7 Q91.9 421.95 92.1 421.25 L92.0 421.1 92.0 419.9 92.0 415.25 92.0 414.05 92.0 410.65 91.9 410.45 91.8 410.2 91.7 410.0 91.7 409.6 91.7 409.15 91.7 408.8 91.7 408.7 91.65 408.5 91.5 408.25 91.4 408.05 91.4 406.85 91.4 406.75 91.4 405.55 91.45 405.2 91.4 404.8 91.2 404.35 91.1 403.7 91.15 403.5 91.05 403.3 90.95 403.05 90.85 402.85 90.85 402.65 90.85 402.4 90.85 402.2 90.85 402.0 90.75 401.75 90.65 401.55 90.55 401.35 90.55 401.1 90.55 400.9 90.55 400.45 90.55 400.25 90.45 400.05 90.35 399.8 90.25 399.6 90.25 399.35 90.25 399.15 90.2 398.95 90.05 398.7 90.0 398.5 90.0 396.6 90.0 394.7 90.0 393.3 89.9 393.1 89.75 392.85 89.7 392.65 89.7 391.45 89.7 388.75 89.7 387.55 89.7 385.25 89.6 385.05 89.5 384.8 89.4 384.6 89.4 383.4 89.4 381.4 89.3 379.4 89.3 378.2 89.3 378.05 Q89.2 375.9 89.7 373.85 L89.7 373.0 89.7 372.65 89.7 372.45 89.7 371.45 89.7 371.25 89.75 371.05 89.8 371.0 89.75 370.9 89.7 370.7 89.6 366.6 89.6 365.4 Q89.5 363.8 89.85 362.35 L89.75 362.25 89.7 362.0 89.6 357.25 89.6 356.05 89.6 356.0 Q89.5 353.95 90.0 352.15 L90.55 346.6 90.7 335.65 90.55 332.5 90.6 332.4 90.6 331.65 90.55 331.6 90.55 331.3 90.45 327.3 90.45 326.1 Q90.35 324.55 90.7 323.15 L90.55 323.05 90.35 322.8 90.25 322.4 90.25 321.75 90.15 321.55 90.05 321.3 89.95 321.1 89.95 320.9 89.95 320.45 89.95 319.9 89.95 319.7 89.95 319.6 89.95 319.35 Q89.55 318.7 89.6 317.85 L89.65 317.35 89.6 316.65 89.65 315.75 89.65 315.65 89.65 314.8 89.65 314.45 89.65 313.7 Q88.85 312.0 89.0 310.0 L89.0 308.6 89.1 306.35 89.05 304.8 Q88.95 303.1 89.0 301.4 88.95 298.55 89.25 295.8 L89.4 295.35 89.4 295.15 89.4 294.95 89.4 294.7 89.4 294.5 89.45 294.3 89.6 294.05 89.65 293.85 89.7 293.65 89.9 292.5 90.3 291.25 90.4 291.05 90.6 290.8 90.75 290.6 90.8 290.35 Q90.9 289.6 91.4 289.0 L92.2 288.0 92.25 287.75 92.3 287.55 92.3 287.35 92.35 287.1 92.95 286.45 93.5 285.6 93.75 285.4 94.0 285.15 94.3 284.95 Q95.2 283.35 96.6 282.05 L98.15 280.65 Q99.8 279.2 101.75 278.15 L101.95 278.0 102.25 277.85 102.6 277.75 103.2 277.65 103.45 277.45 103.95 277.1 104.45 276.7 104.75 276.5 106.8 275.65 107.1 275.45 107.35 275.3 115.65 274.6 117.35 274.7 117.65 274.75 117.75 274.65 118.05 274.5 118.55 274.3 129.55 274.65 142.35 275.2 155.55 274.65 167.1 273.6 172.1 273.05 173.5 273.15 174.4 273.35 Q189.3 274.4 204.25 273.85 L217.2 272.9 Q218.75 272.75 220.1 273.35 L237.5 274.2 238.4 274.1 240.25 273.75 240.3 273.75 Q241.45 273.25 242.7 273.2 252.9 272.65 262.95 273.0 271.2 273.3 279.45 273.1 L282.0 273.2 310.35 274.1 314.85 274.2 Q326.9 274.95 339.05 274.8 L350.95 274.6 353.55 274.5 386.45 273.5 Q387.85 273.45 389.05 274.05 L389.15 274.1 397.3 274.5 397.8 274.25 398.35 273.55 398.9 272.5 399.1 272.3 399.35 272.1 399.5 272.0 399.5 271.0 399.5 270.9 399.5 269.8 399.6 268.1 399.55 268.0 399.4 267.75 399.35 267.55 399.35 266.35 399.35 266.05 399.35 264.85 399.35 263.85 399.35 262.65 399.4 262.45 399.55 262.2 399.6 262.0 399.55 256.9 399.5 255.15 399.5 253.95 399.5 253.55 Q399.45 250.65 399.9 247.9 L399.9 244.1 399.9 242.9 399.9 239.75 Q399.5 238.95 399.55 238.0 L399.6 237.55 399.55 236.8 399.6 236.0 399.6 235.85 399.55 235.65 399.4 235.4 399.35 235.2 399.2 234.3 Q398.95 233.7 399.05 233.0 L399.05 232.8 398.8 232.15 398.75 231.05 398.75 230.65 398.65 230.45 398.55 230.2 398.45 230.0 398.45 228.8 398.45 227.4 398.45 224.75 398.3 224.35 398.05 223.7 398.0 223.5 381.35 223.4 377.85 223.2 Q372.6 222.6 367.3 223.15 L366.9 223.4 366.7 223.55 366.5 223.7 366.35 223.8 366.05 223.85 365.95 224.1 Q349.45 225.5 332.8 224.25 324.9 223.65 317.05 224.55 307.5 225.6 298.0 224.25 L288.5 222.55 286.7 221.75 286.5 221.55 286.3 221.35 285.85 220.9 285.55 220.85 285.25 220.9 284.9 220.95 284.7 220.95 284.2 220.8 283.9 220.6 283.7 220.35 283.6 219.95 283.6 219.8 Q280.7 219.7 278.45 217.15 L277.65 216.7 276.95 216.3 276.75 216.05 276.65 215.85 276.6 215.65 276.4 215.5 275.75 215.1 275.55 214.85 275.45 214.65 275.4 214.45 275.1 214.2 274.9 214.0 274.65 213.8 274.6 213.55 274.5 213.35 273.7 212.45 272.9 211.6 272.05 209.45 271.4 207.7 270.4 206.35 270.05 205.9 269.8 205.65 269.8 205.5 269.65 205.3 269.35 205.1 268.6 204.45 268.3 203.3 267.65 201.85 267.7 200.7 267.65 200.65 267.75 198.3 Q267.6 197.3 267.05 196.4 L267.05 196.2 267.05 195.95 267.05 195.55 266.85 195.1 266.75 194.25 266.75 194.0 266.25 192.3 266.2 190.55 266.2 189.1 266.3 188.9 266.4 188.7 266.5 188.45 266.5 188.05 266.6 187.2 266.75 186.75 266.8 185.4 266.75 184.05 266.8 183.95 266.75 182.85 266.85 182.6 267.0 182.4 267.05 182.3 267.05 182.15 266.95 179.7 266.95 178.5 Q266.85 176.8 267.35 175.25 L267.35 175.0 267.35 174.8 267.35 174.35 267.45 174.15 267.55 173.9 267.65 173.7 Q267.85 167.6 268.45 161.55 L268.6 159.55 Q268.5 157.1 267.95 154.7 L268.0 154.5 268.15 154.3 267.95 153.5 268.0 153.3 268.15 153.05 268.2 152.85 268.4 146.55 268.7 143.0 268.6 142.75 268.5 142.55 Q268.5 138.25 268.05 134.05 L267.95 131.5 Q267.9 129.55 268.25 127.7 L268.25 127.65 Q267.8 126.75 267.9 125.75 L267.95 125.5 267.9 124.55 267.95 123.45 Q267.95 123.0 268.25 122.6 L268.25 122.35 268.25 122.15 268.25 121.95 268.3 121.75 268.45 121.5 268.5 121.3 Q268.45 120.6 268.7 119.95 L269.05 118.9 269.1 118.45 269.2 118.25 269.4 117.8 269.7 117.4 269.8 116.95 269.95 116.1 269.95 115.85 270.2 115.2 270.55 114.1 270.65 113.9 270.85 113.7 271.0 113.45 271.1 113.25 271.15 113.05 271.2 112.6 271.3 112.4 271.5 112.15 271.65 111.95 271.7 111.75 271.7 111.5 272.95 109.55 273.45 108.5 273.6 108.05 275.2 105.85 276.0 104.8 276.55 104.35 276.7 104.15 276.9 103.7 277.0 103.5 277.2 103.3 277.8 102.85 278.5 101.95 Q278.9 101.55 279.45 101.3 L279.9 100.7 280.7 99.85 280.8 99.8 281.35 99.65 Q283.65 97.8 286.45 96.75 L287.05 96.4 Q288.2 96.2 289.15 95.65 L289.35 95.5 289.5 95.45 290.45 95.25 290.65 95.05 290.95 94.85 296.8 93.95 297.1 93.95 298.05 94.05 298.5 93.9 299.1 93.7 299.1 93.65 299.35 93.7 299.65 93.55 299.95 93.45 300.3 93.4 302.9 93.05 313.3 93.25 319.1 94.0 320.05 94.3 Q339.95 95.1 359.95 94.1 L365.2 94.0 373.85 93.85 Q382.15 93.6 390.45 93.95 L390.55 93.3 390.75 93.05 390.95 92.9 391.1 92.4 391.3 92.0 391.6 88.85 391.6 86.4 391.55 85.15 391.35 84.7 391.05 84.05 390.95 83.85 390.65 79.7 390.65 78.5 390.65 76.25 390.65 75.05 390.75 74.85 390.85 74.6 390.95 74.4 390.95 73.95 391.2 73.05 391.3 72.85 391.6 68.85 391.6 66.3 391.55 64.95 391.55 63.75 391.6 63.55 391.75 63.3 391.85 63.1 391.85 62.55 391.85 62.45 391.85 62.35 Q391.4 61.65 391.45 60.8 L391.5 60.3 391.45 59.6 391.55 58.8 Q390.75 57.5 390.85 56.05 L390.9 55.75 390.85 54.85 390.9 54.65 388.95 55.1 Q388.05 55.25 387.2 54.75 372.75 57.6 358.25 55.8 356.1 56.05 353.9 55.8 L346.45 54.9 Q338.1 53.9 329.65 54.6 L329.0 54.6 301.85 54.65 280.35 54.25 280.2 54.4 280.0 54.55 Q262.35 56.9 244.4 55.45 L232.3 54.05 224.2 53.6 218.7 53.45 218.35 53.5 218.2 53.55 217.85 53.65 217.7 53.85 217.5 54.05 217.35 54.1 217.0 54.2 216.5 54.0 216.3 53.9 205.5 53.6 Q194.1 52.45 182.8 53.2 173.55 53.8 164.3 53.55 L135.15 54.7 Q132.7 55.0 130.55 56.25 L129.45 57.0 129.4 57.35 129.3 57.8 129.0 58.0 128.65 58.25 128.65 59.3 128.65 60.85 128.65 61.05 128.55 61.25 128.45 61.5 128.35 61.7 128.35 66.9 128.35 68.2 128.35 71.7 128.45 71.9 128.55 72.15 128.65 72.35 128.65 73.45 128.65 74.95 128.65 75.15 Q129.15 78.25 128.95 81.45 L128.85 84.35 133.25 84.05 134.75 83.65 135.35 83.5 156.75 84.7 167.95 85.95 Q174.75 87.15 180.7 90.6 L181.2 91.0 181.7 91.2 182.2 91.3 182.7 91.45 183.0 91.65 183.15 91.8 Q183.9 91.85 184.55 92.25 L184.95 92.5 185.2 92.65 186.1 93.35 186.35 93.55 186.55 93.75 186.85 93.9 187.35 94.05 187.9 94.45 188.15 94.6 188.2 94.6 188.55 94.55 188.55 94.5 189.05 94.65 189.75 95.3 190.6 96.15 191.05 97.05 192.1 98.35 193.05 99.2 193.75 100.3 194.05 100.5 194.35 100.7 194.75 101.6 195.3 102.7 195.35 102.9 195.55 103.1 195.7 103.3 196.25 104.2 196.35 104.4 196.6 104.6 196.9 104.85 197.15 105.05 197.45 105.7 197.9 106.55 198.1 106.8 198.35 107.45 198.65 108.1 199.1 108.95 199.3 109.2 199.55 109.85 199.9 110.7 200.05 111.35 200.15 111.6 200.3 111.8 201.45 116.15 Q202.25 118.6 202.65 121.15 L202.95 121.8 203.2 122.65 203.3 123.3 203.4 123.55 203.55 123.95 203.6 124.4 204.0 125.7 204.4 127.45 204.45 127.85 204.55 128.1 204.65 128.3 204.75 128.5 204.75 129.85 204.75 131.35 204.75 132.0 204.65 132.2 204.55 132.45 204.45 132.65 204.45 132.85 204.45 133.3 204.45 133.75 Q203.9 135.85 203.95 138.1 L204.1 143.05 204.1 143.5 204.25 143.7 204.35 143.95 204.45 144.4 204.3 145.05 204.1 145.45 204.1 145.7 204.1 145.9 204.05 146.0 204.15 146.05 204.45 146.2 Q204.8 146.7 204.7 147.3 L204.15 148.6 204.15 151.45 204.15 154.25 Q204.65 157.2 204.55 160.35 L204.45 164.9 Q205.0 165.7 205.1 166.65 205.2 167.7 204.75 168.6 L204.8 174.25 Q204.8 176.45 204.45 178.6 204.9 181.1 204.6 183.8 L204.15 187.7 204.1 187.9 203.95 188.15 203.9 188.35 204.15 192.7 204.15 196.4 204.1 196.6 203.95 196.85 203.9 197.05 Q203.5 201.75 203.55 206.6 L203.6 213.3 203.65 213.55 203.8 213.75 203.9 213.95 203.95 215.5 203.95 215.95 Q204.35 217.8 204.05 219.85 L203.35 223.1 203.25 224.4 203.05 226.1 202.85 226.55 202.6 227.4 202.45 227.65 202.45 227.85 202.45 228.3 202.45 228.75 202.35 228.95 202.25 229.15 202.15 229.4 202.15 229.6 202.15 230.05 202.15 230.45 202.1 230.65 201.85 231.15 201.65 231.55 201.4 231.8 201.25 232.0 201.15 232.2 201.1 232.4 200.9 232.6 200.45 233.1 200.2 233.3 200.0 233.7 199.3 234.6 198.9 234.8 198.75 235.0 198.3 235.45 197.95 235.7 197.75 235.9 197.5 236.35 197.3 236.75 196.7 237.4 196.1 238.3 195.85 238.5 195.0 239.15 194.55 239.8 Q194.2 240.2 193.7 240.45 L193.4 240.9 192.6 241.75 192.3 241.95 191.6 242.2 191.4 242.4 191.05 242.65 190.8 242.85 190.65 243.05 190.5 243.3 187.0 245.7 186.75 245.8 186.4 245.9 185.95 246.05 185.8 246.25 185.65 246.45 185.45 246.6 184.95 246.75 183.8 247.1 Q181.3 249.15 178.45 250.6 L178.3 250.8 178.15 251.05 Q175.85 252.15 173.8 253.65 169.65 255.2 165.5 255.2 L165.4 255.35 Q161.3 256.9 156.75 256.5 L155.35 256.45 135.4 257.9 130.15 258.1 119.9 258.05 119.85 258.15 119.55 258.6 119.4 258.75 Q104.9 258.4 90.2 259.35 L76.85 259.9 63.9 258.75 57.6 257.65 57.45 257.4 45.95 256.75 40.25 256.1 Q21.65 254.8 2.8 255.85 L2.3 256.05 1.9 256.3 1.6 256.5 Q1.15 256.7 0.75 257.0 L0.65 257.15 0.6 257.35 0.5 257.55 0.2 257.8 0.0 257.95 -0.35 258.0 -0.85 257.9 -1.15 257.65 -1.35 257.45 -1.6 257.25 -1.65 257.0 -1.7 256.8 -2.05 256.7 -2.35 256.45 -2.55 256.25 -2.8 256.05 -2.85 255.8 -2.9 255.6 -2.95 255.35 -2.95 255.15 -2.95 254.95 -2.8 254.8 -2.85 254.6 -2.9 254.4 -2.95 254.15 -2.95 253.95 -2.95 253.75 Q-1.2 251.85 1.6 251.55 L10.3 251.15 29.1 250.55 46.7 252.0 58.0 253.25 58.1 253.45 58.2 253.6 75.8 255.0 Q82.85 255.15 89.9 254.75 L111.3 253.95 117.0 254.4 117.05 254.2 117.25 253.95 Q132.55 254.1 147.8 252.3 L161.15 251.3 163.4 250.85 163.9 251.0 Q169.9 250.1 175.2 247.2 L175.35 246.95 175.5 246.75 Q180.45 243.4 185.8 240.8 L186.85 239.85 Q187.25 239.55 187.75 239.3 L187.9 239.05 188.0 238.85 189.45 237.85 Q189.8 237.55 190.2 237.35 190.95 236.4 191.85 235.55 192.3 235.1 192.85 234.75 L193.95 233.35 194.55 232.35 195.8 231.0 196.65 230.4 196.95 229.95 197.8 229.1 197.9 228.85 197.95 228.65 198.0 228.45 198.1 228.25 198.5 227.8 198.75 227.55 198.8 227.35 198.8 226.9 198.8 226.25 198.9 226.05 199.0 225.8 199.1 225.6 199.1 225.4 199.1 225.15 199.1 224.75 199.2 224.55 199.3 224.3 199.4 224.1 199.4 223.85 199.4 223.65 199.45 223.45 199.6 223.2 199.65 223.0 199.7 222.8 199.75 222.35 199.95 221.9 199.95 221.8 199.95 220.85 Q199.9 220.0 200.3 219.3 L200.3 219.2 200.3 219.0 200.3 218.85 200.3 218.0 200.3 217.8 200.35 217.75 Q200.05 217.15 200.05 216.45 L200.15 215.95 200.05 215.25 Q200.1 214.45 200.5 213.75 L200.5 213.65 200.4 213.45 200.3 213.2 200.2 213.0 200.2 211.8 200.3 198.1 200.45 194.0 200.65 189.7 200.7 185.35 200.7 184.2 Q200.7 183.4 201.1 182.7 L201.1 182.15 201.1 180.95 201.1 180.2 201.1 179.0 201.15 178.8 201.3 178.55 201.35 178.4 201.35 178.35 201.2 174.35 201.15 170.7 201.15 170.1 Q201.15 167.65 201.6 165.35 L201.55 165.2 201.3 164.8 201.1 164.35 201.1 163.15 201.1 158.7 201.1 157.5 201.1 154.15 Q200.6 152.05 200.6 149.8 L200.6 149.3 200.6 148.6 200.75 146.8 Q200.25 144.65 200.35 142.4 L200.35 140.8 200.5 138.15 200.5 135.5 200.5 135.3 200.5 134.3 200.5 134.1 200.6 133.9 200.7 133.65 200.7 133.35 200.7 133.0 200.7 132.7 200.7 132.15 200.7 131.5 200.8 131.25 200.95 131.05 201.05 130.85 201.05 130.75 201.05 130.6 201.05 130.2 201.05 129.75 201.05 129.55 201.15 129.3 201.3 129.1 201.35 128.9 201.35 128.85 201.35 128.55 201.35 128.2 201.35 128.1 201.3 127.9 201.15 127.7 201.05 127.45 201.05 127.25 201.05 127.05 201.05 126.8 200.5 124.85 200.0 122.65 199.9 122.25 199.85 122.05 199.7 121.8 199.65 121.6 199.65 121.4 199.5 121.15 199.35 120.95 199.3 120.75 199.25 120.3 199.25 119.85 199.15 119.65 199.05 119.45 199.05 119.2 199.05 119.0 199.05 118.8 198.8 118.1 198.55 117.25 198.45 116.6 198.25 116.15 198.1 115.5 198.1 115.1 197.65 114.0 197.35 112.7 197.3 112.5 197.25 112.25 197.05 111.8 196.95 111.4 196.8 111.15 196.7 110.75 196.65 110.3 196.15 109.25 195.3 107.9 195.2 107.7 195.15 107.5 194.3 106.4 193.35 105.1 193.15 104.5 192.65 103.6 192.55 103.35 191.9 102.7 191.6 102.2 191.05 101.55 191.0 101.5 189.85 100.35 189.45 99.75 189.1 99.45 188.7 99.2 188.3 98.95 186.95 98.35 186.25 97.7 186.0 97.5 185.65 97.25 184.6 96.65 184.0 96.45 183.5 96.3 183.2 96.1 183.05 95.95 182.85 95.9 182.35 95.7 181.95 95.6 181.45 95.45 181.15 95.2 181.0 95.1 180.8 95.0 180.3 94.85 179.7 94.45 179.05 94.0 178.7 93.8 178.4 93.65 176.6 93.0 175.95 92.6 174.65 92.05 173.35 91.65 172.9 91.45 172.65 91.3 Q160.45 89.3 148.1 89.1 L147.2 89.0 Q138.4 87.6 129.55 89.05 L128.05 89.15 127.85 89.3 127.6 89.4 127.25 89.5 126.8 89.35 126.45 89.15 Q126.1 88.9 126.15 88.5 L126.2 88.3 126.05 88.3 125.6 88.15 125.25 87.95 Q124.9 87.7 124.95 87.3 L125.0 86.45 124.95 86.1 125.0 85.0 125.0 84.55 125.05 84.35 125.2 84.15 125.25 83.95 125.25 83.9 125.25 83.4 125.25 83.25 125.25 82.95 125.25 82.2 125.25 81.75 125.35 81.55 125.45 81.3 125.55 81.1 125.55 79.05 125.55 77.85 125.55 75.15 125.45 74.9 125.35 74.7 125.25 74.5 125.25 73.6 125.25 73.3 125.25 72.4 125.25 72.1 125.25 71.85 125.2 71.65 125.05 71.45 125.0 71.2 124.8 67.75 124.7 64.6 124.7 62.65 124.8 62.45 124.9 62.2 125.0 62.0 125.0 61.9 125.0 60.7 125.0 60.15 125.0 59.7 125.0 58.95 125.0 58.5 125.05 58.3 125.2 58.05 125.25 57.85 125.25 56.45 125.25 56.25 125.25 55.25 Q125.2 53.6 126.55 53.15 131.7 49.5 138.2 49.3 150.5 48.85 162.8 49.0 L181.9 49.05 183.45 48.95 187.15 48.45 Q195.95 48.25 204.75 48.85 L208.75 49.2 215.05 49.35 215.15 49.25 215.4 49.1 215.8 49.05 216.7 48.9 217.2 48.8 217.25 48.75 236.55 50.25 255.7 51.15 271.05 50.55 276.6 50.35 276.6 50.1 276.65 49.9 276.7 49.7 277.1 49.3 277.35 49.15 277.7 49.05 283.45 49.55 Q293.5 50.25 303.45 49.7 L306.35 49.65 Q317.3 50.0 328.3 49.7 L343.65 50.15 355.8 51.1 356.2 51.15 356.45 51.05 Q374.0 52.95 390.85 49.3 L391.25 49.35 M213.8 414.7 L213.85 414.7 213.8 414.7" fill="#ffffff" fill-opacity="0.47058824" fill-rule="evenodd" stroke="none"/>
  </g>
</svg>
