<?xml version="1.0" encoding="UTF-8" standalone="no"?>
<svg xmlns:xlink="http://www.w3.org/1999/xlink" height="487.25px" width="410.85px" xmlns="http://www.w3.org/2000/svg">
  <g transform="matrix(1.0, 0.0, 0.0, 1.0, -41.25, 5.85)">
    <path d="M55.0 -4.9 L55.65 -4.55 56.95 1.0 Q57.5 3.6 57.35 6.3 L57.75 7.2 Q58.05 8.0 57.95 8.9 L57.95 9.75 Q58.95 15.9 58.95 22.35 58.95 27.1 57.95 31.5 L58.05 34.5 Q58.25 36.65 57.35 38.45 L57.35 45.4 57.35 51.45 Q58.85 61.9 58.65 72.75 58.5 80.05 57.35 87.1 57.15 92.85 56.15 98.45 55.65 101.4 55.5 104.45 55.45 105.6 55.05 106.6 L55.1 107.05 55.2 107.5 55.65 108.35 55.65 111.4 55.65 115.3 55.45 115.75 55.2 116.2 55.05 116.6 55.1 117.45 54.85 119.2 54.45 120.1 Q54.7 125.15 54.25 130.1 53.9 133.9 52.75 137.45 52.9 141.65 52.4 145.7 51.95 148.9 52.15 152.2 L52.35 152.65 52.55 153.1 52.75 153.5 52.95 165.25 Q53.1 169.95 52.15 174.35 L52.2 174.8 52.3 175.25 52.75 176.1 Q52.25 181.5 52.2 186.95 52.15 191.15 52.75 195.2 L53.0 195.65 53.4 196.55 53.75 197.4 54.2 197.8 55.0 198.7 55.35 199.1 56.05 201.3 Q56.65 202.75 56.8 204.35 57.2 205.6 58.2 206.55 L60.25 208.7 Q67.4 210.1 74.85 210.45 L75.0 210.25 Q75.3 210.05 75.65 209.9 L76.6 209.55 78.2 209.8 79.05 209.75 80.1 209.65 92.4 209.2 93.4 209.05 93.4 208.95 Q106.65 209.25 119.9 209.2 L143.2 210.1 143.45 209.55 143.85 209.25 144.15 209.15 144.9 208.95 145.85 209.3 146.45 209.7 Q147.4 212.35 147.2 215.35 147.05 217.7 147.05 220.1 L146.7 221.0 146.15 222.7 145.9 223.15 146.0 225.75 Q146.15 227.4 145.3 228.8 L145.4 230.95 Q145.55 232.6 144.75 234.0 144.65 235.6 144.95 237.1 145.3 239.0 145.3 240.95 L145.15 241.35 144.95 241.85 144.75 242.7 Q145.7 248.15 145.7 254.0 145.7 258.05 144.75 261.8 L144.6 268.75 Q144.5 271.7 142.4 273.8 118.25 276.2 93.75 274.95 L88.7 275.15 Q72.8 277.05 56.75 277.3 L55.75 277.7 55.0 278.55 53.7 279.9 51.3 287.3 49.8 292.5 Q48.1 301.0 48.75 309.85 49.25 315.95 47.5 321.6 L47.5 325.05 47.5 328.95 47.3 329.4 47.05 329.85 Q47.5 332.1 47.15 334.55 46.75 336.95 46.9 339.4 L46.75 339.8 46.5 340.25 46.35 340.7 46.35 355.9 46.35 367.2 46.15 367.6 46.15 367.65 Q46.7 373.45 46.5 379.5 46.35 384.95 46.35 390.35 L46.15 390.8 45.95 391.25 45.75 391.65 45.65 395.55 Q45.5 397.8 46.2 399.9 L46.5 400.35 46.9 400.8 47.2 401.25 47.35 401.65 47.5 402.1 Q48.4 402.75 48.95 403.75 49.5 404.7 50.55 405.15 L51.05 405.6 51.25 406.0 51.4 406.45 Q59.05 413.65 69.1 412.85 L75.45 412.55 Q85.75 412.35 96.1 412.7 96.4 412.75 96.7 412.95 L96.95 413.4 97.85 413.45 98.45 413.5 Q118.0 413.45 137.95 413.7 L159.9 412.35 Q188.0 408.65 216.1 409.9 L249.8 411.55 251.3 411.45 Q257.55 410.55 261.8 406.1 L262.2 405.3 262.85 403.95 263.1 403.5 263.1 403.1 263.1 402.65 263.1 402.2 263.3 401.8 263.5 401.3 263.7 400.9 Q263.6 400.0 263.85 399.15 L264.85 396.55 264.8 395.7 Q264.75 394.8 265.05 394.0 L265.45 393.1 265.4 391.35 265.45 388.3 265.45 387.9 265.25 387.45 265.0 387.0 264.85 386.55 264.7 383.1 Q264.55 381.0 265.45 379.2 265.65 377.15 265.1 375.2 264.5 372.95 265.45 370.95 L265.45 363.55 265.45 356.6 265.25 356.2 265.0 355.75 264.85 355.3 264.85 345.75 264.85 337.95 265.0 337.5 265.25 337.05 265.45 336.65 265.45 332.7 265.45 327.95 265.35 327.8 264.9 327.6 264.3 327.25 Q263.6 326.75 263.6 325.95 L263.7 321.6 263.7 319.45 263.7 315.95 263.9 315.55 264.1 315.1 264.3 314.65 264.3 312.5 264.3 309.0 264.15 306.0 Q264.0 303.9 264.85 302.05 266.3 285.8 266.0 269.5 L265.4 226.05 Q265.2 211.45 266.25 196.95 266.6 192.2 266.6 187.4 L266.75 187.0 267.0 186.55 267.2 186.1 Q266.25 180.35 266.5 174.4 L267.15 152.25 Q267.15 151.25 267.75 150.5 L267.75 150.05 267.75 146.15 267.75 144.85 267.75 144.4 267.75 142.25 267.95 141.85 268.15 141.35 268.35 140.95 268.3 140.5 268.15 140.1 267.95 139.65 267.75 139.2 267.75 138.75 267.75 138.35 267.6 137.9 267.35 137.45 267.2 137.05 267.2 134.45 267.2 130.95 267.2 123.55 266.9 123.15 Q266.6 122.5 266.6 121.85 L266.6 119.65 266.75 119.25 267.0 118.8 267.2 118.35 267.2 117.95 267.1 114.9 Q267.05 113.75 267.5 112.75 L267.7 112.25 267.9 111.4 268.1 111.05 Q269.6 109.05 271.85 108.0 L272.8 107.65 278.0 107.9 279.6 108.35 279.75 108.6 280.05 108.25 Q293.75 108.05 307.6 109.0 335.3 110.85 362.7 109.1 L363.55 108.7 Q365.5 107.8 367.75 107.8 L368.9 107.85 Q373.6 108.3 377.0 107.05 384.55 106.4 392.0 107.45 L401.45 108.35 401.75 108.35 405.3 108.25 408.8 109.0 410.45 109.55 410.65 109.9 411.0 110.1 Q411.75 111.5 412.15 113.05 412.7 114.95 411.6 116.65 L411.6 122.25 Q411.65 124.95 411.0 127.5 L410.85 127.9 410.6 128.35 410.45 128.8 410.55 130.95 Q410.75 132.85 409.85 134.45 L410.4 134.65 411.0 135.0 Q411.45 135.6 411.55 136.3 411.75 137.5 411.0 138.5 L411.0 141.5 411.0 145.0 410.85 145.4 410.6 145.9 410.45 146.3 410.45 153.55 410.45 153.6 410.45 154.1 410.45 161.05 Q412.15 163.75 411.65 166.8 411.25 169.25 410.45 171.5 409.65 172.35 408.65 172.9 408.05 173.25 407.55 173.65 406.3 174.1 405.1 174.6 L404.35 174.95 Q377.65 176.15 350.8 176.5 L337.65 176.6 326.85 177.35 Q324.8 177.6 323.45 179.15 L323.35 179.6 323.2 180.05 322.75 180.45 321.9 181.35 321.45 181.75 321.3 182.2 321.15 182.65 320.85 183.5 320.45 183.95 320.15 184.35 320.2 185.65 Q320.25 186.8 319.8 187.85 L319.55 188.3 319.55 190.0 319.55 192.65 319.55 193.05 319.4 193.5 319.15 193.95 319.0 194.35 318.85 198.25 Q318.7 200.5 317.85 202.6 L318.0 203.05 318.25 203.5 318.4 203.9 318.1 216.5 317.25 226.05 317.1 226.5 316.85 226.95 316.65 227.35 Q315.8 232.05 315.55 236.9 315.4 240.45 314.35 243.85 L314.35 245.6 314.35 248.2 314.35 248.65 314.2 249.05 313.95 249.55 313.8 249.95 313.8 250.8 Q313.85 251.7 313.5 252.55 L313.35 253.0 313.4 253.4 313.6 253.85 313.8 254.3 Q314.25 262.5 314.3 270.8 L314.35 282.5 314.65 283.4 Q314.85 284.35 315.35 285.15 L315.5 285.55 Q315.5 287.75 315.9 289.85 316.35 292.0 316.1 294.25 L315.9 294.65 315.7 295.15 315.5 295.55 315.5 296.85 315.5 299.0 315.5 299.45 Q316.1 301.0 317.0 302.35 L318.1 304.5 318.3 304.95 318.4 305.4 318.4 305.55 318.4 305.8 Q322.8 308.25 328.35 309.85 330.25 310.4 332.0 311.3 L378.05 309.5 Q384.25 309.1 390.35 310.4 L396.7 311.0 400.6 311.15 401.6 312.1 402.35 313.35 402.3 313.75 402.2 314.2 402.05 314.65 401.75 315.1 Q400.95 315.75 400.0 315.85 400.0 322.25 400.4 328.65 400.7 333.6 400.0 338.65 401.05 340.95 400.4 343.45 399.75 345.75 400.0 348.2 L399.85 348.65 399.6 349.1 399.45 349.5 399.5 350.8 Q399.55 351.95 399.1 353.0 L398.85 353.45 Q398.6 362.8 399.15 372.5 399.55 378.85 398.35 385.05 L398.6 387.5 Q399.05 390.3 399.1 393.25 399.8 397.65 399.45 402.35 399.2 406.4 398.25 410.2 L398.3 414.1 398.25 418.0 Q399.5 429.2 398.75 440.6 398.25 448.2 398.25 455.8 L398.1 456.2 397.85 456.65 397.7 457.1 397.65 457.5 397.5 458.35 397.1 459.25 397.1 465.35 Q397.1 468.3 395.95 471.0 L395.95 471.4 395.95 471.85 395.95 472.7 395.8 473.15 395.55 473.6 395.4 474.0 395.4 475.75 395.4 478.35 395.2 478.8 394.6 479.6 394.2 479.95 393.9 480.05 393.2 480.25 392.2 479.9 391.6 479.5 Q390.65 477.8 390.7 475.6 390.7 473.5 391.6 471.7 L391.6 471.25 391.6 470.85 391.6 469.95 391.8 469.55 391.9 469.3 391.6 469.1 391.25 468.2 390.65 466.9 390.45 466.5 390.45 466.05 390.45 465.6 390.45 464.75 390.45 464.3 390.3 463.9 390.05 463.45 389.9 463.0 389.9 462.6 389.9 462.15 389.9 461.7 389.9 461.3 390.05 460.85 390.3 460.4 390.45 460.0 Q390.45 458.7 390.7 457.4 L391.05 453.9 391.2 453.5 391.45 453.0 391.6 452.6 391.7 451.75 392.1 449.95 392.2 449.1 392.35 448.7 392.6 448.25 392.75 447.8 392.75 447.4 392.75 446.95 392.75 446.1 392.75 445.65 392.95 445.25 393.2 444.75 393.35 444.35 393.35 443.45 Q393.35 442.8 393.65 442.2 L393.7 442.15 Q393.5 437.4 394.5 433.05 L394.5 430.0 394.5 424.35 394.35 423.95 394.1 423.5 393.95 423.05 393.95 422.65 393.95 422.2 393.95 421.75 Q392.8 419.75 392.8 417.4 L392.75 412.65 392.95 412.2 393.2 411.75 393.35 411.35 393.25 409.2 Q393.05 407.3 393.95 405.7 L393.95 405.25 393.95 404.8 393.95 404.4 393.95 403.95 394.1 403.55 394.35 403.05 394.5 402.65 394.5 394.85 394.5 391.35 394.35 390.95 394.1 390.5 393.95 390.05 393.95 388.3 393.95 386.6 393.95 386.3 393.9 385.25 Q393.1 383.85 393.05 382.25 393.0 380.5 394.05 379.2 L394.5 378.9 394.65 378.85 394.8 378.35 Q394.3 373.4 394.4 368.35 L394.5 360.55 Q393.2 357.35 394.2 353.95 395.05 351.25 395.1 348.35 L395.25 347.95 395.5 347.5 395.65 347.05 Q395.65 345.75 395.8 344.45 395.95 342.7 396.25 341.0 L396.05 340.55 395.85 340.1 395.65 339.7 Q396.0 331.85 395.75 324.05 L395.7 316.1 Q391.0 316.95 386.75 314.8 384.25 315.1 382.1 313.9 L378.2 314.05 335.5 315.6 Q329.75 315.75 324.4 313.4 L319.3 311.45 318.7 311.0 318.4 310.75 Q316.4 310.35 314.95 309.0 L313.65 307.7 313.55 306.8 313.55 306.0 313.45 305.7 313.35 305.25 313.05 304.85 312.2 303.9 311.9 303.5 311.8 303.05 311.75 302.65 311.75 302.2 311.6 301.8 311.35 301.35 311.15 300.9 311.15 297.85 311.15 293.95 311.35 293.55 311.6 293.1 Q311.35 291.9 311.25 290.5 L311.15 287.0 Q309.25 280.4 309.7 273.1 L310.0 263.1 Q309.15 261.55 309.3 259.65 L309.45 255.75 309.25 255.3 309.05 254.85 308.85 254.45 308.85 254.0 308.85 253.15 308.85 251.85 309.05 251.4 309.25 250.95 309.45 250.55 309.45 250.1 309.45 249.65 309.45 248.8 309.6 248.35 309.85 247.9 310.0 247.5 309.9 244.9 Q309.75 243.0 310.6 241.4 311.65 237.35 311.65 233.15 311.65 229.6 312.35 226.2 L312.5 225.8 312.75 225.35 312.9 224.9 312.85 223.6 Q312.8 222.5 313.25 221.45 L313.5 221.0 Q314.25 216.75 314.15 212.3 L314.05 205.35 313.9 204.95 313.65 204.5 313.5 204.05 313.45 202.75 Q313.35 201.65 313.8 200.6 L314.05 200.15 314.1 199.7 314.3 198.85 314.65 198.0 314.65 196.25 314.65 193.65 314.65 193.2 314.8 192.8 315.05 192.3 315.2 191.9 315.1 189.3 Q314.95 187.4 315.8 185.8 L315.85 184.1 Q315.9 182.65 316.8 181.5 L316.9 181.05 317.0 180.6 317.1 180.2 317.85 179.35 319.15 178.0 319.25 177.55 319.4 177.15 Q320.95 175.6 322.65 174.3 L324.5 172.8 Q343.4 171.05 362.5 172.6 365.15 172.85 367.85 172.5 385.5 170.15 403.2 170.5 L405.2 169.4 406.4 168.6 Q406.9 167.4 406.95 166.0 407.0 164.15 406.1 162.5 L406.1 154.7 405.8 154.4 Q405.4 153.35 405.45 152.25 L405.5 148.75 405.35 148.35 405.1 147.9 404.95 147.45 404.75 142.25 Q404.6 139.5 405.5 137.05 L405.5 135.75 405.5 133.55 405.5 133.15 405.7 132.7 405.95 132.25 406.1 131.85 406.0 129.65 Q405.8 127.8 406.7 126.2 L406.7 125.75 406.7 125.3 406.7 124.9 406.85 124.45 407.1 124.0 407.25 123.55 407.15 119.25 Q407.05 117.0 407.55 114.9 L407.05 113.25 406.95 113.05 404.8 113.0 403.8 112.95 402.95 112.95 401.9 113.15 Q378.9 110.15 356.1 113.75 L350.85 114.3 Q317.4 115.85 284.05 112.75 283.8 112.7 283.55 113.15 L283.1 113.45 282.8 113.55 282.1 113.75 281.1 113.35 280.5 113.0 280.1 112.55 279.9 112.15 279.75 111.7 279.5 111.25 279.05 111.7 278.75 111.8 273.85 112.3 272.8 112.7 272.4 113.15 272.1 113.6 271.7 114.45 271.5 114.9 271.5 115.3 271.6 117.9 Q271.65 119.3 271.25 120.55 L271.1 120.95 271.15 121.4 271.35 121.85 271.5 122.25 271.5 126.2 271.45 130.95 Q271.3 134.5 272.1 137.9 272.95 139.3 272.8 140.95 L272.45 144.45 Q272.1 148.1 272.1 151.8 L271.95 152.2 271.7 152.7 271.5 153.1 Q270.5 169.45 270.9 185.7 L270.8 191.3 Q269.25 213.05 269.4 234.75 269.55 256.55 270.2 278.2 L270.35 286.85 270.2 287.3 269.95 287.75 269.8 288.15 269.9 292.5 269.85 297.8 Q269.6 301.15 268.65 304.25 L268.65 308.15 268.5 312.9 268.05 319.85 268.15 320.25 268.45 320.75 269.05 321.6 269.15 322.05 269.0 324.65 269.0 324.7 Q270.35 328.35 270.25 332.45 270.15 336.05 269.2 339.4 L269.2 346.75 269.2 353.7 269.35 354.15 269.6 354.6 269.75 355.0 269.75 364.15 269.75 371.95 269.6 372.35 269.35 372.85 269.2 373.25 269.2 373.7 269.2 374.1 269.2 374.55 Q270.15 377.0 269.55 379.7 269.0 382.3 269.2 385.0 L269.35 385.4 269.6 385.85 269.75 386.3 Q270.1 391.4 269.3 396.3 268.65 400.05 267.45 403.65 266.5 409.25 261.6 412.25 259.3 413.65 256.75 414.65 243.4 419.35 229.3 416.2 223.15 414.8 216.8 414.6 182.8 413.65 148.75 417.75 131.95 419.8 114.9 418.05 105.65 417.1 96.7 418.15 L96.4 418.15 95.7 418.3 94.7 417.9 94.1 417.55 93.7 417.1 93.55 416.7 93.55 416.5 Q77.3 417.65 61.75 416.15 59.4 415.9 57.1 414.95 49.05 411.6 43.45 404.55 L43.3 404.1 43.2 403.7 43.15 403.25 42.85 402.85 42.45 402.35 42.15 401.95 Q41.1 398.85 41.25 395.45 L41.4 390.2 41.6 389.8 41.85 389.35 42.0 388.9 41.7 374.15 Q41.55 369.9 42.3 366.0 41.6 358.85 41.8 351.4 L42.0 339.25 42.15 338.8 42.4 338.35 42.55 337.95 42.5 336.65 Q42.45 335.5 42.9 334.5 L43.15 334.05 43.15 333.6 43.15 333.15 43.15 332.75 Q42.7 332.15 42.65 331.4 L42.55 329.25 42.55 328.8 42.75 328.4 42.95 327.95 43.15 327.5 43.15 324.5 43.15 320.55 43.3 320.15 43.55 319.7 43.7 319.25 43.7 318.85 Q43.65 318.15 43.9 317.55 L44.3 316.65 44.1 302.75 Q43.95 297.35 45.45 292.35 L45.45 291.9 45.45 291.45 45.45 291.05 45.65 290.6 45.85 290.15 46.05 289.75 Q46.6 285.65 48.05 281.8 49.0 279.25 50.25 276.7 52.45 273.8 55.8 273.4 L73.6 271.4 107.25 270.25 Q118.85 270.75 130.55 270.3 L139.65 269.45 139.8 269.05 140.0 268.6 140.4 267.75 140.4 264.25 140.4 260.35 140.55 259.95 140.8 259.45 140.95 259.05 140.8 248.65 140.4 240.8 140.55 240.4 140.8 239.9 140.95 239.5 140.95 239.05 140.95 238.65 140.95 237.75 Q140.25 236.8 140.3 235.6 L140.4 232.55 140.55 232.15 140.8 231.65 140.95 231.25 140.95 229.95 140.95 227.8 140.95 227.35 141.15 226.9 141.35 226.45 141.55 226.05 141.55 224.75 141.55 222.55 141.55 222.15 141.7 221.7 141.95 221.25 142.15 220.85 142.15 220.4 142.15 219.95 142.3 219.55 142.55 219.1 142.7 218.65 142.5 213.9 142.5 213.8 Q130.5 214.85 118.45 214.5 97.65 213.9 77.4 213.8 L77.05 214.3 76.45 214.7 75.45 215.05 73.7 214.5 72.7 214.2 Q65.25 215.55 58.25 213.0 L56.4 211.25 55.05 210.0 54.3 208.7 52.6 206.95 52.5 206.5 52.45 205.65 52.45 204.75 51.95 203.45 51.3 201.3 49.75 199.1 Q48.9 197.9 48.4 196.5 L48.4 196.1 48.4 195.2 48.4 193.9 48.2 193.5 48.0 193.05 47.8 192.6 47.75 184.35 Q47.7 180.8 48.4 177.4 47.6 176.25 47.6 174.8 47.55 173.15 48.4 171.75 L48.4 162.65 48.4 154.85 Q47.0 149.25 47.9 143.45 48.4 140.05 48.5 136.6 48.55 135.85 48.95 135.3 L49.6 125.3 Q49.75 121.45 50.7 117.9 L50.65 116.6 Q50.6 115.5 51.05 114.45 L51.3 114.0 51.3 112.25 51.3 109.65 Q50.5 108.5 50.5 107.05 50.45 105.4 51.3 104.0 L51.3 100.95 51.3 97.05 51.45 96.65 51.7 96.2 51.85 95.75 51.85 95.35 51.85 94.45 51.85 93.6 52.05 93.15 52.25 92.7 52.45 92.3 Q52.75 90.55 52.7 88.8 52.7 86.7 53.6 84.9 L53.6 81.85 53.6 77.95 53.75 77.55 54.0 77.05 54.2 76.65 54.2 68.85 54.2 61.9 54.0 61.45 53.75 61.0 53.6 60.6 53.6 57.55 53.6 53.65 Q52.6 48.8 52.6 43.65 52.65 39.8 53.6 36.25 L53.45 33.25 Q53.3 31.15 54.2 29.3 L54.2 19.75 54.2 11.95 53.8 11.05 Q53.5 10.25 53.55 9.35 L53.6 8.45 Q53.2 7.9 53.1 7.15 L53.0 5.0 53.0 4.55 52.85 4.15 52.6 3.7 52.45 3.25 51.95 -0.2 Q51.75 -2.2 52.0 -4.1 L52.5 -4.45 54.0 -5.2 54.05 -5.3 55.0 -4.9 M95.7 -5.85 L96.25 -5.8 97.25 -5.5 97.85 -5.1 98.25 -4.25 Q98.55 -3.4 98.45 -2.5 L98.45 -1.65 98.25 -1.25 98.05 -0.75 97.85 -0.35 98.0 4.0 Q98.2 6.3 97.3 8.35 97.4 25.3 97.95 42.2 98.3 53.25 97.3 63.95 97.2 72.65 96.3 81.25 95.65 87.3 95.55 93.45 L95.35 93.9 95.15 94.35 94.95 94.75 Q95.4 98.85 95.5 103.0 L95.55 109.95 Q96.5 117.2 96.2 124.75 96.0 129.6 95.2 134.25 L96.65 145.25 97.3 153.95 97.45 154.4 97.7 154.85 97.85 155.3 Q97.5 158.5 97.3 161.8 97.1 164.75 96.1 167.45 L96.05 169.9 111.9 169.4 132.75 168.45 148.0 169.75 Q150.75 170.05 153.6 169.7 165.15 168.25 176.6 170.5 L177.05 171.0 Q177.7 172.2 178.7 173.15 L179.3 173.95 179.75 174.85 179.95 175.2 180.85 176.6 181.1 177.0 182.2 179.15 182.35 179.6 182.35 180.05 182.35 180.45 182.35 180.9 182.35 181.35 182.35 181.75 182.55 182.2 183.3 183.95 183.6 184.8 183.95 185.7 184.1 186.1 184.25 186.55 184.8 187.85 184.95 188.3 185.7 189.6 185.8 190.0 185.85 192.2 185.85 193.05 185.85 193.95 185.85 194.35 185.8 195.65 185.7 196.1 185.5 196.75 185.85 196.95 186.35 198.25 Q186.55 199.45 185.85 200.45 186.1 203.1 185.6 205.7 185.15 208.0 185.25 210.4 L185.1 210.85 184.85 211.3 184.7 211.7 Q184.1 220.2 185.85 228.35 187.05 234.05 187.0 239.95 L186.8 240.35 186.55 240.8 Q187.6 245.55 186.9 250.45 186.4 254.05 186.4 257.75 L186.25 258.15 186.0 258.65 185.85 259.05 185.85 261.25 185.85 264.25 185.65 264.7 185.45 265.15 185.25 265.55 Q185.25 267.3 185.6 268.95 186.05 270.9 185.85 272.95 L185.65 273.35 185.45 273.85 185.25 274.25 Q184.5 279.4 184.25 284.65 184.05 288.55 184.1 292.5 L183.95 292.9 183.7 293.4 183.5 293.8 Q183.65 295.4 183.3 296.95 L183.5 297.15 183.9 298.0 Q184.2 298.85 184.15 299.75 L184.1 300.6 Q181.3 306.65 175.8 310.75 L170.5 314.5 Q158.25 315.05 146.05 314.75 136.7 314.5 127.65 316.4 115.0 319.0 102.65 315.7 95.6 313.8 88.45 315.35 L88.25 315.8 88.05 316.25 87.85 316.65 88.0 316.8 Q89.0 320.95 88.75 325.5 L88.6 332.4 88.4 332.85 88.2 333.3 88.0 333.75 Q87.25 344.3 88.65 355.0 89.55 361.85 89.15 368.9 L89.4 369.35 89.55 369.8 89.75 370.65 Q106.85 375.7 125.15 373.85 L134.3 373.1 Q156.6 371.7 179.05 372.4 L187.15 372.4 Q208.3 371.85 228.8 373.3 L228.6 373.1 227.4 371.4 227.3 370.5 227.25 368.8 227.25 367.9 Q226.55 366.95 226.6 365.75 L226.7 362.25 226.5 361.85 226.25 361.4 226.1 360.95 Q226.1 352.7 225.55 344.5 225.15 338.5 225.5 332.3 L225.7 331.9 225.95 331.4 226.1 331.0 226.1 330.15 226.1 328.4 226.1 327.55 226.25 327.1 226.5 326.65 226.7 326.25 226.65 324.95 Q226.55 323.8 227.0 322.75 L227.25 322.3 227.1 317.1 Q226.9 314.35 227.85 311.9 L227.7 308.45 Q227.5 306.3 228.4 304.5 L228.4 302.8 228.4 300.15 228.4 299.75 228.6 299.3 228.8 298.85 229.0 298.45 Q229.0 290.6 228.65 282.8 228.4 277.2 228.4 271.5 L228.25 271.1 228.0 270.6 227.85 270.2 227.85 266.75 227.85 262.8 227.65 262.4 227.45 261.95 227.25 261.5 227.25 254.15 227.25 247.2 227.1 246.75 226.85 246.3 226.7 245.9 226.7 243.7 226.7 240.65 226.7 240.25 226.85 239.8 227.1 239.35 227.25 238.95 227.25 238.5 227.25 238.05 227.25 237.2 227.45 236.8 227.65 236.3 227.85 235.9 227.85 235.45 228.05 234.6 228.4 233.7 228.4 231.55 228.4 228.5 228.6 228.1 228.8 227.65 229.0 227.2 229.0 226.8 229.0 226.35 228.8 225.9 228.6 225.45 228.4 225.05 228.4 222.85 228.4 219.85 228.4 219.4 228.25 218.95 228.0 218.5 227.85 218.1 227.85 215.9 227.85 212.9 227.65 212.45 227.45 212.0 227.25 211.6 227.0 199.45 Q226.8 194.65 228.4 190.3 L228.4 185.1 228.4 179.85 228.6 179.45 228.8 179.0 229.0 178.55 229.0 172.9 229.0 167.3 228.8 166.85 228.6 166.4 228.4 166.0 228.4 165.55 228.4 165.1 228.4 164.25 Q227.8 163.45 227.85 162.5 L227.85 159.9 227.85 159.45 Q226.9 156.8 227.1 153.8 L227.25 148.6 227.45 148.2 227.65 147.7 227.85 147.3 227.65 142.55 Q227.5 140.0 228.4 137.75 229.5 133.7 229.55 129.5 L229.55 122.55 229.4 122.15 229.15 121.65 229.0 121.25 229.0 119.5 229.0 116.9 228.8 116.5 228.65 116.05 228.4 115.9 228.0 115.45 227.85 115.05 227.75 114.6 227.65 114.2 227.4 113.7 227.25 113.3 227.25 111.55 227.25 111.1 227.25 109.8 227.25 109.4 227.25 108.1 227.25 107.2 227.25 106.35 227.25 105.5 227.25 104.6 227.25 104.2 Q227.2 103.5 227.5 102.85 L227.75 102.0 227.8 101.55 227.8 101.15 227.8 100.7 227.8 100.25 227.8 99.85 227.8 99.4 228.0 99.0 228.2 98.5 228.4 98.1 228.4 97.65 228.4 96.35 228.4 95.9 228.4 95.5 228.55 95.05 228.7 94.65 228.85 94.15 Q228.95 93.5 229.3 92.9 L229.55 92.45 229.55 92.0 229.8 90.7 230.0 90.3 230.1 89.85 230.25 89.4 230.4 89.0 230.55 88.55 Q230.8 87.9 230.7 87.25 L230.75 86.8 230.85 86.35 231.0 85.95 231.45 84.65 231.6 84.2 231.85 83.75 231.85 83.35 231.9 82.9 232.0 82.45 232.2 82.05 232.45 81.6 232.45 81.15 232.45 80.7 232.45 80.3 232.85 79.4 233.35 78.6 233.7 78.1 234.3 77.25 234.5 76.85 234.9 76.4 236.25 75.15 237.05 74.65 238.65 73.75 239.65 73.05 Q245.2 71.2 250.95 70.8 256.2 70.4 261.4 69.15 269.2 67.25 277.5 67.9 L283.25 67.7 324.35 70.0 Q344.35 70.4 364.3 69.05 385.3 67.7 406.4 68.9 L426.0 70.2 Q429.25 70.45 432.5 71.25 L436.5 72.05 437.05 72.5 437.5 72.9 437.95 73.35 438.35 73.8 438.95 74.05 439.95 74.35 440.5 74.8 441.4 75.65 441.8 76.1 442.15 76.5 442.7 77.0 443.15 77.4 443.55 77.85 443.85 78.25 444.45 78.65 445.3 79.15 445.8 79.6 446.05 80.0 446.15 80.45 446.6 80.85 447.0 81.3 447.3 81.75 447.5 82.15 447.8 82.6 448.2 83.05 448.35 83.45 448.65 84.8 448.65 85.2 448.65 85.65 448.65 86.05 448.8 86.5 448.95 86.95 449.2 88.25 449.2 88.7 449.2 89.1 449.05 89.55 448.65 90.4 448.65 90.85 448.65 91.3 448.65 91.75 448.65 92.15 448.65 92.6 448.8 93.0 449.25 93.9 449.45 94.35 449.65 94.75 449.75 95.2 449.8 95.65 449.8 96.05 449.8 96.5 449.8 97.35 450.05 97.8 450.3 98.7 450.45 99.1 450.65 99.55 450.85 99.95 451.1 100.4 451.5 100.85 451.8 101.3 451.95 101.7 452.05 102.15 452.1 102.6 452.1 103.0 452.05 103.45 451.95 103.9 451.8 104.3 451.65 104.75 451.5 104.9 451.5 105.3 451.8 105.75 452.1 107.05 452.1 107.9 451.9 108.35 451.7 108.8 451.5 109.2 451.5 112.7 451.5 116.6 451.35 117.0 451.1 117.45 450.95 117.9 Q451.0 119.65 451.35 121.4 451.85 123.45 450.95 125.3 L451.15 131.8 Q451.3 134.75 450.35 137.45 L450.35 141.8 450.35 146.1 450.2 146.55 449.95 147.0 449.8 147.45 449.95 155.25 Q450.1 158.85 449.2 162.2 L449.5 163.55 Q449.8 164.65 450.35 165.65 450.15 172.9 450.25 180.0 450.3 185.0 449.8 190.0 L449.6 190.4 449.4 190.85 449.2 191.3 449.1 192.6 448.05 195.2 Q447.25 199.85 445.15 204.05 443.7 206.95 441.1 209.1 433.95 213.2 425.75 210.7 413.15 210.9 400.6 213.0 386.1 216.5 371.65 212.3 L370.05 212.1 369.05 211.85 368.45 211.4 368.15 211.1 356.25 210.7 356.45 211.15 356.55 211.55 356.6 212.0 356.4 212.4 356.15 212.85 355.85 213.3 355.45 213.6 355.15 213.7 354.3 214.05 Q352.7 221.3 352.9 228.8 L353.1 241.4 353.3 241.8 353.5 242.25 353.7 242.7 353.7 243.55 353.7 245.3 353.7 246.6 Q354.65 249.9 354.65 253.55 L354.85 261.35 354.7 261.8 354.45 262.25 354.3 262.65 354.05 265.25 Q353.75 266.95 353.7 268.75 L353.7 269.45 Q359.1 268.45 364.65 270.2 365.4 270.4 366.15 270.75 396.05 274.45 426.05 275.25 L426.65 275.7 427.95 276.6 428.5 277.0 432.05 281.15 Q433.25 282.75 434.9 283.95 L435.15 284.8 435.35 286.55 435.3 287.85 436.2 289.5 Q436.7 290.95 436.5 292.65 L436.45 293.05 437.35 294.8 Q437.95 296.3 438.2 297.85 L438.2 298.3 Q439.2 303.55 439.0 309.15 438.75 314.45 439.95 319.55 441.05 326.6 440.3 333.9 439.65 340.1 439.95 346.5 L439.75 346.9 439.55 347.35 439.35 347.8 439.35 348.2 439.35 348.65 439.35 349.5 439.35 349.95 439.2 350.4 438.95 350.85 438.8 351.25 438.85 353.85 Q438.9 355.85 438.5 357.75 L438.2 358.65 438.2 359.95 438.2 362.55 438.2 363.85 438.05 364.3 437.8 364.75 437.65 365.15 437.65 370.35 437.65 376.9 Q438.6 380.65 438.6 384.7 438.6 389.2 437.65 393.4 L437.65 395.1 437.65 398.15 437.65 399.05 437.45 399.45 437.25 399.9 437.05 400.35 Q437.65 403.55 437.85 406.85 L437.85 406.9 437.9 407.0 438.05 407.45 438.2 407.85 438.15 408.3 438.05 408.7 437.9 409.15 437.65 411.7 437.65 417.85 Q437.7 421.15 438.2 424.35 439.25 431.65 438.9 439.15 438.65 444.5 437.65 449.55 438.35 456.2 438.6 463.0 L438.8 472.55 438.6 473.0 438.35 473.45 438.75 476.05 438.8 479.5 438.6 479.95 438.0 480.8 437.65 481.1 437.35 481.25 436.6 481.4 435.65 481.05 435.05 480.7 Q434.3 480.2 434.35 479.35 L434.45 477.2 434.45 476.75 Q433.65 475.6 433.65 474.15 433.6 472.3 434.45 470.7 L434.45 466.8 434.45 462.45 434.25 462.0 434.05 461.55 433.85 461.15 433.85 456.8 433.85 452.45 Q433.45 451.85 433.4 451.15 L433.3 448.95 433.3 448.55 433.45 448.1 433.7 447.65 433.85 447.25 Q434.3 435.35 433.45 423.8 433.1 419.2 433.1 414.45 L432.95 414.2 432.75 413.35 Q432.7 412.55 433.15 411.9 L433.25 409.4 432.75 405.2 Q432.1 401.35 433.3 397.75 L433.25 395.55 Q433.2 393.8 433.55 392.1 L433.85 391.2 433.85 386.0 433.85 379.05 Q432.85 373.35 433.2 367.3 433.45 361.8 434.45 356.45 434.15 350.45 434.9 344.65 435.6 339.3 435.6 333.9 L435.8 333.45 436.0 333.0 436.2 332.6 436.2 327.8 436.2 321.75 435.9 321.3 435.75 320.85 435.65 320.0 435.6 319.55 435.45 319.15 435.2 318.7 435.05 318.25 Q434.45 314.15 434.45 310.0 L434.45 300.9 434.25 300.45 434.05 300.0 433.85 299.6 433.85 299.15 433.85 298.7 Q433.55 298.05 433.4 297.4 433.05 296.05 432.3 294.8 L432.15 294.35 432.15 293.95 432.15 293.5 432.15 292.65 432.15 292.2 431.95 291.75 431.7 290.85 Q431.5 290.0 430.95 289.15 L430.95 288.7 430.95 288.3 430.95 287.4 430.95 287.0 Q430.7 286.2 430.0 285.65 428.75 284.6 428.2 283.1 L427.1 282.15 425.35 280.45 Q425.1 280.25 424.85 280.15 L422.9 279.5 422.3 279.15 Q385.9 278.6 349.95 273.4 348.95 270.6 349.35 267.3 349.75 263.75 350.5 260.35 L350.5 259.9 350.5 259.5 350.5 259.05 350.5 258.6 Q349.55 255.5 349.6 252.1 349.65 248.2 349.35 244.3 L349.2 243.85 348.95 243.4 348.8 243.0 348.8 240.35 348.8 236.45 348.8 235.6 348.6 235.2 348.35 234.7 348.2 234.3 348.4 225.6 Q348.6 220.95 349.35 216.5 L349.3 215.6 Q349.25 214.7 349.55 213.9 L349.95 213.0 349.95 212.6 349.95 212.15 349.95 211.7 350.1 211.3 350.5 210.95 350.5 210.55 350.5 210.1 Q351.05 208.65 352.5 207.85 L354.55 206.35 Q366.75 205.3 378.85 208.4 389.25 211.1 399.4 208.75 417.05 204.75 435.0 206.9 L437.35 205.8 438.65 205.35 Q439.7 204.45 440.3 203.2 L440.95 201.0 Q442.25 199.7 442.7 198.0 L443.7 194.9 Q443.6 194.25 443.8 193.6 444.25 192.25 444.85 191.0 L444.85 190.55 444.85 190.15 444.85 189.7 445.05 189.3 445.25 188.8 445.45 188.4 445.45 187.95 445.45 187.5 445.6 187.1 445.85 186.65 446.0 186.2 445.9 183.2 Q445.7 181.1 446.6 179.25 445.85 176.1 445.95 172.75 L446.0 167.1 445.85 166.7 445.6 166.25 445.45 165.8 445.45 165.4 445.45 164.95 445.25 164.5 445.05 164.05 444.85 163.65 Q445.45 158.9 445.45 154.1 L445.45 146.25 445.6 145.85 445.85 145.4 446.0 144.95 Q446.2 136.7 446.7 128.45 447.05 122.6 446.6 116.75 L446.75 116.3 447.0 115.85 447.2 115.45 447.2 111.95 447.2 108.05 447.35 107.65 447.6 107.2 447.35 106.75 447.2 106.3 447.15 104.6 Q447.1 103.7 447.2 102.85 L447.15 102.75 446.95 102.3 446.7 101.85 446.45 101.4 446.15 101.0 446.05 100.55 446.0 100.15 445.85 99.7 445.6 99.25 445.45 98.8 445.45 98.4 445.45 97.95 445.45 97.5 445.45 97.1 445.3 96.65 445.05 96.2 444.9 95.75 444.85 95.35 444.7 94.9 444.45 94.45 444.3 94.05 444.3 93.6 444.3 92.3 444.3 91.85 444.3 91.45 444.3 91.0 444.3 90.55 444.25 90.15 Q444.2 89.45 444.45 88.85 L444.6 88.4 444.45 87.95 444.35 87.5 444.3 87.1 444.3 86.65 444.3 86.2 444.3 85.8 444.3 85.35 444.0 84.9 443.25 83.65 442.85 83.2 442.4 82.8 441.7 82.3 441.0 81.85 440.55 81.45 439.25 80.15 438.8 79.7 438.4 79.25 438.05 78.85 438.0 78.6 437.75 78.45 436.75 78.1 436.2 77.65 435.75 77.25 435.3 76.85 434.45 76.4 Q420.35 72.5 405.5 72.9 L380.05 73.5 Q361.15 73.9 342.25 74.6 L338.2 74.55 321.45 74.2 283.05 72.95 276.85 72.75 Q258.05 72.7 239.95 77.95 L239.5 78.35 238.8 78.85 238.4 79.3 238.1 79.7 237.75 80.15 237.4 80.6 237.2 81.0 236.95 81.45 236.8 81.9 236.7 82.75 236.45 83.6 236.3 84.05 235.95 85.35 235.75 85.8 235.35 87.1 235.2 87.55 235.1 88.4 Q235.15 89.05 234.85 89.7 L234.55 90.6 234.45 91.0 233.9 92.3 233.9 92.75 233.6 94.05 233.45 94.5 233.3 94.9 233.15 95.35 233.0 95.8 232.85 96.2 Q232.65 96.85 232.7 97.5 L232.75 97.95 232.75 98.4 232.75 98.8 232.75 99.25 232.55 99.65 232.3 100.15 232.15 100.55 232.15 101.0 232.15 101.85 232.15 102.3 232.15 102.75 232.1 103.15 232.0 103.6 231.85 104.0 231.55 104.45 231.55 104.9 231.55 106.2 231.55 106.65 231.55 107.05 231.55 107.5 231.55 107.95 231.55 108.35 231.55 109.7 231.55 110.1 231.55 110.55 231.55 110.75 232.35 111.95 Q232.8 113.0 232.75 114.15 233.45 115.1 233.4 116.35 L233.35 119.8 233.5 120.2 233.75 120.7 233.9 121.1 233.85 127.2 Q233.8 130.3 234.5 133.25 233.45 134.9 233.2 136.8 232.95 138.6 232.2 140.2 L232.2 144.1 232.2 148.45 232.0 148.9 231.75 149.35 231.6 149.75 Q231.3 153.95 231.8 158.05 L232.75 164.95 233.15 165.85 Q233.45 166.65 233.35 167.55 L233.35 168.45 233.5 168.85 233.75 169.3 233.9 169.75 Q233.15 172.25 233.25 174.95 L233.35 180.15 233.15 180.6 232.95 181.05 232.75 181.45 Q233.0 189.85 232.2 198.05 231.6 204.05 231.6 210.15 L231.75 210.55 232.0 211.0 232.2 211.45 232.2 213.6 232.2 216.65 232.2 217.1 Q233.0 218.45 232.9 220.15 232.75 222.05 232.75 224.05 233.35 224.8 233.35 225.75 L233.35 228.35 233.35 228.8 233.15 229.2 232.95 229.7 232.75 230.1 232.7 233.15 232.2 237.05 232.0 237.45 231.75 237.95 231.6 238.35 Q231.75 239.7 231.35 241.0 230.85 242.65 231.0 244.45 232.0 248.6 231.8 253.15 L231.6 260.5 Q232.5 262.5 232.35 264.85 232.2 267.0 232.2 269.2 233.5 277.9 233.4 287.0 L233.35 299.6 233.15 300.0 232.95 300.45 232.75 300.9 Q232.75 302.2 232.9 303.5 233.05 305.4 232.2 306.95 L231.7 318.7 231.0 327.8 230.85 328.25 230.6 328.7 230.45 329.1 Q229.45 338.0 230.05 346.95 230.45 353.2 230.45 359.5 L230.6 359.95 230.85 360.4 231.0 360.8 Q231.05 363.0 231.45 365.1 231.85 367.25 231.6 369.5 L232.05 370.35 232.65 371.7 232.75 372.1 232.6 372.55 232.45 373.0 232.3 373.4 232.15 373.55 232.4 374.0 232.55 374.4 232.7 375.25 232.55 375.7 231.95 376.55 231.55 376.85 Q205.7 377.7 179.45 377.3 160.95 376.95 142.4 377.45 L105.5 378.2 Q96.2 378.35 87.85 374.85 L87.0 375.05 85.85 375.4 84.85 375.05 84.25 374.7 Q83.45 374.05 83.55 372.95 L83.65 370.35 83.85 369.95 84.05 369.45 84.25 369.05 84.25 366.45 84.25 362.95 84.05 362.55 83.85 362.1 83.65 361.65 83.65 361.25 83.65 360.35 83.65 359.5 83.85 359.05 84.05 358.6 84.4 357.75 Q84.5 354.0 84.05 350.35 83.65 347.35 83.65 344.3 82.75 342.05 82.95 339.5 L83.1 335.15 83.25 334.75 83.5 334.3 83.65 333.85 83.65 333.45 83.65 333.0 83.65 332.15 83.85 331.7 84.05 331.25 84.25 330.85 84.2 323.45 84.25 320.65 83.65 320.3 Q82.85 319.65 82.95 318.55 L83.1 315.95 Q84.5 311.65 88.85 310.9 96.7 309.5 104.4 311.25 118.0 314.35 131.8 311.2 137.05 310.0 142.55 309.8 154.5 309.4 166.45 310.25 169.9 310.45 172.2 308.05 L173.7 306.95 Q174.3 305.95 175.1 305.1 176.0 304.1 177.15 303.5 L178.15 302.2 178.7 301.4 Q178.25 300.45 178.3 299.3 178.3 297.4 179.2 295.85 L179.2 294.95 179.2 293.2 179.2 292.35 179.35 291.95 179.6 291.45 179.75 291.05 179.65 288.45 Q179.5 286.8 180.35 285.4 L180.15 280.2 Q180.0 277.45 180.9 275.0 L180.9 274.1 Q180.85 273.2 181.25 272.4 L181.5 271.95 181.3 271.5 181.1 271.05 180.9 270.65 180.8 267.15 Q180.6 265.05 181.5 263.25 L181.5 261.1 181.5 258.05 181.5 257.6 181.65 257.2 181.9 256.75 182.05 256.3 181.9 251.95 Q181.75 249.4 182.65 247.2 L182.65 246.3 182.65 244.6 182.65 243.7 182.5 243.3 182.25 242.85 182.05 242.4 182.05 241.55 Q182.0 240.65 182.25 239.8 L182.65 238.95 182.65 236.75 182.65 233.7 Q181.95 232.75 182.0 231.55 L182.05 228.5 181.15 225.9 Q180.8 224.4 180.9 222.85 L180.75 222.45 180.5 222.0 180.35 221.55 180.15 215.05 Q179.95 212.05 180.9 209.4 180.65 206.5 181.15 203.7 181.55 201.55 181.55 199.3 L181.5 199.3 181.15 198.8 Q180.85 198.2 180.9 197.55 L180.9 196.7 180.95 196.25 181.05 195.8 181.25 195.4 181.5 194.95 181.5 194.5 181.5 193.65 181.5 192.75 181.5 192.35 181.5 191.9 181.5 191.45 181.35 191.05 180.7 189.7 180.35 188.85 180.2 188.45 180.05 188.0 179.9 187.55 179.6 187.1 179.35 186.7 179.2 186.25 178.95 185.4 178.65 184.5 178.45 184.1 178.2 183.65 178.05 183.2 178.05 182.8 178.05 182.35 178.05 181.9 178.05 181.5 178.05 181.05 177.85 180.65 176.95 178.9 176.7 178.45 176.05 177.55 175.55 176.7 175.25 176.3 174.35 175.0 174.0 174.55 173.1 174.3 162.4 173.65 Q150.8 176.25 139.95 173.15 136.1 172.1 132.05 172.65 L112.45 174.0 Q104.4 173.9 96.4 174.25 L95.85 174.4 94.1 174.6 93.75 174.75 92.8 175.1 91.8 174.75 91.2 174.4 Q90.4 173.7 90.7 172.7 L91.8 170.05 91.65 167.45 Q91.55 165.8 92.35 164.4 L92.35 163.95 92.35 163.55 92.35 163.1 92.55 162.65 92.75 162.2 92.95 161.8 92.95 160.5 92.95 158.3 92.95 157.9 93.1 157.45 93.35 157.0 93.25 155.2 Q92.95 153.75 92.95 152.25 L92.75 151.8 92.55 151.35 92.35 150.95 92.35 150.5 92.35 149.65 92.35 148.75 92.2 148.35 91.95 147.9 91.8 147.45 Q91.95 143.5 91.5 139.6 91.1 136.35 91.35 133.15 L91.45 133.05 Q90.85 127.75 91.35 122.15 L91.8 112.15 Q91.2 105.25 91.05 98.25 90.9 93.05 91.2 87.8 L91.35 87.4 91.6 86.95 91.8 86.5 91.8 85.2 91.8 83.05 91.8 82.6 91.95 82.2 92.2 81.7 92.35 81.3 92.35 77.85 92.35 73.9 92.55 73.5 92.75 73.05 92.95 72.6 92.75 67.0 Q92.6 64.2 93.5 61.75 93.95 44.7 93.1 27.9 92.5 16.85 93.5 6.15 L93.5 0.55 Q93.45 -2.15 93.65 -4.7 L94.1 -5.1 94.7 -5.5 95.7 -5.85" fill="#006600" fill-opacity="0.2" fill-rule="evenodd" stroke="none"/>
  </g>
</svg>
