<?xml version="1.0" encoding="UTF-8" standalone="no"?>
<svg xmlns:xlink="http://www.w3.org/1999/xlink" height="479.95px" width="640.0px" xmlns="http://www.w3.org/2000/svg">
  <g transform="matrix(1.0, 0.0, 0.0, 1.0, 0.25, 2.35)">
    <path d="M32.25 -1.15 Q28.95 9.15 29.25 20.5 29.85 43.25 29.4 66.0 29.25 72.6 30.65 78.25 L31.75 112.3 31.8 113.3 32.9 125.2 Q33.6 151.65 33.65 175.6 L33.65 175.65 Q33.65 192.9 34.3 210.15 L34.3 210.35 Q34.9 223.75 34.4 234.85 L34.4 234.55 Q33.95 240.2 35.8 246.55 L36.0 247.25 Q40.25 260.4 53.1 266.2 L53.5 266.35 55.7 267.3 Q59.45 269.55 67.2 269.75 L72.95 269.65 73.25 269.65 Q86.05 268.8 94.1 269.6 L96.95 269.7 115.4 269.1 115.55 269.05 Q121.5 268.8 123.35 268.9 L123.4 268.9 Q125.45 269.1 129.05 268.9 L129.05 291.1 129.05 297.5 112.9 298.05 112.45 298.1 Q101.25 298.65 91.3 298.7 L71.4 299.95 Q64.6 300.8 59.75 305.65 48.55 316.85 51.25 323.7 L51.25 371.4 Q51.25 385.5 52.6 399.5 53.35 407.15 59.1 412.4 64.8 417.6 72.45 417.6 L121.4 417.7 121.45 417.7 121.5 442.35 121.5 442.4 121.5 449.15 121.5 477.6 -0.25 477.6 -0.25 -2.35 31.9 -2.35 Q31.95 -1.5 32.35 -1.35 L32.25 -1.15 M71.85 -2.35 L275.9 -2.35 275.85 1.15 275.6 49.9 275.6 49.95 Q275.55 56.6 275.9 60.95 L275.95 61.25 Q276.3 66.45 277.5 71.5 L277.55 71.6 Q279.55 88.95 301.2 90.7 L312.25 91.05 321.05 90.75 321.15 90.7 Q334.8 89.85 352.85 90.0 L378.85 90.05 378.75 121.6 378.8 159.65 370.3 159.2 370.45 159.2 341.8 158.3 325.55 157.9 325.4 157.85 317.85 157.4 317.65 157.4 Q292.9 156.8 268.25 156.85 L254.4 156.75 Q254.4 135.55 254.75 119.25 255.1 101.6 255.55 89.6 256.65 77.25 254.4 71.25 248.35 50.8 231.05 53.35 218.2 52.25 203.7 53.55 L203.8 53.55 194.2 53.95 194.05 53.95 Q171.0 53.95 147.3 53.55 139.2 53.4 133.3 58.95 127.35 64.5 127.0 72.6 126.5 82.3 126.5 89.0 L126.5 137.95 Q126.5 156.4 127.1 174.95 L127.1 175.0 127.05 180.2 127.05 180.4 Q126.95 185.2 127.55 200.25 L127.5 200.2 128.55 226.6 128.6 228.8 125.95 229.0 Q123.1 228.75 113.95 229.1 L114.1 229.1 96.9 229.7 Q87.8 228.85 74.55 229.5 74.75 219.7 74.25 208.55 L74.25 208.75 Q73.65 192.15 73.65 175.6 L73.65 175.55 Q73.6 150.85 72.85 123.5 L72.75 122.05 71.65 110.1 70.55 74.8 Q70.45 72.1 69.65 69.45 69.35 68.25 69.4 66.8 69.85 43.15 69.25 19.45 L69.25 19.35 Q69.1 15.1 70.3 11.25 71.4 9.65 71.85 -1.55 L71.85 -2.35 M315.9 -2.35 L639.75 -2.35 639.75 477.6 237.2 477.6 237.3 447.8 240.65 447.8 289.6 447.8 289.65 447.8 Q314.25 447.75 338.95 447.3 350.7 447.1 364.55 449.1 L374.35 450.75 Q391.65 452.3 409.65 451.6 L417.85 450.6 417.9 450.6 Q430.7 451.9 437.5 429.75 L438.15 426.65 Q439.0 420.4 438.85 420.2 L438.85 420.0 438.85 410.35 438.85 410.1 438.85 361.3 438.85 361.25 438.95 323.15 439.1 296.2 439.1 296.15 439.15 271.85 439.15 271.75 Q439.1 258.9 438.1 251.45 435.55 232.0 418.85 226.65 L418.8 226.65 Q408.6 222.95 400.9 224.15 393.65 223.85 386.25 224.2 379.35 224.5 371.45 224.1 L371.6 224.1 Q361.1 223.5 351.25 224.55 338.3 225.85 333.05 232.6 324.3 240.1 325.95 253.65 L326.1 260.05 326.15 272.0 Q326.1 278.7 325.7 284.3 L325.7 284.2 Q324.4 299.15 324.6 314.8 L317.2 314.95 Q302.55 314.95 289.85 316.6 L289.9 316.6 286.9 316.9 Q287.0 305.0 287.5 289.15 287.9 275.3 287.2 262.2 L287.15 256.15 Q288.8 243.2 273.45 232.5 268.55 229.15 262.75 228.95 246.05 228.35 229.35 228.35 215.9 228.35 202.5 227.85 193.2 227.45 181.25 227.85 L173.85 227.85 168.6 227.85 168.5 225.05 168.5 225.0 167.5 198.8 167.5 198.75 Q166.95 185.2 167.05 181.1 L167.05 180.85 167.1 174.35 167.1 173.7 Q166.5 155.8 166.5 137.95 L166.5 93.85 194.2 93.95 194.4 93.95 207.0 93.4 207.15 93.4 215.45 92.9 Q215.05 103.75 214.75 118.4 214.35 137.0 214.4 161.8 L214.4 161.85 Q214.4 166.45 213.95 171.1 L213.95 171.3 Q213.15 180.35 216.45 184.85 222.1 195.75 235.2 196.5 L235.25 196.5 Q251.75 196.85 268.25 196.85 292.5 196.85 316.75 197.4 L321.7 197.7 321.55 197.7 341.25 198.3 341.3 198.3 368.1 199.15 368.25 199.15 388.95 200.3 Q399.7 200.95 405.05 197.55 417.45 191.5 418.3 178.35 418.8 174.7 418.8 170.55 L418.8 170.5 418.75 121.6 Q418.75 97.25 419.0 72.85 L419.0 72.65 Q419.0 49.9 396.25 49.9 L396.05 49.9 Q371.8 50.15 353.15 50.0 333.5 49.85 318.65 50.8 L318.75 50.8 315.6 50.95 315.6 50.3 315.85 1.15 315.9 -1.75 315.9 -1.8 315.9 -2.35 M399.15 271.85 L399.15 271.95 399.1 296.05 399.1 296.15 398.95 322.75 398.95 322.85 398.85 361.2 398.85 361.25 398.85 409.95 398.85 410.2 398.85 411.8 377.95 410.9 373.8 410.15 371.5 409.7 Q353.45 407.0 338.2 407.3 313.85 407.75 289.6 407.8 L289.55 407.8 240.65 407.8 Q229.75 407.8 218.9 408.1 205.7 408.9 200.05 419.85 196.75 424.4 197.65 433.6 197.95 436.55 197.7 439.5 L197.7 439.75 Q197.4 442.35 197.35 444.8 L197.4 444.55 Q197.25 447.05 197.2 477.55 L197.2 477.6 161.5 477.6 161.5 449.15 161.5 442.35 161.5 442.3 161.35 400.7 161.35 400.6 161.35 398.95 Q161.35 391.45 156.4 385.8 151.4 380.15 144.0 379.15 L121.5 377.75 121.35 377.75 91.35 377.7 91.25 371.4 91.25 338.7 91.3 338.7 115.05 338.0 115.45 338.0 129.6 337.55 129.75 337.55 142.7 337.8 142.85 337.8 Q175.1 338.3 169.05 317.7 L169.05 316.8 169.05 291.1 169.05 267.85 173.85 267.85 181.85 267.85 182.5 267.85 Q192.85 267.5 200.95 267.8 L201.05 267.8 229.35 268.35 247.4 268.5 Q247.8 278.0 247.5 287.9 246.95 305.75 246.9 318.75 246.8 343.05 259.35 351.5 263.55 355.1 268.9 356.1 279.9 358.15 294.9 356.3 L295.0 356.25 317.2 354.95 336.15 354.3 337.8 354.1 Q362.5 350.25 363.85 331.9 L363.95 331.55 Q365.1 325.6 364.8 322.8 364.1 304.65 365.55 287.6 L365.55 287.5 Q366.1 280.55 366.15 272.25 L366.15 263.95 369.35 264.05 369.45 264.05 Q379.35 264.55 388.05 264.15 393.6 263.9 399.0 264.1 L399.15 271.85 M324.85 324.35 L324.7 323.8 324.75 323.5 324.8 323.45 324.85 324.35 M409.6 411.45 L409.7 411.45 409.6 411.45 M398.85 419.75 L398.85 420.2 398.75 420.3 398.85 419.75" fill="url(#gradient0)" fill-rule="evenodd" stroke="none"/>
  </g>
  <defs>
    <linearGradient gradientTransform="matrix(0.3982, 0.2823, -0.2689, 0.3793, 319.7, 237.6)" gradientUnits="userSpaceOnUse" id="gradient0" spreadMethod="pad" x1="-819.2" x2="819.2">
      <stop offset="0.0" stop-color="#ffcc33"/>
      <stop offset="1.0" stop-color="#ff9900"/>
    </linearGradient>
  </defs>
</svg>
