<?xml version="1.0" encoding="UTF-8" standalone="no"?>
<svg xmlns:xlink="http://www.w3.org/1999/xlink" height="491.25px" width="481.55px" xmlns="http://www.w3.org/2000/svg">
  <g transform="matrix(1.0, 0.0, 0.0, 1.0, 38.65, 6.3)">
    <path d="M29.05 -6.0 L29.35 -6.15 30.05 -6.3 31.05 -5.95 31.65 -5.6 Q32.65 -0.75 32.4 4.4 32.25 8.1 32.25 11.8 33.25 17.7 33.0 23.95 L32.8 32.65 32.65 33.05 32.4 33.5 32.25 33.95 Q30.85 47.85 32.55 61.7 33.7 70.75 32.8 79.55 L32.8 88.65 32.8 95.6 33.0 96.05 33.25 96.5 33.4 96.9 33.4 97.35 33.4 97.8 33.4 98.65 33.65 99.1 33.9 99.95 34.0 100.8 34.15 101.25 34.4 101.7 34.55 102.1 Q34.65 107.2 34.25 112.15 34.0 115.8 34.0 119.5 35.65 125.85 35.9 132.5 36.05 136.9 36.85 141.2 L36.85 141.65 36.7 142.05 36.3 142.95 36.3 143.4 36.3 143.8 36.3 144.25 Q37.25 147.1 37.05 150.35 L36.85 155.55 36.7 155.95 36.45 156.4 36.3 156.85 36.3 159.0 36.3 162.5 Q34.7 165.3 35.1 168.55 35.45 171.25 34.55 173.8 L35.55 177.6 Q35.9 179.55 35.7 181.6 L35.55 182.0 35.35 182.5 35.15 183.35 35.45 184.7 Q35.8 185.65 35.75 186.8 L35.7 187.25 36.1 188.15 Q36.4 188.95 36.35 189.85 L36.3 190.7 Q37.25 194.05 37.05 197.65 L36.85 203.3 37.05 203.75 37.3 204.2 37.45 204.6 37.45 205.5 37.45 207.2 37.45 208.1 Q38.25 209.2 38.15 210.7 L38.05 213.75 38.2 214.15 38.45 214.6 38.6 215.05 38.35 219.45 Q38.05 221.55 38.05 223.7 38.8 224.9 39.05 226.25 L39.2 229.35 39.35 229.8 39.6 230.25 39.75 230.65 40.0 237.6 Q40.2 240.85 38.9 243.7 40.55 247.25 43.05 250.8 L45.7 254.55 45.85 255.0 46.0 255.4 46.45 255.85 46.85 256.3 47.0 256.75 47.15 257.15 47.45 257.6 47.9 258.0 48.45 258.45 Q49.15 260.0 50.45 261.1 L52.8 262.8 53.2 263.25 53.4 263.65 53.65 264.1 Q60.1 270.3 69.5 269.15 L73.65 269.05 Q81.85 266.4 90.15 268.3 L90.4 268.75 90.5 268.95 107.65 267.55 Q116.9 267.55 126.15 267.85 127.9 267.9 129.05 269.15 L129.3 269.6 129.45 270.45 129.5 271.3 129.5 272.2 129.65 272.6 129.9 273.1 130.05 273.5 130.1 273.9 Q131.35 278.8 131.3 283.9 L131.25 292.6 131.05 293.0 130.85 293.5 130.7 293.9 130.6 294.35 130.5 294.8 130.2 295.2 129.45 296.0 Q128.85 296.55 128.55 297.35 L128.35 297.8 Q109.4 302.75 89.7 303.35 L75.1 304.75 67.0 305.2 Q66.45 305.4 66.05 305.7 63.15 307.7 60.8 310.45 L59.15 311.7 58.8 312.2 57.8 313.5 56.15 315.6 56.0 316.05 55.5 317.35 Q55.0 318.6 54.85 319.95 L54.8 320.4 54.65 320.8 54.45 321.3 54.05 322.1 53.65 323.0 53.65 323.45 53.7 324.3 53.45 326.0 53.1 326.9 53.1 327.35 Q52.8 334.85 53.3 342.15 53.65 347.7 53.65 353.4 L53.5 353.8 53.25 354.3 53.1 354.7 53.1 355.15 53.1 355.55 53.25 356.0 53.5 356.45 53.65 356.9 53.65 357.3 53.65 358.6 53.65 361.65 53.65 361.75 54.2 362.15 Q54.65 362.65 54.75 363.45 54.9 364.65 54.2 365.6 L54.2 371.25 54.2 376.45 54.4 376.9 54.6 377.35 54.8 377.75 54.8 380.8 54.8 384.7 54.6 385.15 54.4 385.6 54.2 386.0 54.3 388.15 Q54.45 389.8 53.65 391.15 L53.85 393.75 54.2 397.25 Q54.95 399.5 56.0 401.65 56.9 403.5 57.1 405.5 L57.35 405.95 57.55 406.35 57.7 406.8 58.0 407.2 58.7 407.7 59.85 409.4 Q60.8 410.55 62.15 411.15 73.35 417.45 87.25 416.1 L102.4 415.1 105.45 414.9 Q114.4 413.15 122.65 416.2 L122.9 416.65 123.1 417.95 123.1 418.5 123.7 418.8 Q124.3 419.55 124.35 420.55 124.5 422.2 123.7 423.55 L123.95 432.25 Q124.2 436.0 122.55 439.2 L122.55 451.35 122.55 460.5 122.9 461.4 Q123.2 462.2 123.1 463.1 L123.1 463.55 Q122.5 464.75 122.2 466.15 121.85 467.65 121.95 469.15 L121.75 469.6 121.55 470.05 121.35 470.5 Q121.35 473.75 120.9 476.9 120.45 479.95 120.8 483.05 L120.6 483.5 120.0 484.35 119.65 484.65 119.35 484.8 118.6 484.95 117.65 484.6 117.05 484.25 Q116.05 482.3 116.1 479.9 116.15 477.8 117.05 476.0 L117.05 472.95 117.05 469.05 117.2 468.6 117.45 468.15 117.6 467.75 117.65 466.0 Q117.65 464.4 118.45 462.95 118.0 455.85 118.1 448.6 L118.2 438.2 118.5 437.3 Q118.7 436.35 119.15 435.55 L119.35 435.15 119.35 428.65 119.35 422.55 119.5 422.15 119.75 421.7 119.9 421.25 119.9 420.4 119.9 420.3 118.9 419.55 108.05 418.7 Q85.2 422.8 62.6 417.5 60.25 416.1 58.4 414.05 57.6 413.15 56.5 412.75 L55.2 411.15 53.65 409.25 53.1 408.05 Q52.65 407.0 52.75 405.8 L52.6 405.35 52.4 404.9 52.2 404.05 52.0 403.65 51.6 403.2 51.15 402.75 50.8 401.45 50.0 399.3 49.85 398.85 49.85 398.4 49.85 398.0 49.85 397.1 49.7 396.7 49.45 396.2 49.3 395.8 49.3 393.65 49.3 390.6 49.3 390.2 49.45 389.8 49.7 389.35 49.85 388.9 49.85 387.15 49.85 384.55 50.05 384.15 50.25 383.7 50.45 383.25 50.45 381.95 50.45 379.8 50.45 379.35 50.25 378.95 50.05 378.45 49.85 378.05 49.85 370.65 49.85 364.15 50.2 363.4 49.9 363.25 49.55 362.75 Q49.25 362.2 49.25 361.5 L49.35 358.9 49.35 358.45 49.15 358.05 48.9 357.6 48.75 357.15 48.75 356.75 48.75 355.85 48.75 354.15 48.75 353.25 48.9 352.85 49.15 352.4 49.35 351.95 49.35 351.5 49.3 346.75 49.35 341.55 49.15 341.1 48.9 340.65 48.75 340.25 48.75 339.8 48.75 332.85 48.75 325.9 48.9 325.5 49.15 325.0 49.35 324.6 49.35 324.15 49.45 322.45 Q49.65 320.6 50.5 318.95 L50.5 318.5 Q50.45 317.8 50.75 317.2 L51.65 314.6 51.8 314.15 51.95 313.75 Q53.85 310.7 56.65 308.4 L59.6 305.5 59.75 305.05 59.9 304.6 60.35 304.25 63.35 302.2 64.95 300.85 Q78.2 300.6 91.45 298.8 L108.9 296.8 113.0 296.3 Q119.35 295.35 125.6 293.9 L125.75 293.45 125.9 293.05 126.45 292.15 126.9 291.3 126.9 290.85 126.9 286.1 126.9 280.9 126.7 280.45 126.5 280.0 126.3 279.6 126.3 279.15 126.3 278.7 126.3 278.25 126.3 277.85 126.3 277.4 126.15 277.0 125.9 276.5 125.75 276.1 125.75 275.65 125.75 275.25 125.75 274.8 125.45 274.35 125.3 273.95 125.2 273.5 125.15 273.05 125.15 272.65 Q107.45 272.45 89.1 272.7 L87.55 272.35 87.35 272.05 Q71.8 274.8 56.7 271.2 L53.95 270.5 Q46.3 264.25 41.5 256.1 40.25 253.95 38.45 252.25 L37.65 250.55 Q36.9 249.3 35.7 248.35 L35.3 247.45 34.45 245.7 34.25 245.3 34.25 244.85 34.25 244.0 34.25 243.1 Q35.8 240.55 35.6 237.45 L35.45 232.25 35.25 231.85 35.0 231.4 34.85 230.95 34.85 230.55 34.85 230.1 34.85 229.2 34.7 228.8 34.45 228.35 34.25 227.9 34.25 227.5 34.25 227.05 34.25 226.2 Q33.35 223.9 33.4 221.4 33.45 218.95 34.15 216.65 L34.05 216.2 33.85 215.75 33.7 215.35 33.7 213.6 33.7 211.0 33.7 210.55 Q33.1 209.75 33.1 208.8 L33.1 206.2 32.95 205.8 32.7 205.3 32.55 204.9 32.55 198.8 32.55 193.2 32.15 192.3 Q31.85 191.45 31.9 190.55 L31.95 189.7 31.55 188.8 Q31.3 187.95 31.35 187.1 L31.4 186.25 Q30.6 185.05 30.55 183.6 30.55 181.95 31.4 180.6 L31.2 180.15 30.95 179.7 30.8 179.3 30.8 178.85 30.8 178.0 30.8 177.1 30.6 176.7 30.4 176.25 30.2 175.8 Q30.65 171.7 30.5 167.55 30.3 164.2 31.95 161.45 L31.8 158.45 Q31.65 156.35 32.55 154.55 32.9 149.4 32.4 144.5 32.0 140.8 31.95 137.15 L31.8 136.75 31.55 136.25 31.4 135.85 31.4 133.25 31.4 129.75 31.2 129.35 30.95 128.9 30.8 128.45 30.8 127.15 30.8 125.0 30.8 124.55 30.6 124.15 30.4 123.7 30.2 123.25 30.2 122.8 30.2 122.4 30.2 121.95 Q29.25 118.0 29.25 113.7 29.25 110.3 30.2 107.2 L30.2 106.3 30.2 104.6 30.2 103.7 30.05 103.3 29.8 102.85 29.65 102.4 29.65 102.0 29.65 101.55 29.65 101.1 29.35 100.65 Q29.05 100.05 29.05 99.35 L29.05 98.5 28.9 98.1 28.65 97.6 28.5 97.2 28.5 86.35 28.5 78.1 28.65 77.65 28.9 77.2 29.05 76.8 29.05 76.35 29.05 75.5 29.05 74.6 28.9 74.2 28.65 73.75 28.5 73.3 28.5 69.4 28.5 65.5 28.3 65.1 28.1 64.6 27.9 64.2 27.9 63.75 27.9 63.35 27.9 62.45 27.75 62.05 27.5 61.6 27.3 61.15 27.3 44.2 Q27.25 38.3 27.9 32.5 L28.1 32.05 28.3 31.6 28.5 31.2 28.5 22.05 28.5 15.1 28.3 14.7 28.1 14.25 27.9 13.8 27.6 2.55 Q27.4 -1.85 28.65 -5.7 L29.05 -6.0 M70.85 -3.15 L71.05 -3.55 71.45 -4.0 71.85 -4.45 72.5 -4.75 73.45 -5.1 73.45 -5.15 74.45 -4.8 75.05 -4.45 Q75.75 -3.45 75.45 -2.3 L74.45 0.35 74.4 1.2 74.0 2.95 73.9 3.8 73.7 4.25 73.5 4.7 73.3 5.1 73.3 5.55 73.3 6.45 73.3 7.3 73.15 7.7 72.9 8.2 72.75 8.6 72.7 9.05 72.55 9.9 72.15 10.75 Q72.4 31.95 74.1 52.9 75.2 66.65 73.9 80.25 73.15 93.4 73.4 106.75 73.6 115.75 74.45 124.55 L76.1 133.25 Q76.75 136.6 76.8 140.2 77.75 143.5 77.55 147.15 L77.35 153.2 77.2 153.65 76.95 154.1 76.8 154.5 76.8 154.95 76.6 156.25 76.2 157.1 76.2 158.0 76.2 159.75 76.2 160.15 76.05 160.6 75.8 161.05 75.65 161.45 Q75.65 164.25 75.3 167.05 74.95 169.85 75.05 172.75 L74.9 173.2 74.65 173.65 74.45 174.05 Q74.45 176.9 74.8 179.65 75.15 182.45 75.05 185.35 75.95 187.15 75.95 189.25 L75.8 191.1 76.2 191.3 76.45 191.75 76.65 192.15 76.8 192.6 76.75 193.0 76.6 193.45 76.2 194.3 Q75.3 203.1 75.55 212.15 75.75 218.3 76.2 224.3 83.75 224.3 91.05 227.25 95.45 228.95 100.15 228.05 L102.85 227.75 126.85 227.9 126.85 222.25 126.85 217.05 Q125.9 213.25 125.85 209.25 L125.7 203.15 125.55 202.75 125.3 202.25 125.1 201.85 124.95 197.1 Q124.8 194.55 125.7 192.3 L125.7 191.4 125.7 189.7 125.7 188.8 125.85 188.4 126.1 187.95 126.3 187.5 126.3 185.35 126.3 182.3 126.45 181.9 126.7 181.4 126.85 181.0 126.65 177.1 Q126.55 176.2 126.7 175.4 L126.7 172.9 Q126.95 170.0 126.5 167.2 L126.3 164.2 126.3 160.75 126.3 156.85 126.3 146.85 126.3 144.25 126.1 143.8 125.85 143.35 125.7 142.95 125.7 142.05 125.7 137.7 125.7 132.5 125.7 132.05 125.7 131.2 125.7 129.45 125.7 128.6 125.7 127.75 125.7 125.55 125.45 125.1 125.25 124.7 125.1 123.4 125.1 122.95 125.1 122.5 125.1 120.35 124.85 119.9 124.65 119.05 124.55 117.75 124.55 117.3 124.55 114.7 124.7 114.3 124.95 113.8 125.1 113.4 125.1 112.95 125.1 110.35 Q125.0 107.7 125.55 105.2 L125.7 102.55 125.7 102.1 125.7 99.95 125.7 99.05 125.55 98.65 125.3 98.2 125.1 97.75 125.1 97.35 125.1 96.9 125.1 96.45 125.1 95.15 125.1 94.7 125.1 94.3 125.3 93.85 125.55 93.4 125.7 93.0 125.7 92.55 125.7 92.1 125.7 91.7 125.7 90.8 125.7 90.4 125.55 89.95 125.3 89.5 125.1 89.1 125.1 88.65 125.1 87.35 125.1 86.05 Q125.0 84.5 125.35 83.0 L125.7 82.15 125.7 81.7 125.7 80.85 125.7 79.5 125.65 79.1 Q125.5 77.65 126.3 76.5 L126.3 76.05 126.3 75.6 126.25 75.2 Q126.2 74.5 126.4 73.9 L126.6 73.45 126.85 73.0 126.85 72.6 126.85 72.15 126.85 71.7 126.9 70.85 127.0 70.4 127.2 70.0 127.55 69.5 127.85 69.1 128.0 68.65 128.0 68.25 128.0 67.8 128.2 67.4 128.4 66.9 128.6 66.5 129.1 65.15 129.2 64.75 129.3 64.3 129.6 63.9 129.85 63.45 130.1 63.1 131.35 61.7 131.5 61.3 131.65 60.85 132.05 60.4 132.5 60.0 132.65 59.55 132.8 59.1 133.25 58.7 134.1 57.8 Q134.95 56.95 136.1 56.45 L136.95 56.0 137.85 55.2 138.45 54.85 139.7 54.25 140.3 53.9 140.75 53.6 Q151.55 50.15 162.55 52.4 169.55 53.8 176.5 52.15 186.8 51.85 197.2 51.95 L207.3 51.3 208.2 50.85 208.8 50.65 209.45 50.5 209.5 50.45 218.75 50.75 222.95 51.15 223.25 51.15 226.05 51.2 226.2 50.9 226.6 50.45 Q226.8 50.3 227.05 50.2 L227.35 50.05 228.05 49.95 228.05 49.9 229.15 50.0 230.75 50.7 231.1 51.05 243.55 52.65 Q246.7 52.9 248.9 54.95 L249.15 55.4 249.3 55.8 249.3 56.25 249.65 56.65 250.05 57.1 250.2 57.55 250.35 58.0 250.45 58.4 250.6 58.85 Q251.85 59.95 252.5 61.45 L252.95 62.3 253.25 62.7 254.4 64.05 Q255.0 65.1 255.1 66.25 L255.1 66.65 255.25 67.1 255.5 68.0 Q255.6 68.7 256.05 69.3 L256.25 69.7 256.35 72.3 256.55 73.2 256.7 73.6 257.05 74.9 257.4 76.65 257.4 78.4 257.7 78.85 257.85 79.25 258.0 80.15 258.0 80.55 Q258.85 82.15 258.65 84.05 L258.6 85.8 Q258.6 89.25 258.1 92.65 257.65 95.65 258.0 98.8 L257.85 99.25 257.6 99.7 257.4 100.1 Q257.05 105.3 257.0 110.55 256.85 122.25 256.2 133.95 256.0 137.1 256.25 140.5 L256.1 140.9 255.85 141.4 255.7 141.8 255.7 143.95 255.7 145.25 255.7 145.7 255.7 147.0 255.7 147.9 255.5 148.3 255.3 148.75 255.1 149.2 255.4 150.55 256.15 152.2 256.45 152.65 256.8 153.1 257.15 153.55 257.25 153.9 Q258.9 152.95 260.95 153.15 L299.25 155.25 375.8 157.3 376.65 156.85 Q376.25 155.75 376.3 154.7 L376.35 151.2 376.2 150.8 375.95 150.35 375.8 149.9 375.65 139.9 Q375.55 136.15 376.35 132.55 L376.55 132.1 376.8 131.65 376.95 131.25 376.95 128.65 376.95 125.15 377.1 124.75 377.35 124.25 377.55 123.85 377.55 122.55 377.55 120.4 377.55 119.95 377.35 119.5 377.1 119.05 376.95 118.65 376.95 117.75 376.95 116.05 376.95 115.15 377.1 114.75 377.4 114.3 377.1 113.85 376.95 113.45 376.9 99.95 377.05 92.25 313.55 94.6 Q309.8 94.8 306.2 95.9 298.05 97.0 293.3 90.85 L291.85 90.4 290.1 89.85 288.55 88.75 286.95 87.35 Q284.25 86.55 282.0 84.8 281.3 84.25 281.0 83.45 L279.85 82.55 278.7 81.3 278.55 80.85 278.35 80.0 277.95 79.1 277.95 78.7 277.95 78.25 277.95 77.8 277.95 77.4 277.7 76.95 277.45 76.05 277.4 75.2 277.2 74.8 277.0 74.35 276.8 73.9 276.8 72.6 276.8 70.45 276.8 70.0 276.45 69.1 Q276.15 68.3 276.2 67.4 L276.25 66.5 276.05 66.1 275.85 65.65 275.65 65.2 275.65 60.0 275.65 54.35 275.5 53.95 275.25 53.5 275.05 53.05 275.05 51.3 275.05 48.3 275.05 47.85 Q274.2 46.25 274.35 44.35 L274.5 40.45 274.3 40.05 274.1 39.6 273.9 39.15 273.9 38.75 273.9 38.3 273.9 37.85 273.9 37.45 273.55 36.55 Q273.25 35.7 273.3 34.8 L273.35 33.95 Q272.4 30.85 272.6 27.45 L272.75 21.35 272.95 20.95 273.15 20.5 273.35 20.05 273.3 18.75 Q273.2 17.4 273.7 16.15 L273.9 15.7 273.9 14.85 Q273.8 13.95 274.1 13.15 L274.5 12.25 274.5 8.75 274.5 4.4 Q273.55 2.2 273.55 -0.35 273.5 -3.0 274.65 -5.15 L275.1 -5.4 275.35 -5.5 276.05 -5.65 276.1 -5.7 277.1 -5.4 277.65 -4.95 278.4 -4.1 278.7 -3.7 Q279.1 -2.6 278.65 -1.45 278.1 0.15 278.25 1.95 279.35 7.7 278.55 13.65 L277.1 22.35 277.1 26.7 277.1 31.5 277.5 32.4 Q277.8 33.2 277.7 34.1 L277.7 34.95 Q278.55 37.45 278.7 40.2 L278.85 45.4 Q280.2 52.8 280.4 60.6 280.5 66.25 281.15 71.9 L281.35 72.3 281.55 72.75 281.75 73.2 281.75 73.6 281.75 74.05 281.75 74.5 281.75 74.9 Q282.15 75.5 282.15 76.2 282.2 77.35 282.6 78.4 L282.75 78.85 Q286.2 82.8 291.05 85.1 L292.0 85.8 293.05 86.15 295.05 86.65 297.75 89.3 Q298.65 90.35 299.95 90.85 L305.75 91.15 313.15 89.85 Q347.2 88.0 381.3 88.8 L381.55 89.25 381.7 89.7 381.85 90.55 381.7 90.95 381.4 91.4 380.95 91.9 Q381.7 98.65 381.65 105.6 L381.3 116.45 Q382.05 119.0 382.15 121.65 382.2 124.2 381.3 126.45 L381.25 130.35 380.7 134.7 380.55 135.15 380.3 135.6 380.15 136.0 Q380.15 141.4 380.55 146.85 380.85 150.7 380.7 154.7 L380.9 155.1 381.1 155.55 381.3 156.0 381.3 156.85 381.3 158.6 381.3 159.45 381.1 159.85 380.5 160.7 380.15 161.05 Q339.5 161.8 298.8 160.05 L258.15 158.45 257.6 158.35 256.9 158.1 256.85 158.15 256.55 158.25 255.85 158.45 255.25 158.4 254.25 158.1 253.65 157.7 253.25 157.25 253.15 156.85 253.1 156.0 253.1 155.55 252.4 154.65 251.45 152.95 251.2 152.5 250.9 152.1 250.8 151.2 250.75 149.45 250.75 149.05 250.75 148.6 250.75 148.15 250.75 147.75 250.95 147.3 251.15 146.85 251.35 146.45 251.35 143.85 251.35 142.95 251.35 142.5 251.35 141.2 Q251.35 140.55 251.65 139.95 L251.9 139.5 Q252.3 133.85 252.3 128.2 252.3 115.95 252.75 103.85 252.9 100.75 253.65 97.8 253.65 95.85 253.95 93.95 254.5 90.5 254.3 86.95 253.95 81.9 253.1 76.95 L252.8 76.5 252.65 76.05 252.5 75.2 252.5 74.8 252.35 74.35 252.1 73.9 251.9 73.45 251.9 73.05 251.9 72.6 251.9 71.75 251.9 71.3 251.75 70.9 251.5 70.0 Q251.4 69.25 250.95 68.65 L250.75 68.25 250.75 67.85 250.75 67.4 250.75 66.95 250.45 66.55 250.05 66.1 249.15 65.2 247.95 62.65 247.4 61.75 247.05 61.3 246.4 59.95 245.75 58.7 245.4 58.0 Q237.15 56.35 228.65 55.85 L227.6 55.65 227.25 55.4 223.4 55.95 222.8 55.85 Q216.25 53.9 209.35 55.05 196.9 57.15 184.0 57.05 L176.95 56.95 Q164.45 57.85 152.15 56.35 151.0 56.2 149.85 56.35 141.8 57.05 136.35 62.5 133.95 64.9 132.95 68.1 L132.2 70.7 131.9 71.15 131.6 71.55 131.2 72.0 131.2 72.45 131.2 72.85 131.2 73.3 131.05 74.6 130.9 75.0 130.6 75.45 130.6 75.9 130.6 76.35 130.65 76.75 130.5 78.1 130.3 78.5 130.05 78.95 130.05 79.4 130.05 81.55 129.85 82.8 Q129.2 84.95 129.45 87.2 L129.45 87.65 129.7 88.1 129.95 88.95 130.05 90.25 130.05 90.65 130.05 93.7 130.05 94.15 129.85 94.55 129.65 95.05 129.5 95.45 129.45 95.9 129.55 96.25 Q130.15 97.3 130.1 98.5 L130.05 101.1 130.05 104.55 Q130.05 105.55 129.45 106.3 L129.25 112.35 Q129.05 115.45 129.45 118.4 L129.6 121.5 129.75 125.85 130.05 131.95 130.05 141.5 Q131.0 144.8 130.8 148.45 L130.6 154.1 130.6 157.55 130.55 161.9 Q130.4 165.9 130.9 169.75 131.25 172.4 131.15 175.0 131.55 176.7 131.55 178.55 131.55 181.1 130.6 183.3 L130.6 185.5 130.6 188.95 130.45 189.4 130.2 189.85 130.05 190.25 Q129.7 194.4 129.85 198.5 L130.05 205.05 Q130.95 212.55 131.3 220.25 131.5 225.75 130.75 231.1 L130.35 231.5 129.9 231.95 129.45 232.25 Q109.1 233.45 89.25 231.45 L87.5 231.1 86.95 230.65 86.65 230.35 73.05 228.35 72.65 227.85 72.25 227.05 71.85 226.15 71.85 225.75 71.85 225.3 71.85 224.45 Q70.85 214.85 71.0 204.9 71.05 199.1 71.8 193.5 70.95 192.4 71.1 191.0 L71.3 187.5 Q70.25 183.3 69.95 178.85 69.75 174.95 70.7 171.45 L70.7 170.6 70.7 168.85 70.7 168.4 70.9 168.0 71.1 167.55 71.3 167.1 Q71.3 164.25 71.6 161.5 L71.85 155.8 72.05 155.4 72.25 154.95 72.45 154.5 Q73.15 151.5 73.1 148.45 L73.0 142.35 71.4 133.7 Q70.8 130.2 70.7 126.7 70.3 126.1 70.2 125.4 L70.15 123.25 70.15 122.8 69.95 122.4 69.75 121.95 69.55 121.5 69.55 107.6 69.55 96.75 69.4 96.35 69.15 95.85 68.95 95.45 68.95 89.35 68.95 83.3 69.15 82.85 69.4 82.4 69.55 82.0 69.5 80.7 Q69.45 79.55 69.9 78.55 L70.15 78.1 70.15 72.6 69.45 72.75 68.45 72.4 67.85 72.05 Q66.85 64.7 66.8 56.85 66.75 51.35 68.0 46.4 L68.4 46.15 68.7 46.0 69.3 45.9 Q68.85 42.7 68.95 39.45 L68.8 39.0 68.55 38.55 68.4 38.15 Q68.7 29.55 67.95 21.2 67.4 14.75 68.4 8.6 L68.95 5.1 69.55 1.65 69.7 1.25 69.95 0.75 70.15 0.35 70.3 -0.9 70.85 -3.15 M318.35 -4.5 L319.3 -4.2 Q319.65 -4.05 319.95 -3.85 L320.2 -3.4 320.35 -2.95 320.5 -2.5 320.5 -2.1 320.35 -1.65 320.05 -1.25 319.35 -0.35 Q319.35 8.1 319.7 16.55 319.9 22.95 319.35 29.2 319.95 29.95 319.95 30.9 319.95 32.25 319.45 33.55 L319.35 33.95 Q320.25 37.3 320.05 40.9 319.9 44.1 319.35 47.25 341.35 51.9 364.55 50.1 L382.15 49.0 Q392.9 45.3 403.85 49.0 L404.45 49.45 404.75 49.75 408.05 50.55 409.1 50.75 409.65 51.2 409.95 51.45 Q412.8 52.0 415.25 53.4 L415.75 53.8 416.1 54.25 416.3 54.65 416.45 55.1 Q417.6 56.0 418.35 57.15 419.1 58.45 420.2 59.45 421.55 62.55 421.4 65.95 421.25 69.0 421.25 72.05 423.4 75.75 422.2 79.95 421.3 82.95 421.25 86.2 L421.8 86.5 Q422.65 88.1 422.65 89.95 422.65 91.85 421.8 93.45 L421.8 93.9 421.8 94.3 421.8 95.2 421.6 95.6 421.4 96.05 421.2 96.5 421.3 98.65 Q421.45 100.3 420.65 101.7 L420.65 103.0 420.65 105.15 420.65 105.6 420.45 106.0 420.25 106.5 420.05 106.9 420.05 109.1 420.05 112.55 Q420.85 113.75 420.75 115.15 L420.65 118.2 Q422.15 122.1 421.95 126.45 421.8 129.7 421.8 132.95 L421.6 133.4 421.4 133.85 421.2 134.25 421.45 149.0 Q421.65 154.35 420.65 159.45 L420.65 161.65 420.65 164.65 420.45 165.1 420.25 165.55 420.05 165.95 420.05 166.4 420.05 167.25 420.05 168.15 420.45 169.05 Q420.75 169.85 420.65 170.75 L420.65 171.6 Q421.5 173.2 421.5 175.1 421.5 176.95 420.65 178.55 L420.65 179.0 420.65 179.45 420.65 180.3 420.45 180.7 420.25 181.2 420.05 181.6 Q420.15 182.5 419.7 183.3 418.95 184.55 418.75 185.95 418.25 186.55 418.05 187.25 L416.75 189.4 Q415.2 193.4 412.05 196.3 L408.75 198.85 Q393.9 203.85 378.0 201.7 L358.3 200.75 Q339.8 201.65 321.35 201.0 L272.45 199.4 Q268.3 200.55 265.05 198.1 L264.95 198.05 262.75 198.4 262.2 198.3 260.6 197.65 260.55 197.6 Q258.15 198.45 255.4 197.55 243.6 201.7 232.2 197.55 L231.65 197.1 231.25 196.65 231.05 196.2 230.5 195.8 225.75 192.25 225.0 191.6 224.55 191.45 Q220.85 190.2 218.4 187.3 L217.45 186.4 217.25 186.0 Q215.95 184.4 215.2 182.5 L213.85 179.85 213.75 179.45 213.7 179.0 213.7 178.55 213.7 178.15 213.45 177.7 Q213.0 176.65 213.05 175.5 L213.1 172.9 Q212.1 171.1 212.1 169.0 L211.75 158.15 Q211.7 156.5 212.55 155.1 L212.55 154.7 212.5 153.8 Q212.45 152.9 212.85 152.1 L213.1 151.65 213.1 151.2 213.1 149.05 213.1 146.0 213.3 145.55 213.5 145.1 213.7 144.7 213.7 134.7 213.7 117.35 213.7 116.45 213.55 116.05 213.3 115.6 213.1 115.15 213.1 114.7 213.1 114.3 213.1 113.85 Q212.55 113.1 212.55 112.1 212.55 107.75 212.15 103.4 L211.95 99.1 212.15 98.65 212.35 98.2 212.55 97.8 212.55 97.35 212.6 95.6 Q212.65 94.5 213.1 93.45 L189.7 94.45 Q179.8 97.45 169.0 96.75 L168.85 97.2 168.85 97.65 168.85 98.1 168.65 98.5 168.45 98.95 168.25 99.4 168.15 100.25 Q167.4 103.85 167.55 107.65 L167.7 112.4 167.95 112.85 Q168.4 113.9 168.35 115.0 L168.25 117.6 168.45 118.05 169.2 121.1 Q169.5 122.6 169.4 124.15 170.35 127.0 170.25 130.2 170.0 137.15 170.1 144.1 170.15 145.25 169.4 146.3 169.15 153.0 169.05 159.75 L168.85 180.15 Q169.75 182.2 169.9 184.45 170.3 190.0 170.05 195.8 L170.0 198.85 169.8 199.25 169.6 199.7 169.4 200.15 169.4 200.55 169.4 202.75 169.4 205.8 169.65 206.25 169.9 207.1 170.0 208.8 169.8 209.25 169.6 209.7 169.4 210.1 169.4 210.55 169.4 215.35 169.4 219.7 169.7 220.1 Q170.05 220.85 170.05 221.65 L170.6 222.0 171.1 223.3 171.15 224.3 171.7 224.5 172.05 224.7 172.9 224.4 173.6 224.25 173.6 224.15 Q195.25 226.8 217.0 225.4 223.4 224.95 229.65 225.45 237.2 226.05 244.8 225.7 258.95 225.0 272.45 229.1 L275.8 231.65 278.05 233.5 279.85 235.15 281.1 236.35 282.4 237.8 283.1 238.7 283.55 239.55 285.95 245.65 Q286.5 247.05 286.35 248.65 L286.9 249.95 287.0 250.35 287.15 250.8 287.4 251.25 287.55 251.7 288.2 253.0 288.5 253.4 288.6 253.85 288.7 254.3 288.8 254.7 289.05 255.15 289.25 255.6 Q289.5 257.75 290.05 259.85 L290.4 262.55 290.4 264.25 290.4 265.15 290.0 268.65 Q288.4 276.5 288.55 284.7 L288.65 293.8 Q289.35 294.7 289.25 296.0 L289.25 296.4 289.25 296.85 289.2 298.6 289.25 299.9 289.25 300.75 289.25 301.6 289.25 302.5 289.25 302.9 289.25 303.35 289.4 303.8 Q290.0 305.2 289.9 306.85 L289.8 309.45 290.2 310.35 290.35 311.2 290.4 311.6 290.4 312.05 290.4 312.5 290.4 313.35 291.0 314.65 291.25 315.1 Q306.8 314.3 322.35 311.9 L322.55 310.6 322.5 309.3 322.5 308.45 Q322.4 307.75 322.7 307.15 L323.1 306.25 323.1 303.65 323.1 301.9 323.1 297.55 323.1 295.85 322.7 294.95 322.55 294.1 322.55 293.25 322.7 292.8 323.1 291.9 323.1 291.05 323.1 289.75 323.1 289.3 323.1 288.9 323.1 288.0 323.1 286.7 323.25 286.3 323.5 285.85 323.65 285.4 323.65 284.95 323.65 284.55 323.65 284.1 323.65 283.65 323.85 283.25 324.1 282.8 324.25 282.35 Q324.9 278.95 324.9 275.4 L324.6 262.85 Q324.45 259.2 325.4 255.9 L325.4 253.25 325.4 251.1 325.4 246.3 325.4 245.0 325.6 244.6 325.8 244.15 326.0 243.7 326.15 243.3 326.55 242.85 327.0 242.4 327.15 242.0 327.3 241.55 Q328.6 240.4 329.55 238.9 330.3 237.7 331.4 236.7 L334.5 233.75 334.65 233.3 334.8 232.85 335.7 232.0 337.0 230.7 337.4 230.25 337.85 229.85 338.7 229.1 Q350.35 221.75 363.9 223.35 381.4 225.3 398.9 223.9 402.55 222.35 406.55 222.05 L408.05 221.85 416.7 223.65 Q419.3 224.15 421.8 225.05 L424.05 227.55 425.85 229.6 428.75 233.3 Q429.85 234.05 430.6 235.15 L431.45 236.35 432.75 238.0 433.5 238.95 433.8 239.8 434.1 240.7 434.4 241.55 434.65 242.0 435.15 242.8 435.55 243.3 436.0 243.65 436.2 243.75 436.55 243.45 437.15 243.1 438.1 242.8 438.15 242.7 439.1 243.05 439.75 243.45 Q440.6 245.0 440.45 246.9 440.3 248.85 440.3 250.8 L440.5 251.25 440.7 251.7 440.9 252.1 440.75 255.15 Q440.55 256.95 439.75 258.65 L439.75 259.95 Q439.85 261.0 439.4 262.1 L439.15 262.55 439.15 262.95 439.15 263.4 439.15 263.85 439.35 264.25 439.85 265.15 440.15 265.6 440.6 267.25 Q441.0 268.55 440.9 269.9 L441.2 270.8 441.85 272.55 442.05 272.95 442.05 277.3 442.05 281.65 Q442.9 283.25 442.9 285.1 442.9 287.0 442.05 288.6 L441.95 288.65 441.55 297.0 Q441.3 301.65 440.3 306.05 L440.3 306.5 440.25 306.95 440.15 307.35 440.0 307.8 440.15 309.15 440.3 311.25 440.3 312.15 440.5 312.55 440.7 313.05 440.9 313.45 Q440.7 316.75 441.7 319.9 442.7 322.95 441.45 326.05 L441.65 326.45 441.85 326.9 442.05 327.35 Q441.4 337.1 442.05 346.9 442.3 350.35 441.85 353.9 441.45 357.05 441.45 360.35 442.4 363.15 442.4 366.45 L442.6 372.05 442.45 372.5 442.2 372.95 442.05 373.4 442.05 373.8 442.0 374.25 441.7 375.1 441.45 375.55 441.45 376.0 441.45 376.4 441.45 376.85 441.45 377.3 441.3 377.7 441.05 378.15 440.9 378.6 440.9 388.6 Q440.9 392.7 441.45 396.8 L441.1 397.65 440.5 398.95 440.3 399.4 440.3 399.8 440.3 400.25 440.3 401.1 440.3 401.55 440.15 401.95 439.9 402.45 439.75 402.85 439.75 403.3 439.75 403.75 439.75 404.6 439.75 405.05 439.55 405.45 439.3 405.9 Q441.0 409.8 441.65 414.05 442.15 417.5 440.9 420.65 441.05 421.8 440.7 422.85 440.4 423.7 440.35 424.6 L440.55 425.0 440.75 425.45 440.9 425.85 440.85 426.3 440.7 426.75 440.5 427.2 440.3 427.6 440.3 428.05 440.25 428.45 440.15 428.9 440.0 429.35 439.75 429.7 439.4 431.05 439.15 431.5 439.0 431.95 438.75 432.4 438.55 432.8 438.4 434.1 438.0 436.3 438.0 436.75 437.8 437.15 437.6 437.6 437.15 438.5 437.0 438.9 436.55 439.35 436.25 439.75 436.2 440.2 436.1 440.65 435.8 441.05 435.55 441.55 435.25 442.4 434.8 442.8 434.4 443.25 Q429.1 453.9 416.1 453.15 411.7 452.9 407.3 453.1 375.55 454.8 343.7 452.2 L314.85 450.55 Q291.3 449.65 267.95 451.05 253.75 451.9 240.05 450.75 L240.05 463.8 240.05 474.2 240.35 474.65 240.75 475.1 241.3 476.4 Q242.0 477.4 242.3 478.6 L242.35 479.0 242.15 479.4 241.9 479.85 241.2 480.6 240.9 480.7 240.15 480.9 239.6 480.85 238.6 480.5 238.0 480.15 237.0 478.4 235.85 476.25 Q235.6 468.9 235.65 461.5 L235.7 449.35 235.85 448.9 236.1 448.45 236.25 448.0 236.4 447.6 236.85 447.15 237.3 446.7 237.7 446.3 Q289.45 445.5 342.05 446.8 L368.15 448.35 Q396.05 450.95 423.65 447.05 425.85 446.75 427.55 445.4 L428.2 444.6 429.45 443.25 429.8 442.4 430.9 440.65 431.2 440.2 431.3 439.75 431.35 439.35 431.5 438.9 432.35 437.7 433.65 435.45 433.65 435.0 433.65 434.55 433.65 434.15 433.85 433.7 434.05 433.25 434.25 432.8 Q434.1 431.7 434.45 430.65 434.7 429.75 435.1 428.95 L435.1 428.5 Q435.1 426.6 435.95 425.0 L435.95 424.15 435.95 422.85 435.95 421.95 436.15 421.55 436.35 421.1 436.55 420.65 436.55 420.25 436.6 419.8 436.9 418.95 437.1 418.5 437.1 418.05 437.1 417.6 437.1 416.75 437.1 416.3 436.95 415.9 436.7 415.45 436.55 415.0 436.55 414.15 436.55 412.4 436.55 411.55 436.15 410.65 435.25 408.95 434.95 408.5 Q434.75 405.0 435.35 401.5 435.9 398.4 437.1 395.45 L436.95 395.05 436.7 394.6 436.55 394.15 436.35 382.5 Q436.2 377.75 437.7 373.4 L437.8 372.55 438.15 371.2 438.3 370.75 Q437.55 369.05 437.6 367.3 L437.7 362.95 437.55 362.55 437.3 362.05 437.1 361.65 Q436.8 356.5 437.6 351.65 438.25 347.6 438.3 343.4 L438.1 343.0 437.9 342.55 437.7 342.1 437.7 341.65 437.7 341.25 437.7 340.35 437.7 339.95 437.55 339.5 437.3 339.05 437.1 338.65 Q437.1 336.25 437.55 333.95 438.0 331.35 437.7 328.65 436.95 327.5 437.15 326.05 L437.7 322.55 437.55 322.15 437.3 321.7 437.1 321.25 Q437.25 319.9 436.9 318.6 436.45 316.75 436.55 314.75 435.7 313.15 435.75 311.25 435.8 309.25 435.4 307.35 L435.55 306.95 435.8 306.5 435.95 306.05 435.95 305.65 436.0 305.2 436.3 304.35 436.55 303.9 Q436.55 299.55 437.05 295.25 L437.15 294.3 436.7 293.9 436.25 293.45 436.1 293.05 436.0 292.6 435.95 291.75 Q436.25 290.95 436.95 290.35 L437.25 290.1 437.1 287.8 437.3 287.4 437.55 286.95 437.7 286.5 437.7 285.2 437.75 283.1 437.7 282.95 437.7 279.05 437.7 275.15 437.55 274.7 437.3 274.25 437.1 273.85 437.1 273.4 437.1 272.95 437.1 272.5 436.85 272.1 Q436.55 271.4 436.55 270.8 L436.55 269.9 436.35 269.5 436.15 269.05 435.95 268.6 435.95 268.2 435.95 267.75 435.95 267.3 435.7 266.85 435.25 266.0 434.8 265.15 434.8 263.85 434.8 261.65 434.8 261.25 435.0 260.8 435.2 260.35 435.4 259.95 435.6 257.8 Q435.9 256.15 436.55 254.7 L436.55 254.3 436.55 253.85 436.55 253.4 Q435.75 252.2 435.85 250.8 L435.9 249.8 435.4 249.6 434.8 249.2 434.4 248.75 434.25 248.35 434.1 247.9 432.35 246.2 431.15 244.8 430.15 243.15 Q429.65 242.3 429.6 241.4 L429.0 240.55 428.45 239.65 427.85 238.8 427.5 238.35 427.0 237.5 426.4 237.05 425.7 236.6 424.4 235.0 423.2 233.6 421.7 231.8 421.2 231.0 420.35 230.5 419.75 230.1 419.3 229.65 Q417.15 227.85 413.4 227.4 L408.75 226.5 405.7 227.15 401.5 227.65 Q382.2 230.95 362.5 227.45 352.5 225.65 345.1 231.85 342.6 232.05 340.8 233.65 L339.0 235.3 Q338.25 236.1 337.85 237.05 L337.25 237.45 336.55 237.95 336.4 238.35 336.1 238.8 335.5 239.2 334.7 239.7 334.25 240.1 333.65 240.95 333.05 241.8 332.2 242.7 331.75 243.15 331.35 243.55 331.2 244.0 331.0 244.45 330.8 244.9 330.3 245.7 329.9 246.2 Q329.95 252.05 329.6 257.9 329.05 266.95 329.4 276.15 329.55 279.1 328.6 281.8 L328.6 282.2 328.6 282.65 328.6 283.1 328.6 283.55 328.6 283.95 328.4 284.4 328.2 284.85 328.0 285.25 Q328.15 286.35 327.7 287.45 327.45 288.0 327.45 288.75 L327.5 291.35 Q327.6 292.65 327.15 293.95 327.6 296.3 327.65 298.75 L327.4 308.3 Q327.15 312.05 325.85 315.65 L296.95 320.4 Q292.75 321.05 289.7 318.75 L289.35 318.85 288.35 318.55 287.8 318.1 287.35 317.7 286.9 317.25 286.5 315.95 286.35 315.5 286.2 315.1 286.1 314.65 286.05 314.2 286.05 313.35 286.05 312.9 286.05 312.5 Q285.35 311.45 285.45 310.3 L285.45 309.85 285.45 309.45 285.45 307.7 285.4 306.4 285.3 305.55 285.05 304.65 284.9 303.8 284.9 303.35 284.9 302.9 284.9 302.5 284.9 299.0 284.9 296.4 284.7 296.0 284.5 295.55 284.3 295.1 284.3 292.5 284.3 290.75 284.3 289.05 284.3 288.15 284.3 286.4 284.3 286.0 284.3 285.55 284.3 285.1 284.3 280.75 284.3 273.85 284.45 273.4 284.8 272.5 284.9 272.1 285.05 271.65 285.3 271.2 285.45 270.8 285.45 269.9 285.45 269.05 285.45 268.6 285.45 268.2 285.45 267.75 285.45 266.9 285.65 266.45 285.85 266.0 286.05 265.6 286.05 265.15 286.05 264.7 286.05 264.25 286.05 263.85 286.05 263.4 286.05 262.95 285.85 262.55 285.65 262.1 285.45 261.65 285.45 261.25 285.45 260.8 285.45 260.35 285.45 259.95 285.45 259.5 285.3 259.1 285.05 258.6 284.9 258.2 284.9 257.75 284.9 257.3 284.9 256.9 284.65 256.45 284.45 256.05 284.15 255.6 283.9 255.15 283.5 253.85 283.35 253.4 283.15 253.0 283.0 252.55 282.8 252.1 282.35 250.85 282.15 250.35 282.0 249.95 282.0 249.5 282.0 249.05 282.0 248.65 282.0 248.2 282.0 247.75 282.0 247.35 281.85 246.9 281.45 246.0 281.25 245.6 281.0 245.15 280.85 244.7 280.85 244.3 280.55 243.85 280.25 243.45 279.8 243.0 279.7 242.55 279.65 242.15 279.55 241.7 278.8 240.85 277.95 239.95 277.5 239.5 277.1 239.05 276.95 238.65 276.45 238.25 275.8 237.75 275.35 237.35 Q269.75 231.8 261.45 231.4 243.4 230.55 225.1 230.35 L203.85 230.35 174.35 228.8 173.35 229.15 172.9 229.35 172.6 229.55 171.85 229.65 170.9 229.3 170.35 229.0 Q168.2 229.15 166.5 227.5 L166.4 227.05 165.9 224.85 165.65 222.3 165.5 221.85 165.25 221.4 165.1 221.0 165.1 220.1 164.95 213.15 Q164.9 210.7 165.35 208.4 L165.35 207.95 Q164.85 205.15 164.8 202.3 164.75 199.75 165.65 197.55 L165.7 195.35 Q166.0 190.7 165.35 186.2 165.1 184.3 165.1 182.35 164.1 177.0 164.25 171.45 L164.5 153.25 164.5 152.8 164.65 152.4 164.9 151.9 165.1 151.5 165.1 151.05 164.95 147.6 Q164.8 145.7 165.65 144.1 L165.65 140.65 165.65 130.2 165.65 126.75 165.5 126.3 165.25 125.85 165.1 125.45 165.1 125.0 165.1 124.55 165.1 123.7 165.1 122.85 164.9 122.4 164.65 121.95 164.5 121.55 164.5 121.1 164.5 120.65 164.5 120.25 164.5 119.8 164.25 119.35 Q163.8 118.3 163.85 117.2 L163.9 114.6 Q163.5 114.0 163.45 113.25 L163.35 105.05 163.35 100.7 163.5 100.25 163.75 99.8 163.9 99.4 163.9 98.95 163.9 98.5 Q163.9 97.85 164.25 97.2 L164.5 96.75 164.5 96.35 164.5 95.9 164.5 95.45 164.7 95.05 165.15 94.15 Q165.5 93.4 166.25 92.85 176.5 90.5 187.5 90.7 L187.95 90.3 188.5 89.95 Q199.5 90.8 209.5 88.65 L216.4 88.95 218.05 89.4 218.3 89.85 Q219.05 91.45 218.25 92.95 L216.9 95.9 216.85 99.85 Q216.35 105.2 217.1 110.65 L217.45 113.7 Q218.6 129.85 217.35 146.25 216.75 154.25 216.6 162.35 216.5 170.25 218.05 178.0 L218.3 178.45 218.7 179.3 Q219.0 180.25 219.65 181.0 L219.75 181.45 219.8 181.9 220.1 182.3 Q222.2 184.65 224.7 186.45 225.6 187.1 226.7 187.4 L228.25 188.55 Q232.85 192.2 238.0 195.05 L259.3 193.2 259.75 192.8 260.3 192.45 261.0 192.3 262.0 192.7 Q262.3 192.8 262.6 193.05 L262.8 193.3 Q264.55 192.9 266.65 193.75 L267.25 194.2 268.4 194.9 272.0 194.65 Q296.85 194.05 321.2 196.35 343.25 196.55 365.2 196.2 L377.85 196.95 Q392.4 198.85 405.95 194.25 409.15 193.15 411.15 190.25 412.3 188.55 412.95 186.55 L413.4 186.1 413.85 185.65 Q414.25 183.85 414.95 182.15 L416.3 178.7 416.25 178.3 Q416.2 177.6 416.45 177.0 L416.85 176.1 416.85 175.65 416.85 175.25 416.85 174.35 416.7 173.95 416.45 173.5 416.3 173.05 416.3 172.65 416.3 171.75 416.3 170.9 416.1 170.45 415.9 170.0 415.7 169.6 415.7 167.4 415.7 164.4 415.9 163.95 416.1 163.5 416.3 163.05 416.2 160.5 Q416.0 158.6 416.85 157.0 L416.85 143.55 416.85 133.1 417.05 132.7 417.3 132.25 417.45 131.8 417.45 127.45 417.45 123.1 417.2 122.65 Q416.85 122.0 416.85 121.4 L416.85 120.5 416.7 120.1 416.45 119.65 416.3 119.2 416.3 117.9 416.3 115.75 416.3 115.3 416.1 114.9 415.9 114.4 415.7 114.0 415.7 109.65 415.7 105.3 415.9 104.9 416.1 104.45 416.3 104.0 Q416.05 101.55 416.5 99.15 L416.85 94.9 417.05 94.45 417.3 94.0 417.45 93.6 417.45 93.15 Q417.35 92.5 417.6 91.85 L418.05 91.0 418.05 90.55 417.65 89.65 Q417.55 88.95 417.1 88.35 L416.9 87.95 416.75 84.5 Q416.6 82.35 417.45 80.55 L417.45 79.7 Q417.35 78.8 417.65 78.0 L418.05 77.1 418.05 76.65 418.05 76.2 418.05 75.8 Q416.45 73.0 416.65 69.7 L416.9 63.65 416.7 63.2 416.5 62.75 416.35 62.3 416.3 61.9 415.75 61.45 415.15 61.0 414.75 60.55 414.6 60.15 414.45 59.7 413.3 58.3 412.1 56.85 409.95 56.2 408.2 55.65 407.65 55.2 407.35 54.95 Q404.9 54.6 402.7 53.5 L402.15 53.2 Q392.2 50.2 382.35 52.6 376.8 53.95 371.0 54.2 343.5 55.5 316.6 52.5 L315.65 52.1 315.0 51.75 314.6 50.85 314.45 49.6 314.45 49.15 314.6 48.75 314.85 48.25 315.0 47.85 315.0 46.55 315.0 44.4 315.0 43.95 315.2 43.5 315.4 43.05 315.6 42.65 315.6 40.45 315.6 37.45 315.6 37.0 315.4 36.55 315.2 36.1 315.0 35.7 315.05 30.5 315.0 24.85 315.2 24.4 315.45 23.95 315.2 23.5 315.0 23.1 315.0 9.2 315.0 -1.65 315.2 -2.1 315.4 -2.55 315.8 -3.35 316.15 -3.85 316.8 -4.15 317.75 -4.5 317.75 -4.55 318.35 -4.5 M364.25 268.6 L364.35 268.2 Q364.5 267.95 364.8 267.85 L364.75 267.85 Q364.75 267.15 364.9 266.55 365.15 265.35 365.85 264.4 L366.2 263.95 398.8 262.95 398.8 262.9 398.95 262.95 399.35 262.9 399.95 262.95 400.9 263.3 401.55 263.65 401.8 264.1 401.95 264.5 402.05 264.95 402.1 265.4 401.95 265.8 401.65 266.25 401.4 266.7 400.95 266.8 400.65 268.0 Q401.35 270.6 400.8 273.3 400.35 275.6 400.35 278.0 L400.55 278.4 400.75 278.85 400.95 279.3 Q400.65 300.65 401.95 321.8 L402.55 335.3 402.7 348.75 402.5 349.2 402.3 349.65 402.1 350.05 402.1 353.1 402.1 357.0 401.95 357.45 401.7 357.9 401.55 358.3 401.4 359.6 Q401.15 360.95 400.35 362.25 400.15 376.6 400.95 390.85 401.45 400.2 401.55 409.1 L401.6 409.45 402.2 410.4 402.7 411.25 402.65 411.7 402.5 412.1 402.1 413.0 401.5 413.35 400.5 413.7 400.35 413.7 400.2 414.0 399.95 414.45 399.6 414.85 399.2 415.15 383.1 414.5 376.35 413.55 334.65 410.9 Q291.0 409.65 247.6 411.7 234.25 412.3 220.95 412.35 216.65 412.4 212.4 413.45 L211.8 413.85 211.4 414.15 210.65 414.3 209.4 414.65 208.65 415.0 208.45 415.45 208.15 415.85 207.75 416.3 207.35 416.75 207.05 417.2 206.85 417.6 206.6 418.05 206.15 418.5 205.75 418.95 205.3 419.35 205.25 419.8 205.15 420.25 205.0 420.65 204.85 421.1 204.6 421.55 204.3 421.95 204.2 422.4 204.1 422.85 204.0 423.25 203.7 423.7 203.45 424.15 203.25 424.55 203.15 425.0 203.0 425.45 203.0 425.85 203.0 426.3 202.95 426.75 202.85 427.2 202.65 427.6 202.4 428.05 202.4 428.5 202.4 428.9 202.4 429.35 202.4 429.8 202.35 430.2 202.25 430.65 202.1 431.05 201.85 431.5 201.85 431.95 201.85 432.4 201.85 432.8 201.85 433.25 201.85 433.7 201.85 434.15 201.85 434.55 201.65 435.0 201.4 435.45 201.3 435.85 201.2 436.3 201.05 436.7 200.85 437.2 200.65 437.6 200.65 438.45 200.65 438.9 200.65 440.2 200.65 440.65 200.65 441.05 200.65 441.5 200.65 441.95 200.65 442.4 200.7 443.7 Q200.75 444.6 200.4 445.4 200.0 446.25 200.05 447.15 L200.1 448.45 200.15 454.55 199.9 456.25 199.5 457.15 199.5 457.6 199.5 458.0 199.5 458.45 199.5 458.9 199.5 459.3 199.5 459.75 199.35 460.2 199.2 460.6 198.95 461.05 198.95 461.5 198.95 461.9 198.95 462.35 198.95 462.8 198.95 463.2 198.95 463.65 198.95 464.1 198.95 464.55 198.9 464.95 198.8 465.4 198.6 465.8 198.35 466.25 198.35 466.7 198.35 467.15 198.35 467.55 198.35 468.45 198.35 468.85 198.35 469.3 198.35 469.75 198.35 470.15 198.35 470.6 198.35 471.05 198.35 471.45 198.3 471.9 198.05 472.8 197.9 473.2 197.75 473.65 197.8 474.05 197.9 474.5 198.05 474.95 198.2 475.4 198.3 475.8 198.35 476.25 198.35 476.7 198.3 477.1 198.2 477.55 198.05 477.95 197.75 478.4 197.15 478.8 196.2 479.15 195.2 478.8 194.6 478.4 194.2 477.95 194.0 477.55 193.85 477.15 193.6 476.65 193.45 476.25 193.45 475.8 193.45 475.4 193.45 474.95 193.45 474.5 193.45 474.1 193.45 473.65 193.45 473.2 193.45 472.8 193.45 472.35 193.6 471.9 193.85 471.45 194.0 471.05 194.0 470.6 194.0 470.15 194.0 469.75 194.0 469.3 194.0 468.85 194.0 468.45 194.0 468.0 194.0 467.55 194.0 467.15 194.0 466.7 194.0 466.25 194.0 465.85 194.0 465.4 194.0 464.95 194.2 464.55 194.4 464.1 194.6 463.65 194.6 463.2 194.6 462.8 194.6 462.35 194.6 461.9 194.6 461.5 194.6 461.05 194.6 460.6 194.6 460.2 194.6 459.75 194.75 459.35 195.0 458.85 195.15 458.45 195.15 458.0 195.15 457.6 195.15 457.15 195.15 456.7 195.2 456.3 195.3 455.85 195.5 455.4 195.75 454.95 195.75 454.55 195.75 454.1 195.75 453.65 195.75 452.35 195.75 451.95 195.75 451.5 195.75 451.05 195.75 450.65 195.75 450.2 195.75 449.75 195.75 449.35 195.75 448.0 195.75 447.6 195.75 446.3 195.75 445.4 195.75 445.0 195.75 444.55 195.9 444.15 196.15 443.65 196.35 443.25 196.35 442.8 196.35 442.4 196.35 441.95 196.35 440.65 196.35 440.2 196.35 439.75 196.35 439.35 196.35 438.9 196.35 438.45 196.35 438.05 196.3 437.6 Q196.25 436.9 196.45 436.3 L196.75 435.45 197.3 433.7 197.45 432.8 197.5 430.2 197.65 429.8 197.9 429.35 198.05 428.9 198.05 428.5 198.05 428.05 198.05 427.6 198.05 427.2 198.05 426.75 198.25 426.3 198.45 425.85 198.65 425.45 198.65 425.0 198.65 424.55 198.65 424.15 198.65 423.7 198.8 423.3 199.1 422.85 199.35 422.4 199.55 422.0 199.75 421.5 199.85 421.1 199.95 420.65 200.15 420.25 200.5 419.8 200.8 419.35 200.9 418.9 200.95 418.5 200.95 418.05 201.15 417.65 201.4 417.2 201.85 416.75 202.25 416.3 202.65 415.85 203.0 415.45 203.25 415.0 203.45 414.6 203.85 414.15 204.3 413.7 204.45 413.3 204.6 412.85 205.0 412.4 205.45 412.0 205.9 411.6 206.75 411.1 207.35 410.65 207.9 410.25 213.5 408.6 216.6 407.9 219.5 407.6 246.65 406.5 251.75 406.15 265.65 405.4 265.65 405.3 Q287.35 406.3 309.05 406.25 L335.55 406.4 Q356.8 406.7 377.8 408.9 L397.25 411.45 397.1 409.95 397.2 406.9 397.35 406.5 397.6 406.05 397.75 405.6 397.75 405.2 397.6 404.75 397.2 403.85 397.2 403.45 397.2 403.0 397.0 402.6 396.8 402.1 396.6 401.7 Q396.65 388.6 395.8 375.7 395.25 366.9 397.2 358.75 397.75 355.75 397.55 352.7 397.4 349.85 398.35 347.45 L398.35 338.8 398.35 331.85 398.15 331.4 397.95 330.95 397.75 330.55 397.75 329.2 397.75 327.05 397.75 326.6 397.6 326.2 397.35 325.75 397.2 325.3 Q396.65 311.85 396.65 298.4 L396.6 280.6 Q395.7 278.35 395.85 275.8 L396.05 271.45 396.2 271.05 396.45 270.6 396.2 270.15 396.05 269.75 396.0 268.85 Q395.95 268.2 396.05 267.65 383.15 269.55 369.7 268.15 L370.4 269.45 Q370.9 270.5 370.85 271.6 L371.0 272.05 371.25 272.5 371.45 272.9 Q371.55 275.95 371.15 279.0 L370.85 280.3 370.7 280.75 370.55 281.15 370.45 281.6 Q370.35 283.95 369.1 285.95 369.65 289.45 368.2 292.5 L367.95 293.3 367.8 293.75 367.55 294.2 367.4 294.65 Q366.45 298.2 366.8 302.0 L366.6 302.45 366.4 302.9 366.2 303.3 366.2 305.05 366.2 307.65 366.2 308.1 366.4 308.5 366.6 308.95 366.8 309.4 366.8 310.25 366.8 311.55 366.8 312.45 366.6 312.85 366.4 313.3 366.2 313.75 Q366.0 317.05 366.55 320.25 L366.8 321.1 367.1 322.0 367.2 322.45 Q367.9 327.35 366.8 331.95 L366.8 332.4 366.8 332.85 366.8 333.3 366.8 333.7 366.6 334.15 366.45 334.6 366.2 335.45 366.05 335.9 365.2 337.3 Q364.5 338.2 364.35 339.35 L361.8 343.55 359.9 345.95 359.7 346.3 359.4 346.75 Q355.55 349.95 351.3 352.75 350.0 353.6 348.4 353.85 L347.85 354.25 347.4 354.55 Q329.7 358.55 311.5 357.8 L301.0 358.4 Q284.15 360.85 267.55 358.45 L266.95 358.0 266.7 357.7 266.65 357.6 Q261.55 356.2 257.6 352.9 L256.25 351.95 255.6 351.05 254.65 349.35 254.35 348.9 254.25 348.45 254.15 348.05 253.8 347.15 253.65 346.75 Q253.0 343.45 251.15 340.7 L250.55 339.4 250.3 338.9 250.05 338.45 249.85 338.05 Q249.2 336.35 249.0 334.6 L248.6 333.7 Q248.35 333.05 248.4 332.4 L248.4 331.55 Q248.0 330.9 247.95 330.25 L247.85 328.05 247.85 327.2 247.65 326.8 247.4 326.35 247.0 325.9 246.3 321.5 246.1 319.4 246.1 318.5 246.1 318.1 246.1 317.65 246.1 317.2 246.1 316.75 245.75 315.9 245.15 314.6 244.95 314.15 244.95 313.75 244.95 313.3 244.95 312.45 244.95 312.0 245.1 311.6 245.4 311.15 245.25 309.35 Q244.95 308.1 244.95 306.8 L244.95 306.35 244.8 305.95 244.5 305.5 244.1 305.05 Q243.65 304.0 243.6 302.9 243.55 301.2 244.35 299.85 L244.25 297.7 Q244.1 296.0 244.95 294.65 L244.95 288.1 244.95 287.25 244.95 286.4 244.95 285.95 244.95 277.25 Q244.1 275.6 244.35 273.8 L244.75 272.2 244.65 272.25 Q231.65 271.0 218.65 271.5 198.2 272.25 177.8 271.1 L177.1 271.15 170.6 271.85 Q170.9 274.35 170.85 277.0 170.75 280.55 170.0 283.95 L169.8 284.35 169.6 284.8 169.4 285.25 Q170.05 289.2 169.15 293.45 168.5 296.45 168.85 299.55 L169.55 300.9 Q170.05 301.9 170.0 303.05 171.7 306.7 171.9 310.85 172.1 314.0 171.15 316.95 L171.15 320.85 171.15 325.2 170.95 325.6 170.75 326.05 170.55 326.5 170.4 328.2 169.55 331.25 168.95 331.7 168.25 332.15 168.0 332.6 166.95 333.85 166.5 334.15 Q145.05 343.8 121.65 338.2 L93.6 340.55 93.45 340.95 93.25 341.4 93.0 341.85 Q93.0 343.8 93.15 345.75 93.35 348.05 92.45 350.1 L92.3 352.75 91.25 355.75 91.25 361.4 91.25 366.6 92.15 368.7 93.0 371.35 93.0 371.8 Q93.0 372.45 93.3 373.1 L93.75 373.95 Q107.05 376.2 120.9 374.95 137.5 373.45 152.45 379.45 155.5 380.7 157.65 383.3 L158.55 384.25 158.7 384.7 159.15 385.55 159.45 386.0 Q159.9 388.0 160.8 389.85 161.7 391.7 161.9 393.75 L162.2 394.65 162.85 396.4 163.05 396.8 163.05 402.45 163.05 407.65 Q163.7 409.75 164.0 412.0 L164.2 415.9 Q165.15 418.55 165.15 421.55 165.15 424.1 164.2 426.35 L164.4 431.5 Q164.55 434.1 163.6 436.3 L163.6 438.05 163.6 440.65 163.8 441.1 164.05 441.55 164.2 441.95 164.2 442.85 164.2 444.55 164.2 445.45 Q165.2 454.4 164.95 463.65 164.8 470.2 164.8 476.7 L165.05 477.15 165.2 477.6 165.35 478.45 165.2 478.85 164.6 479.7 164.2 480.05 163.9 480.15 163.2 480.3 162.65 480.25 161.0 479.6 Q160.0 470.5 160.25 460.9 L160.45 447.9 Q160.0 447.3 159.95 446.6 L159.85 444.4 159.85 444.0 159.7 443.55 159.45 443.1 159.3 442.7 159.3 439.2 159.3 435.3 159.45 434.9 159.7 434.4 159.85 434.0 159.85 429.65 159.85 424.9 160.05 424.45 160.25 424.0 160.45 423.55 160.45 421.4 160.45 418.35 Q159.65 417.2 159.75 415.75 L159.85 412.7 Q158.5 409.0 158.6 404.9 L158.7 398.8 158.55 398.4 158.3 397.95 158.1 397.5 158.1 397.1 158.1 396.65 157.95 396.25 157.7 395.75 157.55 395.35 157.55 394.9 157.55 394.5 157.55 394.05 156.35 391.5 155.25 388.9 155.25 388.45 155.25 388.0 Q153.15 383.75 148.6 382.25 L147.15 381.65 Q128.1 378.9 108.75 380.2 106.6 380.3 104.6 379.45 L91.0 378.3 90.6 377.85 90.4 377.45 90.25 377.0 89.8 376.6 89.4 376.15 89.25 375.7 89.05 374.85 88.65 373.95 88.65 373.55 88.65 373.1 88.65 372.65 Q86.35 367.75 86.7 362.25 L86.95 354.45 87.1 354.0 87.35 353.55 87.5 353.15 87.5 352.7 87.5 352.25 87.5 351.4 87.7 350.95 87.9 350.5 88.1 350.1 88.1 349.65 88.3 348.8 88.65 347.9 88.65 344.45 88.65 340.55 88.85 340.1 89.05 339.65 89.25 339.25 89.25 338.8 89.3 337.95 89.4 337.05 Q104.7 334.05 120.95 333.6 138.5 337.6 155.9 333.65 162.45 332.1 166.25 327.2 L166.2 326.35 Q166.15 325.45 166.55 324.6 L166.8 324.15 166.8 319.85 166.8 315.5 167.0 315.05 167.2 314.6 167.4 314.2 167.4 312.9 167.4 310.7 167.4 310.3 167.2 309.85 167.0 309.4 166.8 308.95 166.8 308.55 166.8 307.65 166.8 306.8 166.15 305.55 Q165.5 304.55 165.65 303.35 164.05 300.55 164.1 297.25 164.15 294.7 165.05 292.45 L164.95 288.15 165.05 283.8 165.25 283.35 165.5 282.9 165.65 282.5 165.65 282.05 165.85 281.2 166.25 280.3 166.0 273.8 Q165.75 270.7 166.95 268.15 L167.4 267.85 167.7 267.75 168.1 267.65 168.4 267.3 168.85 266.9 169.4 266.65 170.15 266.45 171.15 266.6 177.65 266.45 Q199.6 268.05 221.05 265.85 228.15 265.2 234.95 266.85 238.95 267.8 243.05 267.9 L243.5 267.45 243.95 267.05 244.35 266.75 244.65 266.6 245.4 266.5 246.5 266.6 248.15 267.15 248.4 267.6 248.45 267.65 248.85 267.55 249.85 267.9 250.45 268.3 250.85 269.15 Q251.1 269.75 251.0 270.45 L250.75 271.3 250.4 271.7 249.9 272.2 249.45 272.6 249.3 273.05 249.1 273.5 248.9 273.95 248.7 274.35 Q249.55 277.5 249.3 280.9 L249.3 281.75 249.3 282.6 249.3 284.35 249.3 295.65 249.1 296.05 248.9 296.5 248.7 296.95 248.7 298.25 248.7 300.4 248.7 300.85 248.55 301.25 248.3 301.75 248.15 302.15 248.15 302.6 248.9 304.8 Q249.45 306.25 249.3 307.8 L249.3 308.25 Q249.9 309.0 249.95 309.95 L249.7 312.55 249.6 313.0 250.25 316.5 250.45 319.55 250.45 319.95 250.45 320.4 250.45 320.85 250.85 321.7 251.05 323.0 251.05 323.85 Q251.75 324.8 252.0 326.05 252.3 327.55 252.2 329.1 252.95 330.65 253.15 332.5 253.35 334.1 253.85 335.6 L253.9 336.05 253.9 336.45 254.25 336.9 254.65 337.35 255.6 339.5 257.25 342.55 258.1 345.1 259.0 347.75 259.15 348.2 259.6 348.55 260.45 349.05 260.95 349.55 261.15 349.95 261.3 350.35 Q264.4 352.3 267.95 353.25 L268.95 353.55 269.55 354.0 269.85 354.25 Q291.1 355.3 312.45 353.5 L332.35 352.35 337.75 351.5 Q341.8 350.3 346.1 350.05 L346.55 349.7 347.1 349.35 347.85 349.2 349.0 348.9 349.45 348.5 349.9 348.05 350.3 347.75 350.6 347.65 351.6 347.3 353.55 345.65 355.2 343.85 356.1 343.4 356.5 342.95 356.8 342.55 356.95 342.1 357.4 341.7 Q357.75 341.4 358.1 341.25 L359.5 339.15 Q360.1 337.9 360.3 336.45 L360.85 335.6 361.45 334.75 361.75 334.3 361.85 333.85 361.95 333.45 362.3 332.55 362.45 332.1 362.45 331.25 Q362.45 330.55 362.75 329.95 L363.05 329.5 363.05 327.8 363.05 325.15 363.05 324.3 362.85 323.9 362.65 323.4 362.45 323.0 Q361.85 320.45 361.85 317.8 L361.85 316.5 361.9 315.6 361.9 315.2 361.9 314.75 361.9 314.3 361.9 312.6 362.05 312.15 362.3 311.7 362.45 311.25 362.4 310.85 362.3 310.4 362.05 309.95 361.9 309.55 361.85 306.05 361.9 303.0 361.9 302.6 361.9 302.15 362.05 301.75 362.3 301.25 362.45 300.85 362.45 298.25 362.45 295.65 362.45 294.75 364.6 289.55 364.8 288.25 364.75 287.4 364.75 286.95 364.75 286.5 364.75 286.1 364.75 284.8 365.25 283.9 364.8 283.75 364.2 283.4 Q363.25 281.0 363.45 278.15 L363.65 273.4 363.8 272.95 364.05 272.5 364.2 272.1 364.2 270.8 364.25 268.6 M-36.55 56.8 L-35.6 57.15 -34.95 57.55 -34.7 58.0 -34.55 58.4 -34.4 59.25 -34.55 59.7 -35.15 60.55 -35.55 60.85 -35.85 61.0 -36.55 61.15 -37.55 60.8 -38.15 60.45 -38.55 59.5 Q-38.8 58.65 -38.35 57.85 L-38.0 57.4 -37.55 57.1 -37.25 57.0 -36.55 56.8" fill="#663300" fill-opacity="0.21176471" fill-rule="evenodd" stroke="none"/>
  </g>
</svg>
