<?xml version="1.0" encoding="UTF-8" standalone="no"?>
<svg xmlns:xlink="http://www.w3.org/1999/xlink" height="113.3px" width="140.6px" xmlns="http://www.w3.org/2000/svg">
  <g transform="matrix(1.0, 0.0, 0.0, 1.0, 130.15, 55.9)">
    <path d="M-9.45 -39.35 L-9.5 -39.15 -53.9 41.85 -54.2 42.1 -54.6 42.05 -54.8 41.75 -54.8 41.35 -42.95 19.8 -48.65 31.1 -10.45 -38.65 -10.45 -49.0 -10.3 -49.35 -9.95 -49.5 -9.6 -49.35 -9.45 -49.0 -9.45 -39.35 M-123.4 42.95 L-123.6 42.65 -123.6 42.25 -117.45 31.1 -79.25 -38.65 -79.25 -49.0 -79.1 -49.35 -78.75 -49.5 -78.4 -49.35 -78.25 -49.0 -78.25 -38.5 -78.3 -38.25 -122.7 42.75 -123.0 43.0 -123.4 42.95 M-78.8 31.1 L-40.6 -38.65 -40.6 -49.0 -40.45 -49.35 -40.1 -49.5 -39.75 -49.35 -39.6 -49.0 -39.6 -38.5 -39.65 -38.25 -84.05 42.75 -84.35 43.0 -84.75 42.95 -84.95 42.65 -84.95 42.25 -78.8 31.1" fill="#cccccc" fill-rule="evenodd" stroke="none"/>
    <path d="M-42.95 19.8 L-13.55 -37.75 Q-12.75 -39.2 -14.75 -45.7 -17.0 -53.0 -16.85 -55.0 -16.6 -58.25 -2.35 -50.0 L8.4 -43.85 Q11.2 -41.9 10.2 -39.35 10.15 -39.15 2.15 -36.35 -3.45 -34.3 -4.35 -32.75 L-61.35 57.4 Q-60.95 55.8 -54.6 42.95 L-54.2 43.0 -53.9 42.75 -9.5 -38.25 -9.45 -38.5 -9.45 -39.35 -9.45 -49.0 -9.6 -49.35 -9.95 -49.5 -10.3 -49.35 -10.45 -49.0 -10.45 -38.65 -48.65 31.1 -42.95 19.8" fill="#000000" fill-opacity="0.6" fill-rule="evenodd" stroke="none"/>
    <path d="M-84.75 42.95 L-84.35 43.0 -84.05 42.75 -39.65 -38.25 -39.6 -38.5 -39.6 -49.0 -39.75 -49.35 -40.1 -49.5 -40.45 -49.35 -40.6 -49.0 -40.6 -38.65 -78.8 31.1 Q-66.9 7.3 -43.7 -37.75 -42.9 -39.2 -44.9 -45.7 -47.15 -53.0 -47.0 -55.0 -46.75 -58.25 -32.5 -50.0 L-21.75 -43.85 Q-18.95 -41.9 -19.95 -39.35 -20.0 -39.15 -28.0 -36.35 -33.6 -34.3 -34.5 -32.75 L-91.5 57.4 Q-91.1 55.8 -84.75 42.95" fill="#000000" fill-opacity="0.4" fill-rule="evenodd" stroke="none"/>
    <path d="M-117.45 31.1 L-115.6 27.35 -83.5 -35.55 -82.35 -37.75 Q-81.6 -39.15 -83.5 -45.45 L-83.55 -45.7 Q-85.8 -53.0 -85.65 -55.0 -85.55 -56.2 -83.5 -55.8 -80.05 -55.15 -71.15 -50.0 L-60.4 -43.85 Q-57.6 -41.9 -58.6 -39.35 -58.65 -39.15 -66.65 -36.35 -72.25 -34.3 -73.15 -32.75 L-83.5 -16.35 -111.1 27.35 -130.15 57.4 Q-129.75 55.8 -123.4 42.95 L-123.0 43.0 -122.7 42.75 -78.3 -38.25 -78.25 -38.5 -78.25 -49.0 -78.4 -49.35 -78.75 -49.5 -79.1 -49.35 -79.25 -49.0 -79.25 -38.65 -117.45 31.1" fill="#000000" fill-opacity="0.14901961" fill-rule="evenodd" stroke="none"/>
  </g>
</svg>
