<?xml version="1.0" encoding="UTF-8" standalone="no"?>
<svg xmlns:xlink="http://www.w3.org/1999/xlink" height="95.75px" width="152.35px" xmlns="http://www.w3.org/2000/svg">
  <g transform="matrix(1.0, 0.0, 0.0, 1.0, 121.4, 63.7)">
    <path d="M2.65 -61.9 L4.0 -61.75 4.5 -61.6 5.0 -61.35 5.45 -61.2 10.15 -61.1 10.65 -60.95 17.55 -60.8 18.05 -60.65 20.15 -60.45 20.55 -60.3 20.85 -60.05 21.5 -59.8 22.1 -59.6 22.65 -59.35 23.35 -59.15 23.85 -59.0 24.35 -58.75 24.85 -58.55 25.3 -58.3 25.8 -58.05 26.6 -57.9 27.0 -57.75 27.35 -57.5 27.5 -57.3 28.2 -57.25 28.6 -57.1 28.85 -56.85 29.05 -56.6 29.45 -56.35 29.65 -56.1 29.9 -55.85 30.15 -55.65 30.4 -55.4 30.55 -55.15 30.65 -54.9 30.8 -54.65 30.9 -54.4 30.95 -54.2 30.95 -53.95 30.95 -53.7 30.95 -53.45 30.9 -53.2 30.7 -52.95 30.5 -52.75 30.55 -52.5 30.65 -52.25 30.55 -52.0 30.5 -51.75 30.3 -51.6 30.15 -51.5 29.85 -51.45 29.65 -51.5 29.65 -51.35 29.65 -50.85 29.65 -50.4 29.65 -49.9 29.65 -49.65 29.6 -49.4 29.5 -49.2 29.35 -48.95 29.35 -48.7 29.35 -48.45 29.35 -48.2 29.35 -47.95 29.35 -47.75 29.35 -47.5 29.35 -47.25 29.35 -47.0 29.35 -46.75 29.35 -46.5 29.2 -46.3 29.1 -46.05 29.05 -45.8 29.05 -45.55 29.05 -45.3 29.05 -45.05 28.95 -44.85 28.8 -44.6 28.7 -44.35 28.55 -44.1 28.4 -43.85 28.4 -43.6 28.4 -43.4 28.4 -43.15 28.3 -42.9 28.15 -42.65 28.05 -42.4 28.05 -42.15 28.0 -41.95 27.8 -41.7 27.75 -41.45 27.75 -41.2 27.75 -40.95 27.65 -40.7 27.55 -40.5 27.4 -40.25 27.35 -40.0 27.25 -39.75 27.15 -39.5 27.1 -39.25 27.1 -39.0 27.1 -38.8 27.1 -38.55 27.0 -38.3 26.95 -38.05 26.85 -37.8 26.75 -37.55 26.75 -37.35 26.75 -37.1 26.75 -36.85 26.75 -36.6 26.75 -36.35 26.75 -36.1 26.75 -35.9 26.6 -35.65 26.5 -35.4 26.45 -35.15 26.45 -34.9 26.45 -34.65 26.45 -34.45 26.45 -34.2 26.45 -33.95 26.3 -33.7 26.2 -33.45 26.1 -33.2 26.1 -33.0 26.1 -32.75 26.05 -32.5 25.9 -32.25 25.8 -32.0 25.8 -31.75 25.8 -31.55 25.8 -31.3 25.8 -31.05 25.65 -30.8 25.55 -30.55 25.45 -30.3 25.45 -30.1 25.45 -29.85 25.4 -29.6 25.25 -29.35 25.15 -29.1 25.15 -28.85 25.15 -28.65 25.05 -28.4 25.0 -28.15 24.85 -27.9 24.85 -27.65 24.85 -27.4 24.85 -27.2 24.85 -26.95 24.85 -26.7 24.75 -26.45 24.65 -26.2 24.5 -25.95 24.45 -25.7 24.25 -25.5 24.2 -25.25 24.1 -25.0 24.0 -24.75 23.95 -24.5 23.85 -24.25 23.85 -24.05 23.85 -23.8 23.85 -23.55 23.85 -23.3 23.7 -23.05 23.6 -22.8 23.55 -22.6 23.55 -22.35 23.55 -22.1 23.55 -21.85 23.55 -21.6 23.55 -21.35 23.4 -21.15 23.3 -20.9 23.2 -20.65 23.2 -20.4 23.2 -20.15 23.2 -19.9 23.2 -19.7 23.2 -19.45 23.05 -19.2 22.95 -18.95 22.9 -18.7 22.9 -18.45 22.9 -18.25 22.9 -18.0 22.9 -17.75 22.9 -17.5 22.75 -17.25 22.65 -17.0 22.55 -16.8 22.55 -16.55 22.55 -16.3 22.55 -16.05 22.55 -15.8 22.55 -15.55 22.55 -15.35 22.5 -15.1 22.35 -14.85 22.25 -14.6 22.25 -14.35 22.25 -14.1 22.25 -13.9 22.25 -13.65 22.1 -13.4 22.0 -13.15 21.9 -12.9 21.9 -12.65 21.9 -12.4 21.9 -12.2 21.9 -11.95 21.9 -11.7 21.9 -11.45 21.85 -11.2 21.7 -10.95 21.6 -10.75 21.5 -10.5 21.45 -10.25 21.35 -10.0 21.3 -9.75 21.3 -9.5 21.3 -9.3 21.2 -9.05 21.05 -8.8 20.8 -8.55 20.65 -8.4 20.45 -8.3 20.15 -8.25 19.5 -8.25 19.0 -8.4 18.8 -8.65 18.55 -8.9 18.35 -9.1 18.3 -9.35 18.15 -9.6 17.9 -9.85 17.75 -10.1 17.55 -10.35 17.5 -10.55 17.25 -10.8 17.0 -11.05 16.75 -11.3 16.7 -11.55 16.5 -11.8 16.45 -12.0 16.45 -12.25 16.45 -12.5 16.35 -12.75 16.25 -13.0 16.2 -13.25 16.1 -13.45 16.05 -13.7 15.95 -13.95 15.8 -14.2 15.7 -14.45 15.55 -14.7 15.45 -14.9 15.3 -15.4 15.15 -15.9 15.0 -16.35 14.8 -16.85 14.65 -17.35 14.5 -17.85 14.5 -18.05 14.5 -18.3 14.4 -18.55 14.35 -18.8 14.2 -19.05 14.1 -19.3 13.95 -19.5 13.85 -19.75 13.7 -20.0 13.6 -20.25 13.55 -20.5 13.55 -20.75 13.55 -20.95 13.55 -21.2 13.45 -21.45 13.35 -21.7 13.2 -21.95 12.95 -22.2 12.8 -22.4 12.7 -22.65 12.55 -22.9 12.5 -23.15 12.3 -23.4 12.25 -23.65 12.15 -23.85 12.1 -24.1 12.0 -24.35 11.9 -24.6 11.75 -24.85 11.65 -25.1 11.45 -25.3 11.25 -25.55 11.25 -25.8 11.25 -26.05 11.2 -26.3 11.1 -26.55 10.95 -26.75 10.95 -27.0 10.95 -27.25 10.95 -27.5 10.85 -27.75 10.8 -28.0 10.7 -28.2 10.65 -28.45 10.45 -28.7 10.4 -28.95 10.2 -29.2 10.15 -29.45 10.05 -29.65 10.0 -29.9 10.0 -30.15 10.0 -30.4 9.8 -30.65 9.75 -30.9 9.65 -31.15 9.65 -31.35 9.65 -31.6 9.65 -31.85 9.65 -32.1 9.65 -32.35 9.6 -32.6 9.5 -32.8 9.4 -33.05 9.35 -33.3 9.15 -33.55 9.1 -33.8 9.0 -34.05 9.0 -34.25 9.0 -34.5 9.0 -34.75 9.0 -35.0 8.95 -35.25 8.85 -35.5 8.75 -35.7 8.75 -35.95 8.7 -36.2 8.7 -36.45 8.7 -36.7 8.7 -36.95 8.7 -37.15 8.7 -37.4 8.7 -37.65 8.7 -37.9 8.7 -38.15 8.6 -38.4 8.55 -38.6 8.45 -38.85 8.35 -39.1 8.35 -39.35 8.35 -39.6 8.35 -39.85 8.2 -39.85 8.05 -39.6 7.95 -39.35 7.8 -39.1 7.55 -38.85 7.4 -38.6 7.4 -38.4 7.3 -38.15 7.25 -37.9 7.05 -37.65 7.05 -37.4 7.05 -37.15 7.05 -36.95 7.05 -36.7 7.05 -36.45 7.0 -36.2 6.9 -35.95 6.75 -35.7 6.75 -35.5 6.75 -35.25 6.75 -35.0 6.75 -34.75 6.75 -34.5 6.75 -34.25 6.6 -34.05 6.5 -33.8 6.45 -33.55 6.45 -33.3 6.45 -33.05 6.45 -32.8 6.35 -32.6 6.25 -32.35 6.1 -32.1 6.1 -31.85 6.1 -31.6 6.1 -31.35 5.95 -31.15 5.85 -30.9 5.8 -30.65 5.8 -30.4 5.8 -30.15 5.8 -29.9 5.8 -29.65 5.8 -29.45 5.8 -29.2 5.7 -28.95 5.6 -28.7 5.55 -28.45 5.45 -28.2 5.4 -28.0 5.3 -27.75 5.2 -27.5 5.15 -27.25 5.15 -27.0 5.15 -26.75 5.15 -26.55 5.15 -26.3 5.15 -26.05 5.15 -25.8 5.15 -25.55 5.05 -25.3 5.0 -25.1 4.9 -24.85 4.8 -24.6 4.8 -24.35 4.8 -24.1 4.8 -23.85 4.8 -23.65 4.75 -23.4 4.65 -23.15 4.55 -22.9 4.5 -22.65 4.5 -22.4 4.5 -21.95 4.5 -21.2 4.5 -20.5 4.5 -19.75 4.5 -19.05 4.5 -18.8 4.4 -18.55 4.35 -18.3 4.25 -18.05 4.15 -17.85 4.15 -17.6 4.15 -17.35 4.15 -17.1 4.15 -16.85 4.15 -16.6 4.15 -16.35 4.15 -16.15 4.15 -15.9 4.1 -15.65 4.0 -15.4 3.95 -15.15 3.85 -14.9 3.85 -14.7 3.85 -14.45 3.85 -14.2 3.85 -13.95 3.75 -13.7 3.7 -13.45 3.6 -13.25 3.5 -13.0 3.5 -12.75 3.5 -12.5 3.5 -12.25 3.5 -12.0 3.5 -11.8 3.45 -11.55 3.35 -11.3 3.3 -11.05 3.2 -10.8 3.2 -10.55 3.2 -10.35 3.2 -10.1 3.2 -9.85 3.1 -9.6 3.05 -9.35 2.95 -9.1 2.9 -8.9 2.9 -8.65 2.9 -8.4 2.9 -8.15 2.9 -7.9 2.9 -7.65 2.8 -7.45 2.7 -7.2 2.65 -6.95 2.55 -6.7 2.45 -6.45 2.4 -6.2 2.3 -6.0 2.25 -5.75 2.25 -5.5 2.25 -5.25 2.25 -5.0 2.25 -4.75 2.15 -4.55 2.05 -4.3 2.0 -4.05 1.9 -3.8 1.9 -3.55 1.9 -3.3 1.9 -3.05 1.9 -2.85 1.85 -2.6 1.75 -2.35 1.65 -2.1 1.6 -1.85 1.5 -1.6 1.35 -1.4 1.2 -1.15 1.0 -0.9 0.85 -0.65 0.8 -0.4 0.6 -0.15 0.55 0.05 0.4 0.3 0.3 0.55 0.15 0.8 -0.1 1.05 -0.45 1.3 -0.85 1.45 -1.15 1.45 -1.65 1.3 -1.9 1.05 -2.05 0.9 -2.15 0.8 -2.6 0.65 -2.85 0.4 -2.95 0.15 -3.0 -0.1 -3.25 -0.35 -3.25 -0.6 -3.25 -0.8 -3.35 -1.05 -3.6 -1.3 -3.6 -1.55 -3.6 -1.8 -3.6 -2.05 -3.6 -2.25 -3.65 -2.5 -3.8 -2.75 -3.9 -3.0 -3.9 -3.25 -3.9 -3.5 -4.0 -3.7 -4.05 -3.95 -4.2 -4.2 -4.2 -4.45 -4.2 -4.7 -4.2 -4.95 -4.4 -5.15 -4.45 -5.4 -4.65 -5.65 -4.7 -5.9 -4.8 -6.15 -4.85 -6.4 -4.85 -6.6 -4.85 -6.85 -4.85 -7.1 -4.95 -7.35 -5.1 -7.6 -5.2 -7.85 -5.2 -8.05 -5.2 -8.3 -5.25 -8.55 -5.35 -8.8 -5.45 -9.05 -5.5 -9.3 -5.5 -9.5 -5.5 -9.75 -5.5 -10.0 -5.5 -10.25 -5.5 -10.5 -5.5 -10.75 -5.6 -10.95 -5.7 -11.2 -5.75 -11.45 -5.85 -11.7 -5.9 -11.95 -6.0 -12.2 -6.0 -12.4 -6.1 -12.65 -6.15 -12.9 -6.15 -13.15 -6.15 -13.4 -6.15 -13.65 -6.15 -13.9 -6.25 -14.1 -6.3 -14.35 -6.4 -14.6 -6.5 -14.85 -6.5 -15.1 -6.5 -15.35 -6.5 -15.55 -6.5 -15.8 -6.5 -16.05 -6.55 -16.3 -6.65 -16.55 -6.75 -16.8 -6.8 -17.0 -6.9 -17.25 -6.95 -17.5 -7.15 -17.75 -7.15 -18.0 -7.15 -18.25 -7.15 -18.45 -7.15 -18.7 -7.2 -18.95 -7.2 -19.2 -7.3 -19.45 -7.35 -19.7 -7.45 -19.9 -7.45 -20.15 -7.45 -20.4 -7.45 -20.65 -7.45 -20.9 -7.45 -21.15 -7.45 -21.35 -7.55 -21.6 -7.55 -21.85 -7.6 -22.1 -7.7 -22.35 -7.7 -22.6 -7.75 -22.8 -7.75 -23.05 -7.75 -23.3 -7.75 -23.55 -7.75 -23.8 -7.75 -24.05 -7.85 -24.25 -7.95 -24.5 -8.0 -24.75 -8.0 -25.0 -8.1 -25.25 -8.2 -25.5 -8.25 -25.7 -8.25 -25.95 -8.35 -26.2 -8.4 -26.45 -8.4 -26.7 -8.4 -26.95 -8.4 -27.2 -8.4 -27.4 -8.4 -27.65 -8.4 -27.9 -8.5 -28.15 -8.6 -28.4 -8.6 -28.65 -8.65 -28.85 -8.65 -29.1 -8.75 -29.35 -8.75 -29.6 -8.75 -29.85 -8.75 -30.1 -8.75 -30.3 -8.75 -30.55 -8.75 -30.8 -8.8 -31.05 -8.9 -31.3 -8.9 -31.55 -9.0 -31.75 -9.0 -32.0 -9.05 -32.25 -9.15 -32.5 -9.15 -32.75 -9.25 -33.0 -9.3 -33.2 -9.4 -33.45 -9.4 -33.7 -9.45 -33.95 -9.55 -34.2 -9.65 -34.45 -9.65 -34.65 -9.7 -34.9 -9.8 -35.15 -9.85 -35.4 -9.85 -35.65 -9.95 -35.9 -10.05 -36.1 -10.05 -36.35 -10.05 -36.6 -10.05 -36.85 -10.05 -37.1 -10.1 -37.35 -10.3 -37.55 -10.35 -37.4 -10.45 -37.15 -10.5 -36.95 -10.75 -36.7 -10.85 -36.45 -10.9 -36.2 -11.0 -35.95 -11.1 -35.7 -11.25 -35.5 -11.35 -35.25 -11.4 -35.0 -11.5 -34.75 -11.5 -34.5 -11.55 -34.25 -11.65 -34.05 -11.8 -33.8 -11.9 -33.55 -12.05 -33.3 -12.2 -33.05 -12.35 -32.8 -12.35 -32.6 -12.45 -32.35 -12.55 -32.1 -12.6 -31.85 -12.7 -31.6 -12.8 -31.35 -12.85 -31.15 -12.95 -30.9 -13.0 -30.65 -13.1 -30.4 -13.25 -30.15 -13.35 -29.9 -13.4 -29.65 -13.5 -29.45 -13.6 -29.2 -13.65 -28.95 -13.85 -28.7 -13.9 -28.45 -14.0 -28.2 -14.05 -28.0 -14.15 -27.75 -14.25 -27.5 -14.25 -27.25 -14.25 -27.0 -14.3 -26.75 -14.4 -26.55 -14.55 -26.3 -14.65 -26.05 -14.8 -25.8 -14.9 -25.55 -14.9 -25.3 -14.9 -25.1 -14.95 -24.85 -15.05 -24.6 -15.1 -24.35 -15.2 -24.1 -15.3 -23.85 -15.35 -23.65 -15.5 -23.4 -15.7 -23.15 -15.85 -22.9 -16.1 -22.65 -16.35 -22.5 -16.65 -22.4 -16.95 -22.4 -17.45 -22.6 -17.7 -22.8 -17.95 -23.05 -18.2 -23.3 -18.45 -23.55 -18.45 -23.8 -18.6 -24.05 -18.75 -24.25 -18.75 -24.5 -18.75 -24.75 -18.85 -25.0 -18.9 -25.25 -19.05 -25.5 -19.05 -25.7 -19.05 -25.95 -19.05 -26.2 -19.05 -26.7 -19.05 -27.2 -19.05 -27.65 -19.05 -28.15 -19.25 -28.4 -19.3 -28.65 -19.4 -28.85 -19.4 -29.35 -19.4 -30.1 -19.4 -31.05 -19.4 -32.0 -19.4 -33.0 -19.4 -33.7 -19.4 -33.95 -19.55 -34.2 -19.65 -34.45 -19.7 -34.65 -19.7 -34.9 -19.7 -35.15 -19.7 -35.4 -19.7 -35.65 -19.7 -35.9 -19.7 -36.1 -19.8 -36.35 -19.95 -36.6 -20.05 -36.85 -20.05 -37.1 -20.05 -37.35 -20.05 -37.55 -20.05 -37.8 -20.05 -38.05 -20.05 -38.3 -20.1 -38.55 -20.2 -38.8 -20.35 -39.0 -20.45 -39.25 -20.6 -39.5 -20.7 -39.75 -20.75 -40.0 -20.85 -40.25 -20.95 -40.5 -21.0 -40.7 -21.0 -40.95 -21.0 -41.2 -21.1 -41.45 -21.15 -41.7 -21.35 -41.95 -21.4 -42.15 -21.55 -42.4 -21.65 -42.65 -21.8 -42.9 -22.0 -42.9 -22.2 -42.65 -22.45 -42.4 -22.7 -42.15 -22.95 -41.95 -23.2 -41.7 -23.45 -41.45 -23.65 -41.2 -23.85 -40.95 -23.9 -40.7 -24.1 -40.5 -24.25 -40.25 -24.25 -40.0 -24.3 -39.75 -24.4 -39.5 -24.55 -39.25 -24.55 -39.0 -24.55 -38.8 -24.7 -38.55 -24.8 -38.3 -24.9 -38.05 -24.9 -37.8 -24.9 -37.55 -24.9 -37.35 -24.95 -37.1 -25.05 -36.85 -25.2 -36.6 -25.2 -36.35 -25.2 -36.1 -25.2 -35.9 -25.2 -35.65 -25.2 -35.4 -25.3 -35.15 -25.35 -34.9 -25.55 -34.65 -25.55 -34.45 -25.55 -33.95 -25.55 -33.2 -25.55 -32.5 -25.55 -31.75 -25.55 -31.05 -25.55 -30.8 -25.6 -30.55 -25.75 -30.3 -25.85 -30.1 -25.85 -29.6 -25.85 -28.85 -25.85 -28.15 -25.85 -27.4 -25.85 -26.7 -25.85 -25.95 -25.85 -25.7 -25.95 -25.5 -26.0 -25.25 -26.1 -25.0 -26.15 -24.75 -26.15 -24.5 -26.15 -24.25 -26.15 -24.05 -26.15 -23.8 -26.15 -23.55 -26.15 -23.3 -26.15 -23.05 -26.0 -22.8 -25.95 -22.6 -25.85 -22.35 -25.85 -21.85 -25.85 -20.9 -25.85 -19.9 -25.85 -18.95 -25.85 -18.0 -25.85 -17.0 -25.95 -16.8 -26.0 -16.55 -26.15 -16.3 -26.15 -12.65 -26.15 -8.8 -26.15 -4.95 -26.15 -1.05 -26.15 2.8 -26.15 4.75 -26.35 5.0 -26.4 5.25 -26.5 5.45 -26.5 6.2 -26.5 7.15 -26.5 8.15 -26.5 9.1 -26.5 10.05 -26.5 11.05 -26.6 11.25 -26.65 11.5 -26.8 11.75 -26.8 12.0 -26.8 12.25 -26.8 12.7 -26.8 13.2 -26.8 13.7 -26.8 14.2 -26.8 14.65 -26.9 14.9 -27.05 15.15 -27.15 15.4 -27.15 15.65 -27.15 15.85 -27.15 16.1 -27.15 16.35 -27.15 16.6 -27.15 16.85 -27.15 17.1 -27.15 17.3 -27.15 17.55 -27.15 17.8 -27.2 18.05 -27.3 18.3 -27.45 18.55 -27.45 18.75 -27.45 19.0 -27.45 19.25 -27.45 19.5 -27.55 19.75 -27.7 20.0 -27.8 20.2 -27.8 20.45 -27.8 20.7 -27.8 20.95 -27.8 21.2 -27.8 21.45 -27.95 21.65 -28.1 21.9 -28.1 22.15 -28.1 22.4 -28.2 22.65 -28.25 22.9 -28.35 23.1 -28.45 23.35 -28.5 23.6 -28.7 23.85 -28.75 24.1 -28.75 24.35 -28.75 24.55 -28.85 24.8 -28.9 25.05 -29.1 25.3 -29.1 25.55 -29.1 25.8 -29.15 26.0 -29.25 26.25 -29.5 26.5 -29.8 26.75 -30.2 26.9 -31.2 26.9 -31.65 26.75 -31.9 26.5 -32.0 26.25 -32.05 26.0 -32.3 25.8 -32.3 25.55 -32.45 25.3 -32.65 25.05 -32.65 24.8 -32.65 24.55 -32.65 24.35 -32.7 24.1 -32.95 23.85 -32.95 23.6 -32.95 23.35 -32.95 23.1 -32.95 22.9 -32.95 22.65 -33.1 22.4 -33.3 22.15 -33.3 21.9 -33.3 21.65 -33.3 21.45 -33.3 21.2 -33.45 20.95 -33.5 20.7 -33.6 20.45 -33.6 20.2 -33.6 20.0 -33.7 19.75 -33.85 19.5 -33.9 19.25 -33.9 19.0 -33.9 18.75 -33.9 18.55 -33.9 18.3 -33.9 18.05 -33.9 17.8 -34.0 17.55 -34.1 17.3 -34.25 17.1 -34.35 16.85 -34.5 16.6 -34.55 16.35 -34.75 16.1 -34.8 15.85 -34.9 15.65 -34.9 15.4 -34.9 15.15 -34.95 14.9 -35.05 14.65 -35.15 14.4 -35.2 14.2 -35.2 13.95 -35.2 13.7 -35.2 13.45 -35.2 13.2 -35.2 12.95 -35.3 12.7 -35.35 12.5 -35.55 12.25 -35.55 12.0 -35.55 11.75 -35.55 11.5 -35.6 11.25 -35.8 11.05 -35.85 10.8 -35.85 10.55 -35.85 10.3 -35.85 10.05 -35.85 9.8 -35.85 9.6 -36.0 9.35 -36.1 9.1 -36.2 8.85 -36.2 8.6 -36.35 8.35 -36.4 8.15 -36.5 7.9 -36.5 7.65 -36.5 7.4 -36.5 7.15 -36.5 6.9 -36.5 6.7 -36.5 6.45 -36.6 6.2 -36.75 5.95 -36.85 5.7 -36.85 5.45 -36.85 5.25 -36.85 5.0 -36.85 4.75 -37.0 4.5 -37.05 4.25 -37.15 4.0 -37.15 3.8 -37.15 3.55 -37.15 3.3 -37.15 3.05 -37.15 2.8 -37.15 2.55 -37.25 2.35 -37.4 2.1 -37.45 1.85 -37.65 1.6 -37.7 1.35 -37.8 1.1 -37.8 0.9 -37.8 0.65 -37.9 0.4 -37.95 0.15 -38.05 -0.1 -38.1 -0.35 -38.1 -0.6 -38.1 -0.8 -38.1 -1.05 -38.1 -1.3 -38.1 -1.55 -38.2 -1.8 -38.35 -2.25 -38.5 -2.75 -38.7 -3.25 -38.85 -3.7 -39.0 -4.2 -39.15 -4.7 -39.25 -4.95 -39.4 -5.15 -39.4 -5.4 -39.4 -5.65 -39.4 -5.9 -39.4 -6.15 -39.5 -6.4 -39.65 -6.6 -39.75 -6.85 -39.9 -7.1 -39.95 -7.35 -40.05 -7.6 -40.05 -7.85 -40.15 -8.05 -40.2 -8.3 -40.3 -8.55 -40.4 -8.8 -40.55 -9.05 -40.6 -9.3 -40.7 -9.5 -40.7 -9.75 -40.7 -10.0 -40.7 -10.25 -40.8 -10.5 -40.85 -10.75 -40.95 -10.95 -41.0 -11.2 -41.1 -11.45 -41.2 -11.7 -41.25 -11.95 -41.35 -12.2 -41.35 -12.4 -41.35 -12.65 -41.35 -12.9 -41.45 -13.15 -41.5 -13.4 -41.6 -13.65 -41.65 -13.9 -41.75 -14.1 -41.85 -14.35 -41.9 -14.6 -42.0 -14.85 -42.05 -15.1 -42.25 -15.35 -42.3 -15.55 -42.4 -15.8 -42.5 -16.05 -42.55 -16.3 -42.65 -16.55 -42.7 -16.8 -42.8 -17.0 -42.9 -17.25 -42.95 -17.5 -42.95 -17.75 -42.95 -18.0 -42.95 -18.25 -42.95 -18.45 -43.1 -18.7 -43.2 -18.95 -43.35 -19.2 -43.45 -19.45 -43.6 -19.7 -43.6 -19.9 -43.6 -20.15 -43.6 -20.4 -43.6 -20.65 -43.7 -20.9 -43.75 -21.15 -43.85 -21.35 -43.95 -21.6 -44.0 -21.85 -44.1 -22.1 -44.15 -22.35 -44.25 -22.6 -44.35 -22.8 -44.5 -23.05 -44.55 -23.3 -44.55 -23.55 -44.55 -23.8 -44.65 -24.05 -44.75 -24.25 -44.8 -24.5 -44.9 -24.75 -44.9 -25.0 -44.9 -25.25 -44.9 -25.5 -45.0 -25.7 -45.05 -25.95 -45.15 -26.2 -45.2 -26.45 -45.2 -26.7 -45.2 -26.95 -45.2 -27.2 -45.3 -27.4 -45.4 -27.65 -45.45 -27.9 -45.55 -28.15 -45.6 -28.4 -45.7 -28.65 -45.8 -28.85 -45.85 -29.1 -46.05 -29.35 -46.1 -29.6 -46.2 -29.85 -46.2 -30.1 -46.2 -30.3 -46.25 -30.55 -46.45 -30.8 -46.5 -31.05 -46.5 -31.55 -46.5 -32.25 -46.5 -33.2 -46.5 -34.2 -46.5 -35.15 -46.5 -35.9 -46.5 -36.1 -46.6 -36.35 -46.75 -36.6 -46.85 -36.85 -46.85 -37.1 -46.85 -37.35 -46.85 -37.55 -46.85 -37.8 -47.0 -38.05 -47.1 -38.3 -47.15 -38.55 -47.15 -38.8 -47.15 -39.0 -47.25 -39.25 -47.4 -39.5 -47.5 -39.75 -47.55 -40.0 -47.65 -40.25 -47.7 -40.5 -47.8 -40.7 -47.8 -40.95 -47.8 -41.2 -47.9 -41.45 -47.95 -41.7 -48.15 -41.95 -48.35 -42.15 -48.45 -42.4 -48.45 -42.55 -48.55 -42.6 -49.1 -42.55 -49.25 -42.35 -49.4 -42.1 -49.4 -41.85 -49.5 -41.6 -49.65 -41.35 -49.9 -41.1 -50.0 -40.9 -50.05 -40.65 -50.05 -40.4 -50.05 -40.15 -50.15 -39.9 -50.3 -39.65 -50.4 -39.45 -50.4 -39.2 -50.4 -38.95 -50.45 -38.7 -50.55 -38.45 -50.7 -38.2 -50.7 -38.0 -50.7 -37.75 -50.7 -37.5 -50.7 -37.25 -50.7 -37.0 -50.7 -36.75 -50.7 -36.55 -50.85 -36.3 -50.95 -36.05 -51.05 -35.8 -51.05 -35.55 -51.05 -35.3 -51.05 -35.1 -51.05 -34.85 -51.05 -34.6 -51.2 -34.35 -51.25 -34.1 -51.35 -33.85 -51.35 -33.6 -51.35 -33.4 -51.45 -33.15 -51.6 -32.9 -51.7 -32.65 -51.7 -32.4 -51.7 -32.15 -51.75 -31.95 -51.85 -31.7 -51.9 -31.45 -52.0 -31.2 -52.1 -30.95 -52.15 -30.7 -52.3 -30.5 -52.3 -30.25 -52.3 -30.0 -52.3 -29.75 -52.3 -29.5 -52.3 -29.25 -52.3 -29.05 -52.3 -28.8 -52.3 -28.55 -52.3 -28.3 -52.4 -28.05 -52.5 -27.8 -52.55 -27.6 -52.65 -27.35 -52.65 -27.1 -52.65 -26.85 -52.65 -26.6 -52.75 -26.35 -52.9 -26.15 -52.95 -25.9 -52.95 -25.65 -52.95 -25.4 -52.95 -25.15 -52.95 -24.9 -52.95 -24.7 -53.05 -24.45 -53.2 -24.2 -53.3 -23.95 -53.35 -23.7 -53.45 -23.45 -53.55 -23.25 -53.6 -23.0 -53.6 -22.75 -53.6 -22.5 -53.7 -22.25 -53.75 -22.0 -53.95 -21.8 -53.95 -21.55 -54.0 -21.3 -54.1 -21.05 -54.25 -20.8 -54.35 -20.55 -54.5 -20.3 -54.6 -20.1 -54.75 -19.85 -55.0 -19.6 -55.3 -19.35 -55.7 -19.2 -56.35 -19.2 -56.85 -19.35 -57.0 -19.5 -57.5 -19.7 -57.75 -19.9 -57.95 -20.15 -58.15 -20.4 -58.2 -20.65 -58.35 -20.9 -58.45 -21.15 -58.55 -21.35 -58.8 -21.6 -58.8 -21.85 -58.8 -22.1 -58.8 -22.35 -58.8 -22.6 -58.85 -22.8 -59.0 -23.05 -59.1 -23.3 -59.1 -23.55 -59.1 -23.8 -59.25 -24.05 -59.4 -24.25 -59.4 -24.5 -59.5 -24.75 -59.65 -25.0 -59.75 -25.25 -59.75 -25.5 -59.75 -25.7 -59.85 -25.95 -59.9 -26.2 -60.05 -26.45 -60.3 -26.7 -60.4 -26.95 -60.4 -27.2 -60.45 -27.4 -60.65 -27.65 -60.7 -27.9 -60.7 -28.15 -60.7 -28.4 -60.8 -28.65 -60.95 -28.85 -61.05 -29.1 -61.2 -29.35 -61.3 -29.6 -61.35 -29.85 -61.35 -30.1 -61.45 -30.3 -61.6 -30.55 -61.7 -30.8 -61.7 -31.05 -61.75 -31.3 -61.85 -31.55 -61.95 -31.75 -62.0 -32.0 -62.0 -32.25 -62.0 -32.5 -62.0 -32.75 -62.0 -33.0 -62.1 -33.2 -62.15 -33.45 -62.25 -33.7 -62.35 -33.95 -62.35 -34.2 -62.35 -34.45 -62.4 -34.65 -62.5 -34.9 -62.65 -35.15 -62.65 -35.4 -62.65 -35.65 -62.65 -35.9 -62.8 -36.1 -62.9 -36.35 -62.95 -36.6 -62.95 -36.85 -62.95 -37.1 -63.05 -37.35 -63.2 -37.55 -63.3 -37.8 -63.3 -38.05 -63.3 -38.3 -63.4 -38.55 -63.45 -38.8 -63.6 -39.0 -63.6 -39.25 -63.6 -39.5 -63.6 -39.75 -63.6 -40.0 -63.6 -40.25 -63.7 -40.5 -63.8 -40.7 -63.95 -40.95 -64.2 -41.2 -64.25 -41.45 -64.25 -41.7 -64.25 -41.95 -64.35 -42.15 -64.5 -42.4 -64.65 -42.65 -64.9 -42.9 -64.9 -43.15 -65.15 -43.3 -65.4 -43.05 -65.55 -42.8 -65.55 -42.55 -65.65 -42.35 -65.7 -42.1 -65.9 -41.85 -65.9 -41.6 -65.9 -41.35 -65.9 -41.1 -66.05 -40.9 -66.2 -40.65 -66.35 -40.4 -66.55 -40.15 -66.55 -39.9 -66.55 -39.65 -66.55 -39.45 -66.7 -39.2 -66.75 -38.95 -66.85 -38.7 -66.85 -38.45 -67.0 -38.2 -67.1 -38.0 -67.25 -37.75 -67.35 -37.5 -67.4 -37.25 -67.5 -37.0 -67.55 -36.75 -67.65 -36.55 -67.8 -36.3 -68.0 -36.05 -68.15 -35.8 -68.4 -35.55 -68.6 -35.4 -68.95 -35.3 -69.25 -35.3 -69.75 -35.5 -70.0 -35.7 -70.25 -35.95 -70.5 -36.2 -70.7 -36.45 -70.95 -36.7 -71.05 -36.95 -71.05 -37.15 -71.15 -37.4 -71.3 -37.65 -71.35 -37.9 -71.45 -38.15 -71.7 -38.4 -71.95 -38.6 -72.0 -38.85 -72.0 -39.1 -72.0 -39.35 -72.0 -39.6 -72.1 -39.85 -72.15 -40.05 -72.35 -40.3 -72.35 -40.55 -72.35 -40.8 -72.4 -41.05 -72.65 -41.3 -72.65 -41.5 -72.65 -41.75 -72.65 -42.0 -72.8 -42.25 -72.9 -42.5 -73.0 -42.75 -73.0 -42.95 -73.15 -43.2 -73.2 -43.45 -73.3 -43.7 -73.3 -43.95 -73.4 -44.2 -73.55 -44.45 -73.65 -44.65 -73.7 -44.9 -73.95 -45.15 -74.2 -45.4 -74.25 -45.35 -74.35 -45.15 -74.4 -45.05 -74.45 -45.0 -74.6 -44.75 -74.7 -44.5 -74.85 -44.25 -74.9 -44.0 -75.1 -43.8 -75.25 -43.55 -75.25 -43.3 -75.25 -43.05 -75.3 -42.8 -75.5 -42.55 -75.55 -42.35 -75.55 -42.1 -75.65 -41.85 -75.8 -41.6 -75.9 -41.35 -75.9 -41.1 -75.9 -40.9 -75.9 -40.65 -75.9 -40.4 -75.9 -40.15 -75.9 -39.9 -75.9 -39.65 -75.9 -39.45 -75.9 -39.2 -75.95 -38.95 -76.15 -38.7 -76.2 -38.45 -76.2 -38.2 -76.2 -38.0 -76.2 -37.75 -76.2 -37.5 -76.2 -37.25 -76.2 -37.0 -76.3 -36.75 -76.35 -36.55 -76.55 -36.3 -76.55 -36.05 -76.55 -35.8 -76.55 -35.55 -76.55 -35.3 -76.6 -35.1 -76.7 -34.85 -76.75 -34.6 -76.85 -34.35 -76.85 -34.1 -76.85 -33.85 -76.85 -33.6 -76.95 -33.4 -77.0 -33.15 -77.1 -32.9 -77.2 -32.65 -77.2 -32.4 -77.2 -32.15 -77.25 -31.95 -77.35 -31.7 -77.5 -31.45 -77.5 -31.2 -77.5 -30.95 -77.5 -30.7 -77.5 -30.5 -77.6 -30.25 -77.65 -30.0 -77.75 -29.75 -77.8 -29.5 -77.8 -29.25 -77.8 -29.05 -77.8 -28.8 -77.8 -28.55 -77.9 -28.3 -77.9 -28.05 -78.0 -27.8 -78.05 -27.6 -78.15 -27.35 -78.15 -27.1 -78.15 -26.85 -78.15 -26.6 -78.15 -26.35 -78.25 -26.15 -78.3 -25.9 -78.4 -25.65 -78.45 -25.4 -78.45 -25.15 -78.45 -24.9 -78.45 -24.7 -78.45 -24.45 -78.45 -24.2 -78.55 -23.95 -78.65 -23.7 -78.7 -23.45 -78.7 -23.25 -78.8 -23.0 -78.85 -22.75 -78.95 -22.5 -79.05 -22.25 -79.1 -22.0 -79.1 -21.8 -79.1 -21.55 -79.1 -21.3 -79.1 -21.05 -79.2 -20.8 -79.3 -20.55 -79.35 -20.3 -79.45 -20.1 -79.5 -19.85 -79.6 -19.6 -79.7 -19.35 -79.75 -19.1 -79.75 -18.85 -79.75 -18.65 -79.75 -18.4 -79.75 -18.15 -79.85 -17.9 -79.9 -17.65 -80.0 -17.4 -80.1 -17.2 -80.1 -16.95 -80.1 -16.7 -80.1 -16.45 -80.1 -16.2 -80.1 -15.95 -80.1 -15.75 -80.15 -15.5 -80.25 -15.25 -80.35 -15.0 -80.4 -14.75 -80.4 -14.5 -80.4 -14.3 -80.4 -14.05 -80.4 -13.8 -80.4 -13.55 -80.4 -13.3 -80.4 -13.05 -80.5 -12.85 -80.65 -12.6 -80.75 -12.35 -80.75 -12.1 -80.75 -11.85 -80.75 -11.6 -80.75 -11.4 -80.8 -11.15 -80.9 -10.9 -80.95 -10.65 -81.05 -10.4 -81.05 -10.15 -81.05 -9.95 -81.15 -9.7 -81.2 -9.45 -81.35 -9.2 -81.35 -8.95 -81.35 -8.7 -81.35 -8.5 -81.35 -8.25 -81.35 -8.0 -81.35 -7.75 -81.35 -7.5 -81.55 -7.25 -81.6 -7.0 -81.7 -6.8 -81.7 -6.55 -81.7 -6.3 -81.7 -6.05 -81.7 -5.8 -81.7 -5.55 -81.85 -5.35 -81.95 -5.1 -82.0 -4.85 -82.0 -4.6 -82.0 -4.35 -82.1 -4.1 -82.25 -3.9 -82.35 -3.65 -82.35 -3.4 -82.35 -3.15 -82.4 -2.9 -82.6 -2.65 -82.85 -2.45 -83.05 -2.2 -83.4 -1.95 -83.8 -1.8 -84.1 -1.8 -84.6 -1.95 -84.85 -2.2 -85.1 -2.45 -85.35 -2.65 -85.55 -2.9 -85.8 -3.15 -85.9 -3.4 -85.9 -3.65 -85.9 -3.9 -85.95 -4.1 -86.15 -4.35 -86.2 -4.6 -86.2 -4.85 -86.3 -5.1 -86.45 -5.35 -86.55 -5.55 -86.55 -5.8 -86.55 -6.05 -86.6 -6.3 -86.7 -6.55 -86.8 -6.8 -86.85 -7.0 -86.85 -7.25 -86.85 -7.5 -86.85 -7.75 -86.85 -8.0 -86.95 -8.25 -87.0 -8.5 -87.2 -8.7 -87.2 -9.45 -87.2 -10.4 -87.2 -11.4 -87.2 -12.35 -87.2 -13.3 -87.2 -14.3 -87.2 -14.5 -87.25 -14.75 -87.45 -15.0 -87.5 -15.25 -87.5 -15.5 -87.5 -15.75 -87.5 -15.95 -87.5 -16.2 -87.5 -16.45 -87.5 -16.7 -87.5 -16.95 -87.5 -17.2 -87.5 -17.4 -87.6 -17.65 -87.65 -17.9 -87.75 -18.15 -87.85 -18.4 -87.85 -18.85 -87.85 -19.6 -87.85 -20.3 -87.85 -21.05 -87.85 -21.8 -87.85 -22.5 -87.85 -23.25 -87.9 -23.45 -88.0 -23.7 -88.05 -23.95 -88.15 -24.2 -88.15 -24.45 -88.15 -24.7 -88.15 -24.9 -88.15 -25.15 -88.25 -25.4 -88.3 -25.65 -88.4 -25.9 -88.5 -26.15 -88.5 -26.35 -88.5 -26.6 -88.5 -26.85 -88.5 -27.1 -88.5 -27.35 -88.5 -27.6 -88.5 -27.8 -88.55 -28.05 -88.65 -28.3 -88.65 -28.55 -88.7 -28.8 -88.8 -29.05 -88.8 -29.25 -88.8 -29.5 -88.8 -29.75 -88.8 -30.0 -88.8 -30.25 -88.9 -30.5 -88.95 -30.7 -89.05 -30.95 -89.1 -31.2 -89.1 -31.45 -89.1 -31.7 -89.1 -31.95 -89.1 -32.15 -89.1 -32.4 -89.1 -32.65 -89.2 -32.9 -89.3 -33.15 -89.35 -33.4 -89.45 -33.6 -89.45 -33.85 -89.45 -34.1 -89.45 -34.35 -89.45 -34.6 -89.55 -34.85 -89.6 -35.1 -89.6 -35.3 -89.7 -35.55 -89.75 -35.8 -89.75 -36.05 -89.75 -36.3 -89.75 -36.55 -89.75 -36.75 -89.75 -37.0 -89.85 -37.25 -89.95 -37.5 -90.0 -37.75 -90.1 -38.0 -90.1 -38.2 -90.1 -38.45 -90.1 -38.7 -90.1 -38.95 -90.1 -39.2 -90.15 -39.45 -90.25 -39.65 -90.35 -39.9 -90.35 -40.15 -90.4 -40.4 -90.5 -40.65 -90.65 -41.1 -90.8 -41.6 -91.0 -42.1 -91.15 -42.55 -91.3 -43.05 -91.35 -43.05 -91.45 -42.8 -91.6 -42.55 -91.7 -42.35 -91.8 -42.1 -91.85 -41.85 -91.95 -41.6 -92.05 -41.35 -92.05 -41.1 -92.1 -40.9 -92.25 -40.65 -92.35 -40.4 -92.35 -40.15 -92.35 -39.9 -92.35 -39.65 -92.35 -39.45 -92.5 -39.2 -92.6 -38.95 -92.75 -38.7 -92.85 -38.45 -92.9 -38.2 -93.0 -38.0 -93.0 -37.75 -93.0 -37.5 -93.0 -37.25 -93.0 -37.0 -93.1 -36.75 -93.15 -36.55 -93.3 -36.3 -93.3 -36.05 -93.3 -35.8 -93.3 -35.55 -93.3 -35.1 -93.3 -34.6 -93.3 -34.1 -93.3 -33.6 -93.4 -33.4 -93.5 -33.15 -93.55 -32.9 -93.65 -32.65 -93.65 -32.4 -93.65 -31.95 -93.65 -31.45 -93.65 -30.95 -93.65 -30.5 -93.65 -30.0 -93.65 -29.5 -93.65 -29.25 -93.7 -29.05 -93.8 -28.8 -93.9 -28.55 -93.95 -28.3 -93.95 -28.05 -93.95 -27.8 -93.95 -27.6 -93.95 -27.35 -94.05 -27.1 -94.15 -26.85 -94.2 -26.6 -94.3 -26.35 -94.35 -26.15 -94.45 -25.9 -94.55 -25.65 -94.6 -25.4 -94.6 -25.15 -94.6 -24.9 -94.6 -24.7 -94.7 -24.45 -94.85 -24.2 -94.95 -23.95 -95.1 -23.7 -95.35 -23.45 -95.65 -23.25 -96.05 -23.05 -96.4 -23.05 -96.85 -23.25 -97.1 -23.45 -97.2 -23.7 -97.2 -23.95 -97.35 -24.2 -97.45 -24.45 -97.5 -24.7 -97.5 -24.9 -97.5 -25.15 -97.6 -25.4 -97.75 -25.65 -97.85 -25.9 -97.85 -26.15 -97.85 -26.35 -97.9 -26.6 -98.0 -26.85 -98.1 -27.1 -98.15 -27.35 -98.15 -27.6 -98.15 -27.8 -98.15 -28.05 -98.15 -28.3 -98.25 -28.55 -98.3 -28.8 -98.4 -29.05 -98.5 -29.25 -98.5 -29.5 -98.5 -29.75 -98.5 -30.0 -98.5 -30.25 -98.5 -30.5 -98.5 -30.7 -98.5 -30.95 -98.5 -31.2 -98.55 -31.45 -98.65 -31.7 -98.75 -31.95 -98.8 -32.15 -98.8 -32.4 -98.8 -32.65 -98.8 -32.9 -98.8 -33.15 -98.9 -33.4 -98.95 -33.6 -99.05 -33.85 -99.15 -34.1 -99.15 -34.35 -99.15 -34.6 -99.15 -34.85 -99.15 -35.1 -99.2 -35.3 -99.3 -35.55 -99.35 -35.8 -99.45 -36.05 -99.45 -36.3 -99.45 -36.55 -99.45 -36.75 -99.45 -37.0 -99.55 -37.25 -99.6 -37.5 -99.7 -37.75 -99.75 -38.0 -99.75 -38.2 -99.75 -38.45 -99.75 -38.7 -99.75 -38.95 -99.75 -39.2 -99.75 -39.45 -99.85 -39.65 -99.95 -39.9 -99.95 -40.15 -100.0 -40.4 -100.1 -40.65 -100.1 -40.9 -100.1 -41.1 -100.1 -41.35 -100.1 -41.6 -100.2 -41.85 -100.25 -42.1 -100.35 -42.35 -100.4 -42.55 -100.5 -42.8 -100.65 -43.05 -100.75 -43.3 -100.75 -43.55 -100.75 -43.8 -100.75 -44.0 -100.75 -44.25 -100.8 -44.5 -101.0 -44.5 -101.05 -44.25 -101.05 -44.0 -101.05 -43.8 -101.15 -43.55 -101.3 -43.3 -101.4 -43.05 -101.4 -42.8 -101.4 -42.55 -101.4 -42.35 -101.55 -42.1 -101.65 -41.85 -101.7 -41.6 -101.7 -41.35 -101.7 -41.1 -101.7 -40.9 -101.8 -40.65 -101.85 -40.4 -102.05 -40.15 -102.1 -39.9 -102.2 -39.65 -102.3 -39.45 -102.35 -39.2 -102.35 -38.95 -102.35 -38.7 -102.35 -38.45 -102.35 -38.2 -102.45 -38.0 -102.5 -37.75 -102.6 -37.5 -102.7 -37.25 -102.7 -37.0 -102.7 -36.75 -102.7 -36.55 -102.75 -36.3 -102.85 -36.05 -102.9 -35.8 -103.0 -35.55 -103.0 -35.3 -103.0 -35.1 -103.0 -34.85 -103.0 -34.6 -103.1 -34.35 -103.15 -34.1 -103.25 -33.85 -103.35 -33.6 -103.35 -33.4 -103.35 -33.15 -103.35 -32.9 -103.35 -32.65 -103.5 -32.4 -103.55 -32.15 -103.65 -31.95 -103.65 -31.45 -103.65 -30.7 -103.65 -29.75 -103.65 -28.8 -103.65 -27.8 -103.65 -26.85 -103.75 -26.6 -103.8 -26.35 -103.8 -26.15 -103.9 -25.9 -103.95 -25.65 -103.95 -25.4 -103.95 -24.9 -103.95 -24.2 -103.95 -23.45 -103.95 -22.75 -103.95 -22.0 -103.95 -21.8 -104.05 -21.55 -104.15 -21.3 -104.2 -21.05 -104.3 -20.8 -104.3 -20.3 -104.3 -19.6 -104.3 -18.85 -104.3 -18.15 -104.3 -17.4 -104.3 -16.7 -104.35 -16.45 -104.45 -16.2 -104.55 -15.95 -104.6 -15.75 -104.6 -15.25 -104.6 -14.5 -104.6 -13.8 -104.6 -13.05 -104.6 -12.35 -104.6 -11.6 -104.6 -11.4 -104.7 -11.15 -104.8 -10.9 -104.85 -10.65 -104.95 -10.4 -104.95 -9.2 -104.95 -7.5 -104.95 -5.8 -104.95 -4.1 -104.95 -2.65 -104.95 -1.7 -104.85 -1.45 -104.8 -1.2 -104.7 -1.0 -104.7 -0.75 -104.6 -0.5 -104.6 -0.25 -104.6 0.25 -104.6 0.7 -104.6 1.2 -104.6 1.7 -104.6 2.15 -104.6 2.65 -104.6 3.15 -104.7 3.35 -104.8 3.6 -104.85 3.85 -104.95 4.1 -104.95 4.35 -104.95 4.6 -104.95 4.8 -104.95 5.05 -104.95 5.3 -105.0 5.55 -105.0 5.8 -105.1 6.05 -105.2 6.3 -105.25 6.5 -105.25 6.75 -105.25 7.0 -105.25 7.25 -105.25 7.5 -105.25 7.75 -105.25 7.95 -105.25 8.2 -105.25 8.45 -105.25 8.7 -105.25 8.95 -105.35 9.2 -105.4 9.4 -105.4 9.65 -105.5 9.9 -105.6 10.15 -105.6 10.4 -105.6 10.65 -105.6 10.85 -105.6 11.1 -105.6 11.35 -105.6 11.6 -105.6 11.85 -105.6 12.1 -105.6 12.3 -105.6 12.55 -105.65 12.8 -105.75 13.05 -105.85 13.3 -105.85 13.55 -105.9 13.75 -105.9 14.0 -105.9 14.25 -105.9 14.5 -105.9 14.75 -105.9 15.0 -105.9 15.2 -105.9 15.45 -105.9 15.7 -106.0 15.95 -106.05 16.2 -106.05 16.45 -106.15 16.65 -106.25 16.9 -106.3 17.15 -106.4 17.4 -106.45 17.65 -106.55 17.9 -106.55 18.1 -106.55 18.35 -106.55 18.6 -106.55 19.1 -106.55 19.6 -106.55 20.05 -106.55 20.55 -106.65 20.8 -106.7 21.05 -106.7 21.25 -106.8 21.5 -106.9 21.75 -106.9 22.0 -106.9 22.25 -106.9 22.5 -106.9 22.95 -106.9 23.45 -106.9 23.95 -106.9 24.4 -106.95 24.65 -106.95 24.9 -107.05 25.15 -107.1 25.4 -107.1 25.6 -107.2 25.85 -107.2 26.1 -107.3 26.35 -107.35 26.6 -107.45 26.85 -107.45 27.05 -107.5 27.3 -107.6 27.55 -107.7 27.8 -107.7 28.05 -107.75 28.3 -107.85 28.5 -107.95 28.75 -108.0 29.0 -108.1 29.25 -108.15 29.5 -108.25 29.75 -108.4 29.95 -108.5 30.2 -108.5 30.45 -108.5 30.7 -108.55 30.95 -108.65 31.2 -108.8 31.4 -108.95 31.65 -109.2 31.9 -109.6 32.05 -109.95 32.05 -110.45 31.9 -110.65 31.65 -110.75 31.4 -110.75 31.2 -110.75 30.95 -110.75 30.7 -110.85 30.45 -110.9 30.2 -111.0 29.95 -111.05 29.75 -111.15 29.5 -111.25 29.25 -111.3 29.0 -111.4 28.75 -111.4 28.5 -111.4 28.3 -111.4 28.05 -111.4 27.8 -111.4 27.55 -111.4 27.3 -111.4 27.05 -111.4 26.85 -111.4 26.6 -111.5 26.35 -111.55 26.1 -111.65 25.85 -111.65 25.6 -111.7 25.4 -111.7 25.15 -111.7 24.9 -111.7 24.65 -111.7 24.4 -111.7 24.15 -111.8 23.95 -111.9 23.7 -111.95 23.45 -112.05 23.2 -112.05 22.95 -112.05 22.7 -112.05 22.5 -112.05 22.25 -112.05 22.0 -112.1 21.75 -112.2 21.5 -112.3 21.25 -112.35 21.05 -112.35 20.55 -112.35 19.6 -112.35 18.6 -112.35 17.65 -112.35 16.65 -112.35 15.7 -112.45 15.45 -112.5 15.2 -112.5 15.0 -112.6 14.75 -112.7 14.5 -112.7 14.25 -112.7 14.0 -112.7 13.75 -112.7 13.55 -112.7 13.3 -112.7 13.05 -112.75 12.8 -112.85 12.55 -112.95 12.3 -112.95 12.1 -113.0 11.85 -113.0 11.6 -113.0 11.35 -113.0 11.1 -113.0 10.85 -113.0 10.65 -113.1 10.4 -113.1 10.15 -113.15 9.9 -113.25 9.65 -113.35 9.4 -113.4 9.2 -113.5 8.95 -113.55 8.7 -113.65 8.45 -113.65 8.2 -113.65 7.95 -113.65 7.75 -113.65 7.5 -113.65 7.25 -113.65 7.0 -113.75 6.75 -113.8 6.5 -113.8 6.3 -113.9 6.05 -114.0 5.8 -114.0 5.55 -114.0 5.3 -114.0 5.05 -114.0 4.8 -114.0 4.6 -114.05 4.35 -114.15 4.1 -114.2 3.85 -114.3 3.6 -114.3 3.35 -114.3 3.15 -114.3 2.9 -114.3 2.65 -114.3 2.4 -114.3 2.15 -114.3 1.9 -114.3 1.7 -114.4 1.45 -114.45 1.2 -114.55 0.95 -114.6 0.7 -114.6 0.45 -114.6 0.0 -114.6 -0.5 -114.6 -1.0 -114.6 -1.45 -114.6 -1.95 -114.6 -2.45 -114.6 -2.9 -114.7 -3.15 -114.7 -3.4 -114.8 -3.65 -114.85 -3.9 -114.95 -4.1 -114.95 -4.6 -114.95 -5.55 -114.95 -6.55 -114.95 -7.5 -114.95 -8.5 -114.95 -9.45 -115.05 -9.7 -115.05 -9.95 -115.1 -10.15 -115.1 -10.4 -115.2 -10.65 -115.2 -10.9 -115.25 -11.15 -115.25 -11.4 -115.35 -11.6 -115.35 -11.85 -115.45 -12.1 -115.5 -12.35 -115.5 -12.6 -115.6 -12.85 -115.6 -13.05 -115.65 -13.3 -115.75 -13.55 -115.75 -13.8 -115.85 -14.05 -115.85 -14.3 -115.9 -14.5 -115.9 -14.75 -115.9 -15.0 -115.9 -15.25 -115.9 -15.5 -115.9 -15.75 -115.9 -15.95 -115.9 -16.2 -116.0 -16.45 -116.0 -16.7 -116.1 -16.95 -116.1 -17.2 -116.15 -17.4 -116.15 -17.65 -116.25 -17.9 -116.25 -18.15 -116.3 -18.4 -116.3 -18.65 -116.4 -18.85 -116.5 -19.1 -116.5 -19.35 -116.55 -19.6 -116.55 -19.85 -116.65 -20.1 -116.7 -20.3 -116.7 -20.55 -116.8 -20.8 -116.8 -21.05 -116.9 -21.3 -116.95 -21.55 -116.95 -21.8 -117.05 -22.0 -117.05 -22.25 -117.1 -22.5 -117.1 -22.75 -117.2 -23.0 -117.2 -23.25 -117.3 -23.45 -117.3 -23.7 -117.35 -23.95 -117.35 -24.2 -117.45 -24.45 -117.55 -24.7 -117.55 -24.9 -117.6 -25.15 -117.6 -25.4 -117.7 -25.65 -117.75 -25.9 -117.75 -26.15 -117.85 -26.35 -117.85 -26.6 -117.95 -26.85 -118.0 -27.1 -118.0 -27.35 -118.1 -27.6 -118.1 -27.8 -118.15 -28.05 -118.15 -28.3 -118.15 -28.55 -118.15 -28.8 -118.15 -29.05 -118.15 -29.25 -118.15 -29.5 -118.25 -29.75 -118.35 -30.0 -118.35 -30.25 -118.4 -30.5 -118.4 -30.7 -118.5 -30.95 -118.6 -31.2 -118.6 -31.45 -118.65 -31.7 -118.75 -31.95 -118.8 -32.15 -118.8 -32.4 -118.8 -32.65 -118.8 -32.9 -118.8 -33.15 -118.9 -33.4 -119.0 -33.6 -119.05 -33.85 -119.15 -34.1 -119.15 -34.35 -119.2 -34.6 -119.3 -34.85 -119.4 -35.1 -119.4 -35.3 -119.45 -35.55 -119.45 -35.8 -119.45 -36.05 -119.45 -36.3 -119.45 -36.55 -119.45 -36.75 -119.55 -37.0 -119.55 -37.25 -119.65 -37.5 -119.65 -37.75 -119.7 -38.0 -119.8 -38.2 -119.8 -38.45 -119.8 -38.7 -119.8 -38.95 -119.8 -39.2 -119.8 -39.45 -119.8 -39.65 -119.8 -39.9 -119.8 -40.15 -119.8 -40.4 -119.85 -40.65 -119.95 -40.9 -119.95 -41.1 -120.05 -41.35 -120.1 -41.6 -120.1 -41.85 -120.1 -42.1 -120.1 -42.35 -120.1 -42.55 -120.1 -42.8 -120.2 -43.05 -120.25 -43.3 -120.35 -43.55 -120.45 -43.8 -120.5 -44.0 -120.6 -44.25 -120.7 -44.5 -120.75 -44.75 -120.75 -45.45 -120.75 -46.45 -120.75 -47.4 -120.75 -48.4 -120.75 -49.35 -120.75 -50.3 -120.75 -50.55 -120.75 -50.8 -120.85 -51.05 -121.1 -51.3 -121.1 -51.5 -121.1 -51.75 -121.1 -52.0 -121.1 -52.25 -121.1 -52.5 -121.1 -52.75 -121.1 -52.95 -121.1 -53.2 -121.1 -53.45 -121.1 -53.7 -121.15 -53.95 -121.4 -54.2 -121.4 -54.4 -121.4 -54.65 -121.4 -54.9 -121.4 -55.15 -121.4 -55.4 -121.4 -55.65 -121.3 -55.85 -121.1 -56.1 -121.05 -56.15 -121.1 -56.25 -121.1 -56.5 -121.1 -56.75 -121.1 -57.0 -120.9 -57.25 -120.75 -57.4 -120.6 -57.5 -120.2 -57.65 -119.95 -57.9 -119.8 -58.05 -119.65 -58.15 -119.3 -58.2 -118.8 -58.4 -118.25 -58.6 -118.0 -58.75 -117.7 -58.85 -117.2 -59.0 -116.7 -59.2 -115.6 -59.35 -115.1 -59.5 -114.0 -59.65 -113.5 -59.8 -112.05 -60.0 -111.55 -60.15 -109.55 -60.3 -108.95 -60.45 -107.6 -60.65 -106.9 -60.85 -106.4 -61.0 -106.05 -61.1 -104.35 -61.25 -103.8 -61.45 -103.5 -61.5 -103.15 -61.6 -102.6 -61.75 -102.1 -61.9 -101.85 -62.0 -101.55 -62.1 -100.2 -62.25 -99.6 -62.4 -97.9 -62.5 -97.5 -62.55 -97.1 -62.65 -96.7 -62.7 -95.9 -62.9 -95.5 -62.95 -95.1 -63.05 -94.3 -63.2 -93.9 -63.3 -93.5 -63.35 -91.85 -63.45 -91.55 -63.55 -91.2 -63.6 -90.9 -63.65 -90.9 -63.7 -78.0 -63.7 -77.4 -63.55 -70.25 -63.35 -69.9 -63.3 -69.6 -63.2 -69.25 -63.15 -66.95 -63.15 -66.55 -63.2 -66.1 -63.3 -65.7 -63.35 -48.95 -63.35 -48.35 -63.2 -41.85 -63.05 -41.5 -62.95 -41.2 -62.9 -40.85 -62.8 -40.55 -62.7 -39.95 -62.55 -31.5 -62.4 -30.95 -62.25 -27.95 -62.1 -27.45 -61.9 -19.7 -61.9 -19.25 -62.1 -18.45 -62.25 -17.95 -62.4 -16.55 -62.55 -16.0 -62.7 -12.8 -62.8 -12.45 -62.9 -12.15 -62.95 -11.8 -63.05 -8.25 -63.05 -7.7 -62.9 -4.7 -62.7 -4.15 -62.55 -1.8 -62.4 -1.3 -62.25 2.05 -62.1 2.65 -61.9" fill="#ffffff" fill-opacity="0.7019608" fill-rule="evenodd" stroke="none"/>
  </g>
</svg>
