<?xml version="1.0" encoding="UTF-8" standalone="no"?>
<svg xmlns:xlink="http://www.w3.org/1999/xlink" height="47.3px" width="47.3px" xmlns="http://www.w3.org/2000/svg">
  <g transform="matrix(1.0, 0.0, 0.0, 1.0, 0.75, 2.15)">
    <path d="M34.0 10.7 Q38.55 15.25 38.55 21.7 38.55 28.1 34.0 32.65 29.45 37.2 23.05 37.2 16.65 37.2 12.1 32.65 7.55 28.1 7.55 21.7 7.55 15.25 12.1 10.7 16.65 6.2 23.05 6.2 29.45 6.2 34.0 10.7 M30.95 13.8 Q27.65 10.5 23.0 10.5 18.35 10.5 15.1 13.8 11.8 17.05 11.8 21.75 11.8 26.4 15.1 29.65 18.35 32.95 23.0 32.95 27.65 32.95 30.95 29.65 34.25 26.4 34.25 21.75 34.25 17.05 30.95 13.8" fill="#ffffff" fill-opacity="0.49803922" fill-rule="evenodd" stroke="none"/>
    <path d="M39.95 21.55 Q39.95 14.45 34.95 9.45 29.95 4.45 22.85 4.45 15.75 4.45 10.75 9.45 5.75 14.45 5.75 21.55 5.75 28.65 10.75 33.65 15.75 38.65 22.85 38.65 29.95 38.65 34.95 33.65 39.95 28.65 39.95 21.55 M28.45 16.2 Q30.8 18.55 30.8 21.8 30.8 25.05 28.45 27.35 26.15 29.7 22.9 29.7 19.65 29.7 17.3 27.35 15.0 25.05 15.0 21.8 15.0 18.55 17.3 16.2 19.65 13.9 22.9 13.9 26.15 13.9 28.45 16.2 M22.9 45.15 Q13.1 45.15 6.15 38.2 -0.75 31.3 -0.75 21.5 -0.75 11.7 6.15 4.75 13.1 -2.15 22.9 -2.15 32.7 -2.15 39.6 4.75 46.55 11.7 46.55 21.5 46.55 31.3 39.6 38.2 32.7 45.15 22.9 45.15" fill="#ffffff" fill-opacity="0.7019608" fill-rule="evenodd" stroke="none"/>
  </g>
</svg>
