<?xml version="1.0" encoding="UTF-8" standalone="no"?>
<svg xmlns:xlink="http://www.w3.org/1999/xlink" height="30.65px" width="46.85px" xmlns="http://www.w3.org/2000/svg">
  <g transform="matrix(1.0, 0.0, 0.0, 1.0, 0.0, 0.0)">
    <path d="M20.9 0.5 Q21.3 0.5 21.3 1.0 18.45 6.3 18.45 10.05 18.45 11.95 21.5 14.8 L24.55 17.45 Q24.5 17.95 24.0 17.95 L23.65 17.9 23.25 17.95 22.7 17.7 20.9 17.45 Q14.25 17.45 14.25 22.2 14.25 23.8 15.1 25.9 15.1 26.4 14.55 26.4 13.75 26.4 13.4 24.6 13.05 24.5 12.65 23.55 L11.5 21.2 Q9.55 17.7 6.35 17.7 4.25 17.7 2.75 18.75 L1.05 19.8 Q0.7 19.8 0.55 19.55 L0.5 19.35 Q-0.05 19.35 0.0 18.8 L2.25 15.65 Q4.5 12.15 4.55 9.45 4.5 7.5 2.95 5.65 L1.3 3.95 Q1.3 3.45 1.75 3.45 L1.75 3.3 Q1.7 2.8 2.25 2.8 2.55 2.8 4.35 4.2 6.7 5.6 9.9 5.6 11.3 5.6 13.05 4.85 L16.6 3.2 20.4 0.0 Q20.85 -0.05 20.9 0.5 M43.2 4.75 Q43.6 4.75 43.6 5.25 40.75 10.55 40.75 14.3 40.75 16.2 43.8 19.05 L46.85 21.7 Q46.8 22.2 46.3 22.2 L45.95 22.15 45.55 22.2 45.0 21.95 43.2 21.7 Q36.55 21.7 36.55 26.45 36.55 28.05 37.4 30.15 37.4 30.65 36.85 30.65 36.05 30.65 35.7 28.85 35.35 28.75 34.95 27.8 L33.8 25.45 Q31.85 21.95 28.65 21.95 26.55 21.95 25.05 23.0 L23.35 24.05 Q23.0 24.05 22.85 23.8 L22.8 23.6 Q22.25 23.6 22.3 23.05 L24.55 19.9 Q26.8 16.4 26.85 13.7 26.8 11.75 25.25 9.9 L23.6 8.2 Q23.6 7.7 24.05 7.7 L24.05 7.55 Q24.0 7.05 24.55 7.05 24.85 7.05 26.65 8.45 29.0 9.85 32.2 9.85 33.6 9.85 35.35 9.1 L38.9 7.45 42.7 4.25 Q43.15 4.2 43.2 4.75 M41.55 6.9 L39.15 8.45 Q35.0 10.85 32.35 10.85 29.25 10.85 26.55 9.45 L27.25 10.7 Q27.85 11.85 27.85 13.7 27.85 15.55 25.9 19.55 L24.55 22.0 24.7 21.95 Q26.6 21.0 27.9 20.95 L28.75 20.9 Q33.1 20.9 35.55 26.4 35.55 20.65 43.2 20.65 L43.95 20.7 41.6 18.25 Q39.75 16.15 39.75 14.25 L40.75 9.45 41.55 6.9 M21.65 16.45 L19.3 14.0 Q17.45 11.9 17.45 10.0 L18.45 5.2 19.25 2.65 16.85 4.2 Q12.7 6.6 10.05 6.6 6.95 6.6 4.25 5.2 L4.95 6.45 Q5.55 7.6 5.55 9.45 5.55 11.3 3.6 15.3 L2.25 17.75 2.4 17.7 Q4.3 16.75 5.6 16.7 L6.45 16.65 Q10.8 16.65 13.25 22.15 13.25 16.4 20.9 16.4 L21.65 16.45" fill="#000000" fill-rule="evenodd" stroke="none"/>
    <path d="M21.65 16.45 L20.9 16.4 Q13.25 16.4 13.25 22.15 10.8 16.65 6.45 16.65 L5.6 16.7 Q4.3 16.75 2.4 17.7 L2.25 17.75 3.6 15.3 Q5.55 11.3 5.55 9.45 5.55 7.6 4.95 6.45 L4.25 5.2 Q6.95 6.6 10.05 6.6 12.7 6.6 16.85 4.2 L19.25 2.65 18.45 5.2 17.45 10.0 Q17.45 11.9 19.3 14.0 L21.65 16.45 M41.55 6.9 L40.75 9.45 39.75 14.25 Q39.75 16.15 41.6 18.25 L43.95 20.7 43.2 20.65 Q35.55 20.65 35.55 26.4 33.1 20.9 28.75 20.9 L27.9 20.95 Q26.6 21.0 24.7 21.95 L24.55 22.0 25.9 19.55 Q27.85 15.55 27.85 13.7 27.85 11.85 27.25 10.7 L26.55 9.45 Q29.25 10.85 32.35 10.85 35.0 10.85 39.15 8.45 L41.55 6.9" fill="#ffffff" fill-rule="evenodd" stroke="none"/>
  </g>
</svg>
