<?xml version="1.0" encoding="UTF-8" standalone="no"?>
<svg xmlns:xlink="http://www.w3.org/1999/xlink" height="38.3px" width="35.9px" xmlns="http://www.w3.org/2000/svg">
  <g transform="matrix(1.0, 0.0, 0.0, 1.0, -8.2, 0.5)">
    <path d="M20.15 26.95 L20.25 26.85 20.4 26.7 20.5 26.6 20.65 26.45 20.75 26.4 20.9 26.35 20.95 26.35 21.15 26.45 21.3 26.55 21.4 26.7 21.5 26.8 21.65 26.95 21.75 27.05 21.85 27.2 21.9 27.3 22.0 27.45 22.1 27.55 22.15 27.7 22.25 27.8 22.4 27.95 22.6 28.05 22.75 28.2 22.9 28.3 22.95 28.4 23.1 28.55 23.25 28.65 23.4 28.8 23.45 28.9 23.55 29.05 23.6 29.15 23.7 29.3 23.85 29.4 23.95 29.55 24.1 29.65 24.15 29.8 24.35 29.9 24.55 30.05 24.85 30.15 25.1 30.3 25.3 30.4 25.45 30.55 25.5 30.65 25.6 30.65 25.8 30.75 25.95 30.85 26.1 30.95 26.25 31.0 26.35 31.05 26.35 30.95 26.4 30.85 26.4 30.7 26.45 30.6 26.55 30.45 26.65 30.35 26.75 30.2 26.85 30.1 26.85 29.95 26.85 29.85 26.9 29.7 26.9 29.6 26.95 29.45 27.05 29.35 27.1 29.2 27.2 29.1 27.3 28.95 27.35 28.85 27.35 28.7 27.4 28.6 27.45 28.45 27.5 28.35 27.55 28.2 27.6 28.1 27.7 27.95 27.8 27.85 27.85 27.7 27.9 27.6 27.95 27.45 28.0 27.35 28.05 27.2 28.1 27.1 28.2 26.95 28.3 26.85 28.35 26.7 28.45 26.6 28.55 26.45 28.7 26.35 28.8 26.25 28.85 26.2 29.0 26.2 29.05 26.2 29.25 26.2 29.45 26.25 29.75 26.35 29.95 26.45 30.1 26.55 30.2 26.7 30.3 26.8 30.5 26.95 30.6 27.05 30.65 27.2 30.75 27.3 30.8 27.45 30.9 27.55 31.05 27.7 31.2 27.8 31.25 27.95 31.35 28.05 31.45 28.2 31.5 28.3 31.6 28.4 31.7 28.55 31.75 28.65 31.8 28.8 31.95 28.9 32.0 29.05 32.1 29.15 32.2 29.3 32.25 29.4 32.35 29.55 32.4 29.65 32.5 29.8 32.5 29.9 32.6 30.05 32.75 30.15 32.85 30.3 33.0 30.4 33.05 30.55 33.15 30.65 33.2 30.8 33.25 30.9 33.3 31.05 33.35 31.15 33.45 31.3 33.55 31.4 33.65 31.55 33.7 31.65 33.75 31.8 33.85 31.9 33.85 32.05 33.9 32.15 33.95 32.3 33.95 32.4 34.05 32.55 34.1 32.65 34.2 32.8 34.25 32.9 34.3 33.05 34.4 33.15 34.45 33.3 34.55 33.4 34.6 33.55 34.7 33.65 34.7 33.8 34.8 33.9 34.9 34.05 34.95 34.15 35.05 34.3 35.2 34.4 35.2 34.55 35.3 34.65 35.35 34.8 35.4 34.9 35.45 35.05 35.55 35.15 35.7 35.3 35.75 35.4 35.8 35.55 35.8 35.6 35.9 35.65 36.1 35.75 36.2 35.85 36.3 36.0 36.35 36.1 36.4 36.25 36.45 36.35 36.45 36.5 36.4 36.6 36.25 36.75 36.05 36.8 35.8 36.75 35.7 36.6 35.6 36.55 35.55 36.5 35.3 36.4 35.2 36.3 35.05 36.15 34.95 36.05 34.95 35.9 34.95 35.8 34.85 35.65 34.7 35.55 34.6 35.4 34.55 35.3 34.55 35.15 34.5 35.05 34.45 34.9 34.4 34.8 34.3 34.65 34.2 34.55 34.1 34.4 34.0 34.3 33.95 34.15 33.9 34.05 33.85 33.9 33.75 33.8 33.7 33.65 33.6 33.55 33.55 33.4 33.45 33.3 33.4 33.15 33.35 33.05 33.25 32.9 33.25 32.8 33.15 32.65 33.1 32.55 33.1 32.45 33.05 32.45 32.9 32.5 32.4 32.5 32.15 32.4 32.0 32.35 31.75 32.25 31.65 32.15 31.55 32.3 31.5 32.4 31.35 32.55 31.25 32.65 31.15 32.75 31.05 32.8 30.9 32.85 30.5 32.85 30.25 32.75 30.15 32.6 30.05 32.5 29.9 32.4 29.8 32.55 29.8 32.65 29.8 32.8 29.8 32.9 29.7 33.05 29.55 33.15 29.45 33.3 29.3 33.4 29.2 33.5 29.05 33.55 28.85 33.55 28.6 33.45 28.55 33.35 28.35 33.3 28.1 33.25 28.0 33.1 27.9 33.0 27.85 32.85 27.8 32.75 27.65 32.65 27.6 32.8 27.55 32.9 27.5 33.05 27.5 33.15 27.45 33.3 27.35 33.4 27.3 33.55 27.3 33.65 27.25 33.8 27.2 33.9 27.15 34.05 27.15 34.15 27.1 34.3 27.05 34.4 26.85 34.55 26.7 34.65 26.6 34.75 26.55 34.8 26.35 34.8 26.25 34.8 26.0 34.75 25.85 34.6 25.75 34.5 25.65 34.35 25.65 34.25 25.65 34.1 25.6 34.1 25.6 34.25 25.55 34.35 25.5 34.5 25.4 34.6 25.35 34.75 25.3 34.85 25.2 35.0 25.15 35.1 25.1 35.25 25.05 35.35 25.0 35.5 25.0 35.6 24.95 35.75 24.85 35.85 24.8 36.0 24.8 36.1 24.75 36.25 24.65 36.35 24.65 36.5 24.6 36.6 24.5 36.75 24.5 36.85 24.5 37.0 24.4 37.1 24.35 37.25 24.25 37.35 24.2 37.5 24.1 37.55 24.05 37.6 23.9 37.65 23.65 37.55 23.5 37.45 23.45 37.3 23.45 37.2 23.45 37.05 23.45 36.95 23.55 36.8 23.65 36.7 23.65 36.55 23.65 36.45 23.75 36.3 23.85 36.2 23.85 36.05 23.85 35.95 23.9 35.8 23.95 35.7 23.95 35.55 24.1 35.45 24.15 35.3 24.15 35.2 24.25 35.05 24.3 34.95 24.35 34.8 24.4 34.7 24.45 34.55 24.55 34.45 24.6 34.35 24.65 34.2 24.7 34.1 24.75 33.95 24.8 33.85 24.85 33.7 25.0 33.6 25.05 33.55 24.85 33.45 24.7 33.35 24.6 33.4 24.6 33.55 24.5 33.65 24.45 33.8 24.35 33.9 24.25 34.05 24.2 34.15 24.1 34.3 24.05 34.4 23.9 34.5 23.75 34.55 23.6 34.55 23.35 34.45 23.15 34.35 22.95 34.2 22.85 34.1 22.8 33.95 22.7 33.85 22.6 33.7 22.4 33.6 22.15 33.65 22.15 33.8 22.1 33.9 22.0 34.05 21.9 34.15 21.8 34.3 21.65 34.4 21.65 34.55 21.55 34.65 21.45 34.75 21.4 34.8 21.2 34.8 20.95 34.8 20.7 34.75 20.5 34.6 20.4 34.5 20.3 34.35 20.25 34.25 20.2 34.1 20.2 34.0 20.2 33.85 20.2 33.75 20.1 33.6 20.05 33.5 19.95 33.6 19.9 33.7 19.8 33.85 19.65 33.95 19.35 34.05 19.1 34.15 18.95 34.15 18.7 34.1 18.45 33.95 18.35 33.85 18.3 33.7 18.3 33.6 18.3 33.45 18.3 33.35 18.3 33.1 18.3 32.85 18.3 32.7 18.3 32.65 18.2 32.65 18.05 32.6 18.0 32.65 17.95 32.8 17.9 32.9 17.8 33.05 17.75 33.15 17.65 33.3 17.6 33.4 17.55 33.55 17.5 33.65 17.5 33.8 17.4 33.9 17.3 34.05 17.25 34.15 17.15 34.3 17.0 34.4 17.0 34.55 16.9 34.65 16.8 34.8 16.75 34.9 16.65 35.05 16.55 35.15 16.5 35.3 16.45 35.4 16.35 35.55 16.25 35.65 16.15 35.8 16.0 35.9 15.9 36.05 15.85 36.15 15.75 36.3 15.75 36.4 15.65 36.55 15.55 36.65 15.5 36.8 15.45 36.9 15.35 37.05 15.25 37.15 15.2 37.3 15.15 37.4 15.05 37.55 14.95 37.6 14.8 37.65 14.55 37.55 14.4 37.45 14.35 37.3 14.35 37.2 14.35 37.05 14.35 36.95 14.45 36.8 14.55 36.7 14.55 36.55 14.65 36.45 14.75 36.3 14.85 36.2 14.95 36.05 15.0 35.95 15.05 35.8 15.1 35.7 15.15 35.55 15.25 35.45 15.4 35.3 15.55 35.2 15.6 35.05 15.7 34.95 15.75 34.8 15.85 34.7 15.95 34.55 16.0 34.45 16.1 34.35 16.2 34.2 16.25 34.1 16.3 33.95 16.4 33.85 16.5 33.7 16.6 33.6 16.7 33.45 16.75 33.35 16.5 33.25 16.35 33.1 16.2 33.0 16.15 33.1 16.15 33.2 16.05 33.35 16.0 33.45 15.75 33.6 15.55 33.65 15.1 33.65 15.0 33.8 14.95 33.9 14.9 34.05 14.85 34.15 14.85 34.3 14.8 34.4 14.75 34.55 14.6 34.6 14.45 34.65 14.05 34.65 13.8 34.55 13.7 34.45 13.65 34.35 13.6 34.2 13.55 34.1 13.5 33.95 13.35 33.85 13.25 33.9 13.05 34.05 12.9 34.15 12.8 34.25 12.75 34.3 12.5 34.35 12.3 34.45 12.25 34.5 12.05 34.55 11.85 34.7 11.75 34.8 11.6 34.8 11.3 34.8 11.05 34.75 10.95 34.7 10.85 34.75 10.85 34.85 10.75 35.0 10.65 35.1 10.6 35.25 10.5 35.35 10.4 35.5 10.35 35.6 10.3 35.75 10.2 35.85 10.1 36.0 10.05 36.1 9.95 36.25 9.85 36.35 9.75 36.5 9.65 36.6 9.6 36.75 9.5 36.85 9.4 37.0 9.3 37.1 9.2 37.25 9.2 37.35 9.2 37.5 9.1 37.6 9.0 37.75 8.8 37.8 8.65 37.8 8.4 37.75 8.25 37.6 8.2 37.5 8.2 37.35 8.2 37.25 8.2 37.1 8.3 37.0 8.4 36.85 8.55 36.75 8.65 36.6 8.7 36.5 8.8 36.35 8.85 36.25 8.95 36.1 9.1 36.0 9.15 35.85 9.25 35.75 9.35 35.6 9.4 35.5 9.5 35.35 9.6 35.25 9.6 35.1 9.7 35.0 9.8 34.85 9.85 34.75 9.95 34.6 10.05 34.5 10.1 34.35 10.15 34.25 10.3 34.1 10.4 34.0 10.55 33.85 10.6 33.75 10.65 33.6 10.75 33.5 10.85 33.35 10.9 33.25 11.0 33.1 11.1 33.0 11.15 32.85 11.15 32.75 11.15 32.6 11.25 32.5 11.35 32.35 11.55 32.3 11.6 32.25 11.65 32.25 11.75 32.1 11.85 32.0 11.95 31.85 12.05 31.75 12.15 31.6 12.3 31.5 12.4 31.4 12.45 31.25 12.55 31.15 12.55 31.0 12.65 30.9 12.75 30.75 12.8 30.65 12.95 30.5 13.05 30.4 13.15 30.25 13.25 30.15 13.3 30.0 13.4 29.9 13.55 29.75 13.55 29.65 13.6 29.5 13.7 29.4 13.8 29.25 14.05 29.2 14.05 29.15 14.8 29.15 15.0 29.25 15.1 29.4 15.2 29.5 15.35 29.65 15.5 29.75 15.7 29.9 15.9 30.0 16.0 30.15 16.2 30.25 16.3 30.4 16.4 30.5 16.5 30.65 16.7 30.75 16.8 30.9 16.9 31.0 17.0 31.15 17.2 31.25 17.3 31.4 17.45 31.5 17.55 31.6 17.65 31.65 17.7 31.6 17.75 31.45 17.75 31.35 17.75 31.2 17.8 31.1 17.9 30.95 18.0 30.85 18.1 30.7 18.2 30.6 18.2 30.45 18.25 30.35 18.25 30.2 18.3 30.1 18.4 29.95 18.45 29.85 18.5 29.7 18.6 29.6 18.65 29.45 18.7 29.35 18.75 29.2 18.85 29.1 18.9 28.95 18.95 28.85 19.0 28.7 19.1 28.6 19.2 28.45 19.2 28.35 19.3 28.2 19.4 28.1 19.45 27.95 19.5 27.85 19.55 27.7 19.65 27.6 19.7 27.45 19.75 27.35 19.9 27.2 20.0 27.1 20.15 26.95 M16.5 31.8 L16.4 31.65 16.25 31.55 16.15 31.4 16.0 31.3 15.9 31.15 15.75 31.05 15.65 30.9 15.5 30.8 15.35 30.65 15.15 30.55 15.0 30.4 14.8 30.3 14.6 30.15 14.45 30.05 14.3 30.15 14.2 30.25 14.05 30.4 14.05 30.5 13.95 30.65 13.8 30.75 13.75 30.9 13.6 31.0 13.55 31.15 13.45 31.25 13.35 31.35 13.3 31.5 13.25 31.6 13.15 31.75 13.05 31.85 12.95 32.0 12.8 32.1 12.75 32.25 12.6 32.35 12.55 32.5 12.45 32.6 12.35 32.75 12.3 32.85 12.2 33.0 12.15 33.1 12.05 33.25 11.9 33.35 11.85 33.45 11.85 33.55 11.85 33.65 12.05 33.65 12.2 33.6 12.3 33.55 12.5 33.45 12.6 33.35 12.65 33.2 12.65 33.1 12.8 32.95 12.85 32.85 12.9 32.7 13.05 32.6 13.15 32.45 13.3 32.35 13.45 32.35 13.55 32.35 13.8 32.4 13.9 32.55 14.0 32.65 14.0 32.8 14.0 32.9 14.0 33.05 14.0 33.15 14.05 33.3 14.2 33.35 14.3 33.25 14.35 33.1 14.35 33.0 14.45 32.85 14.55 32.75 14.65 32.6 14.75 32.5 14.8 32.4 14.9 32.35 15.05 32.35 15.25 32.4 15.5 32.4 15.5 32.3 15.6 32.15 15.65 32.05 15.65 31.9 15.75 31.8 15.9 31.7 16.05 31.7 16.05 31.65 16.25 31.75 16.45 31.85 16.55 32.0 16.6 32.1 16.65 32.25 16.75 32.35 16.95 32.4 17.1 32.5 17.15 32.55 17.2 32.45 17.2 32.4 17.0 32.3 16.9 32.15 16.75 32.05 16.7 31.9 16.5 31.8 M20.2 28.4 L20.1 28.55 20.0 28.65 19.95 28.8 19.9 28.9 19.8 29.05 19.75 29.15 19.7 29.3 19.65 29.4 19.55 29.55 19.5 29.65 19.45 29.8 19.4 29.9 19.3 30.05 19.25 30.15 19.2 30.3 19.15 30.4 19.1 30.55 19.05 30.65 19.0 30.8 18.95 30.9 18.9 31.05 18.8 31.15 18.8 31.25 18.85 31.35 18.85 31.45 18.85 31.6 18.85 31.7 18.85 31.85 18.75 31.95 18.75 32.0 18.95 32.1 19.05 32.2 19.15 32.35 19.15 32.45 19.15 32.6 19.15 32.7 19.15 32.85 19.15 32.95 19.15 33.1 19.15 33.2 19.25 33.1 19.3 32.95 19.4 32.85 19.45 32.7 19.5 32.6 19.65 32.45 19.75 32.35 19.95 32.25 20.1 32.2 20.45 32.2 20.65 32.3 20.75 32.4 20.85 32.55 20.85 32.65 20.85 32.8 20.85 32.9 20.85 33.05 20.85 33.15 20.9 33.3 20.95 33.4 21.0 33.55 21.0 33.65 21.0 33.8 21.15 33.8 21.25 33.65 21.3 33.55 21.3 33.4 21.4 33.3 21.4 33.15 21.5 33.05 21.65 32.9 21.85 32.8 22.1 32.7 22.6 32.7 22.8 32.8 22.95 32.9 23.1 33.05 23.2 33.15 23.35 33.3 23.5 33.4 23.65 33.4 23.75 33.3 23.8 33.15 23.85 33.05 23.85 32.9 23.85 32.8 23.9 32.65 24.0 32.55 24.1 32.4 24.35 32.35 24.75 32.35 24.95 32.4 25.1 32.5 25.3 32.45 25.35 32.35 25.35 32.2 25.45 32.1 25.45 31.95 25.45 31.85 25.5 31.7 25.6 31.6 25.45 31.55 25.25 31.5 25.0 31.4 24.85 31.3 24.8 31.15 24.7 31.05 24.5 30.9 24.2 30.8 23.95 30.65 23.8 30.55 23.65 30.4 23.5 30.3 23.4 30.15 23.3 30.05 23.15 29.9 23.05 29.8 22.9 29.65 22.85 29.55 22.75 29.4 22.7 29.3 22.55 29.15 22.4 29.05 22.3 28.9 22.15 28.8 22.0 28.7 21.8 28.55 21.65 28.4 21.6 28.3 21.5 28.2 21.4 28.05 21.3 27.95 21.2 27.8 21.15 27.7 21.05 27.55 20.95 27.45 20.85 27.45 20.7 27.55 20.6 27.7 20.5 27.8 20.45 27.95 20.35 28.05 20.3 28.2 20.2 28.3 20.2 28.4 M27.15 31.55 L27.25 31.45 27.35 31.4 27.55 31.35 27.75 31.35 27.95 31.4 28.05 31.55 28.15 31.65 28.2 31.8 28.25 31.9 28.3 32.05 28.35 32.15 28.5 32.3 28.55 32.4 28.75 32.5 28.95 32.5 29.0 32.4 29.0 32.3 29.05 32.15 29.05 32.05 29.1 31.9 29.1 31.8 29.1 31.65 29.1 31.55 29.1 31.4 29.25 31.3 29.4 31.15 29.5 31.1 29.55 31.05 29.75 31.0 29.95 31.1 30.1 31.2 30.25 31.35 30.25 31.45 30.3 31.6 30.4 31.7 30.55 31.85 30.7 31.9 30.75 31.85 30.8 31.75 30.8 31.6 30.9 31.5 31.0 31.4 31.0 31.25 31.1 31.15 31.25 31.05 31.4 31.0 31.75 31.0 31.95 31.1 32.1 31.2 32.15 31.35 32.25 31.45 32.45 31.6 32.6 31.6 32.6 31.55 32.5 31.4 32.5 31.3 32.45 31.15 32.35 31.05 32.3 30.9 32.2 30.8 32.05 30.65 31.95 30.55 31.8 30.4 31.75 30.3 31.7 30.15 31.65 30.05 31.55 29.9 31.5 29.8 31.45 29.65 31.3 29.55 31.25 29.4 31.15 29.3 31.05 29.15 31.0 29.05 30.9 28.9 30.85 28.8 30.75 28.65 30.7 28.55 30.6 28.4 30.5 28.3 30.35 28.2 30.25 28.05 30.1 27.95 30.05 27.8 29.95 27.7 29.9 27.55 29.8 27.45 29.65 27.3 29.55 27.2 29.4 27.2 29.15 27.15 29.05 27.25 28.95 27.4 28.85 27.5 28.8 27.65 28.75 27.75 28.7 27.9 28.65 28.0 28.6 28.15 28.55 28.25 28.45 28.4 28.35 28.5 28.3 28.65 28.3 28.75 28.25 28.9 28.2 29.0 28.15 29.15 28.1 29.25 28.05 29.4 27.95 29.5 27.85 29.65 27.8 29.75 27.75 29.9 27.75 30.0 27.7 30.15 27.65 30.25 27.6 30.4 27.55 30.5 27.5 30.65 27.4 30.75 27.3 30.9 27.25 31.0 27.2 31.15 27.2 31.25 27.1 31.4 27.1 31.5 27.0 31.6 26.9 31.75 26.8 31.85 26.8 31.95 26.8 32.1 26.8 32.2 26.8 32.35 26.7 32.45 26.65 32.6 26.65 32.7 26.7 32.7 26.75 32.6 26.85 32.45 26.85 32.35 26.85 32.2 26.95 32.1 26.95 31.95 27.05 31.85 27.1 31.7 27.1 31.6 27.15 31.55" fill="#000000" fill-rule="evenodd" stroke="none"/>
    <path d="M16.45 31.85 L16.25 31.75 16.05 31.65 16.05 31.7 15.9 31.7 15.75 31.8 15.65 31.9 15.65 32.05 15.6 32.15 15.5 32.3 15.5 32.4 15.25 32.4 15.05 32.35 14.9 32.35 14.8 32.4 14.75 32.5 14.65 32.6 14.55 32.75 14.45 32.85 14.35 33.0 14.35 33.1 14.3 33.25 14.2 33.35 14.05 33.3 14.0 33.15 14.0 33.05 14.0 32.9 14.0 32.8 14.0 32.65 13.9 32.55 13.8 32.4 13.55 32.35 13.45 32.35 13.3 32.35 13.15 32.45 13.05 32.6 12.9 32.7 12.85 32.85 12.8 32.95 12.65 33.1 12.65 33.2 12.6 33.35 12.5 33.45 12.3 33.55 12.2 33.6 12.05 33.65 11.85 33.65 11.85 33.55 11.85 33.45 11.9 33.35 12.05 33.25 12.15 33.1 12.2 33.0 12.3 32.85 12.35 32.75 12.45 32.6 12.55 32.5 12.6 32.35 12.75 32.25 12.8 32.1 12.95 32.0 13.05 31.85 13.15 31.75 13.25 31.6 13.3 31.5 13.35 31.35 13.45 31.25 13.55 31.15 13.6 31.0 13.75 30.9 13.8 30.75 13.95 30.65 14.05 30.5 14.05 30.4 14.2 30.25 14.3 30.15 14.45 30.05 14.6 30.15 14.8 30.3 15.0 30.4 15.15 30.55 15.35 30.65 15.5 30.8 15.65 30.9 15.75 31.05 15.9 31.15 16.0 31.3 16.15 31.4 16.25 31.55 16.4 31.65 16.5 31.8 16.45 31.85 M27.1 31.5 L27.1 31.4 27.2 31.25 27.2 31.15 27.25 31.0 27.3 30.9 27.4 30.75 27.5 30.65 27.55 30.5 27.6 30.4 27.65 30.25 27.7 30.15 27.75 30.0 27.75 29.9 27.8 29.75 27.85 29.65 27.95 29.5 28.05 29.4 28.1 29.25 28.15 29.15 28.2 29.0 28.25 28.9 28.3 28.75 28.3 28.65 28.35 28.5 28.45 28.4 28.55 28.25 28.6 28.15 28.65 28.0 28.7 27.9 28.75 27.75 28.8 27.65 28.85 27.5 28.95 27.4 29.05 27.25 29.15 27.15 29.4 27.2 29.55 27.2 29.65 27.3 29.8 27.45 29.9 27.55 29.95 27.7 30.05 27.8 30.1 27.95 30.25 28.05 30.35 28.2 30.5 28.3 30.6 28.4 30.7 28.55 30.75 28.65 30.85 28.8 30.9 28.9 31.0 29.05 31.05 29.15 31.15 29.3 31.25 29.4 31.3 29.55 31.45 29.65 31.5 29.8 31.55 29.9 31.65 30.05 31.7 30.15 31.75 30.3 31.8 30.4 31.95 30.55 32.05 30.65 32.2 30.8 32.3 30.9 32.35 31.05 32.45 31.15 32.5 31.3 32.5 31.4 32.6 31.55 32.6 31.6 32.45 31.6 32.25 31.45 32.15 31.35 32.1 31.2 31.95 31.1 31.75 31.0 31.4 31.0 31.25 31.05 31.1 31.15 31.0 31.25 31.0 31.4 30.9 31.5 30.8 31.6 30.8 31.75 30.75 31.85 30.7 31.9 30.55 31.85 30.4 31.7 30.3 31.6 30.25 31.45 30.25 31.35 30.1 31.2 29.95 31.1 29.75 31.0 29.55 31.05 29.5 31.1 29.4 31.15 29.25 31.3 29.1 31.4 29.1 31.55 29.1 31.65 29.1 31.8 29.1 31.9 29.05 32.05 29.05 32.15 29.0 32.3 29.0 32.4 28.95 32.5 28.75 32.5 28.55 32.4 28.5 32.3 28.35 32.15 28.3 32.05 28.25 31.9 28.2 31.8 28.15 31.65 28.05 31.55 27.95 31.4 27.75 31.35 27.55 31.35 27.35 31.4 27.25 31.45 27.15 31.55 27.1 31.5 M20.2 28.4 L20.2 28.3 20.3 28.2 20.35 28.05 20.45 27.95 20.5 27.8 20.6 27.7 20.7 27.55 20.85 27.45 20.95 27.45 21.05 27.55 21.15 27.7 21.2 27.8 21.3 27.95 21.4 28.05 21.5 28.2 21.6 28.3 21.65 28.4 21.8 28.55 22.0 28.7 22.15 28.8 22.3 28.9 22.4 29.05 22.55 29.15 22.7 29.3 22.75 29.4 22.85 29.55 22.9 29.65 23.05 29.8 23.15 29.9 23.3 30.05 23.4 30.15 23.5 30.3 23.65 30.4 23.8 30.55 23.95 30.65 24.2 30.8 24.5 30.9 24.7 31.05 24.8 31.15 24.85 31.3 25.0 31.4 25.25 31.5 25.45 31.55 25.6 31.6 25.5 31.7 25.45 31.85 25.45 31.95 25.45 32.1 25.35 32.2 25.35 32.35 25.3 32.45 25.1 32.5 24.95 32.4 24.75 32.35 24.35 32.35 24.1 32.4 24.0 32.55 23.9 32.65 23.85 32.8 23.85 32.9 23.85 33.05 23.8 33.15 23.75 33.3 23.65 33.4 23.5 33.4 23.35 33.3 23.2 33.15 23.1 33.05 22.95 32.9 22.8 32.8 22.6 32.7 22.1 32.7 21.85 32.8 21.65 32.9 21.5 33.05 21.4 33.15 21.4 33.3 21.3 33.4 21.3 33.55 21.25 33.65 21.15 33.8 21.0 33.8 21.0 33.65 21.0 33.55 20.95 33.4 20.9 33.3 20.85 33.15 20.85 33.05 20.85 32.9 20.85 32.8 20.85 32.65 20.85 32.55 20.75 32.4 20.65 32.3 20.45 32.2 20.1 32.2 19.95 32.25 19.75 32.35 19.65 32.45 19.5 32.6 19.45 32.7 19.4 32.85 19.3 32.95 19.25 33.1 19.15 33.2 19.15 33.1 19.15 32.95 19.15 32.85 19.15 32.7 19.15 32.6 19.15 32.45 19.15 32.35 19.05 32.2 18.95 32.1 18.75 32.0 18.75 31.95 18.85 31.85 18.85 31.7 18.85 31.6 18.85 31.45 18.85 31.35 18.8 31.25 18.8 31.15 18.9 31.05 18.95 30.9 19.0 30.8 19.05 30.65 19.1 30.55 19.15 30.4 19.2 30.3 19.25 30.15 19.3 30.05 19.4 29.9 19.45 29.8 19.5 29.65 19.55 29.55 19.65 29.4 19.7 29.3 19.75 29.15 19.8 29.05 19.9 28.9 19.95 28.8 20.0 28.65 20.1 28.55 20.2 28.4" fill="#ffffff" fill-rule="evenodd" stroke="none"/>
    <path d="M41.3 26.25 L43.6 35.35" fill="none" stroke="#000000" stroke-linecap="round" stroke-linejoin="round" stroke-width="1.0"/>
    <path d="M30.65 1.65 L32.8 4.3 M34.25 6.75 L36.3 11.05 M21.55 0.6 L23.8 0.1 M26.05 0.0 L28.6 0.4 M37.9 14.3 L40.15 21.9 M18.35 2.45 L19.7 1.3 M15.85 5.9 L16.8 4.2" fill="none" stroke="#000000" stroke-linecap="round" stroke-linejoin="round" stroke-width="1.0"/>
  </g>
</svg>
